<?xml version="1.0" encoding="UTF-8"?>
<!DOCTYPE svg PUBLIC "-//W3C//DTD SVG 1.1//EN" "http://www.w3.org/Graphics/SVG/1.1/DTD/svg11.dtd">
<!-- Creator: CorelDRAW -->
<svg xmlns="http://www.w3.org/2000/svg" xml:space="preserve" width="15.0284mm" height="16mm" version="1.1" style="shape-rendering:geometricPrecision; text-rendering:geometricPrecision; image-rendering:optimizeQuality; fill-rule:evenodd; clip-rule:evenodd"
viewBox="0 0 10.5 11.18"
 xmlns:xlink="http://www.w3.org/1999/xlink"
 xmlns:xodm="http://www.corel.com/coreldraw/odm/2003">
 <defs>
  <style type="text/css">
   <![CDATA[
    .fil1 {fill:black}
    .fil5 {fill:#567B46}
    .fil4 {fill:#68CA44}
    .fil2 {fill:#7FD160}
    .fil3 {fill:#97DA7B}
    .fil0 {fill:#F6F4F5}
   ]]>
  </style>
 </defs>
 <g id="Camada_x0020_1">
  <metadata id="CorelCorpID_0Corel-Layer"/>
  <g id="_1433368640480">
   <path class="fil0" d="M1.29 3.65c-0.09,0.02 -0.27,0.14 -0.32,0.2 0.1,0.24 -0.05,0.24 -0.17,0.4 -1.07,1.37 -0.07,2.8 0.72,3.01 0.46,-0.51 1.29,-0.26 1.41,-0.38 0.14,-0.13 -0.13,-0.77 -0.19,-0.91 -0.07,-0.17 -0.02,-0.33 0.12,-0.39 0.16,-0.07 0.31,0.05 0.4,0.13 0.23,0.17 0.13,0.11 0.3,0.27 0.22,0.22 0.35,0.38 0.54,0.64 0.09,0.12 0.19,0.23 0.09,0.38 0.03,0.06 0.07,0.1 0.11,0.14 0.06,0.05 0.08,0.1 0.17,0.12 0.21,-0.22 0.55,0.39 1.35,-0.05 0.22,-0.12 0.31,-0.24 0.45,-0.43 0.23,-0.32 0.5,-0.68 0.8,-0.95 0.13,-0.12 0.38,-0.33 0.56,-0.25 0.27,0.12 0.12,0.37 0.04,0.59 -0.41,1.1 0.12,0.65 0.72,0.77 0.24,0.05 0.46,0.17 0.57,0.32 0.55,-0.1 1.12,-0.86 1.2,-1.54 0.07,-0.6 -0.14,-1.11 -0.49,-1.52 -0.12,-0.14 -0.32,-0.17 -0.24,-0.41 -0.11,-0.08 -0.19,-0.11 -0.3,-0.18 -0.06,0.05 -0.1,0.12 -0.24,0.09 -0.08,-0.02 -0.16,-0.05 -0.24,-0.06 -0.18,-0.04 -0.38,-0.04 -0.57,-0.02 -0.17,0.02 -0.42,0.12 -0.47,-0.07 -0.02,-0.09 0.03,-0.16 0.1,-0.19 0.04,-0.02 0.08,-0.02 0.12,-0.03 0.02,-0 0.05,-0.01 0.07,-0.02 0.23,-0.09 -0.05,-1.07 -0.12,-1.24 -0.14,-0.36 -0.35,-0.65 -0.55,-0.87 -0.17,-0.2 -0.51,-0.44 -0.83,-0.59 -1.43,-0.67 -3.13,0.03 -3.68,1.48 -0.07,0.18 -0.28,1.03 -0.16,1.2 0.05,0.05 0.05,0.02 0.13,0.05 0.19,0.05 0.17,0.21 0.1,0.28 -0.13,0.13 -0.48,-0.1 -1.1,0.08 -0.17,0.05 -0.32,0.16 -0.41,-0.02z"/>
   <path class="fil1" d="M9.42 3.78c-0.07,0.24 0.12,0.27 0.24,0.41 0.36,0.41 0.56,0.92 0.49,1.52 -0.08,0.67 -0.65,1.44 -1.2,1.54 -0.11,-0.15 -0.33,-0.27 -0.57,-0.32 -0.6,-0.12 -1.13,0.32 -0.72,-0.77 0.08,-0.22 0.24,-0.47 -0.04,-0.59 -0.18,-0.08 -0.43,0.13 -0.56,0.25 -0.29,0.27 -0.56,0.63 -0.8,0.95 -0.14,0.19 -0.23,0.31 -0.45,0.43 -0.8,0.43 -1.15,-0.18 -1.35,0.05 -0.23,0.36 0.94,0.69 1.69,0.12 0.38,-0.29 0.83,-1.15 1.19,-1.34 -0.05,0.23 -0.13,0.39 -0.16,0.65 -0.11,1 1.13,0.21 1.57,0.85 -0.87,0 -0.56,0.08 -1.27,0.55 -0.4,0.27 -0.87,0.35 -1.44,0.35 -0.08,-0.03 -0.01,0.01 -0.06,-0.07 -0.06,-0.13 -0.17,-0.13 -0.25,-0.08 -0.1,0.07 -0.07,0.3 -0.07,0.44 -0.01,0.12 -0.03,0.11 -0.15,0.11 -0.12,0 -0.61,0.01 -0.69,-0.02 -0,-0 -0.01,-0 -0.02,-0.01 -0.08,-0.2 -0.01,-0.34 -0.07,-0.52 -0.1,-0.02 -0.11,-0.03 -0.23,-0.02 -0.02,0.04 -0.05,0.12 -0.08,0.16 -0.6,0 -1.02,-0.08 -1.46,-0.35 -0.72,-0.45 -0.37,-0.55 -1.27,-0.55 0.07,-0.1 0.16,-0.16 0.28,-0.22 0.56,-0.18 0.93,0.05 1.18,-0.2 0.27,-0.27 0.03,-0.76 -0.04,-1.08 0.16,0.08 0.38,0.36 0.52,0.53 0.27,0.33 0.29,0.53 0.54,0.43 0.1,-0.15 -0,-0.26 -0.09,-0.38 -0.19,-0.25 -0.32,-0.42 -0.54,-0.64 -0.17,-0.16 -0.07,-0.1 -0.3,-0.27 -0.09,-0.07 -0.24,-0.2 -0.4,-0.13 -0.14,0.06 -0.2,0.22 -0.12,0.39 0.06,0.14 0.33,0.77 0.19,0.91 -0.12,0.12 -0.94,-0.13 -1.41,0.38 -0.8,-0.21 -1.79,-1.64 -0.72,-3.01 0.12,-0.15 0.26,-0.16 0.17,-0.4 -0.17,-0.13 -0.32,0.05 -0.44,0.21 -0.25,0.32 -0.4,0.57 -0.48,1 -0.06,0.28 -0.04,0.41 -0.03,0.69 0.01,0.28 0.18,0.72 0.34,0.95 0.17,0.26 0.6,0.72 0.91,0.8 -0.01,0.02 -0.22,0.29 0.03,0.36 0.31,0.09 0.72,-0.12 1.03,0.13 0.76,0.6 1.08,0.78 2.15,0.78 0,0.16 0.07,0.31 0.22,0.35l0 1.92c0.01,0.08 0.06,0.15 0.15,0.15l0.05 0c0.11,-0.01 0.11,-0.08 0.16,-0.16 -0.05,-0.03 -0.03,-0.01 -0.04,-0.1l0.01 -1.77 0.44 0.01c0.03,0.25 0.01,0.69 0.01,0.95 0,0.11 0.03,0.88 -0.03,0.91 0.06,0.09 0.04,0.15 0.17,0.16l0.04 0c0.23,-0.02 0.15,-0.43 0.15,-0.79 0,-0.43 0,-0.86 0,-1.29 0.15,-0.04 0.22,-0.19 0.22,-0.35 0.71,0 1.25,-0.08 1.81,-0.51 0.11,-0.09 0.2,-0.16 0.32,-0.25 0.32,-0.26 0.55,-0.08 1.02,-0.14 0.08,-0.01 0.14,-0.05 0.15,-0.13 0.02,-0.12 -0.05,-0.16 -0.09,-0.22 0.74,-0.39 1.2,-0.99 1.27,-1.85 0.04,-0.48 -0.08,-0.92 -0.26,-1.25 -0.05,-0.08 -0.1,-0.16 -0.15,-0.24 -0.09,-0.12 -0.36,-0.47 -0.52,-0.46 -0.08,0 -0.1,0.02 -0.13,0.07z"/>
   <path class="fil2" d="M1.99 7.31c0.09,0.05 0.31,0.02 0.42,0.02 0.31,0.01 0.45,0.27 0.8,0.51 0.27,0.19 1.02,0.53 1.31,0.42 0.13,-0.01 0.13,-0 0.23,0.02 0.1,0.01 0.2,0 0.27,0.07 0.07,0.08 0.03,0.16 0.09,0.26 0.08,0.15 0.37,0.11 0.58,0.11 -0,-0.14 -0.04,-0.38 0.07,-0.44 0.08,-0.05 0.18,-0.05 0.25,0.08 0.04,0.09 -0.03,0.04 0.06,0.07 0.57,0 1.03,-0.09 1.44,-0.35 0.72,-0.47 0.4,-0.55 1.27,-0.55 -0.44,-0.64 -1.68,0.15 -1.57,-0.85 0.03,-0.26 0.1,-0.42 0.16,-0.65 -0.36,0.19 -0.81,1.05 -1.19,1.34 -0.75,0.57 -1.92,0.24 -1.69,-0.12 -0.09,-0.01 -0.11,-0.06 -0.17,-0.12 -0.04,-0.04 -0.08,-0.08 -0.11,-0.14 -0.25,0.1 -0.27,-0.1 -0.54,-0.43 -0.14,-0.17 -0.35,-0.45 -0.52,-0.53 0.08,0.32 0.31,0.82 0.04,1.08 -0.25,0.25 -0.62,0.02 -1.18,0.2z"/>
   <path class="fil1" d="M1.29 3.65c0.08,0.18 0.24,0.07 0.41,0.02 0.61,-0.18 0.97,0.05 1.1,-0.08 0.07,-0.07 0.08,-0.23 -0.1,-0.28 -0.08,-0.02 -0.09,0 -0.13,-0.05 -0.13,-0.16 0.09,-1.02 0.16,-1.2 0.55,-1.45 2.25,-2.15 3.68,-1.48 0.31,0.15 0.65,0.4 0.83,0.59 0.2,0.23 0.41,0.51 0.55,0.87 0.07,0.17 0.35,1.15 0.12,1.24 -0.02,0.01 -0.05,0.01 -0.07,0.02 -0.04,0.01 -0.08,0.01 -0.12,0.03 -0.07,0.03 -0.12,0.1 -0.1,0.19 0.04,0.2 0.29,0.09 0.47,0.07 0.19,-0.02 0.39,-0.01 0.57,0.02 0.09,0.02 0.17,0.05 0.24,0.06 0.14,0.03 0.17,-0.04 0.24,-0.09 0,-0.17 -0.02,-0.22 -0.31,-0.28 -0.17,-0.04 -0.32,-0.07 -0.52,-0.07 0,-0.74 -0.12,-1.31 -0.49,-1.87 -0.58,-0.87 -1.48,-1.33 -2.39,-1.38l-0.34 0c-0.9,0.05 -1.79,0.51 -2.38,1.37 -0.38,0.56 -0.5,1.13 -0.5,1.88 -0.15,0 -1.12,0.11 -0.91,0.39z"/>
   <path class="fil1" d="M3.5 3.64c-0.1,-0.03 -0.23,-0.14 -0.31,0.02 -0.09,0.16 0.07,0.22 0.12,0.28 -0.03,0.11 -0.13,0.25 -0.14,0.38 -0.01,0.16 0.15,0.23 0.27,0.14 0.06,-0.05 0.12,-0.27 0.17,-0.36 0.67,-1.31 2.57,-1.35 3.28,-0.01 0.04,0.08 0.12,0.31 0.16,0.36 0.1,0.1 0.28,0.05 0.28,-0.11 -0,-0.12 -0.11,-0.29 -0.14,-0.39 0.11,-0.06 0.34,-0.15 0.26,-0.33 -0.08,-0.21 -0.33,0.01 -0.44,0.05 -0.21,-0.2 -0.24,-0.34 -0.7,-0.61 -0.76,-0.45 -1.86,-0.33 -2.49,0.27l-0.32 0.34z"/>
   <path class="fil3" d="M5.05 11.02l0.39 0c0.03,-0.13 0.01,-1.59 0.01,-1.85l-0.41 0c0,0.26 -0.02,1.72 0.01,1.85z"/>
   <path class="fil4" d="M4.52 8.26c-0.29,0.11 -1.03,-0.23 -1.31,-0.42 -0.35,-0.24 -0.5,-0.49 -0.8,-0.51 -0.11,-0.01 -0.34,0.03 -0.42,-0.02 -0.12,0.06 -0.21,0.11 -0.28,0.22 0.9,0 0.56,0.09 1.27,0.55 0.43,0.27 0.85,0.36 1.46,0.35 0.03,-0.05 0.06,-0.12 0.08,-0.16z"/>
   <path class="fil4" d="M5.69 8.72c-0.21,0 -0.49,0.04 -0.58,-0.11 -0.06,-0.1 -0.01,-0.18 -0.09,-0.26 -0.06,-0.07 -0.16,-0.06 -0.27,-0.07 0.06,0.19 -0.01,0.32 0.07,0.52 0,0.01 0.01,0.01 0.02,0.01 0.09,0.03 0.58,0.02 0.69,0.02 0.12,-0 0.14,0.01 0.15,-0.11z"/>
   <path class="fil5" d="M5.05 11.02c-0.03,-0.13 -0.01,-1.59 -0.01,-1.85l0.41 0c0,0.27 0.02,1.72 -0.01,1.85 0.07,-0.03 0.03,-0.8 0.03,-0.91 0,-0.27 0.03,-0.71 -0.01,-0.95l-0.44 -0.01 -0.01 1.77c0,0.09 -0.01,0.06 0.04,0.1z"/>
  </g>
 </g>
</svg>
