<?xml version="1.0" encoding="UTF-8"?>
<!DOCTYPE svg PUBLIC "-//W3C//DTD SVG 1.1//EN" "http://www.w3.org/Graphics/SVG/1.1/DTD/svg11.dtd">
<!-- Creator: CorelDRAW -->
<svg xmlns="http://www.w3.org/2000/svg" xml:space="preserve" width="12.3088mm" height="16mm" version="1.1" style="shape-rendering:geometricPrecision; text-rendering:geometricPrecision; image-rendering:optimizeQuality; fill-rule:evenodd; clip-rule:evenodd"
viewBox="0 0 108.25 140.71"
 xmlns:xlink="http://www.w3.org/1999/xlink"
 xmlns:xodm="http://www.corel.com/coreldraw/odm/2003">
 <defs>
  <style type="text/css">
   <![CDATA[
    .fil0 {fill:black}
    .fil2 {fill:#C9614D}
    .fil1 {fill:#FDA95B}
    .fil3 {fill:#FF9838}
   ]]>
  </style>
 </defs>
 <g id="Camada_x0020_1">
  <metadata id="CorelCorpID_0Corel-Layer"/>
  <g id="_1433414885376">
   <path class="fil0" d="M19.73 79.96c1.75,-0.15 2.04,-0.56 2.43,-2.23 1.84,-7.96 4.4,-16.06 14.89,-15.94 12.28,0.14 17.57,6.53 14.61,19.08 -2,8.51 -9.33,16.09 -15.95,19.19 -9.2,4.3 -13.26,-1.68 -14.19,-9.51 -0.36,-2.99 0.64,-5.92 -2.33,-6.48 -2.15,0.25 -2.47,1.87 -2.13,4.34 0.74,5.27 0.65,7.98 3.82,12.67 0.61,0.91 1.07,1.19 1.6,1.97l-5.22 2.47c-4.18,2.07 -10.1,6.6 -12.96,10.13 -5.94,7.35 -6.03,14.84 1.69,20.39 3.88,2.79 9.29,4.38 15.01,4.67l3.91 0c8.1,-0.41 16.26,-3.39 21.13,-9.15 0.84,-0.99 2.71,-3.43 2.83,-4.87 1.94,1.42 6.32,11.73 23.43,13.94 0.2,0.03 0.41,0.05 0.61,0.07l6.06 0c4.97,-0.5 9.85,-2.14 13.78,-4.48 2.17,-1.3 5.47,-3.75 6.96,-5.69 0.88,-1.15 1.76,-2.1 2.67,-3.37 0.92,-1.28 1.57,-2.65 2.27,-4.05 0.8,-1.61 1.18,-2.57 1.82,-4.5 0.6,-1.8 1.07,-3.4 -1,-4.05 -3.98,-0.06 -2.01,3.96 -6.79,10.55 -2.37,3.27 -5.19,6.03 -9.11,8.07 0.07,-0.86 0.14,-1.45 0.62,-1.99 -0.05,-0.74 1.55,-10.34 1.76,-14.7 0.12,-2.57 0.36,-2.4 -0.97,-4.08 -3.47,-0.54 -3.07,1.6 -3.18,4.34 -0.16,3.86 -1.7,16.81 -3.46,18.48 -1.6,0.94 -4.32,1.1 -6.42,1.24l0 -69.98c0,-3.53 1.07,-7.42 -3.05,-6.84 -1.33,1.56 -1.1,1.33 -1.08,3.82l0 72.91c-1.23,0.09 -4.68,-0.4 -5.79,-0.83 -1.4,-0.54 -1.69,-3.08 -2.07,-4.54 -2.9,-11.15 -2.57,-25.03 -0.56,-36.14 1.47,-8.12 3.56,-13.71 3.73,-22.59 0.18,-9.6 -1.22,-14.39 -3.01,-23.02 -0.38,-1.84 -1.32,-3.88 -3.51,-2.57 -1.46,0.88 -0.55,3.45 -0.14,5.13 0.85,3.56 1.77,7.11 2.19,10.95 0.95,8.61 0.21,15.63 -1.61,23.65 -2.82,12.4 -4.23,23.12 -2.78,36.04 0.44,3.93 1.31,7.11 1.98,10.71 -10.37,-5.03 -15.62,-17.59 -14.19,-29.59 1.88,-15.8 11.11,-18.59 11.12,-33.25 0,-14.73 -9.31,-17.46 -11.14,-33.49 -1.6,-14.03 5.52,-25.02 14.21,-29.35 -1.98,10.36 -3.11,16.38 -2.31,27.39 0.27,3.76 4.37,3.76 4.1,-0.82 -0.54,-9.13 0.07,-18.29 2.69,-26.96 0.61,-2.01 0.51,-1.84 2.66,-2.31 1.32,-0.29 2.99,-0.61 4.45,-0.5l0 45.71c-0,2.81 -0.48,3.32 1.06,5.21 3.15,0.43 3.09,-1.08 3.07,-3.83l-0 -47.18c2.14,0.14 4.78,0.36 6.43,1.23 2.35,4.03 3.49,16.22 3.55,21.76 0.29,23.28 -8.71,34.45 -4.05,56.53 0.3,1.42 1.98,9.22 2.4,9.96 0.76,1.35 3.24,1.5 3.72,-0.36 0.26,-1.01 -0.61,-4.1 -0.88,-5.24 -6.5,-27.32 1.84,-31.35 2.85,-55.4 0.17,-4.11 0.1,-8.25 -0.24,-12.33 -0.24,-2.93 -1.59,-8.76 -1.51,-10.87 -0.47,-0.52 -0.54,-1.15 -0.63,-1.99 12.75,6.44 17.3,22.36 12.34,37.3 -1.65,4.98 -3.65,7.65 -5.83,11.75 -4.75,8.96 -4.82,19.38 0.3,28.12 2.27,3.88 4.31,7.22 5.8,12.06 3.07,10 0.18,13.09 3.85,13.73 3.03,-0.2 2.16,-3.54 1.95,-6.06 -1.06,-12.61 -6.02,-16.96 -9.45,-24.9 -1.15,-2.66 -1.31,-3.75 -1.59,-7.21 -1.25,-15.6 11.29,-18.87 11.3,-39.88 0,-4.85 -1.55,-10.81 -3.21,-14.1 -3.93,-7.77 -9.39,-13.7 -17.85,-16.5 -2.87,-0.95 -5.99,-1.6 -9.2,-1.82l-4.95 0c-2.75,0.2 -5.51,0.74 -8.18,1.69 -6.31,2.24 -10.96,5.84 -14.96,11.15 -4.71,6.26 -7.8,16.64 -5.57,27.72 2.5,12.48 9.94,19.38 10.05,24.58 -1.23,-0.9 -0.82,-1.81 -4.34,-4.18 -3.44,-2.31 -9.37,-3.61 -13.38,-3.34 -3.83,0.26 -4.54,0.29 -7.34,1.43 -1.92,0.78 -3.63,2.14 -4.97,3.55 -2.91,3.03 -4.55,7.42 -5.64,11.4 -0.64,2.34 -1.9,5.36 1.04,5.98z"/>
   <path class="fil1" d="M90.19 131.2l0.16 0.46c0.97,-1.02 1.66,-1.47 2.65,-2.6 0.96,-1.08 1.5,-1.66 2.33,-2.89 1.42,-2.11 2.62,-4.21 3.6,-6.85 2.02,-5.44 2.52,-11.93 1.48,-18.07 -2.52,-14.89 -10.76,-17.38 -10.76,-30.9 -0,-7.22 2.23,-11.07 5.08,-15.98 5.8,-10.01 8.46,-21.84 4.13,-33.2 -2.35,-6.16 -4.65,-8.24 -8.59,-12.14l-0.07 0.45c-0.08,2.11 1.26,7.94 1.51,10.87 0.34,4.07 0.42,8.21 0.24,12.33 -1.01,24.05 -9.35,28.08 -2.85,55.4 0.27,1.14 1.14,4.23 0.88,5.24 -0.48,1.86 -2.96,1.71 -3.72,0.36 -0.42,-0.74 -2.1,-8.54 -2.4,-9.96 -4.65,-22.07 4.34,-33.25 4.05,-56.53 -0.07,-5.54 -1.21,-17.73 -3.55,-21.76 -1.65,-0.87 -4.28,-1.09 -6.43,-1.23l0 47.18c0.01,2.75 0.08,4.25 -3.07,3.83 -1.54,-1.89 -1.06,-2.4 -1.06,-5.21l0 -45.71c-1.46,-0.11 -3.12,0.22 -4.45,0.5 -2.15,0.47 -2.06,0.3 -2.66,2.31 -2.62,8.67 -3.23,17.84 -2.69,26.96 0.27,4.58 -3.83,4.58 -4.1,0.82 -0.8,-11.01 0.33,-17.03 2.31,-27.39 -8.69,4.33 -15.81,15.32 -14.21,29.35 1.83,16.03 11.15,18.76 11.14,33.49 -0,14.66 -9.23,17.45 -11.12,33.25 -1.43,11.99 3.82,24.56 14.19,29.59 -0.67,-3.6 -1.54,-6.78 -1.98,-10.71 -1.45,-12.93 -0.04,-23.64 2.78,-36.04 1.83,-8.02 2.56,-15.05 1.61,-23.65 -0.42,-3.84 -1.34,-7.39 -2.19,-10.95 -0.4,-1.68 -1.31,-4.25 0.14,-5.13 2.19,-1.31 3.12,0.73 3.51,2.57 1.8,8.63 3.19,13.42 3.01,23.02 -0.17,8.88 -2.26,14.47 -3.73,22.59 -2.01,11.11 -2.34,24.99 0.56,36.14 0.38,1.46 0.66,4 2.07,4.54 1.12,0.43 4.56,0.92 5.79,0.83l-0 -72.91c-0.02,-2.48 -0.25,-2.25 1.08,-3.82 4.12,-0.57 3.05,3.31 3.05,6.84l0 69.98c2.1,-0.14 4.81,-0.3 6.42,-1.24 1.76,-1.67 3.3,-14.62 3.46,-18.48 0.11,-2.74 -0.28,-4.89 3.18,-4.34 1.32,1.68 1.09,1.51 0.97,4.08 -0.21,4.36 -1.8,13.96 -1.76,14.7z"/>
   <path class="fil2" d="M19.73 79.96c-0.22,0.97 -0.46,3.08 -0.55,4.11 2.97,0.56 1.98,3.49 2.33,6.48 0.93,7.83 4.99,13.81 14.19,9.51 6.62,-3.1 13.95,-10.68 15.95,-19.19 2.95,-12.55 -2.34,-18.94 -14.61,-19.08 -10.48,-0.12 -13.05,7.98 -14.89,15.94 -0.39,1.67 -0.68,2.08 -2.43,2.23z"/>
   <path class="fil2" d="M29.56 105.65c-8.18,0.95 -18.01,7.38 -22.72,13.65 -7.84,10.42 3.68,16.42 14.04,17.18 5.43,0.39 11.06,-0.47 15.24,-2.75 10.74,-5.85 12.38,-12.62 5.46,-22.3 -2.28,-3.19 -6.05,-6.48 -12.02,-5.78z"/>
   <path class="fil3" d="M90.2 9.49l0.07 -0.45c3.95,3.9 6.25,5.98 8.59,12.14 4.33,11.36 1.67,23.19 -4.13,33.2 -2.84,4.9 -5.08,8.76 -5.08,15.98 0,13.52 8.24,16.01 10.76,30.9 1.04,6.14 0.53,12.63 -1.48,18.07 -0.98,2.64 -2.17,4.73 -3.6,6.85 -0.83,1.23 -1.37,1.82 -2.33,2.89 -1,1.12 -1.68,1.58 -2.65,2.6l-0.16 -0.46c-0.49,0.54 -0.55,1.13 -0.62,1.99 3.92,-2.04 6.74,-4.8 9.11,-8.07 4.78,-6.59 2.81,-10.61 6.79,-10.55 0,-0.78 0.32,-3.62 0.55,-4.11 -3.66,-0.64 -0.77,-3.73 -3.85,-13.73 -1.49,-4.84 -3.52,-8.18 -5.8,-12.06 -5.12,-8.74 -5.05,-19.15 -0.3,-28.12 2.18,-4.11 4.18,-6.77 5.83,-11.75 4.96,-14.95 0.41,-30.86 -12.34,-37.3 0.1,0.84 0.16,1.47 0.63,1.99z"/>
  </g>
 </g>
</svg>
