<?xml version="1.0" encoding="UTF-8"?>
<!DOCTYPE svg PUBLIC "-//W3C//DTD SVG 1.1//EN" "http://www.w3.org/Graphics/SVG/1.1/DTD/svg11.dtd">
<!-- Creator: CorelDRAW -->
<svg xmlns="http://www.w3.org/2000/svg" xml:space="preserve" width="16mm" height="15.5011mm" version="1.1" style="shape-rendering:geometricPrecision; text-rendering:geometricPrecision; image-rendering:optimizeQuality; fill-rule:evenodd; clip-rule:evenodd"
viewBox="0 0 34.02 32.96"
 xmlns:xlink="http://www.w3.org/1999/xlink"
 xmlns:xodm="http://www.corel.com/coreldraw/odm/2003">
 <defs>
  <style type="text/css">
   <![CDATA[
    .fil1 {fill:#19AABE}
    .fil0 {fill:#1B1918}
    .fil2 {fill:#FEFEFE}
   ]]>
  </style>
 </defs>
 <g id="Camada_x0020_1">
  <metadata id="CorelCorpID_0Corel-Layer"/>
  <g id="_1433415004032">
   <path class="fil0" d="M15.02 0.87c-0.98,-0.52 -1.98,-0.59 -2.94,0.05 -0.4,0.27 -0.63,0.52 -0.85,0.95 -0.73,0 -1.51,-0.35 -2.57,0.55 -0.44,0.37 -0.73,0.8 -0.88,1.44 -1.74,0 -2.72,1.22 -2.86,2.86 -0.93,0.08 -2.06,1.22 -2.06,2.59 0,0.4 0.07,0.48 0.07,0.86 -1.4,0.74 -1.77,2.32 -1,3.79 -0.81,0.93 -0.5,0.77 -0.8,1.4 -0.99,0 -1.12,0.15 -1.13,0.66l0 0.41c0,3.53 1.4,7.07 3.34,9.68l1.1 1.3c0.18,0.18 0.22,0.29 0.4,0.47 0.68,0.71 2.26,1.99 3.14,2.51l1.62 0.9c0.28,0.14 0.89,0.42 1.17,0.49l-0.09 0.05c-0.23,0.1 -0.5,0.13 -0.56,0.51 -0.05,0.34 0.23,0.64 0.58,0.64l12.63 0c0.34,0 0.6,-0.28 0.58,-0.59 -0.02,-0.48 -0.47,-0.48 -0.65,-0.61 1.01,-0.24 2.76,-1.38 3.67,-1.98 0.53,-0.35 1.81,-1.47 2.23,-1.89 0.17,-0.17 0.21,-0.26 0.36,-0.43 2.95,-3.19 4.5,-7.06 4.5,-11.65 0,-0.5 -0.84,-0.47 -1.13,-0.47 -0.06,-0.13 -0.08,-0.25 -0.13,-0.4 -0.21,-0.53 -0.3,-0.58 -0.66,-1 0.78,-1.47 0.4,-3.05 -1,-3.79 0,-0.76 0.34,-1.57 -0.58,-2.61 -0.29,-0.33 -0.87,-0.8 -1.41,-0.85 -0.14,-1.65 -1.11,-2.86 -2.86,-2.86 -0.15,-0.63 -0.43,-1.04 -0.85,-1.41 -1.06,-0.94 -1.89,-0.58 -2.61,-0.58 -0.74,-1.4 -2.32,-1.77 -3.79,-1 -0.35,-0.23 -0.04,-0.17 -0.81,-0.59 -0.67,-0.36 -1.65,-0.38 -2.32,-0.02 -0.78,0.41 -0.5,0.38 -0.85,0.61z"/>
   <path class="fil1" d="M32.92 16.48l-31.85 0c0.32,4.95 2.36,8.45 4.84,10.84 9.74,9.41 26.22,3.4 27.01,-10.84z"/>
   <path class="fil2" d="M2.3 15.38l29.42 0c-0.34,-0.93 -1.41,-0.87 -0.76,-1.76 0.58,-0.79 0.59,-1.62 -0.06,-2.25 -0.38,-0.37 -1.1,-0.38 -1.11,-0.93 -0.01,-0.49 0.49,-0.79 0.17,-1.66 -0.17,-0.46 -0.58,-0.86 -1.07,-0.99 -0.79,-0.21 -1.04,-0.06 -0.94,-1.03 0.07,-0.65 -0.27,-1.16 -0.6,-1.42 -0.64,-0.5 -0.82,-0.27 -1.57,-0.3 -0.69,-0.03 -0.47,-0.79 -0.75,-1.3 -0.88,-1.62 -2.36,-0.28 -2.87,-0.72 -0.3,-0.25 -0.19,-0.77 -0.86,-1.2 -0.5,-0.32 -1.15,-0.34 -1.66,-0.05 -0.5,0.27 -0.75,0.77 -1.28,0.08 -0.75,-0.99 -1.95,-0.96 -2.67,-0.04 -0.54,0.71 -0.73,0.31 -1.27,-0.01 -0.5,-0.3 -1.16,-0.3 -1.67,0 -0.73,0.44 -0.52,0.84 -0.86,1.2 -0.4,0.42 -0.95,-0.14 -1.57,-0.1 -1.84,0.12 -1.2,1.99 -1.97,2.14 -0.63,0.12 -0.91,-0.27 -1.65,0.28 -0.32,0.24 -0.67,0.71 -0.64,1.33 0.04,0.93 0.09,0.93 -0.82,1.12 -0.53,0.11 -0.95,0.47 -1.14,0.92 -0.38,0.87 0.09,1.16 0.13,1.7 0.06,0.81 -1.93,0.66 -1.55,2.49 0.14,0.67 0.76,0.9 0.53,1.42 -0.15,0.34 -0.63,0.35 -0.9,1.07z"/>
   <path class="fil0" d="M9.49 7.83c-0.62,0.31 -0.25,1.22 0.44,0.98 0.62,-0.22 0.28,-1.34 -0.44,-0.98z"/>
   <path class="fil0" d="M8.69 25.69c-0.65,0.21 -0.41,1.2 0.33,1.03 0.65,-0.15 0.37,-1.26 -0.33,-1.03z"/>
   <path class="fil0" d="M6.6 23.51c-0.81,0.22 -0.43,1.2 0.21,1.04 0.71,-0.17 0.41,-1.21 -0.21,-1.04z"/>
   <path class="fil0" d="M24.1 9.97c-0.83,0.24 -0.38,1.19 0.25,1.03 0.67,-0.18 0.39,-1.21 -0.25,-1.03z"/>
   <path class="fil0" d="M9.56 12.14c-0.66,0.22 -0.4,1.22 0.32,1.02 0.62,-0.17 0.38,-1.26 -0.32,-1.02z"/>
   <path class="fil0" d="M7.47 9.96c-0.8,0.19 -0.44,1.18 0.21,1.04 0.64,-0.14 0.46,-1.2 -0.21,-1.04z"/>
  </g>
 </g>
</svg>
