<?xml version="1.0" encoding="UTF-8"?>
<!DOCTYPE svg PUBLIC "-//W3C//DTD SVG 1.1//EN" "http://www.w3.org/Graphics/SVG/1.1/DTD/svg11.dtd">
<!-- Creator: CorelDRAW -->
<svg xmlns="http://www.w3.org/2000/svg" xml:space="preserve" width="16mm" height="13.7554mm" version="1.1" style="shape-rendering:geometricPrecision; text-rendering:geometricPrecision; image-rendering:optimizeQuality; fill-rule:evenodd; clip-rule:evenodd"
viewBox="0 0 86.47 74.34"
 xmlns:xlink="http://www.w3.org/1999/xlink"
 xmlns:xodm="http://www.corel.com/coreldraw/odm/2003">
 <defs>
  <style type="text/css">
   <![CDATA[
    .str0 {stroke:#FCD66F;stroke-width:1.08;stroke-miterlimit:22.9256}
    .fil0 {fill:black}
    .fil5 {fill:#C6865C}
    .fil4 {fill:#CE9874}
    .fil2 {fill:#FCD66F}
    .fil3 {fill:#FCD66F}
    .fil1 {fill:#FDE487}
   ]]>
  </style>
 </defs>
 <g id="Camada_x0020_1">
  <metadata id="CorelCorpID_0Corel-Layer"/>
  <path class="fil0" d="M37.83 30.88c0.38,1.32 1.55,1.05 2.82,0.78 1.07,-0.22 2.22,-0.49 3.26,-0.79 2.09,-0.59 4.11,-1.27 6.04,-2.07 2.92,-1.22 5.45,-2.49 8.08,-4.08 0.91,-0.55 1.69,-1.17 2.56,-1.64 0.34,-0.32 2.77,-2.17 3.11,-2.32 -0.75,1.69 -3.01,4.41 -4.1,5.71 -4.27,5.09 -10.31,9.71 -16.57,12.83 -7.04,3.51 -17.8,6.38 -26.05,4.17 -0.75,-0.2 -1.04,-0.57 -1.58,-0.95l-2.74 -2.25c-0.47,-0.08 -0.48,-0.19 -1.16,-0.79l-5.34 -5.12c-0.38,-0.43 -1.73,-1.9 -1.89,-2.29 2.09,-0.86 2.42,-0.53 3.83,-2.2 0.87,-1.03 1.5,-2.86 1.67,-4.6 2.86,1.2 5.99,3.82 11.01,5.6 3.32,1.18 7.19,1.69 10.8,1.72 1.52,0.01 2.6,0.15 2.82,-1.37 -0.14,-1.59 -1.77,-1.15 -3.5,-1.18 -0.94,-0.01 -1.17,-0.16 -2.19,-0.17 -0.82,-0.01 -1.47,-0.14 -2.27,-0.26 -5.38,-0.86 -7.8,-2.38 -12.03,-4.69 -2.59,-1.41 -5.58,-3.84 -8.97,-3.28 -2.67,0.44 -5.1,3.22 -5.44,6.35l0 1.52c0.04,0.34 0.1,0.68 0.2,1.01 0.44,1.57 1.29,2.39 2.39,3.69 2.19,2.6 5.33,5.52 7.93,7.78 0.51,0.44 0.97,0.71 1.31,1.22 -0.3,0.16 -0.48,0.21 -0.82,0.37 -0.26,0.12 -0.45,0.25 -0.74,0.44 -3.08,2.05 -5.26,8.45 0.92,12.17 2.45,1.47 8.77,5.02 11.28,5.61 -1.28,1.91 -2.17,3.69 -1.45,6.52 1.48,5.79 6.92,5.12 11.15,5.74 4.17,0.62 12.1,0.15 16,-0.41 2.59,-0.37 4.63,-0.86 7,-1.45 3.29,-0.81 6.2,-2.09 9.13,-3.54 1.01,-0.5 2.15,-0.9 1.58,-2.38 -0.83,-0.59 -0.99,-0.8 -2.03,-0.27 -0.69,0.35 -1.31,0.69 -2.03,1.02 -8.11,3.68 -16.65,5.01 -25.68,4.66 -2.07,-0.08 -9.61,-0.36 -10.72,-1.45 0.5,-0.28 1.17,-0.42 1.73,-0.73 0.75,-0.41 1.04,-0.8 1.66,-1.11 0.44,-1.28 1.97,-1.79 2.15,-6.4 6.14,-1.32 10.69,-2.9 15.2,-5.91 1.14,-0.76 2.02,-1.37 3.09,-2.14 3.27,-2.36 5.6,-4.79 8.17,-7.71 6.24,-7.07 11.47,-17.41 12.26,-30.13 1.14,-0.28 7.55,-0.84 8.61,-0.7 0.46,-0.31 1.65,-0.27 2.33,-0.31 0.37,2.19 1.05,4.49 1.47,6.82 0.43,2.42 0.72,4.92 0.85,7.43 0.52,9.47 -1.46,18.77 -6.91,26.2 -1.8,2.45 -3.71,4.53 -6.01,6.32 -0.89,0.69 -1.73,1.07 -1.21,2.61 1.24,1.12 2.51,-0.17 3.94,-1.56l2.29 -2.11c5.55,-5.77 9.48,-14.53 10.24,-22.69 0.57,-6.11 0.41,-10.28 -0.59,-16.27 -0.22,-1.33 -1.18,-6.34 -1.59,-7.19 2.21,-0.52 2.57,-2.57 2.9,-4.54 0.34,-2.06 0.98,-4.72 -0.26,-6.38 -1.31,-1.75 -2.88,-1.71 -5.37,-2.06 -2.08,-0.29 -11.9,-1.95 -13.25,-1.65 -2.15,0.46 -2.99,2.31 -3.26,4.34 -0.36,2.65 -1.53,7.67 -0.79,9.56 0.42,1.09 0.85,1.59 1.8,2.09 -1.86,2.77 -9.33,7.28 -12.33,8.78 -3.51,1.75 -7.7,3.3 -11.56,4.15 -1.27,0.28 -3.73,0.47 -3.14,1.93z"/>
  <path class="fil1" d="M28.81 68.4c0.96,0.85 10.58,0.17 12.4,-0.03 17.53,-1.96 32.61,-10.98 37.18,-29.21 0.94,-3.75 1.35,-7.96 1.28,-12 -0.04,-2.32 -0.6,-10.03 -1.39,-11.75 -1.05,-0.14 -7.46,0.42 -8.61,0.7 -0.78,12.73 -6.01,23.07 -12.26,30.13 -2.58,2.92 -4.9,5.34 -8.17,7.71 -1.07,0.77 -1.95,1.38 -3.09,2.14 -4.51,3.01 -9.06,4.59 -15.2,5.91 -0.18,4.61 -1.71,5.13 -2.15,6.4z"/>
  <path class="fil1" d="M21.09 58.35c4.29,0.28 11.81,-2.98 15,-4.72 6.2,-3.38 12.22,-7.69 17.01,-12.55 1.49,-1.51 3.52,-3.32 4.89,-5.08 1.35,-1.73 3.09,-3.65 4.27,-5.53 0.58,-0.93 1.27,-1.93 1.89,-3.01 0.45,-0.78 1.34,-2.71 1.86,-3.35l0.7 -3.18c-2.54,4.32 -6.46,8.91 -9.7,11.89 -0.47,0.43 -0.8,0.62 -1.29,1.08 -0.78,0.74 -1.83,1.51 -2.72,2.18 -5.7,4.28 -12.14,7.59 -19.5,9.37 -2.7,0.66 -5.48,1.08 -8.35,1.21 -5.19,0.24 -7.17,-0.69 -8.7,-0.69 -0.18,2.56 -0.89,4.78 -2.88,6.24 -0.8,0.58 -1.47,0.54 -2.2,0.94 0.67,0.77 8.51,5.18 9.71,5.18z"/>
  <path class="fil1" d="M37.83 30.88c-1.12,0 -2.38,0.32 -3.43,0.34 -0.22,1.52 -1.3,1.38 -2.82,1.37 -3.61,-0.03 -7.48,-0.54 -10.8,-1.72 -5.03,-1.78 -8.15,-4.4 -11.01,-5.6 -0.17,1.74 -0.79,3.57 -1.67,4.6 -1.41,1.67 -1.74,1.34 -3.83,2.2 0.16,0.39 1.5,1.86 1.89,2.29l5.34 5.12c0.68,0.6 0.69,0.71 1.16,0.79 15.39,1.34 27.22,-1.34 39.25,-9.66 1.59,-1.1 3.38,-2.38 4.69,-3.59 0.79,-0.73 3.37,-2.84 3.91,-3.67 0.23,-0.36 0.2,0.02 0.07,-0.26 -0.87,0.47 -1.64,1.08 -2.56,1.64 -2.63,1.59 -5.16,2.86 -8.08,4.08 -1.93,0.8 -3.95,1.48 -6.04,2.07 -1.04,0.3 -2.19,0.56 -3.26,0.79 -1.27,0.26 -2.44,0.54 -2.82,-0.78z"/>
  <path class="fil2" d="M28.81 68.4c-0.62,0.31 -0.91,0.69 -1.66,1.11 -0.56,0.31 -1.23,0.45 -1.73,0.73 1.11,1.09 8.65,1.37 10.72,1.45 9.02,0.35 17.57,-0.98 25.68,-4.66 0.72,-0.33 1.33,-0.67 2.03,-1.02 1.04,-0.53 1.2,-0.31 2.03,0.27 0.86,-0.24 2.09,-1.21 2.94,-1.79 -0.52,-1.54 0.32,-1.92 1.21,-2.61 2.3,-1.8 4.21,-3.87 6.01,-6.32 5.45,-7.43 7.42,-16.73 6.91,-26.2 -0.14,-2.51 -0.42,-5.01 -0.85,-7.43 -0.42,-2.33 -1.09,-4.63 -1.47,-6.82 -0.68,0.04 -1.87,-0 -2.33,0.31 0.79,1.72 1.35,9.44 1.39,11.75 0.06,4.03 -0.34,8.24 -1.28,12 -4.57,18.22 -19.65,27.25 -37.18,29.21 -1.82,0.2 -11.44,0.88 -12.4,0.03z"/>
  <path class="fil3 str0" d="M21.09 58.35c0.44,0.43 1.21,0.66 1.74,0.87 3.58,1.44 2.35,0.64 6.38,0.34 8.34,-0.63 18.06,-6.05 23.7,-12.25 0.36,-0.4 0.54,-0.37 1.29,-1.24 2.23,-2.6 3.55,-4.03 5.64,-7.37 2.26,-3.62 5.28,-9.65 6.17,-14.58 -0.52,0.63 -1.41,2.57 -1.86,3.35 -0.62,1.08 -1.31,2.08 -1.89,3.01 -1.17,1.88 -2.92,3.79 -4.27,5.53 -1.37,1.76 -3.4,3.57 -4.89,5.08 -4.79,4.85 -10.81,9.17 -17.01,12.55 -3.19,1.74 -10.71,5 -15,4.72z"/>
  <path class="fil2" d="M60.58 23.08c0.13,0.28 0.16,-0.09 -0.07,0.26 -0.54,0.83 -3.12,2.94 -3.91,3.67 -1.31,1.2 -3.1,2.48 -4.69,3.59 -12.02,8.33 -23.86,11 -39.25,9.66l2.74 2.25c0.54,0.38 0.84,0.75 1.58,0.95 8.26,2.21 19.01,-0.65 26.05,-4.17 6.26,-3.12 12.3,-7.74 16.57,-12.83 1.09,-1.3 3.35,-4.02 4.1,-5.71 -0.34,0.16 -2.78,2 -3.11,2.32z"/>
  <path class="fil4" d="M76 12.94l0.95 -0.36c0.5,-1.35 0.58,-3 0.8,-4.47 0.72,-4.87 -0.1,-3.55 -0.27,-4.14 -0.02,-0.07 -0.09,-0.06 -0.13,-0.1 -1.73,-0.3 -3.55,-0.53 -5.34,-0.8 -6.35,-0.95 -5.08,-1.75 -6.56,8.13 -0.17,1.14 -0.25,2 0.59,2.47 0.71,0.28 8.56,-0.58 9.96,-0.75z"/>
  <path class="fil0" d="M71.5 35.12c-0.75,0.53 -0.69,1.1 -1.04,2.39 -0.25,0.91 -0.5,1.69 -0.79,2.58 -3.27,10.03 -10.08,16.73 -20.1,20.44 -0.84,0.31 -1.8,0.46 -1.91,1.46 -0.44,4.08 10.26,-2.75 10.98,-3.21 1.41,-0.91 2.7,-1.92 3.84,-2.92 1.25,-1.09 2.27,-2.27 3.3,-3.45 3.22,-3.67 5.38,-8.47 6.88,-13.39 0.17,-0.55 0.67,-2.19 0.7,-2.75 0.06,-1.1 -0.89,-1.84 -1.86,-1.16z"/>
  <path class="fil5" d="M76 12.94c1.66,-0.1 3.77,-0.24 5.39,-0.48 2.22,-0.34 1.87,-1.62 2.18,-3.72 0.6,-4.1 1.18,-4.05 -6.23,-4.85 0.04,0.03 0.11,0.02 0.13,0.1 0.16,0.59 0.99,-0.73 0.27,4.14 -0.22,1.47 -0.3,3.12 -0.8,4.47l-0.95 0.36z"/>
  <path class="fil4" d="M23.54 67.83c2.88,0.36 5.06,-2.72 4.81,-5.65 -1.62,0.14 -2.95,0.35 -3.87,1.29 -1.01,1.03 -1.29,2.6 -0.94,4.36z"/>
  <path class="fil4" d="M2.6 29.47c3.22,0.7 4.83,-2.4 4.67,-5.32 -2.94,-0.26 -5.03,2.29 -4.67,5.32z"/>
  <path class="fil4" d="M13.9 45.56c-1.74,0.04 -2.43,0.5 -3.11,1.52 -3.55,5.33 3.28,4.72 3.11,-1.52z"/>
 </g>
</svg>
