<?xml version="1.0" encoding="UTF-8"?>
<!DOCTYPE svg PUBLIC "-//W3C//DTD SVG 1.1//EN" "http://www.w3.org/Graphics/SVG/1.1/DTD/svg11.dtd">
<!-- Creator: CorelDRAW -->
<svg xmlns="http://www.w3.org/2000/svg" xml:space="preserve" width="16mm" height="16mm" version="1.1" style="shape-rendering:geometricPrecision; text-rendering:geometricPrecision; image-rendering:optimizeQuality; fill-rule:evenodd; clip-rule:evenodd"
viewBox="0 0 12.36 12.36"
 xmlns:xlink="http://www.w3.org/1999/xlink"
 xmlns:xodm="http://www.corel.com/coreldraw/odm/2003">
 <defs>
  <style type="text/css">
   <![CDATA[
    .str3 {stroke:#93325A;stroke-width:0.15;stroke-miterlimit:22.9256}
    .str0 {stroke:#B94D71;stroke-width:0.15;stroke-miterlimit:22.9256}
    .str1 {stroke:#FAD436;stroke-width:0.15;stroke-miterlimit:22.9256}
    .str2 {stroke:#FBC030;stroke-width:0.15;stroke-miterlimit:22.9256}
    .fil0 {fill:black}
    .fil4 {fill:#93325A}
    .fil1 {fill:#B94D71}
    .fil2 {fill:#FAD436}
    .fil3 {fill:#FBC030}
   ]]>
  </style>
 </defs>
 <g id="Camada_x0020_1">
  <metadata id="CorelCorpID_0Corel-Layer"/>
  <g id="_1433410671184">
   <path class="fil0" d="M1.84 1.7c0.18,0.15 0.28,0.05 0.51,-0.03 0.18,-0.06 0.32,-0.13 0.49,-0.21 0.32,-0.16 0.53,-0.38 0.84,-0.56 0.51,-0.31 1.63,-0.48 2.33,-0.52 0,0.29 0,0.59 0,0.88 0,0.23 -0.08,0.65 0.2,0.62 0.24,-0.02 0.16,-0.44 0.16,-0.67 0,-0.28 0,-0.56 0,-0.85 0.4,0 0.77,0.02 1.15,0.09 0.26,0.04 0.79,0.14 0.98,0.23 0.32,0.07 0.75,0.26 1.04,0.38 0.89,0.37 1.67,1.11 2.09,2.04 0.27,0.62 0.56,1.55 0.22,2.24 -0.16,0.33 -0.37,0.53 -0.67,0.71l-0.89 0.49 -0.05 -0.05 -0.89 -0.58c-0.95,-0.56 -2.17,-0.94 -3.31,-1.08 -0.6,-0.07 -2.24,-0.11 -2.83,-0.06 -0.75,0.05 -1.45,0.5 -1.88,1.04 -0.23,-0.16 -0.5,-0.5 -0.67,-0.81 -0.23,-0.4 -0.31,-0.62 -0.28,-1.19 0.02,-0.37 0.22,-0.87 0.39,-1.11 0.41,-0.57 0.68,-0.4 0.67,-0.8 -0.2,-0.15 -0.26,-0.08 -0.52,0.13 -0.18,0.14 -0.3,0.25 -0.43,0.44 -0.27,0.37 -0.43,0.81 -0.47,1.25l0 0.47c0.03,0.33 0.13,0.65 0.3,0.94 0.11,0.19 0.21,0.36 0.35,0.52 0.11,0.14 0.28,0.35 0.44,0.43 -0.05,0.22 -0.47,0.56 -0.67,1.94 -0.03,0.18 -0.04,0.43 -0.03,0.62l0.05 0.6c0.02,0.18 0.12,0.62 0.19,0.78 0.05,0.1 0.08,0.12 0.22,0.12 0.18,-0.19 0.14,-0.12 0.04,-0.53 -0.05,-0.21 -0.09,-0.42 -0.11,-0.64 -0.09,-1.04 0.17,-2.11 0.81,-2.91 0.59,-0.73 1.55,-1.19 2.6,-0.76 0.65,0.27 1.15,0.88 1.45,1.54 0.87,1.92 0.06,4.56 -1.68,5.08 -1.05,0.31 -1.95,-0.23 -2.53,-1.04 -0.11,-0.15 -0.16,-0.36 -0.4,-0.29 -0.21,0.18 0.11,0.53 0.29,0.75 0.18,0.23 0.39,0.4 0.61,0.57 0.61,0.46 1.15,0.47 1.87,0.47l0.03 0 1.93 0c0.46,-0.02 0.92,-0.06 1.46,-0.16 0.73,-0.13 1.47,-0.47 2.06,-0.91 0.06,-0.05 0.11,-0.08 0.16,-0.13 0.37,-0.35 0.35,-0.29 0.71,-0.78 0.44,-0.59 0.28,-0.36 0.77,-0.73 0.16,-0.12 0.31,-0.29 0.43,-0.47 0.38,-0.6 0.26,-1.46 -0.28,-1.96l-0.32 -0.29c-0.08,-0.06 -0.11,-0.08 -0.16,-0.16 0.09,-0.02 0.14,-0.06 0.21,-0.1 0.37,-0.22 0.59,-0.28 0.93,-0.59 0.4,-0.37 0.59,-0.84 0.62,-1.35l0 -0.29c-0.02,-0.3 -0.08,-0.61 -0.18,-0.91 -0.13,-0.4 -0.28,-0.78 -0.5,-1.12 -0.48,-0.71 -1.09,-1.33 -1.93,-1.67 -1.01,-0.41 -1.95,-0.75 -3.14,-0.75 -0.85,0 -1.57,0.08 -2.35,0.26 -0.55,0.13 -0.88,0.35 -1.29,0.66 -0.3,0.23 -0.53,0.3 -0.87,0.43 -0.15,0.05 -0.36,0.12 -0.27,0.34z"/>
   <path class="fil1 str0" d="M1.84 1.7c-0.08,0.03 -0.12,0.05 -0.2,0.1 -0.08,0.05 -0.14,0.07 -0.21,0.11 0.01,0.41 -0.26,0.23 -0.67,0.8 -0.17,0.24 -0.37,0.74 -0.39,1.11 -0.02,0.56 0.06,0.78 0.28,1.19 0.17,0.31 0.45,0.65 0.67,0.81 0.42,-0.54 1.13,-0.98 1.88,-1.04 0.6,-0.04 2.24,-0.01 2.83,0.06 1.14,0.14 2.36,0.52 3.31,1.08l0.89 0.58c0.37,-0.11 0.87,-0.48 1.11,-0.85 0.5,-0.76 0.23,-1.84 -0.1,-2.56 -0.37,-0.81 -0.83,-1.32 -1.47,-1.77 -0.13,-0.09 -0.25,-0.16 -0.39,-0.24 -0.17,-0.09 -0.81,-0.33 -0.89,-0.41 -0.2,-0.09 -0.73,-0.19 -0.98,-0.23 -0.38,-0.06 -0.76,-0.08 -1.15,-0.09 0,0.28 0,0.56 0,0.85 0,0.23 0.08,0.65 -0.16,0.67 -0.28,0.03 -0.2,-0.39 -0.2,-0.62 0,-0.29 0,-0.59 0,-0.88 -0.7,0.03 -1.82,0.21 -2.33,0.52 -0.3,0.18 -0.52,0.4 -0.84,0.56 -0.17,0.08 -0.31,0.15 -0.49,0.21 -0.23,0.08 -0.33,0.18 -0.51,0.03z"/>
   <path class="fil2 str1" d="M0.85 10.14c0.01,0.08 0.14,0.38 0.19,0.44 0.25,-0.07 0.3,0.14 0.4,0.29 0.57,0.81 1.47,1.35 2.53,1.04 1.74,-0.51 2.55,-3.16 1.68,-5.08 -0.3,-0.66 -0.8,-1.27 -1.45,-1.54 -1.05,-0.43 -2.01,0.03 -2.6,0.76 -0.64,0.8 -0.91,1.87 -0.81,2.91 0.02,0.23 0.05,0.43 0.11,0.64 0.1,0.4 0.14,0.33 -0.04,0.53z"/>
   <path class="fil1 str0" d="M8.04 11.57l0.71 -0.5c0.18,-0.14 0.46,-0.44 0.59,-0.62 0.77,-1.06 0.82,-0.71 1.2,-1.19 0.39,-0.49 0.38,-1.36 -0.06,-1.77l-0.45 -0.42c-0.22,-0.18 -0.4,-0.35 -0.67,-0.54 -0.06,-0.04 -0.12,-0.08 -0.17,-0.12 0,0.16 0.04,1.22 -0.03,1.37 -0,0.01 -0.01,0.02 -0.01,0.02 -0.05,0.05 -0.04,0.09 -0.14,0.11 -0.29,0.06 -0.22,-0.4 -0.22,-0.61 0,-0.38 0,-0.77 -0,-1.15 -0.17,-0.06 -0.41,-0.22 -0.59,-0.3 -0.12,-0.06 -0.52,-0.2 -0.61,-0.29 -0.17,-0.1 -1.08,-0.28 -1.34,-0.32 -0.39,-0.06 -1.22,-0.15 -1.59,-0.1 0.06,0.02 0.3,0.21 0.35,0.25 0.89,0.8 1.34,1.9 1.34,3.16 0,1.07 -0.34,2.1 -1,2.85 -0.12,0.14 -0.17,0.19 -0.32,0.31l-0.37 0.29c0.61,0.01 1.26,0.01 1.85,-0.06 0.31,-0.04 1.34,-0.22 1.51,-0.38z"/>
   <path class="fil0" d="M3.24 5.55c-2.81,0.24 -2.67,6.27 0.33,5.97 1.34,-0.13 2.02,-1.66 1.98,-3.16 -0.04,-1.45 -0.81,-2.94 -2.31,-2.81z"/>
   <path class="fil3 str2" d="M3.12 5.92c-1.1,0.19 -1.6,1.59 -1.53,2.89 0.07,1.2 0.73,2.58 2.06,2.33 1.08,-0.21 1.59,-1.59 1.53,-2.88 -0.06,-1.22 -0.73,-2.57 -2.06,-2.34z"/>
   <path class="fil4 str3" d="M10.23 6.5l0.05 0.05 0.89 -0.49c0.3,-0.18 0.51,-0.37 0.67,-0.71 0.34,-0.69 0.06,-1.63 -0.22,-2.24 -0.41,-0.93 -1.2,-1.67 -2.09,-2.04 -0.29,-0.12 -0.72,-0.31 -1.04,-0.38 0.09,0.08 0.73,0.32 0.89,0.41 0.14,0.08 0.26,0.15 0.39,0.24 0.64,0.44 1.1,0.96 1.47,1.77 0.33,0.72 0.6,1.8 0.1,2.56 -0.24,0.37 -0.74,0.74 -1.11,0.85z"/>
   <path class="fil4 str3" d="M9.16 7.8c0.01,-0.01 0.01,-0.02 0.01,-0.02 0.07,-0.16 0.03,-1.21 0.03,-1.37 0.04,0.04 0.11,0.08 0.17,0.12 0.27,0.19 0.45,0.36 0.67,0.54l0.45 0.42c0.45,0.42 0.45,1.28 0.06,1.77 -0.38,0.48 -0.43,0.13 -1.2,1.19 -0.13,0.18 -0.41,0.48 -0.59,0.62l-0.71 0.5c0.39,-0.1 0.93,-0.48 1.23,-0.75 0.61,-0.53 0.73,-1.02 1.27,-1.36 0.17,-0.11 0.26,-0.18 0.37,-0.31 0.35,-0.4 0.4,-1.01 0.08,-1.46 -0.1,-0.13 -0.37,-0.39 -0.5,-0.49 -0.07,-0.06 -0.11,-0.11 -0.18,-0.16 -0.24,-0.18 -0.91,-0.74 -1.16,-0.8l-0.01 1.56z"/>
   <path class="fil0" d="M10.53 4.36c-0.19,0.06 -0.13,0.42 -0.13,0.64 -0,0.09 -0.01,0.28 0.01,0.36 0.02,0.09 0.12,0.16 0.24,0.11 0.16,-0.07 0.11,-0.44 0.11,-0.64 0,-0.11 0.06,-0.57 -0.24,-0.47z"/>
   <path class="fil0" d="M7.2 2.12l0 0.63c0,0.33 0.36,0.34 0.36,0 0,-0.41 0.08,-0.88 -0.18,-0.89 -0.16,-0.01 -0.19,0.11 -0.19,0.26z"/>
   <path class="fil0" d="M8 9.42l0 0.63c0,0.34 0.36,0.33 0.36,0 0,-0.41 0.08,-0.88 -0.18,-0.88 -0.15,-0 -0.18,0.12 -0.18,0.26z"/>
   <path class="fil0" d="M6.94 6.37c-0.18,0.06 -0.14,0.22 -0.14,0.44 0,0.17 0.06,0.34 0.25,0.27 0.15,-0.06 0.11,-0.25 0.11,-0.44 -0,-0.16 -0.05,-0.33 -0.22,-0.27z"/>
   <path class="fil0" d="M7.2 4.2c0,0.23 -0.04,0.46 0.17,0.47 0.24,0.02 0.19,-0.26 0.19,-0.47 0,-0.16 -0.02,-0.15 -0.09,-0.24 -0.22,-0.03 -0.27,0.03 -0.27,0.24z"/>
   <path class="fil0" d="M9.71 2.36c-0.15,0.08 -0.11,0.25 -0.11,0.44 0,0.18 0.1,0.35 0.28,0.24 0.15,-0.09 0.16,-0.86 -0.16,-0.68z"/>
   <path class="fil0" d="M2.51 2.74c-0.14,0.07 -0.11,0.24 -0.11,0.42 0,0.16 0.04,0.35 0.24,0.28 0.2,-0.07 0.19,-0.86 -0.13,-0.7z"/>
   <path class="fil0" d="M3.6 3.79l0 0.24c0,0.33 0.36,0.34 0.36,0l0 -0.24c0,-0.34 -0.36,-0.33 -0.36,0z"/>
   <path class="fil4 str3" d="M8.8 6.14l0 -0.08c-0.1,-0.13 -0.98,-0.46 -1.19,-0.51 0.08,0.08 0.48,0.23 0.61,0.29 0.18,0.09 0.42,0.24 0.59,0.3z"/>
  </g>
 </g>
</svg>
