<?xml version="1.0" encoding="UTF-8"?>
<!DOCTYPE svg PUBLIC "-//W3C//DTD SVG 1.1//EN" "http://www.w3.org/Graphics/SVG/1.1/DTD/svg11.dtd">
<!-- Creator: CorelDRAW -->
<svg xmlns="http://www.w3.org/2000/svg" xml:space="preserve" width="16mm" height="10.8895mm" version="1.1" style="shape-rendering:geometricPrecision; text-rendering:geometricPrecision; image-rendering:optimizeQuality; fill-rule:evenodd; clip-rule:evenodd"
viewBox="0 0 30.05 20.45"
 xmlns:xlink="http://www.w3.org/1999/xlink"
 xmlns:xodm="http://www.corel.com/coreldraw/odm/2003">
 <defs>
  <style type="text/css">
   <![CDATA[
    .str1 {stroke:#767D9E;stroke-width:0.38;stroke-miterlimit:22.9256}
    .str0 {stroke:#E7E7EF;stroke-width:0.38;stroke-miterlimit:22.9256}
    .fil0 {fill:black}
    .fil5 {fill:#767D9E}
    .fil2 {fill:#858DAD}
    .fil3 {fill:#E7E7EF}
    .fil1 {fill:#F8F4F2}
    .fil4 {fill:#FED9D4}
   ]]>
  </style>
 </defs>
 <g id="Camada_x0020_1">
  <metadata id="CorelCorpID_0Corel-Layer"/>
  <g id="_1471222388416">
   <path class="fil0" d="M7.72 20.29c0.54,-0.11 0.86,-0.48 0.61,-0.97 -0.25,-0.49 -1.31,-4.22 -0.84,-4.57 0.19,-0.15 0.43,-0.63 0.61,-0.48 0.39,0.34 0.81,0.58 1.23,0.75l-0.06 0.44 -0 0 -0 0 -0 0 0 0c-0.01,0.11 0.09,0.22 0.23,0.24 0.14,0.02 0.27,-0.06 0.28,-0.17l0 0 0 -0 0 -0 0 -0 0.04 -0.34c0.39,0.1 0.77,0.14 1.13,0.12l0.08 0.25 0 0 0 0 0 0 0 0c0.04,0.11 0.17,0.16 0.31,0.12 0.14,-0.04 0.22,-0.17 0.19,-0.28l0 0 -0 -0 -0 -0 -0 -0 -0.05 -0.16c0.6,-0.12 1.1,-0.4 1.39,-0.81 0.01,-0.02 0.39,-0.15 0.54,-0.13 0.71,0.08 2.3,-0.11 3.29,-0.21 0.37,-0.04 0.73,-0.02 1.05,-0.02 0.53,-0.01 0.61,1.22 0.97,1.42 0.18,0.1 0.15,0.5 0.18,1.17 0.05,1.19 -0.16,3.37 0.26,3.51 2.11,0.68 3.51,-0.08 3.51,-0.08 -0.08,-0.38 -0.3,-0.47 -0.3,-0.47 -0.03,-0.37 -0.36,-0.86 -0.51,-1.19 -0.26,-0.56 -0.14,-4.2 -0.14,-4.97 0.54,-0.26 2.04,-0.22 2.71,-2.4 0.13,-0.42 0.28,-0.9 0.39,-1.31 0.07,-0.25 0.12,-0.4 0.19,-0.63 0.17,-0.6 0.4,-0.45 1.15,-0.55 0.26,-0.04 0.56,-0.07 0.79,-0.09 1.15,-0.08 2.01,-0.19 2.55,-0.91 0.22,-0.29 0.5,-0.74 0.56,-1.15 0,-0.02 0,-0.03 0.01,-0.05l0 -0.29c-0.08,-0.79 -0.87,-1.15 -1.25,-1.81 -0.71,-1.23 -1.56,-4.04 -4.19,-3.41 -0.23,0.05 -0.44,0.17 -0.66,0.22 -0.24,-0.37 -1.28,-0.87 -1.81,-1.01 -0.97,-0.27 -1.3,0.43 -1.3,1.36 -3.42,-0.28 -2.93,0.44 -4.86,0.77 -1.19,0.2 -2.27,-0.02 -3.3,-0.54 -0.91,-0.45 -1.7,-1 -2.93,-1.06 -0.31,-0.02 -0.69,-0.01 -1,-0l-2.53 0.4c-0.76,0.19 -1.05,0.57 -1.4,0.6 -0.69,0.06 -0.77,-0.11 -1.71,0.23 -0.27,0.1 -0.43,0.2 -0.65,0.35 -1.24,0.83 -1.51,1.96 -1.51,3.42 0,1.33 0,2.66 0,3.99 -0.54,0.29 -0.88,0.92 -0.94,1.58l0 0.42c0,0.02 0,0.04 0.01,0.05 0.07,0.59 0.78,1.59 1.4,1.59 0.63,0 1.33,-0.99 1.4,-1.59 0.12,-0.98 -0.37,-1.75 -0.93,-2.05 0,-1.53 0.01,-3.05 -0,-4.58 -0,-0.82 0.25,-1.2 0.62,-1.67 0.28,-0.36 0.93,-0.75 1.49,-0.8 -0.06,0.23 -0.31,0.58 -0.42,0.87 -0.28,0.77 -0.46,1.19 -0.58,2.06 -0.03,0.22 -0.13,1.02 -0.11,1.23 0.12,1.17 0.27,2.22 0.78,3.22 0.74,1.47 0.14,2.11 -0.1,3.22 -0.29,1.36 0.33,2.88 0.75,4.35 0.11,0.39 0.56,1.84 0.57,2.13 0.3,0.47 0.54,0.66 2.84,0.67 0.02,-0 0.71,-0.34 0,0z"/>
   <path class="fil1" d="M18.73 15.5c0.01,0.41 0.18,0.78 0.18,1.17 0.66,0.03 0.61,0.59 0.69,1.2l1.26 0 0 -4.59c-3.52,-0.78 -2.58,-5.24 0.77,-5.86 1.12,-0.21 2.26,0.16 2.8,0.75 0.22,-0.13 0.3,-0.28 0.62,-0.37 0.32,-0.1 2.24,-0.26 2.66,-0.31 0.22,-0.46 0.83,-1.12 0.41,-1.78l-0.59 -0.64c-0.83,-1.01 -0.69,-1.19 -1.31,-2.27 -0.77,-1.33 -0.8,-0.95 -1.24,-1.07l-0.22 -0.01c-0,0.03 -0,0.03 -0,0.05 0,0.02 -0,0.03 0,0.04 0,0.04 0.22,0.79 -0.44,0.71 -0.33,-0.04 -1.14,-1.45 -2.51,-1.62 -0.12,0.74 -0.03,1.29 0.35,1.78 0.38,0.49 0.84,0.54 1.39,0.94l0.02 0.45c-0.36,0.25 -0.37,0.29 -0.83,0.08 -0.59,-0.27 -1,-0.52 -1.37,-1.04 -0.21,-0.3 -0.25,-0.51 -0.41,-0.81 -1.18,-0.09 -1.92,-0.21 -3.03,0.18 -0.99,0.35 -1.45,0.62 -2.67,0.67 0.15,2.38 -0.64,3.41 -2.9,3.75 -0.77,0.12 -1.47,0 -2.14,0.07 -0.54,0.84 -0.78,1.82 -2.01,2.7 -1.47,1.05 -2.52,0.35 -3.63,0.02 0.26,0.77 0.42,1.19 0.27,2.15 -0.11,0.71 -0.45,1.28 -0.48,2.02 -0.04,1.06 0.73,2.91 0.97,3.99l1.83 -0c-0.16,-1.01 -0.73,-2.68 -0.36,-3.59 0.64,-1.54 2.17,-1.03 2.9,-3.62 0.26,-0.92 0.07,-1.54 0.63,-1.54 0.7,0.01 0.38,1.15 0.27,1.61 -0.18,0.7 -0.42,1.02 -0.62,1.55 0.43,0.35 2.83,1.12 3.57,1.3 0.75,0.19 1.43,0.24 2.24,0.16 0.35,-0.03 1.66,-0.26 1.95,-0.52 -0.38,-0.8 -0.89,-1.02 -1.48,-1.53 -0.37,-0.32 -0.27,-0.85 0.23,-0.82 0.42,0.02 1.82,1.24 2.21,2.32 0.14,0.41 0.21,0.78 0.29,1.24 0.09,0.51 0.26,0.93 -0.26,1.07z"/>
   <path class="fil2" d="M14.36 3.14c-2.84,-0.71 -1.78,-0.72 -3.27,-1.3 -1.45,-0.57 -2.5,-0.33 -4.01,-0.1 -0.71,0.11 -1.2,0.3 -1.66,0.64 -1.39,1.01 -1.87,3.84 -1.43,5.75 0.09,0.39 0.27,0.44 0.99,0.77 0.52,0.23 1.19,0.51 1.84,0.45 1.03,-0.09 1.94,-1.43 2.37,-2.26 0.32,-0.61 0.34,-1.04 1.23,-0.99 0.75,0.04 1.46,0.04 2.19,-0.11 1.58,-0.34 1.94,-1.09 1.77,-2.84z"/>
   <path class="fil2" d="M22.13 12.39c0.36,-0.56 0.48,-1.29 0.67,-1.97 0.1,-0.36 0.18,-0.67 0.28,-1.01 0.08,-0.28 0.3,-0.73 0.3,-0.9 -0.29,-0.43 -2.77,-0.57 -3.68,1.33 -0.97,2.04 1.61,3.06 2.43,2.54z"/>
   <path class="fil0" d="M18.51 3.87c-0.47,0.09 -0.76,0.26 -0.97,0.59 -0.74,1.2 0.95,2.35 2.22,1.98 0.55,-0.16 1.36,-1.06 0.99,-1.89 -0.3,-0.66 -1.33,-0.86 -2.24,-0.69z"/>
   <path class="fil3 str0" d="M27.7 7.49c1.19,-0.12 1.54,-1.07 1.44,-1.4 -0.09,-0.31 -0.82,-0.77 -1.25,-1.63 -0.45,-0.89 -0.93,-2.13 -1.77,-2.58 -0.27,-0.15 -0.89,-0.33 -1.16,-0.15 0.44,0.12 0.47,-0.26 1.24,1.07 0.62,1.08 0.48,1.26 1.31,2.27l0.59 0.64c0.42,0.65 -0.19,1.31 -0.41,1.78z"/>
   <path class="fil4" d="M8.37 13.8c0.55,1.02 3.2,1.4 4.14,0.42 -0.88,-0.25 -2.91,-1.12 -3.11,-1.16 -0.24,0.22 -0.65,0.61 -1.02,0.75z"/>
   <path class="fil5 str1" d="M22.13 12.39c1.26,-0.32 1.47,-1.74 1.85,-2.96 0.09,-0.3 0.06,-0.34 -0.1,-0.54 -0.14,-0.17 -0.27,-0.27 -0.5,-0.38 -0,0.17 -0.22,0.62 -0.3,0.9 -0.1,0.34 -0.18,0.66 -0.28,1.01 -0.19,0.67 -0.31,1.4 -0.67,1.97z"/>
   <path class="fil2" d="M7.85 19.6l-0.41 -0.85 -1.83 -0.01c0.1,0.52 0.14,0.86 0.67,0.87 0.49,0.01 1.09,0.01 1.57,-0.01z"/>
   <path class="fil2" d="M1.41 12.26c0.25,-0.15 0.52,-0.46 0.53,-0.92 0.01,-0.49 -0.25,-0.88 -0.53,-1 -0.51,0.26 -0.87,1.26 0,1.92z"/>
   <path class="fil2" d="M18.3 4.86c-0.09,0.5 0.28,0.67 0.78,0.74 0.55,0.08 0.88,-0.21 0.87,-0.72 -0.44,-0.27 -1.21,-0.21 -1.65,-0.03z"/>
   <path class="fil2" d="M21.43 19.61l-0.41 -0.87 -1.26 -0c0.04,0.38 0.05,0.76 0.4,0.85 0.21,0.05 1,0.02 1.27,0.02z"/>
   <path class="fil0" d="M25.47 3.05c-0.47,0.29 -0.23,1.31 0.43,0.97 0.45,-0.23 0.19,-1.36 -0.43,-0.97z"/>
  </g>
 </g>
</svg>
