<?xml version="1.0" encoding="UTF-8"?>
<!DOCTYPE svg PUBLIC "-//W3C//DTD SVG 1.1//EN" "http://www.w3.org/Graphics/SVG/1.1/DTD/svg11.dtd">
<!-- Creator: CorelDRAW -->
<svg xmlns="http://www.w3.org/2000/svg" xml:space="preserve" width="16mm" height="13.7751mm" version="1.1" style="shape-rendering:geometricPrecision; text-rendering:geometricPrecision; image-rendering:optimizeQuality; fill-rule:evenodd; clip-rule:evenodd"
viewBox="0 0 33.08 28.48"
 xmlns:xlink="http://www.w3.org/1999/xlink"
 xmlns:xodm="http://www.corel.com/coreldraw/odm/2003">
 <defs>
  <style type="text/css">
   <![CDATA[
    .str1 {stroke:#9E512D;stroke-width:0.41;stroke-miterlimit:22.9256}
    .str0 {stroke:#FE9701;stroke-width:0.41;stroke-miterlimit:22.9256}
    .fil0 {fill:black}
    .fil6 {fill:#35454D}
    .fil7 {fill:#604321}
    .fil2 {fill:#763D21}
    .fil3 {fill:#9E512D}
    .fil4 {fill:#F57C00}
    .fil5 {fill:#FDDEB1}
    .fil1 {fill:#FE9701}
   ]]>
  </style>
 </defs>
 <g id="Camada_x0020_1">
  <metadata id="CorelCorpID_0Corel-Layer"/>
  <g id="_1469890492064">
   <path class="fil0" d="M8.55 3.75l-1.1 0.58c-0.38,0.2 -0.69,0.39 -1.06,0.62 -1.29,0.77 -1.01,0.93 -1.53,0.75 -1.92,-0.66 -3.38,0.81 -4.07,2.58 -0.71,1.79 -0.78,4.06 -0.78,6.22 0,0.37 0.04,1.72 0.17,1.97 0.08,0.15 0.3,0.3 0.48,0.3 0.83,0 0.52,-1.04 0.52,-1.75 0,-2.57 -0.13,-5.54 1.37,-7.57 0.46,-0.62 0.9,-0.72 1.61,-0.72 -0.13,0.25 -0.29,0.4 -0.45,0.65 -1.37,2.07 -1.49,4.2 -1.49,6.8 0,1.03 0.08,2.12 0.18,3.05 0.12,1.13 0.2,1.82 0.52,2.72 0.4,1.13 1.95,2.53 1.95,4.52l0 3.11c-0.29,1.06 2.35,0.89 4.88,0.89l16.27 0.01c0.68,0 0.48,-0.57 0.48,-0.9 -0.01,-0.59 -0.25,-1.02 -0.52,-1.36 -0.2,-0.26 -0.75,-0.67 -1.17,-0.71l0 -8.16c0.21,0.24 0.22,0.49 0.43,0.73 0.11,0.12 0.2,0.18 0.34,0.24 0.6,0.26 1.14,0.04 1.43,-0.39 0.39,0.26 0.27,0.39 0.91,0.39 0.54,0 0.81,-0.3 1,-0.69 0.19,-0.39 0.33,-1.04 0.43,-1.25 0.13,-0.27 0.23,-0.17 0.55,-0.29 0.18,-0.07 0.4,-0.19 0.56,-0.28 0.39,-0.25 0.63,-0.48 0.9,-0.85 1.03,-1.39 0.46,-2.7 0.7,-4.42 0.17,-1.25 0.43,-2.72 -0.19,-4.01 0.62,-0.42 1.23,-2.08 1.23,-3.04 0,-1.14 -0.23,-2.04 -0.83,-2.93 -0.26,-0.39 -0.34,-0.57 -0.73,-0.57 -0.25,0 -0.39,0.11 -0.48,0.3 -0.21,0.43 0.45,2.29 -1.05,3.55 -0.71,0.59 -0.33,0.33 -1.82,0.01 -2.02,-0.44 -1.88,0.31 -2.51,-0.86 -0.85,-1.58 0.22,-3 -0.88,-3 -0.5,0 -0.92,0.9 -0.97,1.1 -0.29,-0.07 -1.6,-1.1 -3.37,-1.1 -1.68,0 -2.52,0.04 -4.18,0.42 -1.18,0.27 -2.52,0.6 -3.63,0.97l-2.09 0.7c-1.23,0.44 -2.02,0.44 -2.02,1.67zm12.32 21.33l0 -3.42 0.1 0.12 0.07 0.13 0.08 0.16 0.1 0.16 0.06 0.16 0.14 0.3 0.12 0.25c0,0 0.08,0.18 0.1,0.26 0.02,0.08 0.13,0.41 0.13,0.41 0,0 0.04,0.2 0.05,0.26 0.01,0.06 0.07,0.23 0.07,0.3 0,0.07 0,-0.22 0.04,0.26 0.04,0.48 0.05,0.67 0.05,0.67l-0.02 0.2 0.03 0.24 0.03 0.2 -0.08 0.09 -0.1 -0.14 -0.26 -0.26 -0.27 -0.14 -0.25 -0.13 -0.19 -0.06zm-12.42 0.38l0 -3.42 0.1 0.12 0.07 0.13 0.08 0.16 0.1 0.16 0.06 0.16 0.14 0.3 0.12 0.25c0,0 0.08,0.18 0.1,0.26 0.02,0.08 0.13,0.41 0.13,0.41 0,0 0.04,0.2 0.05,0.26 0.01,0.06 0.07,0.23 0.07,0.3 0,0.07 0,-0.22 0.04,0.26 0.04,0.48 0.05,0.67 0.05,0.67l0.02 0.19 0.02 0.21 0 0.23 -0.08 0.09 -0.1 -0.14 -0.26 -0.26 -0.27 -0.14 -0.25 -0.13 -0.19 -0.06zm5.35 2.06l3.84 0 -0.02 -1.47 0 -0.76 0 -0.6 -0.2 -0.73 -0.15 -0.55 -0.16 -0.58 -0.46 -1.04 -0.37 -0.59 -0.14 -0.54 -0.05 -0.22 -0.07 -0.33 -0.03 -0.36 0 -0.33 0 -0.43 0 -0.33 -3.37 0 -0.19 0.19 -0.09 0.32 -0.11 0.4 0 0.23 0 0.22 0 0.25 0 0.42 0 4.66 0.34 0.19 0.27 0.09 0.23 0.18 0.2 0.25 0.16 0.28 0.26 0.45 0.09 0.32 0.02 0.42z"/>
   <path class="fil1 str0" d="M5.96 24c0.2,-0.33 -0.02,-4.87 0.08,-5.74 1.09,-0.71 1.8,-1.11 2.19,-2.78 0.35,0 0.77,0.06 1.09,-0.07 0.32,-0.67 0.63,-0.48 1.88,-0.48 4.41,0 3.31,-0.21 3.76,1.19 0.21,0.66 0.62,1.09 1.11,1.35 0.94,0.52 1,0.03 0.99,1.43 -0,1.62 -0.14,0.99 0.41,2.08 0.56,1.1 1.05,2.36 1.17,3.78l0.06 -0.17c0.06,-0.29 -0.04,-3.99 0.03,-4.7 1.37,-0.44 2.48,-1.15 3.31,-2.19 0.16,-0.2 0.61,-0.85 0.64,-1.21 -0.42,-0.32 -0.36,-0.15 -0.63,-0.7 -0.23,-0.03 -0.15,0.14 -0.45,0.21 -0.23,0.05 -0.43,-0.03 -0.55,-0.17 -0.33,-0.38 -0.01,-3.56 -0.13,-4.12 -0.07,-0.15 -0.03,-0.09 -0.17,-0.18 -0,-0 -0.14,-0.06 -0.18,-0.08 -0.15,-0.07 -0.23,-0.13 -0.35,-0.23 -0.18,-0.15 -0.37,-0.36 -0.51,-0.59 -0.26,0.07 -0.59,0.09 -0.81,-0.09 -0.41,-0.09 -0.58,-0.11 -0.73,-0.46 -0.27,-0.2 -0.17,0.01 -1.1,-0.14 -0.01,-0.22 -0.01,-0.42 -0.01,-0.64 0,-0.31 0.02,-0.37 -0.1,-0.57 -0.79,-0.13 -1.52,-0.24 -2.26,-0.46 -0.37,-0.11 -1.94,-0.75 -2.05,-0.75 -0.64,-0.09 -1.82,-0.76 -2.29,-1.06 -0.33,-0.2 -0.66,-0.44 -0.95,-0.67 -0.25,-0.19 -0.68,-0.52 -0.84,-0.77 -1.08,0.37 -3.13,1.79 -3.86,2.84 -1.08,1.54 -1.28,3.09 -1.36,5.34 -0.05,1.56 0.08,4.8 0.55,6.15 0.29,0.83 0.82,1.39 1.22,2.15 0.38,0.73 0.75,1.54 0.86,2.49z"/>
   <path class="fil2" d="M9.68 3.63c0.57,0.74 1.18,1.35 1.94,1.91 1.67,1.22 3.42,1.87 5.57,2.12 2.1,0.24 2.08,-0.44 2.08,1.84 0.68,-0.02 0.89,-0.26 1.1,-0.72 0.24,-0.55 0.78,-0.66 1.04,-0.21 0.11,0.2 0.13,1.04 0.33,1.48 0.2,0.47 0.41,0.83 0.89,0.96 -0.07,-0.79 -0.14,-4.38 0.13,-5.17 0.13,-0.4 0.43,-0.95 0.7,-1.09 -0.17,-1.18 -0.17,-1.28 -0.06,-2.49 -2.75,-2.63 -9.75,-0.06 -13.29,1.16l-0.41 0.2z"/>
   <path class="fil3 str1" d="M29.02 15.18l-0.28 0.03c-0.51,-0.94 -1.48,-2.09 -0.49,-2.82 0.39,-0.28 0.63,-0.14 1.07,-0.29 0.17,-0.02 0.01,0.02 0.2,-0.12 0.09,-0.07 0.15,-0.11 0.25,-0.19 0.01,-0.9 0.05,-1.26 0.19,-2.1 0.2,-1.16 0.02,-2.71 -0.67,-3.63 -0.66,-0.89 -0.76,-0.72 -1.19,-1.06l-0.38 -0.08c0.21,0.56 0.42,0.91 0.04,1.53 -0.21,0.34 -0.66,0.7 -1.19,0.81 -0.6,0.11 -1.15,-0.04 -1.59,-0.3 -0.54,-0.32 -0.63,-0.68 -1.01,-1.07 -0.44,0.52 -0.26,2.67 -0.26,3.5 0,0.51 -0.05,1.35 0.09,1.79 0.19,0.59 0.85,1.07 1.31,1.48 0.18,0.16 0.3,0.32 0.48,0.49 0.89,0.77 1.72,1.82 2.65,2.02 0.27,0.06 0.62,-0.01 0.8,0.03z"/>
   <path class="fil4" d="M8.22 18.57l-0 2.09c0.66,0.29 1.26,1.08 1.61,1.88 0.47,1.07 0.38,1.75 0.61,2.88l0.53 -0.01c0.06,-0.64 0.02,-4.64 0.01,-5.6 -0,-0.75 0.06,-1.54 0.92,-1.95 0.66,-0.32 1.85,-0.12 2.65,-0.19 -0.28,-0.52 -0.61,-0.79 -0.74,-1.64l-3.54 0c-0.22,1.04 -1.29,2.21 -2.05,2.54z"/>
   <path class="fil4" d="M5.96 24l0.07 1.42 1.07 -0c0.07,-0.57 0.02,-5.08 0.02,-6.06 0,-1.96 -0.12,-1.16 1.02,-2.03 0.49,-0.37 1.02,-1.02 1.18,-1.92 -0.32,0.13 -0.74,0.07 -1.09,0.07 -0.39,1.67 -1.09,2.06 -2.19,2.78 -0.09,0.88 0.13,5.42 -0.08,5.74z"/>
   <path class="fil4" d="M22.69 16.5c-0.03,0.37 -0.49,1.01 -0.64,1.21 -0.83,1.04 -1.95,1.75 -3.31,2.19 -0.07,0.71 0.03,4.41 -0.03,4.7l-0.06 0.17 0.07 0.66 1.08 -0c0.09,-0.57 0.03,-3.81 0.03,-4.83 -0,-1.94 0.15,-0.51 2.56,-2.34 0.39,-0.29 1.25,-1.24 1.43,-1.88 -0.48,0.23 -0.54,0.28 -1.12,0.14z"/>
   <path class="fil4" d="M20.93 20.32c0.03,0.37 0.39,0.48 0.8,1.01 1.14,1.46 1.11,2.5 1.41,4.09l0.53 0 0.02 -6.84c-0.22,0.13 -0.64,0.61 -1.27,0.99 -0.7,0.43 -1.23,0.59 -1.49,0.75z"/>
   <path class="fil2" d="M23.14 15.43c0.35,-0.57 1.31,-0.87 1.91,-0.09 0.3,0.4 0.79,1.7 1.05,1.94 0.54,-0.65 1.12,-0.6 1.76,-0.09l0.33 -0.93c-1.37,-0.2 -1.89,-0.99 -2.74,-1.76 -0.21,-0.19 -0.39,-0.32 -0.59,-0.51l-1.71 -1.65 -0.01 3.1z"/>
   <path class="fil2" d="M29.77 11.8c0.5,-0.17 0.54,-0.16 1.1,-0.2 0,-1.5 0.52,-2.99 0.02,-4.43 -0.37,-1.07 -1.44,-2 -2.8,-2.17 0.43,0.34 0.53,0.17 1.19,1.06 0.69,0.92 0.87,2.47 0.67,3.63 -0.14,0.84 -0.18,1.2 -0.19,2.1z"/>
   <path class="fil4" d="M18.9 10.56c0.23,0.17 0.56,0.15 0.81,0.09 0.14,0.22 0.33,0.44 0.51,0.59 0.12,0.1 0.2,0.16 0.35,0.23 0.04,0.02 0.18,0.08 0.18,0.08 0.15,0.09 0.11,0.03 0.17,0.18 0.12,0.56 -0.2,3.74 0.13,4.12 0.12,0.14 0.32,0.22 0.55,0.17 0.3,-0.06 0.22,-0.24 0.45,-0.21l-0.04 -3.83c-0.83,-0.26 -1.15,-1.14 -1.43,-1.72 -0.68,0.29 -0.79,0.38 -1.69,0.32z"/>
   <path class="fil2" d="M29.02 15.18l0.59 -0.2c-0.18,-0.47 -0.51,-0.81 -0.64,-1.29 -0.19,-0.7 0.13,-1.16 0.36,-1.59 -0.44,0.15 -0.68,0 -1.07,0.29 -1,0.73 -0.02,1.88 0.49,2.82l0.28 -0.03z"/>
   <path class="fil5" d="M24.4 2.97c-0.18,1.12 0.42,2.61 1.15,3.06 0.35,0.21 0.89,0.21 1.15,-0.05 0.35,-0.35 -0.06,-0.56 -0.33,-0.71 -1.43,-0.82 -1.68,-1.92 -1.98,-2.3z"/>
   <path class="fil6" d="M18.72 27.62l0.25 0.01 2.28 -0 0.22 -0.01c-0,-1.32 -1.64,-1.16 -2.75,-1.09l0 1.09z"/>
   <path class="fil6" d="M6.01 27.38l0.01 0.25 2.75 -0c0,-0.73 -0.53,-1.11 -1.26,-1.11l-1.5 0 0 0.86z"/>
   <path class="fil6" d="M23.14 27.61l2.19 0.02c0.03,-1.07 -1.17,-1.3 -2.19,-1.08l0 1.05z"/>
   <path class="fil6" d="M10.43 27.62l2.19 0.01c0.01,-1.17 -1.13,-1.17 -2.2,-1.1l0 1.09z"/>
   <path class="fil4" d="M8.56 5.03c0.17,0.25 0.6,0.58 0.84,0.77 0.29,0.23 0.62,0.46 0.95,0.67 0.47,0.3 1.65,0.97 2.29,1.06 -0.14,-0.16 -1.29,-0.75 -1.9,-1.26 -0.92,-0.76 -0.9,-0.85 -1.63,-1.53l-0.56 0.29z"/>
   <path class="fil5" d="M30.58 4.86c0.22,0.25 0.45,0.4 0.6,0.67 0.49,-0.28 1,-1.84 0.74,-2.5 -0.12,0.15 -0.23,0.52 -0.57,1 -0.26,0.36 -0.54,0.53 -0.76,0.83z"/>
   <path class="fil4" d="M18.18 10.1l-0.02 -1.25 -1.2 -0.1c0.12,0.2 0.11,0.26 0.1,0.57 -0,0.22 -0.01,0.42 0.01,0.64 0.93,0.14 0.83,-0.07 1.1,0.14z"/>
   <path class="fil0" d="M28.5 8.34c-0.71,0.27 -0.37,1.24 0.34,1.02 0.64,-0.2 0.36,-1.28 -0.34,-1.02z"/>
   <path class="fil7" d="M30.49 14.18c0.31,-0.3 0.44,-0.95 0.36,-1.47 -0.46,-0.02 -0.79,0.05 -0.82,0.49 -0.02,0.31 0.3,0.82 0.46,0.97z"/>
  </g>
 </g>
</svg>
