<?xml version="1.0" encoding="UTF-8"?>
<!DOCTYPE svg PUBLIC "-//W3C//DTD SVG 1.1//EN" "http://www.w3.org/Graphics/SVG/1.1/DTD/svg11.dtd">
<!-- Creator: CorelDRAW -->
<svg xmlns="http://www.w3.org/2000/svg" xml:space="preserve" width="16mm" height="12.5767mm" version="1.1" style="shape-rendering:geometricPrecision; text-rendering:geometricPrecision; image-rendering:optimizeQuality; fill-rule:evenodd; clip-rule:evenodd"
viewBox="0 0 12.58 9.89"
 xmlns:xlink="http://www.w3.org/1999/xlink"
 xmlns:xodm="http://www.corel.com/coreldraw/odm/2003">
 <defs>
  <style type="text/css">
   <![CDATA[
    .fil0 {fill:black}
    .fil5 {fill:#365E7C}
    .fil4 {fill:#3E6D8D}
    .fil2 {fill:#EC625E}
    .fil1 {fill:#F77B68}
    .fil3 {fill:#F79990}
   ]]>
  </style>
 </defs>
 <g id="Camada_x0020_1">
  <metadata id="CorelCorpID_0Corel-Layer"/>
  <g id="_1469325976528">
   <path class="fil0" d="M4.45 7.27c0.14,0.16 0.1,0.18 0.52,0.08 0.19,-0.05 0.39,-0.16 0.56,-0.02 0.37,0.31 -0.21,0.76 -0.3,0.79 -0,0.01 -0.01,0.01 -0.01,0.02 -0.01,0.04 -0.2,0.14 -0.24,0.16 -0.36,0.17 -0.7,0.17 -1.08,0.05 -0.33,-0.1 -0.91,-0.44 -1.08,-0.64l0.17 -0.22 0.49 0.02c0.09,0 0.25,0.01 0.34,-0 0.15,-0.02 0.11,-0.07 0.18,-0.18 -0.04,-0.22 -0.14,-0.19 -0.39,-0.19 -0.21,0 -0.34,-0.02 -0.56,-0.02 -0.11,-0.24 -0.04,-0.17 -0.26,-0.42 -0.1,-0.12 -0.21,-0.28 -0.29,-0.43 -0.09,-0.19 0.05,-0.12 0.05,-0.48 -0,-0.22 -0.04,-0.06 0.11,-0.29 0.05,-0.07 0.1,-0.15 0.12,-0.25 0.07,0.03 0.03,0.02 0.12,0.02 0,0.14 0.03,0.32 0.04,0.45 0.04,0.35 -0,0.25 0.41,0.58 0.07,0.06 0.2,0.19 0.3,0.17 0.13,-0.02 0.21,-0.18 0.13,-0.31l-0.4 -0.33c-0.12,-0.11 -0.03,-0.46 -0.11,-0.63 0.33,-0.17 0.18,-0.11 0.42,-0.27 0.15,0.11 0.08,-0.02 0.19,0.3 0.14,0.44 0.11,0.41 0.43,0.55 0.08,0.03 0.62,0.38 0.61,-0.02 -0.01,-0.25 -0.47,-0.26 -0.58,-0.4 -0.03,-0.04 -0.12,-0.29 -0.13,-0.36 0.06,-0.03 0.13,-0.03 0.19,-0.05 0.07,-0.02 0.13,-0.05 0.2,-0.07 0.45,0.3 0.88,0.28 1.42,0.17 0.18,-0.04 0.32,-0.05 0.32,-0.27 -0.06,-0.07 -0.03,-0.09 -0.12,-0.12 -0.07,-0.02 -0.13,-0 -0.21,-0.01 -0.1,0.09 -0.56,0.1 -0.72,0.09 -1.24,-0.08 -0.78,-2.04 -0.11,-2.57 0.18,-0.14 0.37,-0.19 0.65,-0.16 0.17,0.01 0.6,0.01 0.71,0.08 0.15,-0.03 1.71,0.12 1.79,0.17 0.08,0.15 0.02,0.26 0.17,0.44 0.08,0.1 0.19,0.19 0.36,0.23 0.25,0.07 0.51,-0.02 0.67,-0.19 0.05,-0.05 0.08,-0.12 0.13,-0.16 0.1,0.03 0.42,0.15 0.49,0.22 -0.02,0.06 -0.01,0.05 -0.08,0.09 -0.2,0.14 -1.42,0.77 -1.59,0.85 -0.3,0.14 -0.58,0.27 -0.9,0.41 -0.61,0.26 -0.8,0.21 -0.78,0.52 0.14,0.21 0.51,-0.01 0.79,-0.12 0.1,-0.04 0.16,-0.08 0.27,-0.1l0.85 0.63c0.17,0.12 0.14,0.06 0.2,0.3 0.07,0.28 0.13,0.51 0.2,0.79 0.06,0.26 0.1,0.68 0.36,0.58 0.22,-0.08 0.07,-0.44 -0.01,-0.74 -0.06,-0.25 -0.13,-0.52 -0.2,-0.79 -0.08,-0.33 -0.05,-0.24 -0.44,-0.54 -0.1,-0.07 -0.51,-0.36 -0.56,-0.42 0.15,-0.04 0.21,-0.15 0.37,-0.1 0.14,0.04 0.29,0.09 0.42,0.12 0.16,0.04 0.73,0.18 0.81,0.27 0.04,0.04 0.07,0.1 0.11,0.16 0.05,0.06 0.07,0.09 0.12,0.15l0.7 0.92c0.11,0.08 0.28,0.03 0.29,-0.13 0.01,-0.12 -0.13,-0.27 -0.19,-0.35 -0.16,-0.21 -0.3,-0.4 -0.46,-0.62 -0.17,-0.22 -0.33,-0.51 -0.52,-0.56 -0.27,-0.07 -0.56,-0.17 -0.84,-0.24 0.04,-0.06 0.27,-0.17 0.34,-0.2 0.09,-0.03 0.35,0 0.52,0 1.21,0 2.68,-0.35 2.68,-1.76l0 -0.03c-0,-0.38 -0.07,-0.65 -0.21,-0.9 -0.27,-0.49 -0.8,-0.76 -1.34,-0.9 -0.15,-0.04 -0.81,-0.15 -0.99,-0.09 -0.16,0.04 -0.18,0.26 -0.06,0.34 0.12,0.07 0.33,0.03 0.51,0.05 0.81,0.11 1.47,0.34 1.67,1.11 0.32,1.26 -0.84,1.78 -2.03,1.78 0.05,-0.07 0.12,-0.07 0.2,-0.14 0.26,-0.2 0.21,-0.53 -0.02,-0.69 -0.07,-0.05 -0.16,-0.07 -0.24,-0.11 -0.41,-0.18 -0.35,-0.08 -0.41,-0.28 -0.03,-0.1 -0.07,-0.17 -0.13,-0.24 -0.12,-0.13 -0.22,-0.21 -0.44,-0.25 -0.21,-0.04 -0.43,0.06 -0.53,0.15 -0.04,0.03 -0.05,0.05 -0.09,0.09 -0.07,0.07 -0.02,0.05 -0.09,0.05l-0.97 -0.09c-0.29,-0.03 -1.71,-0.19 -1.89,-0.16 -0.5,0.08 -0.3,0.16 -0.53,0.05 -0.36,-0.18 -1.4,-0.13 -1.8,0.07 -0.18,0.09 -0.27,0.18 -0.38,0.34 -0.54,0 -1.22,0.27 -1.41,0.83 -0.05,0.15 -0.03,0.12 -0.17,0.18 -0.35,0.15 -0.83,0.6 -0.89,1.05 -0.04,0.3 0.07,0.24 -0.01,0.38 -0.18,0.31 -0.35,0.48 -0.36,1.06l0 0.07c0,0.27 0.07,0.51 0.24,0.69 0.25,0.26 0.24,0.52 0.5,0.8 0.18,0.19 0.07,0.12 0.34,0.33 0.16,0.12 0.46,0.3 0.66,0.32 0.31,1.31 1.19,2.45 2.68,1.99 0.34,-0.1 0.52,-0.34 0.51,-0.69 -0,-0.22 -0.04,-0.2 -0.08,-0.34 0.29,-0.14 0.45,-0.16 0.77,-0.46 0.09,-0.09 0.21,-0.22 0.28,-0.34 0.09,-0.15 0.14,-0.31 0.09,-0.51 -0.07,-0.29 -0.34,-0.57 -0.69,-0.56 -0.14,0 -0.37,0.09 -0.5,0.12 -0.2,0.05 -0.36,0.03 -0.36,0.27z"/>
   <path class="fil1" d="M5.98 4.66c0.08,0.01 0.15,-0.01 0.21,0.01 0.09,0.03 0.06,0.05 0.12,0.12 0.15,-0 0.32,-0.11 0.47,-0.12 -0.02,-0.31 0.17,-0.26 0.78,-0.52 0.31,-0.14 0.6,-0.27 0.9,-0.41 0.16,-0.08 1.38,-0.71 1.59,-0.85 0.07,-0.05 0.06,-0.03 0.08,-0.09 -0.06,-0.07 -0.39,-0.18 -0.49,-0.22 -0.05,0.04 -0.08,0.11 -0.13,0.16 -0.16,0.17 -0.42,0.26 -0.67,0.19 -0.17,-0.04 -0.28,-0.14 -0.36,-0.23 -0.15,-0.18 -0.09,-0.29 -0.17,-0.44 -0.08,-0.05 -1.65,-0.19 -1.79,-0.17 -0.13,0.03 -0.07,-0.01 -0.18,0 -0.04,0.05 -0.07,0.07 -0.12,0.13 -0.35,0.45 -0.66,1.27 -0.52,1.87 0.04,0.19 0.18,0.49 0.3,0.56z"/>
   <path class="fil2" d="M5.98 4.66c-0.12,-0.07 -0.25,-0.37 -0.3,-0.56 -0.14,-0.6 0.18,-1.42 0.52,-1.87 0.04,-0.06 0.08,-0.08 0.12,-0.13 0.12,-0.01 0.06,0.03 0.18,0 -0.11,-0.07 -0.54,-0.07 -0.71,-0.08 -0.28,-0.02 -0.47,0.02 -0.65,0.16 -0.67,0.53 -1.13,2.49 0.11,2.57 0.16,0.01 0.62,0 0.72,-0.09z"/>
   <path class="fil1" d="M3.23 3.49l-0 -0.08c0.13,-0.07 0.78,-0.26 0.92,-0.15 0.02,-0.02 0.22,-0.58 0.27,-0.68 0.18,-0.35 0.22,-0.34 0.37,-0.57 -0.33,-0.12 -1.18,-0.04 -1.46,0.12 -0.23,0.13 -0.22,0.3 -0.2,0.63 0.01,0.18 0.02,0.62 0.11,0.73z"/>
   <path class="fil2" d="M2.15 4.25c-0.02,-0.1 0.02,-0.14 0.08,-0.22 0.04,-0.05 0.12,-0.14 0.17,-0.18 0.12,-0.09 0.3,-0.17 0.47,-0.21 -0.03,-0.19 -0.07,-0.37 -0.08,-0.56 -0.02,-0.19 -0.01,-0.42 -0.03,-0.61 -0.45,0.07 -0.87,0.21 -0.98,0.6 -0.09,0.31 0.23,1.07 0.39,1.18z"/>
   <path class="fil1" d="M3.98 7.34c-0.06,0.11 -0.02,0.15 -0.18,0.18 -0.09,0.01 -0.25,0.01 -0.34,0 0.09,0.11 0.55,0.37 0.73,0.45 0.4,0.16 0.55,0.17 1.02,0.16 0.1,-0.04 0.67,-0.49 0.3,-0.79 -0.17,-0.14 -0.37,-0.03 -0.56,0.02 -0.42,0.11 -0.37,0.08 -0.52,-0.08 -0.16,0.01 -0.32,0.03 -0.47,0.07z"/>
   <path class="fil1" d="M1.47 5.22c0.02,-0.21 0.33,-0.52 0.46,-0.59 -0.1,-0.18 -0.2,-0.34 -0.3,-0.54 -0.05,-0.1 -0.08,-0.19 -0.13,-0.29 -0.04,-0.1 -0.07,-0.23 -0.12,-0.32 -0.24,0.09 -0.71,0.51 -0.63,0.9 0.05,0.24 0.57,0.75 0.73,0.85z"/>
   <path class="fil3" d="M3.23 3.49c-0.03,0.41 0.45,1.49 1.08,1.09 -0.07,-0.22 -0.15,-0.3 -0.19,-0.59 -0.04,-0.29 0.04,-0.49 0.02,-0.73 -0.14,-0.11 -0.78,0.08 -0.92,0.15l0 0.08z"/>
   <path class="fil1" d="M4.21 9.43c-0.53,-0.14 -0.82,-0.33 -1.09,-0.75l-0.17 -0.28c-0,-0.01 -0.01,-0.04 -0.01,-0.05 -0,-0.07 -0.05,-0.01 0.01,-0.05 -0.11,-0.09 -0.23,-0.16 -0.34,-0.25 -0.19,-0.15 -0.12,-0.17 -0.45,-0.18 0.13,0.63 0.58,1.39 1.24,1.58 0.19,0.05 0.41,0.06 0.61,0.04 0.08,-0.01 0.14,-0.02 0.2,-0.06z"/>
   <path class="fil2" d="M1.39 6.32c-0.05,-0.14 -0.14,-0.57 -0,-0.7 -0.15,-0.12 -0.48,-0.39 -0.61,-0.55 -0.07,-0.09 -0.09,-0.13 -0.18,-0.2 -0.21,0.25 -0.44,1.17 0.18,1.41 0.19,0.07 0.41,0.04 0.62,0.03z"/>
   <path class="fil2" d="M5.22 8.13c-0.47,0 -0.61,0 -1.02,-0.16 -0.18,-0.07 -0.65,-0.33 -0.73,-0.45l-0.49 -0.02 -0.17 0.22c0.16,0.2 0.74,0.53 1.08,0.64 0.38,0.11 0.72,0.12 1.08,-0.05 0.04,-0.02 0.23,-0.12 0.24,-0.16 0,-0.01 0.01,-0.01 0.01,-0.02z"/>
   <path class="fil1" d="M2.15 4.25c0.02,0.16 0.33,0.47 0.45,0.55 0.31,0.22 0.52,0.06 0.74,-0.08 -0.07,-0.14 -0.17,-0.18 -0.29,-0.49 -0.08,-0.19 -0.13,-0.39 -0.18,-0.59 -0.17,0.04 -0.35,0.12 -0.47,0.21 -0.05,0.04 -0.13,0.12 -0.17,0.18 -0.06,0.08 -0.1,0.12 -0.08,0.22z"/>
   <path class="fil1" d="M2.61 7.13c-0.02,0.02 -0.01,0.06 -0.16,0.01l-0.4 -0.16 -0.34 -0.25c-0.04,-0.04 -0.06,-0.03 -0.03,-0.09 -0.27,0.05 -0.49,0.07 -0.78,0.06 0.17,0.46 0.86,0.82 1.44,0.82 0.23,0 0.4,-0.19 0.28,-0.39z"/>
   <path class="fil3" d="M4.21 9.43c0.21,0.03 0.39,-0.16 0.36,-0.38 -0.06,-0.39 -0.4,-0.07 -1.37,-0.6 -0.1,-0.05 -0.16,-0.11 -0.25,-0.15 -0.06,0.04 -0.02,-0.02 -0.01,0.05 0,0.01 0.01,0.04 0.01,0.05l0.17 0.28c0.28,0.42 0.56,0.61 1.09,0.75z"/>
   <path class="fil3" d="M1.47 5.22c0.13,0.1 0.3,0.24 0.5,0.27 0.3,0.03 0.31,-0.16 0.44,-0.34 -0.06,-0.1 -0.18,-0.16 -0.25,-0.24 -0.07,-0.08 -0.15,-0.2 -0.23,-0.28 -0.13,0.07 -0.44,0.38 -0.46,0.59z"/>
   <path class="fil1" d="M1.39 6.32c0.34,-0.04 0.71,-0.14 0.75,-0.47 -0.35,0.03 -0.52,-0.09 -0.75,-0.23 -0.14,0.12 -0.05,0.56 0,0.7z"/>
   <path class="fil3" d="M1.68 6.64c-0.03,0.05 -0.02,0.04 0.03,0.09l0.34 0.25 0.4 0.16c0.15,0.04 0.14,0.01 0.16,-0.01l-0.25 -0.32c-0.08,-0.1 -0.15,-0.26 -0.22,-0.33 -0.15,0.07 -0.28,0.13 -0.46,0.17z"/>
   <path class="fil4" d="M9.05 2.59c0.36,-0.08 0.36,-0.53 0.01,-0.63 -0.13,0.28 -0.15,0.31 -0.01,0.63z"/>
   <path class="fil5" d="M9.05 2.59c-0.14,-0.31 -0.12,-0.35 0.01,-0.63 -0.48,-0.04 -0.52,0.64 -0.01,0.63z"/>
  </g>
 </g>
</svg>
