<?xml version="1.0" encoding="UTF-8"?>
<!DOCTYPE svg PUBLIC "-//W3C//DTD SVG 1.1//EN" "http://www.w3.org/Graphics/SVG/1.1/DTD/svg11.dtd">
<!-- Creator: CorelDRAW -->
<svg xmlns="http://www.w3.org/2000/svg" xml:space="preserve" width="13.0104mm" height="16mm" version="1.1" style="shape-rendering:geometricPrecision; text-rendering:geometricPrecision; image-rendering:optimizeQuality; fill-rule:evenodd; clip-rule:evenodd"
viewBox="0 0 7.61 9.35"
 xmlns:xlink="http://www.w3.org/1999/xlink"
 xmlns:xodm="http://www.corel.com/coreldraw/odm/2003">
 <defs>
  <style type="text/css">
   <![CDATA[
    .fil0 {fill:black}
    .fil2 {fill:#86BF25}
    .fil1 {fill:#9FE12D}
    .fil3 {fill:#BAEB6C}
    .fil5 {fill:#F9E1BF}
    .fil4 {fill:#FDF0D8}
   ]]>
  </style>
 </defs>
 <g id="Camada_x0020_1">
  <metadata id="CorelCorpID_0Corel-Layer"/>
  <g id="_1433375300944">
   <path class="fil0" d="M2.63 1.87c0.2,-0.03 0.14,-0.22 0.14,-0.42 0,-0.19 0,-0.38 0,-0.57 0.26,0.08 0.38,0.14 0.7,0.14 0.41,-0 0.43,-0.07 0.69,-0.14l0 1.81c0,0.28 0.05,0.3 -0.18,0.4 -0.28,0.12 -0.73,0.11 -1.02,0 -0.22,-0.09 -0.18,-0.17 -0.18,-0.42 0,-0.2 0.06,-0.4 -0.14,-0.44 -0.16,0 -0.13,0.18 -0.13,0.34 0,0.16 0,0.33 0,0.49 -0.05,-0.03 -0.09,-0.14 -0.13,-0.2 -0.15,-0.24 -0.58,-0.77 -0.86,-0.79 -0.28,-0.02 -0.55,0.3 -0.82,0.51 -0.04,0.03 -0.05,0.04 -0.09,0.08l-0.21 0.28c-0.38,0.69 -0.48,1.4 -0.34,2.2 0.02,0.11 0.07,0.44 0.19,0.47 0.24,0.06 0.21,-0.42 0.41,-0.91 0.14,-0.36 0.42,-1.04 0.74,-1.26 0.05,0.07 0.1,0.12 0.15,0.18 0.17,0.22 0.27,0.32 0.44,0.58 0.14,0.22 0.42,0.63 0.51,0.86 0.04,0.1 0.02,1.96 0.02,2.36 -0,0.14 0.01,0.2 0.13,0.21 0.18,-0.03 0.14,-0.17 0.14,-0.34 -0,-0.16 -0,-0.33 0,-0.49 0.26,0.08 0.37,0.14 0.69,0.14 0.31,-0 0.44,-0.05 0.69,-0.14l0 1.82c0,0.11 0.02,0.2 -0.04,0.27 -0.21,0.2 -0.89,0.23 -1.23,0.06 -0.16,-0.09 -0.12,-0.19 -0.12,-0.49 0,-0.3 0.05,-0.42 -0.14,-0.46 -0.16,0.04 -0.13,0.11 -0.13,0.3 0,0.57 -0.1,0.76 0.37,0.95 0.13,0.05 0.28,0.08 0.44,0.1l0.33 0 0.01 -0c0.15,-0.01 0.39,-0.07 0.52,-0.14 0.05,-0.03 0.09,-0.06 0.14,-0.08 0.19,0.13 0.4,0.19 0.62,0.22l0.38 0c0.12,-0.01 0.24,-0.04 0.36,-0.07 0.58,-0.18 0.44,-0.56 0.44,-1.21 0,-0.13 -0.03,-1.13 0.01,-1.21l0.49 -0.53c0.04,-0.05 0.06,-0.08 0.09,-0.13 0.69,-0.92 1.03,-1.98 0.86,-3.17 -0.01,-0.09 -0.04,-0.25 -0.06,-0.34 -0.08,-0.31 -0.36,-0 -0.46,0.08 -0.08,0.06 -0.14,0.13 -0.21,0.21 -0.22,0.22 -0.64,0.71 -0.7,0.96 -0.02,-0.02 0,0.01 -0.02,-0.03 -0.02,-0.03 -0.01,-0.02 -0.03,-0.04 -0.03,-0.04 -0.03,-0.04 -0.1,-0.06 -0.27,0.05 -0.09,0.41 -0.16,0.62 -0.04,0.13 -0.38,0.2 -0.56,0.21 -0.19,0.01 -0.38,0 -0.55,-0.05 -0.2,-0.06 -0.27,-0.09 -0.27,-0.32 0,-0.39 -0.01,-0.8 0,-1.19 0.16,0.05 0.25,0.1 0.44,0.12 0.18,0.02 0.36,-0.01 0.51,0.01 0.05,-0.03 0.16,-0.04 0.23,-0.06 0.07,-0.02 0.13,-0.05 0.2,-0.07 0,0.19 -0.05,0.33 0.15,0.36 0.19,-0.02 0.13,-0.3 0.13,-0.65 0,-0.49 -0.58,-0.58 -0.99,-0.58 -0.43,-0 -0.57,0.12 -0.68,0.13 0,-0.52 0,-1.04 0,-1.55 0,-0.35 0.03,-0.43 -0.19,-0.6 -0.15,-0.11 -0.38,-0.17 -0.62,-0.19l-0.27 0c-0.41,0.03 -0.8,0.17 -0.85,0.42 -0.02,0.11 -0,0.93 -0,1.17 -0,0.17 -0.03,0.25 0.13,0.28z"/>
   <path class="fil1" d="M2.63 1.87l0 0.36c0.2,0.03 0.14,0.24 0.14,0.44 -0,0.25 -0.04,0.33 0.18,0.42 0.29,0.11 0.74,0.12 1.02,-0 0.23,-0.1 0.18,-0.12 0.18,-0.4l0 -1.81c-0.26,0.06 -0.28,0.13 -0.69,0.14 -0.31,0 -0.44,-0.05 -0.7,-0.14 0,0.19 0,0.38 0,0.57 0,0.2 0.06,0.39 -0.14,0.42z"/>
   <path class="fil1" d="M2.63 7.65l0 0.36c0.19,0.04 0.14,0.17 0.14,0.46 0,0.3 -0.04,0.4 0.12,0.49 0.33,0.17 1.02,0.15 1.23,-0.06 0.06,-0.06 0.04,-0.16 0.04,-0.27l-0 -1.82c-0.25,0.08 -0.38,0.14 -0.69,0.14 -0.32,0 -0.43,-0.06 -0.69,-0.14 -0.01,0.16 -0,0.33 -0,0.49 0,0.17 0.04,0.32 -0.14,0.34z"/>
   <path class="fil1" d="M4.16 3.86c-0.37,0.18 -1,0.19 -1.37,-0 -0.02,0.12 -0.01,1.54 -0.01,1.84 -0,0.16 -0.03,0.22 0.08,0.29 0.3,0.19 0.93,0.18 1.22,0 0.11,-0.07 0.09,-0.11 0.09,-0.27 -0,-0.33 0.01,-1.7 -0.01,-1.85z"/>
   <path class="fil2" d="M6.1 6.47c0.06,-0.04 0.07,-0.07 0.12,-0.12 0.68,-0.75 1.1,-1.69 1.1,-2.75 0,-0.15 -0.01,-0.53 -0.07,-0.64 -0.09,0.05 -0.22,0.2 -0.29,0.27l-0.27 0.31c-0.17,0.22 -0.3,0.45 -0.43,0.74 -0.19,0.42 -0.16,0.52 -0.16,1.01 0,0.39 -0,0.78 0,1.17z"/>
   <path class="fil3" d="M5.26 4.64l0.06 -0.06c0.01,-0.01 0.03,-0.03 0.04,-0.05 0.04,-0.04 0.04,-0.08 0.05,-0.15 0.01,-0.16 0.01,-1.11 -0.01,-1.16 -0.15,-0.02 -0.33,0.01 -0.51,-0.01 -0.2,-0.02 -0.29,-0.07 -0.44,-0.12 -0.01,0.39 0,0.79 -0,1.19 -0,0.23 0.07,0.26 0.27,0.32 0.17,0.05 0.36,0.06 0.55,0.05z"/>
   <path class="fil3" d="M5.23 9.08c0,-0 0.01,-0.01 0.01,-0.01l0.05 -0.03c0.17,-0.12 0.12,-0.29 0.12,-0.58 0,-0.25 0.01,-0.54 -0,-0.79 -0.4,0.06 -0.63,0 -0.97,-0.12 0,0.39 0,0.77 -0,1.16 -0,0.15 -0.02,0.23 0.28,0.31 0.15,0.04 0.34,0.07 0.51,0.05z"/>
   <path class="fil3" d="M4.95 6.84c0.13,-0.02 0.26,0.06 0.37,-0.04 0.11,-0.1 0.09,-0.19 0.09,-0.37 -0.14,-0.02 -0.14,-0.1 -0.14,-0.24 0,-0.13 0.01,-0.2 0.14,-0.22l0 -0.52c-0.39,0.05 -0.64,0.01 -0.97,-0.12 -0.03,0.28 -0,0.7 -0,1 0,0.2 -0.04,0.31 0.1,0.4 0.09,0.06 0.28,0.12 0.41,0.11z"/>
   <path class="fil3" d="M2.06 3.86c0.05,-0.07 0.02,-0.83 0.02,-0.9 -0.09,-0.16 -0.33,-0.41 -0.46,-0.53 -0.13,-0.11 -0.21,-0.08 -0.32,0.02 -0.05,0.05 -0.1,0.08 -0.14,0.12 -0.06,0.05 -0.08,0.06 -0.14,0.12l0.41 0.41c0.11,0.11 0.53,0.63 0.63,0.76z"/>
   <path class="fil1" d="M5.4 3.22c0.03,0.05 0.02,1 0.01,1.16 -0,0.08 -0.01,0.11 -0.05,0.15 -0.01,0.01 -0.03,0.04 -0.04,0.05l-0.06 0.06c0.18,-0.01 0.52,-0.09 0.56,-0.21 0.06,-0.21 -0.12,-0.57 0.16,-0.62l0 -0.36c-0.2,-0.03 -0.15,-0.17 -0.15,-0.36 -0.06,0.02 -0.13,0.05 -0.2,0.07 -0.07,0.02 -0.18,0.03 -0.23,0.06z"/>
   <path class="fil2" d="M0.3 4.87c0.11,-0.33 0.21,-0.6 0.36,-0.89 0.1,-0.19 0.24,-0.42 0.37,-0.58 0.06,-0.07 0.12,-0.1 0.15,-0.18 -0.29,-0.18 -0.35,-0.72 -0.72,0.23 -0.14,0.36 -0.26,0.99 -0.16,1.41z"/>
   <path class="fil1" d="M5.41 7.67c0.02,0.25 0,0.54 0,0.79 0,0.29 0.05,0.45 -0.12,0.58l-0.05 0.03c-0,-0 -0.01,0.01 -0.01,0.01 0.16,-0.01 0.3,-0.03 0.44,-0.09 0.19,-0.08 0.16,-0.15 0.16,-0.36 -0,-0.35 0,-0.71 0,-1.06 -0.13,0.03 -0.25,0.09 -0.42,0.11z"/>
   <path class="fil1" d="M5.41 5.46l-0 0.52c0.14,0.03 0.14,0.09 0.14,0.24 -0,0.14 -0.01,0.19 -0.14,0.22 0,0.18 0.02,0.27 -0.09,0.37 -0.11,0.11 -0.25,0.03 -0.37,0.04 0.1,0.08 0.57,0 0.76,-0.1 0.09,-0.05 0.12,-0.06 0.12,-0.19 0,-0.39 0.02,-0.83 -0,-1.22 -0.15,0.04 -0.23,0.09 -0.41,0.12z"/>
   <path class="fil1" d="M2.06 3.86c0.15,0.18 0.37,0.57 0.44,0.64 0,-0.27 0.04,-0.68 -0.06,-0.91 -0.1,-0.21 -0.22,-0.49 -0.35,-0.63 0,0.07 0.03,0.84 -0.02,0.9z"/>
   <path class="fil4" d="M4.48 2.77c0.31,0.1 1.08,0.09 1.22,-0.16 -0.25,-0.19 -1.15,-0.16 -1.26,0.11 0.02,0.04 -0.01,0 0.01,0.02 0.02,0.02 0.01,0.01 0.03,0.02z"/>
   <path class="fil4" d="M2.83 0.57c0.32,0.03 0.58,0.11 0.97,-0.02l0.19 -0.09c0.08,-0.06 0.03,0.01 0.05,-0.08 -0.24,-0.08 -0.42,-0.12 -0.7,-0.1 -0.2,0.02 -0.53,0.07 -0.55,0.25 0.05,0.06 0,0.01 0.05,0.03z"/>
   <path class="fil4" d="M5.27 5.2c0.04,-0.06 0.2,-0.16 0.13,-0.28 -0.14,-0.02 -0.35,0.01 -0.53,-0.01 -0.17,-0.02 -0.28,-0.07 -0.43,-0.12 -0,0.18 -0.04,0.27 0.26,0.36 0.17,0.05 0.38,0.06 0.56,0.05z"/>
   <path class="fil4" d="M3.57 3.72c0,-0 0.01,-0.01 0.01,-0.01 0,-0 0.01,-0.01 0.01,-0.01l0.03 -0.02c0.02,-0.01 0.01,-0.01 0.03,-0.02 0.1,-0.07 0.09,-0.14 0.1,-0.24 -0.19,0.02 -0.34,0.03 -0.53,0 -0.2,-0.02 -0.28,-0.07 -0.44,-0.12 -0.01,0.2 -0.03,0.26 0.24,0.35 0.15,0.05 0.37,0.07 0.54,0.06z"/>
   <path class="fil4" d="M5.3 7.41c-0.04,-0.01 -0.02,0.03 -0.03,-0.02 0.1,-0.08 0.14,-0.1 0.14,-0.27 -0.46,0.05 -0.59,0 -0.97,-0.12 -0.01,0.19 -0.03,0.28 0.27,0.36 0.23,0.07 0.36,0.04 0.59,0.05z"/>
   <path class="fil4" d="M3.3 6.66c0.09,-0.03 0.26,0.02 0.33,-0.02 0.07,-0.04 0.12,-0.12 0.12,-0.23l-0.05 -0.01c-0.42,-0.06 -0.21,0.09 -0.92,-0.14 0,0.2 -0.01,0.24 0.15,0.32 0.11,0.05 0.25,0.09 0.38,0.08z"/>
   <path class="fil5" d="M2.83 0.57c0.12,0.15 0.54,0.18 0.7,0.17 0.23,-0.01 0.56,-0.06 0.63,-0.23 -0.03,-0.09 -0.07,-0.08 -0.13,-0.13 -0.02,0.09 0.03,0.02 -0.05,0.08l-0.19 0.09c-0.39,0.13 -0.64,0.05 -0.97,0.02z"/>
   <path class="fil5" d="M4.48 2.77c0.13,0.26 1.29,0.25 1.34,-0.06 -0.04,-0.07 -0.04,-0.06 -0.12,-0.1 -0.14,0.25 -0.9,0.26 -1.22,0.16z"/>
   <path class="fil0" d="M4.81 3.56c-0.12,0.05 -0.09,0.22 -0.09,0.37 -0,0.14 0.01,0.31 0.19,0.25 0.12,-0.04 0.09,-0.23 0.09,-0.38 0,-0.13 -0.01,-0.32 -0.19,-0.24z"/>
   <path class="fil0" d="M3.22 7.34c-0.13,0.05 -0.09,0.22 -0.09,0.37 -0,0.14 0.01,0.31 0.19,0.25 0.12,-0.04 0.08,-0.23 0.08,-0.38 0,-0.13 -0.02,-0.3 -0.18,-0.24z"/>
   <path class="fil0" d="M3.15 1.97c-0.17,0.08 -0.08,0.55 -0.07,0.56 0.03,0.04 0.09,0.08 0.17,0.05 0.13,-0.04 0.09,-0.26 0.09,-0.38 0,-0.13 -0.02,-0.31 -0.18,-0.24z"/>
   <path class="fil0" d="M4.74 5.81c-0.12,0.07 -0.08,0.24 -0.08,0.39 -0,0.13 0.04,0.31 0.21,0.22 0.12,-0.07 0.07,-0.52 0.04,-0.56 -0.03,-0.05 -0.1,-0.07 -0.16,-0.04z"/>
   <path class="fil0" d="M3.13 5.02l0 0.27c0,0.25 0.27,0.25 0.27,0l0 -0.27c0,-0.25 -0.27,-0.25 -0.27,0z"/>
   <path class="fil5" d="M3.7 6.4l0.05 0.01c-0,0.11 -0.05,0.19 -0.12,0.23 -0.07,0.04 -0.24,-0.01 -0.33,0.02 0.09,0.07 0.46,0 0.57,-0.03 0.35,-0.09 0.29,-0.19 0.29,-0.37 -0.07,0.02 -0.14,0.05 -0.22,0.07 -0.07,0.02 -0.2,0.03 -0.25,0.06z"/>
   <path class="fil5" d="M3.75 3.43c-0,0.1 -0,0.17 -0.1,0.24 -0.02,0.01 -0.02,0.01 -0.03,0.02l-0.03 0.02c-0,0 -0.01,0.01 -0.01,0.01 -0,0 -0.01,0.01 -0.01,0.01 0.15,-0.01 0.3,-0.03 0.42,-0.09 0.18,-0.08 0.18,-0.1 0.18,-0.33 -0.15,0.05 -0.24,0.08 -0.41,0.12z"/>
   <path class="fil5" d="M5.41 7.12c-0,0.17 -0.04,0.2 -0.14,0.27 0.01,0.05 -0.01,0.01 0.03,0.02 0.14,-0.03 0.25,-0.04 0.37,-0.1 0.16,-0.08 0.16,-0.11 0.15,-0.31 -0.15,0.05 -0.23,0.08 -0.41,0.12z"/>
   <path class="fil5" d="M5.4 4.92c0.07,0.12 -0.09,0.22 -0.13,0.28 0.14,-0.01 0.27,-0.04 0.39,-0.09 0.17,-0.07 0.17,-0.12 0.17,-0.32l-0.43 0.13z"/>
   <path class="fil0" d="M3.69 1.42c-0.1,0.05 -0.09,0.17 -0.08,0.3 0.01,0.11 0.1,0.18 0.21,0.13 0.13,-0.06 0.1,-0.55 -0.13,-0.42z"/>
   <path class="fil0" d="M3.71 8.16c-0.11,0.03 -0.11,0.15 -0.1,0.28 0.01,0.11 0.08,0.2 0.2,0.15 0.14,-0.06 0.13,-0.5 -0.1,-0.44z"/>
   <path class="fil0" d="M5.41 6.43c0.13,-0.02 0.14,-0.08 0.14,-0.22 0,-0.15 0,-0.21 -0.14,-0.24 -0.13,0.02 -0.14,0.09 -0.14,0.22 -0,0.14 0,0.21 0.14,0.24z"/>
   <path class="fil0" d="M3.61 4.55l0 0.07c0,0.26 0.28,0.26 0.28,0l0 -0.07c0,-0.27 -0.28,-0.26 -0.28,0z"/>
   <path class="fil0" d="M4.72 8.17l0 0.07c0,0.27 0.27,0.25 0.27,0 0,-0.11 0.01,-0.26 -0.13,-0.26 -0.12,-0.01 -0.14,0.09 -0.14,0.19z"/>
  </g>
 </g>
</svg>
