<?xml version="1.0" encoding="UTF-8"?>
<!DOCTYPE svg PUBLIC "-//W3C//DTD SVG 1.1//EN" "http://www.w3.org/Graphics/SVG/1.1/DTD/svg11.dtd">
<!-- Creator: CorelDRAW -->
<svg xmlns="http://www.w3.org/2000/svg" xml:space="preserve" width="16mm" height="14.6638mm" version="1.1" style="shape-rendering:geometricPrecision; text-rendering:geometricPrecision; image-rendering:optimizeQuality; fill-rule:evenodd; clip-rule:evenodd"
viewBox="0 0 26.27 24.07"
 xmlns:xlink="http://www.w3.org/1999/xlink"
 xmlns:xodm="http://www.corel.com/coreldraw/odm/2003">
 <defs>
  <style type="text/css">
   <![CDATA[
    .fil0 {fill:black}
    .fil3 {fill:#A66D09}
    .fil4 {fill:#CCCBC6}
    .fil2 {fill:#E5AE88}
    .fil1 {fill:#E9E8E3}
    .fil5 {fill:#EE9D0D}
   ]]>
  </style>
 </defs>
 <g id="Camada_x0020_1">
  <metadata id="CorelCorpID_0Corel-Layer"/>
  <g id="_1471221985664">
   <path class="fil0" d="M15.76 0.44c0,0.27 0.17,0.38 0.33,0.49l1.35 1.16c0.3,0.31 0.51,0.51 0.79,0.85 0.24,0.3 0.52,0.66 0.7,1 -0.53,0 -1.06,0 -1.59,0 -1.01,0 -1.69,-0.12 -0.57,1.71 0.21,0.35 0.62,0.7 1.06,0.8 -0.08,0.12 -1.74,1.86 -1.91,1.86 -4.35,0 -6.26,-0.08 -10.59,-0.68 -1.45,-0.2 -0.87,0.24 -2.39,-1l-1.92 -1.47c-1.14,-0.88 -1.16,1.17 -0.6,2.46 0.15,0.34 0.61,0.95 0.89,1.13 -0.22,0.33 -0.53,0.5 -0.88,1.2 -0.45,0.92 -0.44,1.36 -0.44,2.35 0,0.7 0.36,1.45 0.58,1.99l1.09 2.73c0.01,0.15 -0.63,1.55 -0.73,1.8 -0.73,1.78 0.1,2.38 1.34,4.39 0.12,0.2 0.2,0.31 0.31,0.51 0.11,0.19 0.2,0.34 0.48,0.34l4.38 0c0.99,0 -0.06,-1.59 -0.26,-1.99 -0.27,-0.54 -0.51,-1.05 -0.78,-1.57 0.39,-0.19 0.74,-0.41 0.88,-0.98 0.25,0.19 0.35,0.88 1.31,0.88 0.5,0 0.87,-0.33 1.04,-0.66 0.32,-0.61 0.01,-0.79 0,-1.37 0.25,-0.06 0.48,-0.26 0.69,-0.4 0.24,-0.15 0.59,-0.12 0.94,-0.15 0.3,-0.03 0.64,-0.1 0.94,-0.16 0.28,-0.06 0.65,-0.19 0.93,-0.21 0,0.72 -0.02,1.47 -0,2.19 0.01,0.4 0.46,1.19 0.62,1.57 0.23,0.53 0.45,0.99 0.67,1.52 0.11,0.27 0.21,0.5 0.33,0.76 0.13,0.27 0.21,0.58 0.57,0.58l4.38 0c0.31,0 0.44,-0.2 0.44,-0.49 0,-0.26 -1.7,-4.16 -1.7,-4.38 0,-0.4 0.12,-0.88 0.18,-1.3 0.05,-0.33 0.2,-0.93 0.2,-1.27l1.64 0c0.8,0 0.23,-1.01 0.21,-1.09 -0.06,-0.22 -0.08,-0.49 -0.1,-0.77 -0.02,-0.23 -0.13,-0.47 -0.24,-0.64 -0.45,-0.66 -0.63,-0.07 -0.29,-1.04 0.24,-0.69 1.97,-3.08 2.06,-3.47l0.22 0c0.23,0.99 0.55,1.65 1.37,2.24 1.32,0.96 1.26,-0.01 1.26,-0.71 -0,-0.51 0,-1.02 0,-1.53 0.37,-0.09 0.66,-0.23 0.89,-0.48 0.68,-0.71 0.53,-1.91 -0.35,-2.48l-1.29 -0.85c-0.53,-0.47 -0.44,-1.45 -2.32,-1.89 -0.12,-0.53 -0.51,-1.16 -0.83,-1.58 -0.32,-0.42 -0.48,-0.61 -0.88,-0.93 -0.57,-0.46 -1.16,-0.86 -1.91,-1.1 -0.59,-0.19 -1.37,-0.33 -2.13,-0.33 -0.21,0 -0.38,0.2 -0.38,0.44z"/>
   <path class="fil1" d="M3.39 23.2l1.14 -0c-0.32,-0.83 -0.94,-1.9 -1.36,-2.74 -0.37,-0.75 0.53,-0.73 1.39,-2.54 0.26,-0.55 0.34,-0.92 0.52,-1.5 0.34,-1.04 1.37,0.61 4.87,0.6 1.26,-0 2.39,-0.23 3.47,-0.62 0.53,-0.19 1.02,-0.35 1.54,-0.54 0.83,-0.29 0.79,0.36 0.87,1.02l0.35 2.72c0.06,0.2 0.22,0.5 0.32,0.72 0.42,0.92 0.92,1.95 1.27,2.89l1.26 0c-0.31,-0.96 -0.82,-2.07 -1.2,-3.02 -0.33,-0.83 -0.37,-0.67 -0.23,-1.64 0.1,-0.62 0.2,-1.24 0.3,-1.86 -0.15,-0.14 -0.45,-0.2 -0.39,-0.58 0.04,-0.21 0.2,-0.48 0.26,-0.78 0.14,-0.82 0.03,-1.04 0.59,-1.47 -0.18,-0.3 -0.91,-0.89 -1.53,-2.03 -0.4,-0.74 -0.83,-1.7 -0.98,-2.63 -1.44,-0.06 -2.9,0.03 -4.35,-0.04 -1.37,-0.06 -2.69,-0.21 -4.04,-0.37 -1.04,-0.12 -2.99,-0.47 -3.93,-0.26 -1.2,0.27 -1.98,1.06 -2.4,2.03 -0.75,1.74 0.24,3.3 0.94,5.09 0.15,0.38 0.62,1.26 0.49,1.65 -0.28,0.84 -1.29,2.31 -0.92,3.21 0.06,0.15 1.48,2.58 1.74,2.69z"/>
   <path class="fil1" d="M19.07 13.21c0.21,-0.87 1.15,-2.19 1.65,-2.99 1.12,-1.81 0.53,-1.47 3.24,-1.47 0.34,0 0.78,0.06 1.06,-0.09 0.22,-0.12 0.42,-0.4 0.34,-0.76 -0.08,-0.37 -0.28,-0.43 -0.55,-0.6 -1.5,-0.97 -1.11,-0.6 -1.84,-1.72 -0.51,-0.78 -1.15,-0.77 -2.07,-0.77 -0.19,0 -0.65,0.73 -0.86,1 -0.39,0.5 -0.75,0.45 -1.08,0.78 -0.64,0.63 -1.22,1.23 -1.86,1.86 -0.54,0.54 -0.46,0.33 -0.2,1.23 0.24,0.83 0.83,1.7 1.27,2.45 0.15,0.26 0.45,0.75 0.69,0.95 0.16,0.13 0.03,0.05 0.21,0.12z"/>
   <path class="fil1" d="M14.01 17.18c0,0.62 0,1.24 -0,1.86 -0,0.41 -0.04,0.48 0.11,0.82 0.1,0.22 0.2,0.45 0.3,0.68 0.38,0.87 0.85,1.78 1.17,2.65l1.22 0c-0.19,-0.55 -0.97,-2.19 -1.26,-2.86 -0.38,-0.87 -0.48,-2.48 -0.6,-3.5 -0.18,-0.02 -0.86,0.2 -0.95,0.35z"/>
   <path class="fil2" d="M5.36 18.27l0.3 0.19c0.09,0.09 0.14,0.19 0.13,0.35 -0.01,0.27 -0.22,0.59 -0.01,0.79 0.44,0.43 0.8,-0.64 0.94,-0.91 0.27,-0.52 0.86,-0.56 1.17,-0.06 0.22,0.36 0.44,1.27 0.95,0.7 0.14,-0.59 -0.4,-0.87 -0.06,-1.53 -1.51,-0.12 -1.94,-0.47 -2.99,-0.72 -0.08,0.43 -0.28,0.81 -0.43,1.18z"/>
   <path class="fil1" d="M4.05 20.24l1.47 2.95 1.2 0c-0.1,-0.24 -1.31,-2.71 -1.47,-2.89 -0.32,-0.37 -0.37,-0.27 -0.46,-1.02l-0.73 0.96z"/>
   <path class="fil3" d="M20.08 3.94l0.86 -0.01c-0.3,-0.79 -0.8,-1.32 -1.28,-1.76 -0.33,-0.31 -1.34,-1.02 -1.96,-1.04 0.46,0.26 1.47,1.56 1.82,2.07 0.26,0.38 0.35,0.75 0.56,0.75z"/>
   <path class="fil0" d="M21.54 5.61c-0.91,0.25 -0.54,1.6 0.36,1.36 0.82,-0.22 0.56,-1.62 -0.36,-1.36z"/>
   <path class="fil4" d="M19.68 4.83l-0.2 -0.02 -1.92 0 -0.21 0.01c0.17,0.45 0.5,0.88 1.14,0.86 0.68,-0.02 0.91,-0.48 1.18,-0.85z"/>
   <path class="fil4" d="M2.1 8.2c0.22,-0.21 0.58,-0.27 0.82,-0.44l-1.94 -1.49c0.07,0.84 0.6,1.72 1.12,1.92z"/>
   <path class="fil5" d="M18.59 15.76l1.21 -0c-0.12,-0.56 0.01,-1.29 -0.6,-1.31 -0.6,-0.02 -0.51,0.74 -0.61,1.31z"/>
   <path class="fil4" d="M24.07 11.02l0 -1.39 -0.83 0c0.12,0.66 0.42,1.07 0.83,1.39z"/>
  </g>
 </g>
</svg>
