<?xml version="1.0" encoding="UTF-8"?>
<!DOCTYPE svg PUBLIC "-//W3C//DTD SVG 1.1//EN" "http://www.w3.org/Graphics/SVG/1.1/DTD/svg11.dtd">
<!-- Creator: CorelDRAW -->
<svg xmlns="http://www.w3.org/2000/svg" xml:space="preserve" width="15.0043mm" height="16mm" version="1.1" style="shape-rendering:geometricPrecision; text-rendering:geometricPrecision; image-rendering:optimizeQuality; fill-rule:evenodd; clip-rule:evenodd"
viewBox="0 0 20.98 22.37"
 xmlns:xlink="http://www.w3.org/1999/xlink"
 xmlns:xodm="http://www.corel.com/coreldraw/odm/2003">
 <defs>
  <style type="text/css">
   <![CDATA[
    .fil0 {fill:#1F1F1F}
    .fil3 {fill:#313131}
    .fil6 {fill:#646464}
    .fil7 {fill:#9E4709}
    .fil8 {fill:#B55018}
    .fil11 {fill:#BB7610}
    .fil2 {fill:#D15D0D}
    .fil1 {fill:#F27A2A}
    .fil5 {fill:#F5A578}
    .fil9 {fill:#F5E682}
    .fil4 {fill:#FA9D15}
    .fil10 {fill:#FFC50B}
   ]]>
  </style>
 </defs>
 <g id="Camada_x0020_1">
  <metadata id="CorelCorpID_0Corel-Layer"/>
  <g id="_1469325971968">
   <path class="fil0" d="M10.62 3.15c-0.31,0.01 -0.75,0.1 -1.07,0.16 -3.05,0.5 -6.5,2.05 -8.19,4.75 -0.75,1.2 -1.36,2.76 -1.36,4.27 0,1.17 -0.04,1.59 0.3,2.76 0.32,1.1 0.76,1.85 1.45,2.75 0.25,0.33 0.73,0.8 1.04,1.06 0.74,0.62 1.68,1.23 2.61,1.58 0.39,0.15 0.27,0.27 0.43,0.62 0.11,0.24 0.26,0.44 0.43,0.61 0.56,0.56 0.96,0.67 1.78,0.67 0.75,0 1.76,-0.31 2.29,-0.64 0.33,-0.21 1.29,-0.06 1.99,-0.06 0.77,0 1.48,-0.08 2.22,-0.18 0.21,-0.03 0.5,-0.11 0.71,-0.12 0.32,0.61 0.83,0.98 1.18,1l0.08 0c0.16,-0.01 0.27,-0.13 0.27,-0.35 0,-0.41 -0.41,-0.27 -0.79,-0.83 0.32,-0.07 0.58,-0.19 0.87,-0.26 0.42,0.63 1.51,0.59 1.89,-0.21 0.29,-0.61 0.34,-1.04 1.01,-1.48 0.17,-0.11 0.37,-0.18 0.55,-0.28 0.68,-0.39 0.87,-1.29 0.4,-1.97l-1.05 -1.36c-0.35,-0.4 -1.02,-1.11 -1.42,-1.42l-0.78 -0.66c-1.08,-0.83 -2.42,-1.58 -3.82,-1.86 -1.62,-0.32 -2.8,-0.16 -4.44,0.11 -0.25,0.04 -0.62,0.13 -0.87,0.13 -0.03,-0.13 -0.23,-0.4 -0.3,-0.53 -0.41,-0.71 -0.61,-1.31 -0.61,-2.18 0,-1.72 2.11,-2.86 3.54,-3.19 0.17,0.73 1.07,1.62 1.76,2 1.42,0.76 2.44,0.76 4.05,0.76 0.31,0 0.7,-0.05 0.7,-0.35 0,-0.88 -0.68,-1.81 -1.25,-2.38 -0.47,-0.47 -0.98,-0.86 -1.55,-1.2 -0.2,-0.12 -0.49,-0.25 -0.57,-0.35 0.51,-0.12 1.43,-1.06 1.78,-1.58 0.43,-0.64 1.43,-2.92 0.53,-2.92 -2.3,0 -4.35,0.48 -5.5,2.37 -0.1,0.17 -0.29,0.55 -0.31,0.78z"/>
   <path class="fil1" d="M12.67 20.24c0.57,0.08 1.76,-0.14 2.34,-0.23 0.09,-0.52 0.47,-0.6 0.71,-0.19 0.57,-0.15 0.64,-0.63 1.33,-1.11 0.19,-0.13 0.33,-0.18 0.54,-0.31 0.22,-0.09 0.58,-0.52 0.86,-0.57 0.38,-0.07 0.62,0.37 0.13,0.71 -0.49,0.33 -1.21,1.12 -1.25,1.64 -0.05,0.52 0.58,0.59 0.78,0.2 0.33,-0.63 0.39,-1.14 1.19,-1.69 0.37,-0.26 0.57,-0.23 0.87,-0.56 -0.13,-0.06 -0.27,-0.32 -0.34,-0.44 -0.71,-1.05 -1.56,-1.99 -2.51,-2.82 -0.76,-0.67 -1.93,-1.38 -2.88,-1.7 -0.29,-0.1 -1.01,-0.21 -1.21,-0.34 -0.7,0.67 -1.43,2.32 -1.57,3.46 -0.09,0.76 -0.02,1.55 0.19,2.25 0.13,0.43 0.57,1.49 0.81,1.7z"/>
   <path class="fil1" d="M2.41 8.39c0.5,0.8 0.56,2.13 -0.08,2.98 -0.34,0.45 -0.31,0.6 0.19,0.92 0.18,0.11 0.33,0.23 0.44,0.35 0.52,0.58 0.76,1.45 0.26,2.29 -0.43,0.74 -0.9,1.11 -1.51,1.58 0.05,0.13 0.18,0.29 0.26,0.42 0.12,0.18 0.2,0.26 0.32,0.4 0.26,0.12 0.55,0.37 0.8,0.53 0.21,0.13 0.6,0.41 0.83,0.49 0.05,-0.87 0.51,-1.69 0.94,-2.08 2.07,-1.92 5.17,0.14 5.62,-3.48 -1.28,0.06 -2.25,0.24 -3.57,0.09 0.08,-0.07 -0.09,-0.03 0.12,-0.08 -1.46,0.05 -2.28,-0.45 -2.78,-1.39 -0.56,-1.06 -0.63,-2.31 -0.04,-3.37 0.21,-0.37 0.58,-0.96 0.87,-1.23 0.87,-0.81 1.23,-1.16 2.4,-1.79 0.21,-0.11 0.46,-0.23 0.7,-0.35 0.23,-0.11 0.57,-0.2 0.75,-0.35 -0.52,0.06 -1.56,0.47 -2.02,0.66 -1.39,0.57 -3,1.57 -3.94,2.7 -0.11,0.14 -0.49,0.65 -0.59,0.72z"/>
   <path class="fil2" d="M11.32 3.28c-0.29,0.57 0.15,1.16 -0.55,1.28 -0.54,0.09 -0.96,0.21 -1.44,0.4 -1.81,0.68 -4.58,2.33 -4.79,4.44 -0.05,0.54 0.03,1.21 0.3,1.58 0.08,-0.8 0.32,-1.4 0.93,-1.87 0.2,-0.15 0.42,-0.22 0.59,-0.35 0.08,-0.42 0.26,-0.84 0.46,-1.14 0.26,-0.39 0.42,-0.56 0.74,-0.88 0.33,-0.33 1.45,-1.01 2.14,-1.07 0.37,-0.01 1.38,-0.6 1.71,-0.33 0.21,0.18 0.34,1.04 0.83,1.38 0.63,0.36 0.99,0.62 1.85,0.79 0.63,0.13 1.18,0.16 1.82,0.14l0.57 -0.09c-0.36,-0.9 -1.71,-1.85 -2.57,-2.31 -0.26,-0.14 -1.64,-0.6 -0.58,-1.09 0.49,-0.23 1.13,-0.68 1.47,-1.02 0.51,-0.53 0.93,-1.17 1.19,-2.12 -0.09,0.03 -0.97,0.1 -1.51,0.23 -0.47,0.11 -0.88,0.27 -1.27,0.47 -0.73,0.36 -1.5,0.99 -1.88,1.57z"/>
   <path class="fil3" d="M12.41 12.76l-1.14 -0.01c-0.05,-0.06 -0.05,0.09 -0.05,-0.15 -0.08,0.15 -0.03,0.14 -0.05,0.36 -0.01,0.1 -0.04,0.22 -0.07,0.33 -0.14,0.59 -0.39,1.16 -0.73,1.62 -0.93,1.27 -3.33,0.71 -4.72,1.62 -0.58,0.38 -1.08,1.16 -1.05,2.17 0.36,0.04 0.62,0 0.88,-0.2l0.52 -0.53c0.24,-0.26 0.97,-0.66 1.35,-0.8 1.26,-0.46 3.37,-0.47 3.58,-0.69 0.11,-0.21 0.14,-0.78 0.22,-1.05 0.22,-0.84 0.52,-1.54 0.98,-2.25l0.29 -0.4z"/>
   <path class="fil4" d="M11.04 20.31c-0.01,-0.18 -0.11,-0.24 -0.17,-0.43 -0.43,0.2 -0.81,0.48 -1.31,0.69 -0.35,0.14 -1.25,0.62 -1.47,0.23 -0.26,-0.47 0.47,-0.58 1.09,-0.83 0.29,-0.12 1.18,-0.53 1.33,-0.7 0.06,-0.21 -0.07,-0.38 -0.1,-0.63l-0.16 0.03c-0.49,-0.02 -1.33,0.38 -1.67,0.6 -0.29,0.18 -0.42,0.31 -0.62,0.51 -0.37,0.39 -1.41,-0.24 0.61,-1.31 0.5,-0.27 1.07,-0.43 1.7,-0.55l-0.02 -0.5 -0.09 -0.02c-0.62,-0.03 -2.07,0.46 -2.68,0.86 -0.81,0.53 -1.45,1.26 -1.09,2.31 0.33,0.95 1.14,1.26 2.35,1 0.47,-0.1 0.93,-0.27 1.31,-0.49 0.35,-0.2 0.82,-0.53 1,-0.78z"/>
   <path class="fil0" d="M15.15 15.05c-1.84,0.33 -1.34,3.07 0.47,2.75 1.81,-0.32 1.31,-3.07 -0.47,-2.75z"/>
   <path class="fil3" d="M1.45 15.85c0.01,-0.01 0.02,-0.03 0.03,-0.02l0.33 -0.26c0.56,-0.53 1.26,-1.29 0.9,-2.1 -0.2,-0.44 -0.63,-0.59 -0.99,-0.93 -0.82,-0.77 0.2,-1.49 0.36,-2.25 0.08,-0.36 0.05,-0.88 -0.1,-1.16 -0.06,0.22 -0.22,0.51 -0.32,0.74 -0.67,1.57 -0.85,3.51 -0.43,5.18 0.07,0.28 0.18,0.53 0.23,0.81z"/>
   <path class="fil5" d="M13.24 12.83c0.2,0.13 0.92,0.24 1.21,0.34 0.95,0.33 2.13,1.04 2.88,1.7 0.95,0.83 1.8,1.77 2.51,2.82 0.08,0.12 0.22,0.38 0.34,0.44 0.23,-0.5 -0.05,-0.76 -0.28,-1.07 -0.34,-0.45 -0.67,-0.87 -1.07,-1.29 -0.98,-1.01 -1.64,-1.71 -2.99,-2.48 -0.59,-0.33 -1.51,-0.78 -2.28,-0.9 -0.1,0.15 -0.24,0.27 -0.33,0.43z"/>
   <path class="fil0" d="M12.82 2.71c-0.25,0.11 -0.65,0.65 -0.82,0.9 -0.66,0.98 -0.57,1.09 0.38,2.09 0.2,0.21 0.68,0.76 1.01,0.66 0.19,-0.06 0.32,-0.31 0.17,-0.53 -0.07,-0.1 -0.14,-0.12 -0.24,-0.2 -0.21,-0.17 -0.98,-0.93 -1.01,-1.11 -0.06,-0.33 0.97,-1.22 0.98,-1.51 0.01,-0.27 -0.22,-0.41 -0.47,-0.31z"/>
   <path class="fil5" d="M7.13 14.34c0.07,-0.22 0.09,-0.62 0.04,-0.86 -0.07,-0.1 -1,-0.13 -1.67,-0.38 -0.25,-0.09 -0.46,-0.2 -0.68,-0.33 -0.29,-0.17 -0.62,-0.14 -0.4,0.31 0.22,0.44 0.6,0.75 1.09,0.97 0.38,0.16 1.22,0.47 1.61,0.29z"/>
   <path class="fil5" d="M14.47 19.37c0.05,-0.31 -0.1,-0.27 -0.51,-0.61l-0.63 -0.59c-0.2,-0.18 -0.38,-0.42 -0.53,-0.64 -0.09,-0.12 -0.16,-0.28 -0.24,-0.37 -0.11,-0.13 -0.29,-0.15 -0.36,0.03 -0.14,0.37 0.37,1.58 0.53,1.85 0.16,0.27 0.28,0.49 0.68,0.49 0.33,0.01 0.83,-0.02 1.05,-0.16z"/>
   <path class="fil5" d="M2.41 8.39c0.1,-0.07 0.48,-0.58 0.59,-0.72 0.94,-1.13 2.55,-2.13 3.94,-2.7 0.46,-0.19 1.5,-0.59 2.02,-0.66l1.24 -0.37c-1.78,0.06 -5.07,1.38 -6.48,2.57 -0.46,0.39 -1.23,1.05 -1.5,1.57l0.19 0.3z"/>
   <path class="fil6" d="M1.45 15.85c-0.04,-0.28 -0.16,-0.53 -0.23,-0.81 -0.42,-1.67 -0.24,-3.61 0.43,-5.18 0.1,-0.23 0.26,-0.52 0.32,-0.74l-0.16 -0.39c-0.24,0.19 -0.64,1.28 -0.72,1.53 -0.55,1.8 -0.57,3.98 0.28,5.62l0.07 -0.04z"/>
   <path class="fil3" d="M6.85 12.13c-0.36,-0.96 -0.55,-1.42 -0.57,-2.5 -0.42,0.21 -0.75,0.83 -0.72,1.51l0.14 0.64c0.06,0.13 0.04,0.12 0.14,0.18 0.16,0.09 0.78,0.16 1.02,0.17z"/>
   <path class="fil5" d="M11.32 3.28c0.38,-0.59 1.15,-1.21 1.88,-1.57 0.4,-0.2 0.81,-0.36 1.27,-0.47 0.54,-0.13 1.42,-0.21 1.51,-0.23l0.05 -0.29c-1.08,0.04 -2.14,0.21 -2.99,0.63 -0.68,0.33 -1.57,1.1 -1.72,1.94z"/>
   <path class="fil7" d="M16.47 7.55l-0.57 0.09c-0.64,0.02 -1.19,-0.01 -1.82,-0.14 -0.85,-0.18 -1.22,-0.43 -1.85,-0.79 0.11,0.24 0.51,0.51 0.79,0.67 1.08,0.63 2.4,0.75 3.67,0.7 -0.04,-0.2 -0.12,-0.4 -0.22,-0.53z"/>
   <path class="fil8" d="M12.67 20.24c0.08,0.19 0.2,0.33 0.32,0.5 0.18,0.25 0.23,0.18 0.6,0.14 0.37,-0.04 1.11,-0.09 1.41,-0.22l0.01 -0.65c-0.58,0.09 -1.77,0.3 -2.34,0.23z"/>
   <path class="fil5" d="M9.03 13.17c-0.11,0.02 -1.11,0.22 -1.13,0.23 -0.19,0.12 -0.12,0.92 0.2,0.96 0.62,0.07 1.76,-1.33 0.93,-1.19z"/>
   <path class="fil8" d="M15.72 19.83l-0.03 0.69c0.3,-0.03 0.72,-0.15 0.93,-0.28 0.05,-0.07 0.06,-0.67 0.67,-1.42 0.13,-0.16 0.23,-0.24 0.31,-0.41 -0.22,0.12 -0.36,0.17 -0.54,0.31 -0.69,0.49 -0.76,0.96 -1.33,1.11z"/>
   <path class="fil7" d="M6.36 8.74c0.73,-0.18 0.24,-0.15 0.85,-1.14 0.45,-0.73 1.23,-1.3 2,-1.68l0.36 -0.17c0.18,-0.1 -0.06,0.11 0.14,-0.11 -0.69,0.07 -1.81,0.75 -2.14,1.07 -0.32,0.32 -0.48,0.49 -0.74,0.88 -0.2,0.3 -0.38,0.72 -0.46,1.14z"/>
   <path class="fil5" d="M7.05 12.8c-0.21,0.05 -0.04,0.01 -0.12,0.08 1.32,0.14 2.28,-0.03 3.57,-0.09l0.04 -0.46c-1.15,0.13 -2.35,0.45 -3.48,0.47z"/>
   <path class="fil0" d="M14.11 6.32c-0.24,0.07 -0.45,0.44 0.07,0.7 0.19,0.09 0.74,0.37 0.96,0.3 0.35,-0.11 0.32,-0.53 -0.09,-0.69 -0.24,-0.09 -0.75,-0.37 -0.94,-0.31z"/>
   <path class="fil0" d="M14.21 1.78c-1.53,0.51 -0.82,1.14 -0.43,0.99 0.02,-0.01 0.77,-0.41 0.79,-0.43 0.28,-0.26 0.01,-0.68 -0.36,-0.56z"/>
   <path class="fil9" d="M16.08 16.38c-0.04,-0.36 -0.22,-0.53 -0.52,-0.63 -0.5,-0.02 -0.67,0.53 -0.39,0.85 0.1,0.12 0.32,0.21 0.55,0.15 0.25,-0.07 0.25,-0.18 0.37,-0.37z"/>
   <path class="fil6" d="M11.23 12.61c-0,0.24 -0,0.09 0.05,0.15l1.14 0.01c0.06,-0.19 0.32,-0.33 0.33,-0.5 -0.49,-0.04 -0.99,-0.05 -1.49,-0l-0.03 0.35z"/>
   <path class="fil10" d="M16.08 16.38c-0.12,0.19 -0.12,0.3 -0.37,0.37 -0.22,0.06 -0.44,-0.03 -0.55,-0.15 -0.27,-0.32 -0.1,-0.87 0.39,-0.85 -0.67,-0.15 -1.13,0.6 -0.71,1.12 0.4,0.49 1.22,0.24 1.23,-0.49z"/>
   <path class="fil8" d="M3.94 18.36c-0.23,-0.07 -0.63,-0.36 -0.83,-0.49 -0.25,-0.16 -0.54,-0.42 -0.8,-0.53 0.3,0.5 1.11,1.17 1.62,1.52l0.02 -0.5z"/>
   <path class="fil11" d="M10.15 17.41l0.09 0.02 0.02 0.5 0.71 -0.09 -0.04 -0.6c-0.17,-0.04 -0.67,0.06 -0.79,0.16z"/>
   <path class="fil11" d="M10.24 18.67l0.16 -0.03c0.03,0.24 0.16,0.42 0.1,0.63 0.18,-0.09 0.27,-0.17 0.44,-0.29 0.04,-0.03 0.16,-0.12 0.19,-0.16 0.09,-0.12 0.08,-0.06 0.02,-0.24 -0.17,-0.07 -0.77,-0.01 -0.9,0.11z"/>
   <path class="fil11" d="M10.87 19.88c0.06,0.2 0.16,0.25 0.17,0.43 0.15,-0.1 0.4,-0.39 0.53,-0.55l-0.11 -0.27c-0.18,0.08 -0.45,0.28 -0.59,0.39z"/>
  </g>
 </g>
</svg>
