<?xml version="1.0" encoding="UTF-8"?>
<!DOCTYPE svg PUBLIC "-//W3C//DTD SVG 1.1//EN" "http://www.w3.org/Graphics/SVG/1.1/DTD/svg11.dtd">
<!-- Creator: CorelDRAW -->
<svg xmlns="http://www.w3.org/2000/svg" xml:space="preserve" width="16mm" height="13.6562mm" version="1.1" style="shape-rendering:geometricPrecision; text-rendering:geometricPrecision; image-rendering:optimizeQuality; fill-rule:evenodd; clip-rule:evenodd"
viewBox="0 0 38.43 32.8"
 xmlns:xlink="http://www.w3.org/1999/xlink"
 xmlns:xodm="http://www.corel.com/coreldraw/odm/2003">
 <defs>
  <style type="text/css">
   <![CDATA[
    .str1 {stroke:#3E5858;stroke-width:0.48;stroke-miterlimit:22.9256}
    .str0 {stroke:#547881;stroke-width:0.48;stroke-miterlimit:22.9256}
    .fil0 {fill:black}
    .fil2 {fill:#3E5858}
    .fil6 {fill:#3E5858}
    .fil5 {fill:#547881}
    .fil3 {fill:#547881}
    .fil1 {fill:#678C96}
    .fil4 {fill:#7CA1AF}
   ]]>
  </style>
 </defs>
 <g id="Camada_x0020_1">
  <metadata id="CorelCorpID_0Corel-Layer"/>
  <g id="_1469283242672">
   <path class="fil0" d="M5.1 7.47c0.86,0.04 0.74,-0.14 1.29,-1.41 0.23,-0.54 0.67,-1.42 0.8,-1.92l10.76 2.89c-0.15,1.71 -0.52,3.58 -0.77,5.31l-1.36 9.29c-0.1,0.71 -0.21,0.65 -0.57,1.02 -0.52,0.54 -1,1.01 -1.53,1.55 -0.42,0.42 -1.19,0.97 -1.25,1.83l-7.83 -0c-0.47,-0.83 -2.3,-5.02 -2.95,-6.35 -0.58,-1.19 -0.7,-1.01 -0.18,-2.21 0.63,-1.44 1.25,-2.91 1.87,-4.36 0.31,-0.74 0.63,-1.46 0.94,-2.21 0.16,-0.38 0.31,-0.74 0.47,-1.1 0.29,-0.67 0.28,-0.63 -0.12,-1.12 -0.77,-0.15 -0.83,0.41 -1.1,1.03 -0.24,0.55 -0.44,1.02 -0.68,1.58 -0.46,1.08 -0.89,2.08 -1.35,3.15 -0.46,1.08 -0.89,2.08 -1.34,3.16 -0.1,0.24 -0.19,0.34 -0.21,0.6l0 0.38c0.05,0.43 0.42,1.12 0.63,1.57l1.79 3.84c0.26,0.64 1.15,2.68 1.56,2.94 0.52,0.33 1.24,0.22 2.03,0.22l6.83 0 0.98 2.25c0.45,1 0.5,1.24 1.78,1.45 1.79,0.29 3.63,0.66 5.48,0.97 1.79,0.31 3.63,0.66 5.48,0.98 0.61,0.11 7.3,-0.86 8.57,-1.01 1.14,-0.13 1.69,-0.2 2.08,-1.15 0.32,-0.79 0.69,-1.49 1,-2.23 0.14,-0.34 0.21,-0.59 0.24,-0.82l0 -0.3c-0.03,-0.36 -0.16,-0.77 -0.32,-1.55 -0.17,-0.87 -0.35,-1.76 -0.54,-2.69 -0.15,-0.75 -0.32,-2.08 -0.65,-2.57 -0.23,-0.34 -1.5,-1.06 -1.92,-1.31 -0.71,-0.42 -1.33,-0.87 -2.05,-1.25l-0.19 -3.41c-0.12,-0.73 -0.66,-2.53 -1.17,-2.96 -0.28,-0.24 -0.53,-0.34 -0.93,-0.42l-3.17 -0.51c-0.38,-0.16 0.09,-1.12 -0.77,-1.09 -0.49,0.12 -0.56,0.32 -0.53,0.89 -1.03,-0.1 -1.7,-0.47 -2.53,0.17 -0.6,0.71 -0.44,0.57 -0.77,1.62 -1.07,3.4 -0.73,2.62 -0.87,6.56 -0.29,0.18 -2.33,0.53 -2.82,0.63 -1.42,0.28 -1.31,0.73 -2.09,1.35l1.96 -13.56c0.08,-0.5 1.57,-2.88 1.94,-3.27 0.18,-0.37 0.9,-1.5 1.15,-1.81l2.83 2.37c0.84,0.67 0.71,0.44 0.83,1.8 0.07,0.81 -0.09,1.8 0.75,1.89 0.36,-0.06 0.53,-0.28 0.53,-0.69l-0.11 -1.1c-0.11,-0.8 -0.01,-1.46 -0.38,-2.02 -0.18,-0.26 -2.36,-2.04 -2.63,-2.25 -1.83,-1.44 -1.03,-1.38 -3.25,-1.55 -1.45,-0.11 -3.05,-0.25 -4.51,-0.37 -0.19,-0.02 -0.4,0.01 -0.59,-0.01l-1.65 -0.15c-1.19,-0.01 -0.98,-0.19 -1.95,0.3l-1.63 0.77c-0.58,0.29 -1.06,0.57 -1.66,0.81 -0.44,0.18 -2.04,0.89 -2.31,1.29l-1.5 3.38c-0.22,0.52 -0.02,0.54 0.2,0.87z"/>
   <path class="fil1" d="M5.1 7.47c-0.02,0.29 -0.12,0.39 -0.22,0.61 -0.1,0.23 -0.15,0.38 -0.21,0.59 0.39,0.49 0.41,0.45 0.12,1.12 -0.16,0.36 -0.31,0.72 -0.47,1.1 -0.32,0.75 -0.63,1.47 -0.94,2.21 -0.62,1.45 -1.24,2.92 -1.87,4.36 -0.52,1.2 -0.41,1.02 0.18,2.21 0.65,1.33 2.48,5.52 2.95,6.35l7.83 0c0.05,-0.86 0.83,-1.4 1.25,-1.83 0.53,-0.53 1.01,-1.01 1.53,-1.55 0.36,-0.37 0.48,-0.31 0.57,-1.02l1.36 -9.29c0.24,-1.73 0.61,-3.6 0.77,-5.31l-10.76 -2.89c-0.12,0.5 -0.56,1.38 -0.8,1.92 -0.55,1.28 -0.43,1.45 -1.29,1.41z"/>
   <path class="fil2" d="M30.17 24.89c0.38,-0.17 0.75,-0.56 1.13,-0.66 -0.21,-0.76 0.14,-0.79 0.63,-1.12l3.52 -2.25c-0.19,-0.26 -0.88,-0.63 -1.18,-0.81 -0.32,-0.2 -0.9,-0.6 -1.27,-0.74 0.06,1.62 -0.62,1.87 -2.04,2.17l-5.21 1.11c-0.76,0.11 -1.1,-0.18 -1.66,-0.45 -1.07,-0.53 -2.03,-0.72 -2.1,-2.12 -0.44,0.02 -2.52,0.44 -2.94,0.57 -0.4,0.12 -4.84,4.79 -5.43,5.35 0.05,0.49 0.43,1.01 0.56,1.48l11.51 -0.32c0.34,-0.05 2.47,-1.52 2.93,-1.81 0.48,-0.3 1,-0.83 1.57,-0.38z"/>
   <path class="fil3 str0" d="M23.66 10.58c-0.06,-1.38 -0.24,-2.93 -0.37,-4.31 -0.07,-0.76 -0.26,-0.83 -0.98,-1.37 -0.29,-0.21 -1.01,-0.94 -1.3,-1 -0.36,0.39 -1.86,2.77 -1.94,3.27l-1.96 13.56c0.78,-0.62 0.67,-1.07 2.09,-1.35 0.49,-0.1 2.53,-0.45 2.82,-0.63 0.14,-3.94 -0.2,-3.16 0.87,-6.56 0.33,-1.05 0.17,-0.91 0.77,-1.62z"/>
   <path class="fil3 str0" d="M31.29 24.23c-0.38,0.1 -0.75,0.49 -1.13,0.66 0.26,0.76 -0.33,0.93 -1.49,1.66 -0.56,0.36 -1.56,1.1 -2.07,1.3l0.67 3.75 6.32 -0.79c0.29,-0.56 0.65,-1.1 0.97,-1.68 0.68,-1.22 0.71,-0.93 0.51,-1.86l-0.79 -3.78c-0.07,-0.36 -0.01,-0.31 -0.22,-0.42 -0.41,0.21 -0.91,0.58 -1.33,0.84 -0.5,0.32 -0.87,0.74 -1.44,0.31z"/>
   <path class="fil4" d="M8.56 3.28c0.22,0.14 8.97,2.54 9.75,2.67 0.22,-0.2 2.63,-4 2.69,-4.23 -2.33,-0.15 -4.66,-0.35 -6.98,-0.52 -1.35,-0.1 -1.18,0.03 -2.87,0.83 -0.85,0.4 -1.75,0.9 -2.58,1.25z"/>
   <path class="fil1" d="M24.43 11.37c-0.47,0.65 -0.65,1.74 -0.89,2.53 -0.42,1.37 -0.47,1.03 0.88,2.1 0.61,0.49 1.08,1.05 1.49,0.96l4.55 -1.62c1.36,-0.48 1.32,-0.35 0.79,-1.96 -0.17,-0.51 -0.18,-0.99 -0.69,-1.11 -0.7,-0.17 -5.62,-0.96 -6.12,-0.89z"/>
   <path class="fil1" d="M14.72 28.51c0.22,1.4 1.05,1.18 2.18,1.39l9.2 1.64 -0.59 -3.34 -10.79 0.31z"/>
   <path class="fil5" d="M26.13 18.06l-0.23 3.31 4.72 -0.99c1.58,-0.35 1.32,0.14 1.08,-4.23 -0.33,-0.04 -4.82,1.66 -5.57,1.91z"/>
   <path class="fil6 str1" d="M21.01 3.91c0.29,0.06 1.02,0.78 1.3,1 0.72,0.54 0.9,0.61 0.98,1.37 0.13,1.38 0.31,2.93 0.37,4.31 0.83,-0.64 1.5,-0.27 2.53,-0.17 -0.03,-0.57 0.04,-0.77 0.53,-0.89 -0.06,-0.3 -0.06,-0.32 -0.08,-0.7 -0.01,-0.36 -0.07,-0.35 -0.07,-0.66 -0.84,-0.09 -0.68,-1.09 -0.75,-1.89 -0.12,-1.37 0.02,-1.13 -0.83,-1.8l-2.83 -2.37c-0.25,0.31 -0.98,1.43 -1.15,1.81z"/>
   <path class="fil2" d="M34.06 23.07c0.22,0.11 0.15,0.06 0.22,0.42l0.79 3.78c0.2,0.92 0.17,0.63 -0.51,1.86 -0.32,0.58 -0.68,1.12 -0.97,1.68 0.51,-0.04 1.05,-0.13 1.55,-0.19 0.81,-0.1 0.8,0.05 1.09,-0.64 0.17,-0.4 1.04,-2.2 1.05,-2.46 0.02,-0.35 -1.07,-5.59 -1.18,-5.75 -0.28,0.13 -1.84,1.12 -2.05,1.31z"/>
   <path class="fil4" d="M24.79 21.15l0.23 -3.28c-0.42,-0.25 -1.46,-1.22 -1.8,-1.33 -0.03,1.06 -0.07,2.11 -0.1,3.17 -0.02,0.72 0.08,0.71 0.61,0.97 0.26,0.13 0.82,0.49 1.07,0.47z"/>
   <path class="fil0" d="M4.1 17.95c-0.84,0.49 0.16,1.46 1.11,0.96 0.29,-0.15 0.35,-0.67 0.09,-0.89 -0.21,-0.19 -0.92,-0.23 -1.2,-0.07z"/>
   <path class="fil0" d="M12.59 19.45c-0.87,0.27 -0.22,1.53 0.94,1.03 0.7,-0.3 0.27,-1.4 -0.94,-1.03z"/>
   <path class="fil0" d="M11.11 17.13c-0.89,0.27 -0.31,1.45 0.87,1.05 0.7,-0.24 0.42,-1.44 -0.87,-1.05z"/>
   <path class="fil0" d="M9.92 22.02c-0.95,0.54 0.19,1.42 1.03,0.98 0.82,-0.42 -0.16,-1.48 -1.03,-0.98z"/>
   <path class="fil0" d="M23.07 24.57c-0.94,0.29 -0.33,1.46 0.85,1.05 0.68,-0.24 0.38,-1.42 -0.85,-1.05z"/>
   <path class="fil0" d="M27.49 12.93c-0.85,0.23 -0.49,1.42 0.79,1.07 0.73,-0.2 0.5,-1.41 -0.79,-1.07z"/>
   <path class="fil0" d="M20.52 23.07c-0.88,0.21 -0.52,1.46 0.79,1.06 0.66,-0.2 0.52,-1.37 -0.79,-1.06z"/>
   <path class="fil0" d="M9.53 9.42c1.16,0 0.82,-0.85 0.82,-0.85 -0.19,-0.31 -1.55,-0.54 -1.59,0.25 -0.03,0.5 0.3,0.6 0.77,0.6z"/>
  </g>
 </g>
</svg>
