<?xml version="1.0" encoding="UTF-8"?>
<!DOCTYPE svg PUBLIC "-//W3C//DTD SVG 1.1//EN" "http://www.w3.org/Graphics/SVG/1.1/DTD/svg11.dtd">
<!-- Creator: CorelDRAW -->
<svg xmlns="http://www.w3.org/2000/svg" xml:space="preserve" width="16mm" height="11.3969mm" version="1.1" style="shape-rendering:geometricPrecision; text-rendering:geometricPrecision; image-rendering:optimizeQuality; fill-rule:evenodd; clip-rule:evenodd"
viewBox="0 0 98.38 70.08"
 xmlns:xlink="http://www.w3.org/1999/xlink"
 xmlns:xodm="http://www.corel.com/coreldraw/odm/2003">
 <defs>
  <style type="text/css">
   <![CDATA[
    .fil1 {fill:black}
    .fil2 {fill:#D19C62}
    .fil0 {fill:#E4B577}
   ]]>
  </style>
 </defs>
 <g id="Camada_x0020_1">
  <metadata id="CorelCorpID_0Corel-Layer"/>
  <g id="_1432820850992">
   <path class="fil0" d="M59.49 31.52c-0.77,-0.08 -0.08,-0.32 -0.72,0.31 -0.07,0.07 -0.33,0.43 -0.46,0.57 -0.54,0.62 -0.75,0.53 -1.06,1.35 0.81,2.51 -3.55,3.61 -5.4,3.82 -11.64,1.28 -22.49,-16.78 -32.68,-9.72 -1.78,1.24 -3.1,2.63 -4.14,5.02 -0.49,1.12 -0.81,2.39 -0.93,3.71 -0.1,1.06 0.11,3.48 -0.02,4.09l-0.1 -0.62c0.4,0.25 0.18,0.04 0.47,0.47l1 2.06c0.45,0.93 0.84,1.56 1.44,2.43 1.12,1.62 2.27,3.12 3.46,4.27 8.66,8.4 22.56,11.74 35.31,11.4 10.8,-0.29 21.59,-3.48 29.57,-9.27 3.56,-2.58 7.12,-6.47 9.1,-10.44 1.27,-2.55 0.3,-1.46 0.76,-3.14 0.35,-3.62 -3.36,-8.6 -4.88,-9.97 -7.81,-7.02 -18.99,-6.95 -26.49,0.41 -2.93,2.88 -1.56,3.22 -4.23,3.27z"/>
   <path class="fil1" d="M8.88 36.1c0.34,-0.88 0.75,-1.25 0,-2.22 -0.47,-0.62 -0.92,-1.11 -1.49,-1.79 -5.29,-5.36 -7.98,-22.53 5.4,-25.27 7.08,-1.45 11.44,3.58 17.83,7.95 2.65,1.81 14.66,10.32 16.81,8.6 0.67,-0.54 0.68,-1.67 0.05,-2.26l-6.57 -3.23c3.16,-0.27 4.86,-0.1 6.73,-2.05 0.32,-0.33 0.68,-0.64 0.99,-1.04 0.32,-0.41 0.63,-0.84 0.96,-1.28 2.21,-2.94 2.91,-4.4 6.43,-6.79 5.89,-4 14.4,-5.05 20.48,-1.41 2.02,1.21 3.28,2.46 4.58,4.17 0.8,1.05 2.91,4.33 2.82,6.04l0.43 1.09c0.27,1.29 0.43,3.11 0.28,4.38 -6.02,-1.4 -9.81,-2.39 -16.54,0.64 -3.07,1.38 -6.24,4.05 -8.27,6.58 -1.4,1.74 -1.31,1.42 -0.32,3.32 2.67,-0.05 1.3,-0.39 4.23,-3.27 7.49,-7.36 18.67,-7.44 26.49,-0.41 1.52,1.37 5.23,6.35 4.88,9.97 0.9,1.29 -0.27,5.84 -0.73,7.25 -1.82,5.66 -6.73,10.99 -11.55,14.09 -7.17,4.61 -15.94,7.37 -26.3,7.85 -10.71,0.5 -20.21,-1.52 -28.27,-5.89 -5.54,-3 -10.14,-7.61 -12.42,-13.22 -1.06,-2.61 -1.2,-4.34 -1.76,-7.22 0.13,-0.61 -0.08,-3.04 0.02,-4.09 0.12,-1.32 0.44,-2.59 0.93,-3.71 1.04,-2.39 2.36,-3.78 4.14,-5.02 10.19,-7.06 21.04,11 32.68,9.72 1.86,-0.2 6.22,-1.3 5.4,-3.82 -2.44,-2.71 -3.86,4.35 -13.85,-1.43 -8.23,-4.76 -16.66,-13.08 -26.04,-6.89 -3.27,2.16 -6.27,6.46 -6.32,12.29 -0.48,2.23 0.66,7.3 1.39,9.49 3.02,9.07 9.56,14.41 17.9,18.32 10.56,4.96 25.27,5.48 36.21,3.38 6.77,-1.3 15.89,-4.84 21.06,-9.47 0.55,-0.49 1.01,-0.79 1.53,-1.32 2.4,-2.42 3.25,-3.3 5.11,-6.08 2.76,-4.12 5.41,-10.66 3.5,-17.3 -0.82,-2.85 -2.17,-5.37 -3.84,-7.35 -1.06,-1.25 -4.64,-4.57 -6.25,-4.94 0,-6.17 -0.24,-8.52 -3.12,-13.37 -3.66,-6.17 -11.62,-10.02 -18.95,-8.91 -4.76,0.72 -10.19,2.53 -13.49,5.84 -2.08,2.08 -1.85,1.55 -3.97,4.37 -0.73,0.97 -1.59,2.54 -2.43,3.26 -2.15,1.84 -6.67,1.21 -9.08,0.44 -3.17,-1.02 -4.7,-2.12 -7.15,-3.84 -2.55,-1.79 -3.57,-2.83 -6.55,-4.64 -9.14,-5.56 -24.82,-0.05 -22.7,17.21 0.56,4.55 3.18,9.98 6.49,13.04 0.79,0.73 1.16,0.48 2.19,0.24z"/>
   <path class="fil0" d="M7.39 32.08c2.38,-7.33 8.25,-12.77 15.94,-13.32 13.83,-1 24.03,16.66 30.57,9.65 1.14,-1.22 2.18,-2.73 3.29,-4.03 6.21,-7.25 15.65,-10.79 26.57,-8.32 0.12,-0.19 0.11,-0.02 0.14,-0.54 0.09,-1.71 -2.02,-4.99 -2.82,-6.04 -1.3,-1.71 -2.56,-2.96 -4.58,-4.17 -6.08,-3.64 -14.59,-2.59 -20.48,1.41 -3.53,2.4 -4.22,3.86 -6.43,6.79 -0.33,0.44 -0.65,0.86 -0.96,1.28 -0.31,0.4 -0.67,0.71 -0.99,1.04 -1.87,1.95 -3.56,1.77 -6.73,2.05l6.57 3.23c0.64,0.59 0.63,1.72 -0.05,2.26 -2.15,1.72 -14.16,-6.79 -16.81,-8.6 -6.4,-4.38 -10.75,-9.4 -17.83,-7.95 -13.38,2.74 -10.69,19.91 -5.4,25.27z"/>
   <path class="fil2" d="M14.06 40.66c0.56,2.88 0.71,4.61 1.76,7.22 2.27,5.61 6.87,10.22 12.42,13.22 8.07,4.37 17.57,6.39 28.27,5.89 10.36,-0.48 19.12,-3.24 26.3,-7.85 4.82,-3.1 9.73,-8.44 11.55,-14.09 0.45,-1.41 1.63,-5.96 0.73,-7.25 -0.46,1.68 0.51,0.59 -0.76,3.14 -1.98,3.97 -5.54,7.86 -9.1,10.44 -7.99,5.79 -18.77,8.98 -29.57,9.27 -12.75,0.35 -26.65,-3 -35.31,-11.4 -1.19,-1.16 -2.34,-2.65 -3.46,-4.27 -0.6,-0.87 -0.99,-1.5 -1.44,-2.43l-1 -2.06c-0.29,-0.43 -0.07,-0.22 -0.47,-0.47l0.1 0.62z"/>
   <path class="fil2" d="M7.39 32.08c0.57,0.69 1.02,1.17 1.49,1.79 0.74,0.97 0.34,1.34 -0,2.22 0.78,0.5 1.2,1.15 2.16,1.63 0.05,-5.83 3.05,-10.13 6.32,-12.29 9.38,-6.2 17.81,2.12 26.04,6.89 9.99,5.78 11.4,-1.28 13.85,1.43 0.32,-0.82 0.52,-0.73 1.06,-1.35 0.13,-0.15 0.39,-0.5 0.46,-0.57 0.64,-0.63 -0.05,-0.39 0.72,-0.31 -0.99,-1.89 -1.08,-1.58 0.32,-3.32 2.03,-2.52 5.2,-5.2 8.27,-6.58 6.73,-3.03 10.52,-2.03 16.54,-0.64 0.14,-1.28 -0.01,-3.09 -0.28,-4.38l-0.43 -1.09c-0.03,0.52 -0.02,0.35 -0.14,0.54 -10.92,-2.47 -20.37,1.07 -26.57,8.32 -1.11,1.3 -2.16,2.81 -3.29,4.03 -6.54,7.01 -16.74,-10.65 -30.57,-9.65 -7.68,0.56 -13.56,5.99 -15.94,13.32z"/>
   <path class="fil1" d="M58.88 40.08c-0.64,0.35 -1.49,1.62 -1.98,2.11 -2.69,2.64 -5.59,3.53 -9.41,2.33 -2.19,-0.69 -3.98,-1.7 -5.75,-2.8 -0.95,-0.59 -2.44,-1.04 -2.83,0.39 -0.4,1.48 0.78,1.86 1.67,2.4 6.37,3.88 12.34,5.55 18.37,-0.28 0.51,-0.49 1.73,-1.58 1.98,-2.33 0.45,-1.34 -0.83,-2.48 -2.04,-1.82z"/>
  </g>
 </g>
</svg>
