<?xml version="1.0" encoding="UTF-8"?>
<!DOCTYPE svg PUBLIC "-//W3C//DTD SVG 1.1//EN" "http://www.w3.org/Graphics/SVG/1.1/DTD/svg11.dtd">
<!-- Creator: CorelDRAW -->
<svg xmlns="http://www.w3.org/2000/svg" xml:space="preserve" width="13.6115mm" height="16mm" version="1.1" style="shape-rendering:geometricPrecision; text-rendering:geometricPrecision; image-rendering:optimizeQuality; fill-rule:evenodd; clip-rule:evenodd"
viewBox="0 0 97.49 114.6"
 xmlns:xlink="http://www.w3.org/1999/xlink"
 xmlns:xodm="http://www.corel.com/coreldraw/odm/2003">
 <defs>
  <style type="text/css">
   <![CDATA[
    .str0 {stroke:#FDCF85;stroke-width:1.43;stroke-miterlimit:22.9256}
    .str1 {stroke:#FEC166;stroke-width:1.43;stroke-miterlimit:22.9256}
    .fil0 {fill:black}
    .fil7 {fill:#00B227}
    .fil6 {fill:#00C43A}
    .fil9 {fill:#4BCD5C}
    .fil8 {fill:#73D478}
    .fil2 {fill:#FAD59A}
    .fil5 {fill:#FDCF85}
    .fil3 {fill:#FDCF85}
    .fil1 {fill:#FDE5BF}
    .fil4 {fill:#FEC166}
   ]]>
  </style>
 </defs>
 <g id="Camada_x0020_1">
  <metadata id="CorelCorpID_0Corel-Layer"/>
  <g id="_1468677657616">
   <path class="fil0" d="M57.91 21c0.11,-1.36 2.41,-6.31 3.09,-7.43l1.94 -3.45c0.36,-1.43 -1.21,-4.19 -4.15,-1.88 -0.48,0.38 -0.99,0.77 -1.5,1.19 -2.32,1.96 -3.35,3.15 -5.27,5.48 -0.65,0.79 -1.72,2.5 -2.41,2.96 -0.2,-0.87 -0.84,-1.9 -1.26,-2.77 -0.56,-1.15 -1.23,-1.79 -2.65,-1.26 -0.8,1.25 -1.23,1.22 -0.34,2.91 2.37,4.46 2.78,4.63 0.51,8.27l-1.41 3c-0.59,-1.3 -0.69,-3.98 -0.97,-5.57 -0.31,-1.75 -0.71,-3.49 -1.14,-5.14 -1.17,-4.45 -2.47,-6.85 -3.22,-9.49 1.77,1.66 1.25,1.93 2.59,2.6l1.62 -0.19c1.3,-1.81 0.62,-2.16 -1.17,-4.18 -1.8,-2.02 -7.52,-8.86 -9.59,-4.76 -0.56,1.11 0.04,1.82 0.53,2.62 3.65,5.92 5.75,12.21 7.23,20.32 0.39,2.12 1.26,10.28 1.23,12.44 -0.01,0.62 -0.1,1.07 -0.16,1.42 -0.47,2.46 -1.54,0.71 -2.22,3.16 -0.68,2.45 0.13,2.13 -1.51,5.43 -4.78,9.57 -24.1,8.78 -33.56,21.53 -4.14,5.58 -5.11,15.86 -3.18,22.29 2.2,7.33 5.92,11.47 12,15.55 2.56,1.72 6.29,3.45 9.22,4.44 7.16,2.43 15.92,3.9 24.9,4.11l4.55 0c18.35,-0.43 36.65,-6.22 43.25,-19.7 0.73,-1.49 1.31,-3.25 1.74,-4.98 0.88,-3.55 0.45,-3.02 0.78,-6.17 0.7,-6.57 -2.4,-15.34 -7.65,-19.57 -11.93,-9.61 -28.89,-9.26 -31.07,-20.44 -0.19,-0.99 -0.24,-2.25 -0.61,-2.98 -0.84,-1.67 -1.15,0.27 0.2,-5.08 1.09,-4.32 2.73,-8.32 4.86,-12.15 1.06,-1.91 2.34,-3.05 1.2,-4.69 -0.42,-0.61 -1.56,-1.13 -2.45,-0.84 -1.35,0.44 -2.89,2.28 -3.96,3z"/>
   <path class="fil1" d="M49.67 42.67l-1.84 -0.16c-1.33,9.58 -0.49,9.48 -6.7,17.02 -3.82,4.64 -5.46,9.97 -5.99,17.68 -0.49,7.05 -0.17,15.46 1.76,21.9 6.12,20.3 27.83,16.71 25.44,-21.46 -1.09,-17.48 -7.61,-17.55 -10.73,-24.82 -1.33,-3.1 -1.64,-6.42 -1.94,-10.15z"/>
   <path class="fil2" d="M79.29 86.17c0.59,-0.59 0.26,0.09 0.44,-0.89 0.04,-0.23 0.05,-0.87 0.05,-1.12 0.01,-0.84 0,-1.68 -0,-2.52 -3.03,-0.41 -1.04,-3.82 -3.54,-10.43 -1.3,-3.45 -3.71,-6.47 -5.93,-8.17 -4.05,-3.09 -8.44,-4.98 -12.5,-8.33 -1.46,-1.2 -1.91,-2.39 -3.21,-3.87 1.41,6.44 10.11,6.48 11.17,27.49 0.41,8.05 -0.08,18.2 -3.33,25.56 -0.75,1.71 -2.76,5.14 -3.72,5.91 2,-0.14 6.1,-2.19 7.64,-3.11 6.16,-3.68 9.76,-9.48 11.13,-16.64 0.41,-2.14 -0.07,-3.3 1.81,-3.87z"/>
   <path class="fil2" d="M38.77 109.79c-0.96,-0.76 -2.85,-4.01 -3.66,-5.75 -4.6,-9.95 -4.85,-32.08 0,-41.59 1.25,-2.45 2.49,-3.79 3.98,-5.64 1.09,-1.36 3.32,-3.84 3.79,-5.99 -2.81,3.32 -1.62,3.06 -6.44,6.25 -7.95,5.24 -15.44,7.38 -16.84,21.47 -1.11,11.22 1.66,21.39 10.43,27.44 1.47,1.01 6.48,3.69 8.74,3.81z"/>
   <path class="fil3 str0" d="M79.77 81.63c0,0.84 0.02,1.68 0,2.52 -0,0.26 -0.01,0.9 -0.05,1.12 -0.17,0.99 0.15,0.3 -0.44,0.89 2.95,-0.01 1.67,3.92 1.12,6.14 -1.5,6.03 -4.62,11.52 -9.43,15.19l-1.27 1.05c5.36,-0.83 13.06,-4.98 17.01,-8.37 9.74,-8.34 10.19,-27.19 -1.19,-34.92 -4.13,-2.81 -8.19,-4.3 -12.88,-6.16 -1.34,-0.53 -3.4,-1.53 -4.68,-1.83 3.36,2.79 6.61,3.66 9.94,9.56 1.22,2.16 2.05,4.52 2.65,7.2 0.31,1.39 0.51,2.82 0.66,4.28 0.19,1.82 0.38,2.92 -1.45,3.32z"/>
   <path class="fil4 str1" d="M25.89 107.2c-0.19,0.36 0.41,0.45 -0.6,-0.02l-2.26 -1.37c-7.71,-5.13 -11.96,-12.12 -12.09,-22.34 -0.14,-10.96 3.46,-17.4 11.99,-22.44 0.58,-0.34 0.99,-0.62 1.55,-0.91 0.34,-0.17 1.05,-0.57 1.34,-0.42 0.59,-0.23 3.03,-1.95 3.64,-2.43l-8.98 3.55c-9.39,3.81 -16.59,8.68 -17.01,21.07 -0.24,6.95 2.14,13.66 7.15,18.18 3.39,3.06 10.86,7.36 17.1,8.46 -0.68,-0.7 -0.93,-0.85 -1.83,-1.34z"/>
   <path class="fil5" d="M25.89 107.2c-0.09,-0.59 -0.87,-0.76 -1.92,-1.88 -5.54,-5.9 -7.82,-13.18 -7.94,-21.63 -0.08,-5.04 0.55,-10.19 2.37,-14.43 2.88,-6.73 6.3,-8.08 7.43,-9.56 -0.29,-0.15 -1,0.25 -1.34,0.42 -0.56,0.29 -0.97,0.56 -1.55,0.91 -8.54,5.04 -12.14,11.49 -11.99,22.44 0.13,10.21 4.38,17.2 12.09,22.34l2.26 1.37c1.01,0.47 0.41,0.38 0.6,0.02z"/>
   <path class="fil6" d="M46.81 37.4c0.2,-2.52 2.32,-7.84 3.28,-10.11 0.62,-1.47 3.94,-8.32 4.7,-8.37l1.53 -3.68c-2.94,2.95 -5.26,6.65 -7.07,10.52 -1.81,3.87 -3.71,8.8 -4.54,13.41 1.39,0.01 1.44,0.27 2.11,-1.77z"/>
   <path class="fil7" d="M45.88 25c-0.38,-0.49 -1.63,-6.83 -1.86,-7.6l-2.29 -6.99c-1.34,-0.67 -0.83,-0.94 -2.59,-2.6 0.75,2.64 2.05,5.03 3.22,9.49 0.43,1.65 0.83,3.39 1.14,5.14 0.28,1.59 0.38,4.27 0.97,5.57l1.41 -3z"/>
   <path class="fil6" d="M41.74 10.41l2.29 6.99c0.22,0.78 1.48,7.11 1.86,7.6 2.27,-3.64 1.86,-3.81 -0.51,-8.27 -0.89,-1.68 -0.46,-1.66 0.34,-2.91 -0.26,-0.51 -0.71,-1.21 -1.05,-1.75 -0.44,-0.69 -0.91,-1.24 -1.3,-1.86l-1.62 0.19z"/>
   <path class="fil8" d="M46.81 37.4c1.52,-3.13 2.79,-5.9 4.58,-8.6 0.43,-0.65 0.91,-1.11 1.17,-1.96l2.23 -7.91c-0.76,0.05 -4.08,6.9 -4.7,8.37 -0.96,2.27 -3.08,7.59 -3.28,10.11z"/>
   <path class="fil9" d="M51.4 39.18c0.43,-1.48 1.52,-3.69 2.23,-5.01l1.97 -3.42c0.41,-0.64 0.41,-1.01 0.75,-0.74l1.75 -4.23c-0.42,0.49 -0.8,0.74 -1.25,1.32 -0.41,0.53 -0.8,0.98 -1.19,1.5 -0.76,1.01 -1.42,2 -2.16,3.22 -1.13,1.85 -3.07,5.12 -3.7,7.37l1.6 0z"/>
   <path class="fil8" d="M51.4 39.18l2.49 -0.03c0.45,-1.22 0.83,-3.42 1.16,-4.68 0.35,-1.32 1.18,-3.37 1.3,-4.47 -0.34,-0.27 -0.35,0.1 -0.75,0.74l-1.97 3.42c-0.7,1.32 -1.79,3.54 -2.23,5.01z"/>
  </g>
 </g>
</svg>
