<?xml version="1.0" encoding="UTF-8"?>
<!DOCTYPE svg PUBLIC "-//W3C//DTD SVG 1.1//EN" "http://www.w3.org/Graphics/SVG/1.1/DTD/svg11.dtd">
<!-- Creator: CorelDRAW -->
<svg xmlns="http://www.w3.org/2000/svg" xml:space="preserve" width="16mm" height="15.9984mm" version="1.1" style="shape-rendering:geometricPrecision; text-rendering:geometricPrecision; image-rendering:optimizeQuality; fill-rule:evenodd; clip-rule:evenodd"
viewBox="0 0 34 34"
 xmlns:xlink="http://www.w3.org/1999/xlink"
 xmlns:xodm="http://www.corel.com/coreldraw/odm/2003">
 <defs>
  <style type="text/css">
   <![CDATA[
    .str1 {stroke:#6EA026;stroke-width:0.42;stroke-miterlimit:22.9256}
    .str0 {stroke:#82BB2D;stroke-width:0.42;stroke-miterlimit:22.9256}
    .fil0 {fill:black}
    .fil13 {fill:#235C18}
    .fil11 {fill:#2C721E}
    .fil6 {fill:#358924}
    .fil12 {fill:#3FB426}
    .fil9 {fill:#53781A}
    .fil4 {fill:#6EA026}
    .fil7 {fill:#78461B}
    .fil1 {fill:#82BB2D}
    .fil2 {fill:#82BB2D}
    .fil10 {fill:#8E5220}
    .fil8 {fill:#D5D1C3}
    .fil5 {fill:#E5E0D3}
    .fil3 {fill:#F0F0EF}
   ]]>
  </style>
 </defs>
 <g id="Camada_x0020_1">
  <metadata id="CorelCorpID_0Corel-Layer"/>
  <g id="_1469737272432">
   <path class="fil0" d="M12.68 4.58c0.18,0.19 0.26,0.36 0.64,0.31 0.95,-0.14 1.06,-0.35 2.68,-0.41 1.39,-0.06 2.39,0.13 3.65,0.42 0.05,1.14 0.47,1.85 1.2,2.54 0.28,0.26 0.48,0.3 0.74,0.53 0.04,1.81 0.53,2.95 1.9,3.87 0.49,0.33 0.81,0.33 1.33,0.58 0.28,0.9 0.28,1.08 0.8,1.73 0.28,0.36 0.88,0.88 1.5,1.03 -0.03,0.65 -0.11,1.55 -0.3,2.14 -1.55,-0.71 -2.32,-1.2 -4.27,-1.41 -1.83,-0.2 -3.43,0.13 -4.84,0.88 -1.27,0.68 -2.02,1.61 -2.71,2.99 -0.83,1.66 -1.23,2.11 -1.46,4.3l-0.04 0.71c-0.56,0.02 -1.31,-0.08 -1.88,-0.1l-3.85 0.08c-0.99,0.06 -0.9,0.16 -1.89,-0.89 -3.53,-3.78 -2.12,-10.19 0.6,-13.95 0.52,-0.72 1.25,-1.72 1.89,-2.15 0.02,-0.17 0.19,-0.27 0.34,-0.39 0.17,-0.13 0.3,-0.26 0.47,-0.4 0.32,-0.25 0.78,-0.4 0.54,-1.01 -0.55,-0.56 -1.56,0.57 -2.1,1.11 -1.98,1.98 -3.18,3.89 -4.13,6.7 -1.1,3.28 -1.09,7.16 1.11,10.1l0.84 1.01c-0.5,0.12 -1.64,0.15 -1.95,0.24 -0.64,0.18 -0.71,0.94 0.01,1.25 0.61,0.26 3.18,0.95 3.41,1.11l-6.44 2.39c-0.28,0.14 -0.43,0.35 -0.47,0.56l0 0.2c0.05,0.3 0.33,0.55 0.8,0.57l2.46 0.06c0.44,0 0.69,0.07 1.19,0.07 0.84,-0 1.68,-0 2.52,0 0.49,0 0.7,-0.07 1.19,-0.07 0.51,0 0.85,-0.03 1.26,-0.07 -0.09,0.07 -0.02,0.03 -0.16,0.11l-0.53 0.27c-0.43,0.21 -1.21,0.58 -0.73,1.17 0.36,0.44 2.04,0.19 2.95,0.18 1.34,-0.01 4.52,-0.45 5.81,-0.7 0.61,-0.12 0.63,0.19 1.49,0.63 4.35,2.26 9.29,0.98 11.89,-2.66 0.09,-0.13 0.13,-0.22 0.25,-0.35 0.24,-0.27 1,-0.96 0.41,-1.38 -0.61,-0.16 -0.6,0.08 -1.04,0.62 -0.77,0.96 -2.27,1.64 -3.61,1.83 -3.89,0.57 -7.66,-1.71 -9.55,-4.79 -0.94,-1.53 -1.53,-3.76 -0.81,-5.77 2.16,-6.03 12.89,-3.95 15.01,3.19 0.62,2.08 -0.13,2.41 0.66,2.98 0.62,-0.05 0.61,-0.4 0.61,-1.06 -0,-0.59 -0.05,-1.06 -0.16,-1.57 -0.2,-0.89 -0.55,-1.83 -0.96,-2.5 -0.22,-0.36 -0.41,-0.66 -0.65,-1.01 -0.62,-0.9 -1.76,-1.99 -2.62,-2.56 0.37,-0.78 0.4,-2.51 0.4,-3.45 0,-0.51 -0.07,-0.85 -0.07,-1.26l1.1 0.83c0.9,0.65 3.07,2.02 4.1,1.46 0.35,-0.19 0.7,-0.6 0.77,-1.09l0 -0.37c-0.02,-0.11 -0.04,-0.22 -0.09,-0.33 -0.31,-0.76 -0.78,-0.81 -1.51,-1.08 -0.72,-0.26 -1.51,-0.7 -2.11,-1.15 -2.03,-1.5 -3.35,-3.11 -4.65,-5.25 -0.55,-0.9 -1.3,-2.55 -1.53,-3.71 -0.07,-0.36 -0.15,-0.7 -0.19,-1.07 -0.06,-0.54 -0.01,-0.68 -0.32,-1 -0.21,-0.21 -0.44,-0.34 -0.68,-0.38l-0.37 0c-0.29,0.05 -0.55,0.22 -0.74,0.49 -0.53,0.76 0.3,3.85 0.57,4.42 -0.19,-0.04 -1.39,-0.63 -2.18,-0.87 -1.89,-0.58 -3.41,-0.68 -5.38,-0.44 -0.43,0.05 -0.87,0.13 -1.3,0.23 -0.5,0.11 -0.84,0.15 -0.84,0.76z"/>
   <path class="fil1" d="M12.68 4.58c-0.32,0.02 -1.32,0.46 -1.59,0.59 -0.25,0.12 -0.45,0.22 -0.69,0.37 -0.23,0.14 -0.5,0.27 -0.68,0.43 0.24,0.61 -0.22,0.76 -0.54,1.01 -0.17,0.13 -0.3,0.26 -0.47,0.4 -0.15,0.12 -0.32,0.22 -0.34,0.39 -0.82,1.52 -1.4,2.72 -1.84,4.61 -1.07,4.65 0.35,8.8 4.59,10.9 0.52,0.25 1.81,0.79 2.42,0.8 0.23,-2.18 0.63,-2.63 1.46,-4.3 0.69,-1.38 1.44,-2.32 2.71,-2.99 1.41,-0.75 3,-1.08 4.84,-0.88 1.95,0.21 2.72,0.7 4.27,1.41 0.19,-0.58 0.27,-1.49 0.3,-2.14 -0.62,-0.15 -1.21,-0.67 -1.5,-1.03 -0.52,-0.65 -0.52,-0.83 -0.8,-1.73 -0.53,-0.25 -0.84,-0.25 -1.33,-0.58 -1.37,-0.91 -1.86,-2.06 -1.9,-3.87 -0.26,-0.23 -0.46,-0.27 -0.74,-0.53 -0.73,-0.68 -1.14,-1.39 -1.2,-2.54 -1.26,-0.29 -2.26,-0.48 -3.65,-0.42 -1.62,0.07 -1.73,0.27 -2.68,0.41 -0.38,0.06 -0.46,-0.12 -0.64,-0.31z"/>
   <path class="fil2 str0" d="M30.81 28.49c0.21,-0.41 0.69,-1.33 0.65,-1.93 -0.79,-0.58 -0.04,-0.9 -0.66,-2.98 -2.11,-7.15 -12.84,-9.22 -15.01,-3.19 -0.72,2.01 -0.13,4.24 0.81,5.77 1.89,3.07 5.66,5.35 9.55,4.79 1.35,-0.2 2.84,-0.88 3.61,-1.83 0.44,-0.54 0.43,-0.78 1.04,-0.62z"/>
   <path class="fil3" d="M20.93 17.51c-6.29,0.79 -5.94,8.07 -0.45,11.48 3.15,1.96 7.89,1.94 9.52,-1.31 0.86,-1.7 0.47,-3.95 -0.37,-5.45 -1.63,-2.9 -5.15,-5.17 -8.7,-4.72z"/>
   <path class="fil4 str1" d="M13.54 24.08c-0.61,-0 -1.91,-0.54 -2.42,-0.8 -4.24,-2.1 -5.67,-6.25 -4.59,-10.9 0.43,-1.88 1.02,-3.09 1.84,-4.61 -0.64,0.44 -1.37,1.44 -1.89,2.15 -2.72,3.75 -4.13,10.17 -0.6,13.95 0.99,1.06 0.9,0.95 1.89,0.89l3.85 -0.08c0.58,0.02 1.32,0.12 1.88,0.1l0.04 -0.71z"/>
   <path class="fil5" d="M19.29 22.21c-0.14,0.4 -0.09,0.96 -0,1.4 0.12,0.56 0.4,0.88 -0.23,1.11l0.09 0.08c0.28,0.3 0.48,0.85 0.87,1.16 0.58,-0.23 0.63,0.05 0.95,0.29 0.25,0.19 0.5,0.38 0.78,0.54 0.58,0.33 1.2,0.59 1.96,0.7 1.85,0.26 3.53,-0.83 3.56,-1.79 -0.04,-0.73 -0.73,-1.78 -1.07,-2.17 -1.06,-1.23 -2.74,-2.11 -4.42,-2.1 -1.26,0 -1.62,0.34 -2.49,0.78z"/>
   <path class="fil0" d="M19.06 24.72c0.63,-0.23 0.35,-0.55 0.23,-1.11 -0.09,-0.44 -0.14,-1 0,-1.4 0.6,-2.92 5.42,-2.97 7.55,0.29 0.27,0.41 0.48,0.86 0.6,1.39 0.11,0.51 0.18,1.41 -0.17,1.81 -0.03,0.97 -1.72,2.05 -3.56,1.79 -0.76,-0.11 -1.38,-0.36 -1.96,-0.7 -0.29,-0.17 -0.53,-0.35 -0.78,-0.54 -0.32,-0.24 -0.38,-0.52 -0.95,-0.29 -0.33,0.55 -0.01,0.81 0.72,1.32 1.55,1.09 3.68,1.66 5.47,0.85 2.26,-1.02 3.04,-3.72 1.41,-6.21 -1,-1.53 -3.51,-3.41 -6.38,-2.74 -3.82,0.9 -3.33,5.74 -2.18,5.54z"/>
   <path class="fil6" d="M2.16 30.28c1.32,0.26 8.18,-0.04 9.85,-0.26 0.64,-0.09 1.81,-0.7 2.53,-0.91 -0.25,-0.75 -0.64,-1.38 -0.79,-2.32 -1.87,0.19 -4.34,0.94 -6.07,1.48 -0.85,0.27 -5.14,1.69 -5.52,2.01z"/>
   <path class="fil7" d="M22.02 33.03c-0.2,-0.21 -0.79,-0.47 -1.07,-0.66 -0.38,-0.26 -0.7,-0.52 -1.01,-0.78 -0.32,-0.26 -1.43,-1.48 -1.54,-2l-0.31 -0.27c-0.92,-0.8 -1.32,-1.21 -2.07,-2.32 -0.8,-1.18 -1.02,-1.97 -1.45,-3.47 -0.75,5.12 2.97,9.04 7.44,9.5z"/>
   <path class="fil8" d="M19.29 22.21c0.86,-0.44 1.23,-0.77 2.49,-0.78 1.69,-0 3.36,0.88 4.42,2.1 0.34,0.39 1.02,1.44 1.07,2.17 0.35,-0.41 0.28,-1.31 0.17,-1.81 -0.11,-0.53 -0.33,-0.98 -0.6,-1.39 -2.13,-3.26 -6.95,-3.22 -7.55,-0.29z"/>
   <path class="fil9" d="M27.09 14.12c0.03,-0.43 -0.2,-2.05 -0.43,-2.34l-0.48 -0.51c-0.58,-0.71 -1.12,-1.33 -1.67,-2.18 -0.5,-0.77 -1.26,-2.24 -1.4,-2.45 -0.23,-0.33 -1.87,-1.22 -2.44,-1.38 0.07,0.75 0.57,1.3 1.1,1.67 0.24,0.16 0.5,0.21 0.66,0.34 0.48,0.36 -0.32,1.68 0.8,3.06 1.07,1.31 2.21,1.02 2.46,1.39 0.12,0.17 0.17,1.94 1.41,2.42z"/>
   <path class="fil9" d="M22.71 0.98l-0.08 0.69c0.14,1.41 0.55,2.87 1.13,4.13 0.68,1.47 1.37,2.62 2.23,3.75 0.22,0.28 0.43,0.57 0.65,0.82 0.27,0.31 0.46,0.58 0.72,0.8 0.61,0.51 0.61,0.7 1.55,1.43 0.54,0.42 3.27,2.41 3.93,1.92 0.88,-0.65 -1.03,-1.11 -1.38,-1.29 -1.51,-0.74 -2.32,-1.4 -3.49,-2.49 -0.45,-0.42 -1.02,-1.04 -1.43,-1.56 -0.84,-1.08 -1.66,-2.2 -2.34,-3.63 -0.32,-0.66 -0.62,-1.4 -0.85,-2.14 -0.11,-0.37 -0.23,-0.81 -0.3,-1.22 -0.15,-0.81 -0.01,-1.1 -0.34,-1.21z"/>
   <path class="fil10" d="M22.02 33.03c2.23,0.12 3.45,-0.35 5.05,-1.26 -0.78,0.03 -1.05,0.28 -2.5,0.2 -1.71,-0.09 -2.96,-0.55 -4.41,-1.26 -0.69,-0.34 -1.17,-0.74 -1.75,-1.12 0.11,0.52 1.22,1.74 1.54,2 0.32,0.26 0.63,0.52 1.01,0.78 0.28,0.19 0.87,0.45 1.07,0.66z"/>
   <path class="fil11" d="M5.46 25.93c0.78,0.14 4.41,0.59 5.03,0.47l3.07 -0.58c-0.01,0.01 -0.04,-0.02 -0.05,-0 -0.01,0.02 -0.04,-0.02 -0.05,-0.02l-1.83 -0.14c-1.91,-0.05 -4.44,0.05 -6.29,0.27l0.13 0z"/>
   <path class="fil6" d="M10.68 31.73c-0.17,0.05 -0.32,0.15 -0.45,0.23 0.63,0.16 5.11,-0.4 5.98,-0.59 -0.14,-0.29 -0.42,-0.54 -0.67,-0.77 -0.19,0.2 -0.9,0.3 -1.18,0.38 -0.41,0.11 -0.8,0.2 -1.23,0.3l-1.86 0.47c-0.74,0.21 -0.53,0.1 -0.59,-0.01z"/>
   <path class="fil12" d="M10.68 31.73c0.06,0.11 -0.15,0.22 0.59,0.01l1.86 -0.47c0.43,-0.11 0.82,-0.19 1.23,-0.3 0.28,-0.08 0.99,-0.18 1.18,-0.38 -0.12,-0.22 -0.31,-0.44 -0.44,-0.65 -0.65,0.15 -1.63,0.57 -2.24,0.84 -0.72,0.3 -1.5,0.7 -2.18,0.95z"/>
   <path class="fil13" d="M10.48 26.4c-0.61,0.11 -4.25,-0.33 -5.03,-0.47 0.16,0.17 0.25,0.15 0.58,0.25 0.21,0.06 0.4,0.11 0.62,0.18 2.3,0.69 1.69,0.64 3.49,0.2 0.23,-0.06 0.2,-0.02 0.34,-0.15z"/>
  </g>
 </g>
</svg>
