<?xml version="1.0" encoding="UTF-8"?>
<!DOCTYPE svg PUBLIC "-//W3C//DTD SVG 1.1//EN" "http://www.w3.org/Graphics/SVG/1.1/DTD/svg11.dtd">
<!-- Creator: CorelDRAW -->
<svg xmlns="http://www.w3.org/2000/svg" xml:space="preserve" width="14.0514mm" height="16mm" version="1.1" style="shape-rendering:geometricPrecision; text-rendering:geometricPrecision; image-rendering:optimizeQuality; fill-rule:evenodd; clip-rule:evenodd"
viewBox="0 0 26.85 30.57"
 xmlns:xlink="http://www.w3.org/1999/xlink"
 xmlns:xodm="http://www.corel.com/coreldraw/odm/2003">
 <defs>
  <style type="text/css">
   <![CDATA[
    .str2 {stroke:#4A301F;stroke-width:0.38;stroke-miterlimit:22.9256}
    .str1 {stroke:#C99E7B;stroke-width:0.38;stroke-miterlimit:22.9256}
    .str0 {stroke:#DCBFA1;stroke-width:0.38;stroke-miterlimit:22.9256}
    .fil0 {fill:black}
    .fil5 {fill:#414346}
    .fil3 {fill:#4A301F}
    .fil1 {fill:#7E502E}
    .fil4 {fill:#C99E7B}
    .fil2 {fill:#DCBFA1}
   ]]>
  </style>
 </defs>
 <g id="Camada_x0020_1">
  <metadata id="CorelCorpID_0Corel-Layer"/>
  <g id="_1432481563376">
   <path class="fil0" d="M14.23 25.17c-0.24,-0.45 0.1,-0.82 0.55,-1.26 1.85,-1.8 3.27,-2.07 4.98,-3.99 0.76,-0.85 1.6,-1.78 2.11,-2.88 0.78,-0.99 1.4,-3.71 1.53,-5.08 0.23,-2.53 -0.63,-4.21 -0.75,-5.79 -0.42,-0.02 -0.61,0.06 -0.81,-0.21 0.03,-0.5 0.31,-0.38 0.79,-0.41 0.13,-1.83 1.3,-2.31 1.62,-2.67 -0.21,-0.25 -0.86,-0.54 -0.8,-0.93 0.05,-0.31 0.7,-0.39 1,-0.52 0.17,-0.07 -0.18,0.09 0.08,-0.04l0.08 -0.05c-0.28,-0.1 -0.58,-0.33 -0.95,-0.47 -0.34,-0.13 -0.8,-0.28 -1.18,-0.23 -0.24,-0.15 -0.87,-0.08 -1.18,-0.01 -0.33,0.07 -0.63,0.22 -0.87,0.39 -0.52,0.38 -0.85,0.77 -1.22,1.29 -0.5,0.7 -1.53,2.39 -1.87,3.18 -0.35,0.49 -0.48,1.05 -0.93,1.46 -0.89,0.81 -1.09,0.73 -1.38,0.99 1.04,0.03 2.09,-0.23 2.8,-0.67 0.65,-0.41 0.94,-0.65 1.39,-1.18 0.15,-0.17 0.22,-0.32 0.52,-0.28 0.34,0.24 0.13,0.44 -0.07,0.68 -0.17,0.22 -0.29,0.36 -0.51,0.54 -0.37,0.31 -0.74,0.6 -1.23,0.87 -0.93,0.52 -2.3,0.77 -3.58,0.58 -0.52,-0.08 -0.44,-0.1 -0.93,0.05 -2.44,0.78 -4.58,1.21 -6.72,2.77 -0.82,0.6 -1.01,0.88 -1.63,1.52 -0.19,0.2 -0.33,0.35 -0.49,0.56 -0.32,0.4 -0.58,0.75 -0.91,1.18 -0.83,1.11 -2.5,3.95 -2.75,5.71 0.06,-0.06 0,0.01 0.09,-0.08 0.02,-0.02 0.06,-0.07 0.07,-0.09l0.39 -0.55c0.57,-0.75 1.7,-2.09 2.37,-2.67 1.68,-1.47 3.04,-2.53 5.3,-3.41 0.74,-0.29 3.23,-1.11 4.08,-0.83 0.14,0.37 0.01,0.47 -0.18,0.81 -2.06,3.73 -3.57,6.18 -6.43,9.35 -0.18,0.2 -0.33,0.38 -0.53,0.56 0.14,0.09 1,0.32 1.55,0.63 0.4,0.12 0.85,0.33 1.13,0.56 0.27,0.22 0.7,0.56 0.87,0.81 0.01,-0.01 0.01,-0.03 0.02,-0.04l0.03 -0.08c0.19,-0.61 0.53,-0.28 0.58,-0.13 0.08,0.23 0.03,0.82 0.09,1.09 0.07,0.37 -0.01,0.7 0.08,1.05l1.61 -0.33c0.27,-0.05 0.28,-0.01 0.48,0.12 0,0.42 -0.16,0.52 -0.84,0.58 0.01,0.01 0.03,0 0.04,0.02l1.54 0.3 -0.78 -1.99c-0.13,-0.5 -0.77,-1.56 -0.59,-2 0.54,-0.2 0.56,0.29 0.74,0.75 0.12,0.29 0.28,0.93 0.48,1.1l1 2.62 1.94 -0.85c0.44,-0.15 0.58,0.32 0.35,0.51l-1.59 0.72c-0.01,0 -0.03,0.02 -0.03,0.02 -0.01,0 -0.02,0.01 -0.03,0.02 1.26,0 2.75,0.1 3.98,0.1 0.17,0.2 0.19,0.15 0.1,0.52 -0.35,0.17 -0.44,0.05 -0.89,0.05 -0.37,0 -0.74,0 -1.1,0 -0.38,0 -0.58,-0.06 -0.99,-0.05 -0.37,0 -0.73,0 -1.1,0 0.13,0.54 0.63,0.55 0.26,1.1l-0.31 0 -0.96 -1.45c-0.28,-0.67 0.13,-0.4 -1.7,-0.76 -0.33,-0.07 -1.03,-0.25 -1.38,-0.25 0.07,0.29 0.22,0.59 0.33,0.87 0.29,0.71 -0.32,0.88 -0.54,0.33l-0.42 -1.1c-0.43,0.29 -0.25,0.37 -0.73,0.37 -0.24,-0.35 -0.2,-0.41 0.24,-0.76 0.15,-0.12 0.11,-0.14 0.29,-0.19 0,-0.26 0.01,-0.46 -0.03,-0.7 -0.04,-0.26 0.03,-0.48 -0.09,-0.65 -0.03,-0.04 -0.12,-0.12 -0.18,-0.19l-0.56 -0.59c-0.96,-0.8 -0.66,-0.52 -1.89,-1.1 -0.96,-0.45 -0.93,-0.39 -1.82,-0.38 -0.34,0 -0.45,-0.04 -0.73,-0.05 -1.13,-0.03 -1.42,-0.29 -1.42,-1.63 -0.22,0.02 -0.46,0.13 -0.7,0.19 -0.28,0.07 -0.5,0.12 -0.77,0.17 -0.48,0.1 -1.06,0.28 -1.57,0.16 -0.03,-0.13 -0.05,-0.29 -0.05,-0.46l0 -0.18c0.03,-1.39 0.75,-3.6 1.21,-4.55 0.18,-0.37 0.33,-0.74 0.52,-1.1l0.6 -1.03c0.75,-1.14 0.82,-1.28 1.68,-2.36 0.08,-0.1 0.12,-0.13 0.2,-0.22 2.12,-2.63 4.18,-3.48 7.34,-4.46 1.7,-0.53 3.32,-0.83 4.49,-2.01 0.27,-0.27 1.39,-2.39 1.78,-3.1 0.5,-0.91 1.35,-2.11 2.14,-2.74 0.47,-0.37 0.95,-0.59 1.63,-0.65l0.94 0c0.01,0 0.02,0 0.03,0 0.98,0.08 1.71,0.46 2.39,0.86 1.01,0.59 1.19,0.86 1.91,1.34l0 0.31c-0.35,0.23 -0.18,0.13 -0.82,0.28 -0.34,0.08 -0.59,0.17 -0.86,0.29 -0.47,0.21 -1.04,0.57 -1.34,0.96 -0.91,1.16 -0.59,2.15 -0.25,3.62 0.15,0.64 0.25,1.21 0.35,1.9l0.15 1.59c0,0.52 -0.23,2.09 -0.34,2.55 -0.52,2.3 -1.1,3.56 -2.53,5.44 -0.17,0.22 -0.33,0.43 -0.51,0.64 -0.37,0.43 -0.73,0.78 -1.12,1.18 -0.33,0.33 -0.86,0.72 -1.25,1.01 -0.94,0.68 -2.17,1.42 -3,2.19 -0.11,0.1 -0.16,0.2 -0.26,0.31 -0.2,0.23 -0.32,0.42 -0.48,0.67l-0.34 0z"/>
   <path class="fil1" d="M21.85 5.96c-0.37,-0.06 -0.79,0.28 -0.96,0.46 -0.23,0.25 -0.41,0.57 -0.55,0.92 -0.26,0.64 -0.52,1.48 -0.67,2.21 -0.42,0.01 -0.39,0.31 -0.49,0.72 -0.07,0.31 -0.14,0.62 -0.22,0.94 -0.26,1.16 -0.59,2.58 -1.08,3.64 -0.47,1.01 -0.99,1.05 -0.66,1.45 -0.16,0.05 -1.07,0.7 -1.15,0.87l-0.05 0.18c-0,-0.01 -0.01,0.03 -0.01,0.05l-0.02 -0.29c-0.24,-0.16 -0.4,-0.17 -0.55,0.12 -0.1,0.2 -0.19,0.41 -0.27,0.62 -0.28,0.1 -1.14,0.78 -1.45,1.01 -0.22,0.17 -0.46,0.33 -0.7,0.51 -0.26,0.19 -0.47,0.39 -0.76,0.54 0.01,-0.06 0.2,-0.71 -0.29,-0.61 -0.24,0.05 -0.27,0.4 -0.36,0.65 -0.2,0.55 -0.46,0.89 -0.79,1.21 -0.07,-0.09 -0.11,-0.02 -0.4,0.22l-1.23 1.07c-0.35,0.37 -1.38,1.15 -1.53,1.58 -0.55,-0.31 -1.41,-0.54 -1.55,-0.63 0.21,-0.18 0.35,-0.35 0.53,-0.56 2.86,-3.17 4.37,-5.62 6.43,-9.35 0.18,-0.33 0.31,-0.43 0.18,-0.81 -0.85,-0.27 -3.34,0.54 -4.08,0.83 -2.26,0.88 -3.62,1.94 -5.3,3.41 -0.66,0.58 -1.8,1.91 -2.37,2.67l-0.39 0.55c-0.01,0.02 -0.06,0.07 -0.07,0.09 -0.08,0.09 -0.02,0.03 -0.09,0.08 0.25,-1.76 1.91,-4.6 2.75,-5.71 0.33,-0.44 0.6,-0.78 0.91,-1.18 0.16,-0.2 0.3,-0.36 0.49,-0.56 0.61,-0.64 0.8,-0.92 1.63,-1.52 2.14,-1.56 4.27,-1.99 6.72,-2.77 0.49,-0.16 0.41,-0.13 0.93,-0.05 1.28,0.19 2.65,-0.06 3.58,-0.58 0.49,-0.27 0.86,-0.56 1.23,-0.87 0.22,-0.18 0.33,-0.32 0.51,-0.54 0.19,-0.24 0.4,-0.44 0.07,-0.68 0.21,-0.08 0.27,-0.26 0.39,-0.44 0.11,-0.17 0.2,-0.32 0.29,-0.49 0.54,-1.05 0.92,-2.23 0.92,-3.44l-0.05 -0.32c0.39,-0.32 0.72,-0.3 1.19,-0.5 0.39,-0.05 0.84,0.1 1.18,0.23 0.36,0.14 0.66,0.37 0.95,0.47l-0.08 0.05c-0.26,0.13 0.09,-0.03 -0.08,0.04 -0.3,0.13 -0.95,0.21 -1,0.52 -0.06,0.39 0.59,0.68 0.8,0.93 -0.32,0.36 -1.49,0.84 -1.62,2.67 -0.47,0.04 -0.76,-0.09 -0.79,0.41z"/>
   <path class="fil2 str0" d="M14.23 25.17c-0.18,0.09 -0.28,0.23 -0.51,0.35 -0.22,0.12 -0.41,0.18 -0.61,0.28 -0.19,-0.17 -0.36,-0.81 -0.48,-1.1 -0.18,-0.45 -0.2,-0.95 -0.74,-0.75 -0.18,0.44 0.46,1.5 0.59,2 -0.63,0.14 -1.4,0.21 -2.13,0.26 -0.06,-0.27 -0.01,-0.86 -0.09,-1.09 -0.05,-0.15 -0.39,-0.48 -0.58,0.13l-0.03 0.08c-0,0.01 -0.01,0.03 -0.02,0.04 -0.17,-0.24 -0.6,-0.58 -0.87,-0.81 -0.27,-0.23 -0.73,-0.44 -1.13,-0.56 0.15,-0.43 1.18,-1.21 1.53,-1.58l1.23 -1.07c0.29,-0.24 0.33,-0.31 0.4,-0.22l0.08 0.31c0.46,0.13 0.69,-0.29 0.88,-0.56 0.24,-0.36 0.31,-0.71 0.49,-1 0.28,-0.15 0.5,-0.35 0.76,-0.54 0.24,-0.18 0.48,-0.34 0.7,-0.51 0.3,-0.23 1.17,-0.91 1.45,-1.01 -0.14,0.21 -0.25,0.51 -0.36,0.74 -0.15,0.3 -0.33,0.43 -0.23,0.8 0.44,0.2 0.52,-0.04 0.86,-0.75 0.17,-0.36 0.35,-0.82 0.56,-1.16 0.92,-0.12 1.96,-0.22 2.9,-0.26 0.97,-0.04 2.05,-0.18 3.01,-0.16 -0.51,1.1 -1.36,2.03 -2.11,2.88 -1.71,1.92 -3.13,2.19 -4.98,3.99 -0.45,0.44 -0.8,0.81 -0.55,1.26z"/>
   <path class="fil3" d="M3.63 21.59c-0.42,-0.17 -0.42,0.1 -1.4,0.36 -0.47,0.12 -1.12,0.27 -1.62,0.33 -0.01,-0.54 0.59,-1.25 0.89,-1.69 0.48,-0.69 1.17,-1.59 1.75,-2.18 0.89,-0.91 0.9,-0.98 2.02,-1.92 1.66,-1.39 4.99,-3.17 7.21,-3.22 -0.46,1.23 -3.24,5.38 -3.99,6.39 -0.39,0.52 -0.74,0.94 -1.13,1.43l-1.85 2.03c-0.37,0.37 -0.33,0.3 -1.02,0.25 -0.61,-0.05 -0.69,0.02 -0.76,-0.56 -0.04,-0.38 0,-0.91 -0.09,-1.22z"/>
   <path class="fil4 str1" d="M21.88 17.04c-0.96,-0.02 -2.04,0.12 -3.01,0.16 -0.94,0.04 -1.98,0.14 -2.9,0.26l0.02 -0.07c0.01,-0.02 0.01,-0.06 0.01,-0.05l0.05 -0.18c0.08,-0.18 0.99,-0.82 1.15,-0.87 0.34,0.2 0.57,-0.17 0.73,-0.38 0.8,-1.04 1.29,-3.19 1.59,-4.5 0.08,-0.33 0.15,-0.65 0.22,-0.98 0.09,-0.39 0.25,-0.72 -0.09,-0.88 0.15,-0.73 0.41,-1.57 0.67,-2.21 0.14,-0.35 0.32,-0.67 0.55,-0.92 0.17,-0.18 0.59,-0.52 0.96,-0.46 0.19,0.28 0.38,0.19 0.81,0.21 0.12,1.57 0.98,3.26 0.75,5.79 -0.12,1.36 -0.75,4.09 -1.53,5.08z"/>
   <path class="fil4 str1" d="M19.74 5.84c-0.3,-0.05 -0.37,0.11 -0.52,0.28 -0.46,0.53 -0.74,0.77 -1.39,1.18 -0.71,0.45 -1.76,0.7 -2.8,0.67 0.29,-0.26 0.48,-0.18 1.38,-0.99 0.45,-0.41 0.59,-0.98 0.93,-1.46 0.64,-0.27 1.71,-1.47 2.14,-2.02 0.29,-0.38 0.58,-0.79 0.88,-1.22 0.29,-0.42 0.53,-0.89 0.94,-1.12l0.05 0.32c0,1.21 -0.38,2.39 -0.92,3.44 -0.09,0.17 -0.18,0.33 -0.29,0.49 -0.12,0.18 -0.17,0.36 -0.39,0.44z"/>
   <path class="fil3 str2" d="M21.3 1.15c-0.41,0.23 -0.65,0.7 -0.94,1.12 -0.3,0.43 -0.58,0.84 -0.88,1.22 -0.42,0.55 -1.5,1.75 -2.14,2.02 0.33,-0.8 1.36,-2.49 1.87,-3.18 0.38,-0.53 0.7,-0.91 1.22,-1.29 0.24,-0.18 0.53,-0.32 0.87,-0.39 0.31,-0.07 0.94,-0.14 1.18,0.01 -0.46,0.2 -0.79,0.19 -1.19,0.5z"/>
   <path class="fil0" d="M17.22 16.29c-0.33,-0.4 0.19,-0.44 0.66,-1.45 0.49,-1.06 0.82,-2.48 1.08,-3.64 0.07,-0.32 0.14,-0.63 0.22,-0.94 0.1,-0.41 0.07,-0.71 0.49,-0.72 0.34,0.16 0.18,0.49 0.09,0.88 -0.07,0.33 -0.15,0.65 -0.22,0.98 -0.3,1.3 -0.79,3.45 -1.59,4.5 -0.16,0.21 -0.4,0.58 -0.73,0.38z"/>
   <path class="fil0" d="M17.74 11.53c-0.81,0.07 -0.18,-0.8 -0.06,-1.14 0.09,-0.25 0.16,-0.47 0.22,-0.72 0.07,-0.29 0.07,-0.63 0.29,-0.71 0.69,-0.27 0.24,1.02 0.17,1.27 -0.14,0.49 -0.33,0.94 -0.62,1.3z"/>
   <path class="fil0" d="M13 17.73c-0.12,-0.37 0.2,-0.72 0.51,-1.38 0.11,-0.23 0.36,-0.89 0.52,-0.96 0.17,-0.08 0.31,-0.02 0.38,0.1 0.14,0.23 -0.65,1.71 -0.83,2.03 -0.16,0.29 -0.24,0.39 -0.58,0.22z"/>
   <path class="fil0" d="M16 17.39l-0.02 0.07c-0.2,0.34 -0.38,0.8 -0.56,1.16 -0.34,0.71 -0.42,0.95 -0.86,0.75 -0.1,-0.37 0.08,-0.5 0.23,-0.8 0.12,-0.23 0.23,-0.52 0.36,-0.74 0.08,-0.21 0.17,-0.42 0.27,-0.62 0.15,-0.29 0.31,-0.28 0.55,-0.12l0.02 0.29z"/>
   <path class="fil0" d="M20.9 11.01c0.21,0.09 0.17,0.1 0.36,0.55 0.18,0.43 0.77,2.3 -0.05,1.9 -0.23,-0.11 -0.1,-0.64 -0.4,-1.44 -0.07,-0.2 -0.22,-0.45 -0.27,-0.63 -0.09,-0.27 0.11,-0.49 0.36,-0.38z"/>
   <path class="fil0" d="M15.05 12.83c-0.32,-0.31 0.07,-0.63 0.24,-1.1 0.13,-0.34 0.28,-1.04 0.41,-1.26 0.81,-0.17 0.39,0.74 0.23,1.21 -0.15,0.44 -0.35,1.23 -0.88,1.14z"/>
   <path class="fil0" d="M22.35 10.44c-0.68,0.2 -0.46,-0.52 -0.64,-1.11 -0.1,-0.34 -0.55,-1.1 -0.3,-1.29 0.62,-0.47 1.14,1.92 0.94,2.41z"/>
   <path class="fil0" d="M12.67 21.49c0.45,0.17 -0.03,1.03 -0.19,1.32 -0.77,1.41 -1.48,0.8 -0.92,0.29 0.59,-0.54 0.64,-1.78 1.1,-1.61z"/>
   <path class="fil0" d="M15.73 15.36c-0.44,-0.47 0.32,-0.29 0.77,-1.8 0.2,-0.66 1.06,-0.64 0.22,1.01 -0.15,0.29 -0.59,1.01 -0.99,0.79z"/>
   <path class="fil0" d="M12.26 19.9c-0.18,0.29 -0.25,0.64 -0.49,1 -0.18,0.28 -0.42,0.69 -0.88,0.56l-0.08 -0.31c0.33,-0.32 0.59,-0.66 0.79,-1.21 0.09,-0.25 0.12,-0.6 0.36,-0.65 0.49,-0.1 0.3,0.55 0.29,0.61z"/>
   <path class="fil5" d="M25.83 2.2c-0.05,0.03 -0.73,0.29 -0.82,0.32 -0.19,0.06 -0.54,-0.23 -0.68,-0.37l0.8 -0.25c0.33,-0.04 0.52,0.1 0.69,0.3z"/>
   <path class="fil0" d="M22.65 1.46c0.17,0.58 -0.33,0.56 -0.76,0.44 -0.25,-0.61 0.39,-0.65 0.76,-0.44z"/>
  </g>
 </g>
</svg>
