<?xml version="1.0" encoding="UTF-8"?>
<!DOCTYPE svg PUBLIC "-//W3C//DTD SVG 1.1//EN" "http://www.w3.org/Graphics/SVG/1.1/DTD/svg11.dtd">
<!-- Creator: CorelDRAW -->
<svg xmlns="http://www.w3.org/2000/svg" xml:space="preserve" width="16mm" height="13.0737mm" version="1.1" style="shape-rendering:geometricPrecision; text-rendering:geometricPrecision; image-rendering:optimizeQuality; fill-rule:evenodd; clip-rule:evenodd"
viewBox="0 0 28.64 23.4"
 xmlns:xlink="http://www.w3.org/1999/xlink"
 xmlns:xodm="http://www.corel.com/coreldraw/odm/2003">
 <defs>
  <style type="text/css">
   <![CDATA[
    .str0 {stroke:#C47A43;stroke-width:0.36;stroke-miterlimit:22.9256}
    .str1 {stroke:#FEBD86;stroke-width:0.36;stroke-miterlimit:22.9256}
    .fil0 {fill:black}
    .fil3 {fill:#613C21}
    .fil4 {fill:#935B33}
    .fil2 {fill:#A9683A}
    .fil1 {fill:#C47A43}
    .fil6 {fill:#FDD1A2}
    .fil5 {fill:#FEBD86}
   ]]>
  </style>
 </defs>
 <g id="Camada_x0020_1">
  <metadata id="CorelCorpID_0Corel-Layer"/>
  <g id="_1433363188064">
   <path class="fil0" d="M11.87 19.97c-0.59,0.11 -0.47,0.45 -0.47,1.36 0,0.59 -0.29,0.82 -0.54,1.22l-1.04 0c0.18,-0.97 0.84,-0.68 0.81,-1.77l-0.21 -4.94c-0.02,-0.73 -0.14,-1.86 -0.09,-2.56 0.52,-0.04 0.68,0.02 1.15,0.09 -0.02,0.98 -0.02,1.95 -0.04,2.92 0,0.52 0,1.02 0,1.52 -0.02,0.54 -0.14,0.95 0.43,1.06 0.45,-0.02 0.45,-0.47 0.45,-0.95l0 -4.37c0.27,0.04 0.5,0.09 0.82,0.13 0.27,0.02 0.66,0.07 0.91,0.09 1,0.13 2.68,-0.07 3.62,-0.34 0.21,-0.05 0.52,-0.14 0.77,-0.23 0.29,-0.09 0.47,-0.18 0.75,-0.25 0.21,0.39 0.98,1.47 1.34,1.56 -0.09,0.34 -1.5,1.77 -1.74,2.18 -0.18,0.36 -0.05,0.66 0.04,1.09 0.05,0.25 0.07,0.34 0.04,0.48 -0.14,0.61 -0.27,1.06 -0.05,1.72 0.23,0.72 0.79,1.22 1.49,0.55l1.04 -0.91c0.13,-0.13 0.05,-0.04 0.16,-0.16 0.3,-0.36 0.14,-0.81 0.09,-1.31 -0.05,-0.66 -0.02,-0.5 0.32,-0.91l1.84 -2.15c0.11,-0.16 0.2,-0.21 0.3,-0.36 0.11,-0.14 0.18,-0.23 0.34,-0.34l0.52 0.43c0.93,0.84 0.98,0.41 0.98,1.92 0,1.31 0,2.61 0,3.92l-0.2 0.14c0,0 -0.7,0.73 -0.75,1.38 -0.09,1.04 0.91,0.89 1.63,0.89 1.15,0 1.27,0.05 1.65,-0.82 0.16,-0.41 0.25,-0.38 0.25,-0.97 -0.02,-1.59 -0.05,-4.08 0,-5.6 0,-0.25 0.07,-0.34 0.04,-0.59 -0.09,-0.88 -0.23,-1.04 -0.84,-1.63 -0.38,-0.38 -0.91,-0.95 -1.04,-1.47 0.21,0.14 0.32,0.38 0.64,0.47 0.38,0.11 0.68,-0.09 0.81,-0.3 0.14,-0.27 0.38,-1.52 0.43,-1.92 0.05,-0.39 0.11,-0.77 0.13,-1.15l0 -1.31c-0.09,-1.16 -0.48,-2.2 -1.41,-3.06 -0.66,-0.63 -1.74,-0.88 -2.7,-0.66 -0.98,0.23 -0.3,-0.04 -1.75,-0.3 -0.36,-0.07 -0.66,-0.02 -0.72,0.34 0.09,0.82 1,0.21 2.36,1.32 2.02,1.65 1.22,3.87 1.24,5.89 0.02,1.61 1.06,2.18 1.16,2.52 0.18,0.11 0.16,0.14 0.32,0.29 0.38,0.38 0.52,0.36 0.52,1.27l-0.02 4.76c0,0.64 0.09,1.68 -0.39,2.04l-1.41 0c0.13,-0.59 0.48,-0.72 0.75,-1.02 0.29,-0.32 0.18,-1.13 0.18,-1.63 0,-1.22 -0.02,-2.42 -0.02,-3.63 -0.07,-0.88 -0.55,-1.16 -1.06,-1.58 -1.16,-0.91 -1.86,-1.54 -2.86,-2.63 -0.57,-0.63 -0.61,-1.25 -1.54,-0.95 -0.43,0.41 -1.45,0.97 -2.13,1.25 -1.93,0.79 -3.51,1.07 -5.62,0.84 -0.88,-0.09 -2.17,-0.45 -2.9,-0.43 -0.72,0.02 -1.97,0.5 -2.67,0.72 -2.85,0.91 -2.26,0.25 -3.67,2.92 -0.34,0.64 -0.23,0.64 -0.13,1.38 0.07,0.47 0.18,0.97 0.21,1.43 -0.14,0.18 -0.89,0.64 -1.07,0.72 -0.05,-0.59 0.13,-0.93 -0.02,-1.52 -0.07,-0.57 -0.41,-1.61 0.02,-2.04l1.06 -2.34c0.25,-0.45 0.43,-0.52 0.93,-0.77 0.38,-0.18 0.72,-0.41 1.11,-0.54 0.32,-0.21 0.7,-0.25 0.73,-0.73 0.04,-0.25 -0.16,-0.93 -0.16,-1.32 -0.05,-1.02 0.2,-1.79 -0.07,-2.81 -0.2,-0.7 -0.79,-1.52 -1.34,-1.68 -0.98,-0.29 -0.81,1.34 -0.98,2.02 -0.86,-0.39 -1.22,-0.38 -2.18,-0.14 -0.16,-1.31 -0.64,-2.54 -0.59,-3.53 0.04,-0.7 0.47,-1.2 -0.09,-1.56 -0.41,-0.25 -0.75,-0.61 -0.86,-1.25 0.48,0 0.89,0.07 1.25,0.3 0.7,0.45 0.43,0.29 1.04,-0.02 0.75,-0.38 1.92,0.05 2.43,0.39 1.15,0.7 1.81,2.18 2.4,3.81 0.29,0.77 0.55,1.54 1,2.08 0.25,0.3 1.24,1.27 1.86,1.22 1.06,-0.09 1.02,-2.81 0.91,-3.67 -0.07,-0.48 -0.21,-0.82 -0.29,-1.25 0.2,0.09 0.39,0.23 0.64,0.36 0.23,0.11 0.48,0.21 0.72,0.34 0.11,1.18 -0.27,2.74 0.38,3.65 0.7,1 1.58,0.91 3.13,0.91 1.5,0 2.42,0.07 3.1,-0.95 0.57,-0.86 0.27,-2.61 0.34,-3.74 0.27,-0.07 0.5,-0.11 0.77,-0.16 0.34,-0.09 0.41,-0.16 0.43,-0.54 -0.13,-0.5 -0.66,-0.3 -1.11,-0.21 -1,0.21 -1.59,0.48 -2.43,0.7 -1.99,0.5 -4.58,-0.3 -6.12,-1.56l-1.06 -0.89c-0.11,-0.09 -0.13,-0.09 -0.23,-0.18 -0.86,-0.72 -1.22,-1.07 -2.4,-1.56 -1.88,-0.75 -3.63,-0.34 -4.99,0.57 -0.18,-0.09 -0.25,-0.14 -0.45,-0.23 -0.16,-0.05 -0.34,-0.13 -0.55,-0.18 -0.7,-0.16 -1.56,-0.11 -1.63,0.63l0 0.23c0,0.05 0.02,0.13 0.04,0.2 0.29,1.38 1.06,1.32 1.02,1.81 -0.02,0.13 -0.09,0.41 -0.11,0.57 -0.05,0.66 0.05,1.29 0.21,1.9 0.23,0.81 0.36,1.61 0.45,2.42 0.05,0.41 0.09,0.86 0.23,1.16 0.14,0.32 0.34,0.59 0.63,0.77 1.18,0.77 2.42,0.09 2.72,-0.88 0.13,-0.36 0.16,-0.82 0.21,-1.2 0.07,-0.41 0.16,-0.88 0.2,-1.27 0.47,0.32 0.66,1.36 0.57,2.09l-0.07 1.27c0,0.43 0.13,0.86 0.16,1.24 -0.18,0.09 -0.38,0.18 -0.55,0.27 -0.2,0.11 -0.41,0.18 -0.63,0.29 -1.16,0.57 -1.22,0.72 -1.7,1.75 -0.2,0.41 -0.39,0.81 -0.59,1.22l-0.5 1.22c-0.2,0.73 0.21,1.86 0.21,2.29 0,0.45 -0.13,1.18 0.07,1.63 0.38,0.89 1.38,0.05 1.68,-0.16 1.22,-0.81 1.15,-0.45 0.7,-3.06 -0.07,-0.43 0.48,-1.09 0.81,-1.75 0.07,-0.16 0.2,-0.45 0.34,-0.55l2.67 -0.86c0.23,-0.05 0.48,-0.11 0.68,-0.21 0.02,0.3 0.07,0.41 0.05,1.07l0.14 3.28c0.05,0.36 0.02,0.7 0.04,1.09 0,0.34 0.18,1.84 0.02,2.09 -0.09,0.14 -0.16,0.16 -0.25,0.29 -0.36,0.45 -0.88,1.56 -0.18,1.93 0.23,0.14 0.66,0.09 1.02,0.09 0.39,0 0.81,0.05 1.06,-0.13 0.18,-0.13 0.86,-1.15 0.89,-1.38 0.04,-0.29 0,-0.81 0.02,-1.13 0,-0.5 0.05,-0.7 -0.39,-0.79z"/>
   <path class="fil1 str0" d="M6.41 12.37c0.07,0.11 -0.11,0.11 0.2,0.04 0.97,-0.23 2.26,-0.97 3.4,-0.73 1.38,0.29 2.65,0.5 4.15,0.43 1.36,-0.05 2.6,-0.38 3.72,-0.86 0.5,-0.21 1.09,-0.57 1.56,-0.73 0.97,-0.29 1.45,0.16 1.84,0.25 0.93,-0.3 0.97,0.32 1.54,0.95 1,1.09 1.7,1.72 2.86,2.63 0.5,0.41 0.98,0.7 1.06,1.58 0.05,0.05 0.05,0.05 0.09,0.16 0.07,0.21 0.02,3.92 0.02,4.22 -0.16,-0.36 0.11,-5.46 -0.04,-6.46 -0.11,-0.34 -1.15,-0.91 -1.16,-2.52 -0.02,-2.02 0.79,-4.24 -1.24,-5.89 -1.36,-1.11 -2.27,-0.5 -2.36,-1.32l-1.07 0c-0.02,0.38 -0.09,0.45 -0.43,0.54 -0.27,0.05 -0.5,0.09 -0.77,0.16 -0.07,1.13 0.23,2.88 -0.34,3.74 -0.68,1.02 -1.59,0.95 -3.1,0.95 -1.56,0 -2.43,0.09 -3.13,-0.91 -0.64,-0.91 -0.27,-2.47 -0.38,-3.65 -0.23,-0.13 -0.48,-0.23 -0.72,-0.34 -0.25,-0.13 -0.45,-0.27 -0.64,-0.36 0.07,0.43 0.21,0.77 0.29,1.25 0.11,0.86 0.14,3.58 -0.91,3.67 -0.63,0.05 -1.61,-0.91 -1.86,-1.22 -0.45,-0.54 -0.72,-1.31 -1,-2.08 -0.59,-1.63 -1.25,-3.11 -2.4,-3.81 -0.52,-0.34 -1.68,-0.77 -2.43,-0.39 -0.61,0.3 -0.34,0.47 -1.04,0.02 -0.36,-0.23 -0.77,-0.3 -1.25,-0.3 0.11,0.64 0.45,1 0.86,1.25 0.55,0.36 0.13,0.86 0.09,1.56 -0.05,0.98 0.43,2.22 0.59,3.53 0.97,-0.23 1.32,-0.25 2.18,0.14 0.18,-0.68 0,-2.31 0.98,-2.02 0.55,0.16 1.15,0.98 1.34,1.68 0.27,1.02 0.02,1.79 0.07,2.81 0,0.39 0.2,1.07 0.16,1.32 -0.04,0.48 -0.41,0.52 -0.73,0.73z"/>
   <path class="fil2" d="M6.41 12.37c-0.39,0.13 -0.73,0.36 -1.11,0.54 -0.5,0.25 -0.68,0.32 -0.93,0.77l-1.06 2.34c0.11,0.11 0.16,0.82 0.2,1.02 0.07,0.54 0.27,0.84 -0.21,1.02 0.14,0.59 -0.04,0.93 0.02,1.52 0.18,-0.07 0.93,-0.54 1.07,-0.72 -0.04,-0.47 -0.14,-0.97 -0.21,-1.43 -0.11,-0.73 -0.21,-0.73 0.13,-1.38 1.41,-2.67 0.82,-2 3.67,-2.92 0.7,-0.21 1.95,-0.7 2.67,-0.72 0.73,-0.02 2.02,0.34 2.9,0.43 2.11,0.23 3.69,-0.05 5.62,-0.84 0.68,-0.29 1.7,-0.84 2.13,-1.25 -0.39,-0.09 -0.88,-0.54 -1.84,-0.25 -0.47,0.16 -1.06,0.52 -1.56,0.73 -1.13,0.48 -2.36,0.81 -3.72,0.86 -1.5,0.07 -2.77,-0.14 -4.15,-0.43 -1.15,-0.23 -2.43,0.5 -3.4,0.73 -0.3,0.07 -0.13,0.07 -0.2,-0.04z"/>
   <path class="fil3" d="M5.3 0.91c0.55,0.41 0.91,0.29 1.81,1.34 0.43,0.52 0.84,1.31 1.16,2.02 0.59,1.29 0.93,3.37 2.42,3.96 0.34,-0.52 0.32,-2.26 0.18,-2.94 -0.66,-3.44 -4.51,-4.83 -5.57,-4.39z"/>
   <path class="fil4" d="M19.96 12.53c0.45,1.22 2.04,1.5 1.32,2.51l-1.59 1.88c-0.34,0.39 0.25,0.63 -0.05,1.74 -0.14,0.52 -0.07,0.79 0.05,1.24 0.16,-0.07 0,0.02 0.18,-0.13 0.07,-0.05 0.11,-0.09 0.18,-0.14 0.82,-0.64 0.79,-0.66 0.72,-1.15 -0.16,-1.4 -0.07,-1.07 0.57,-1.88 0.47,-0.61 2.26,-2.52 2.38,-2.83 -1.29,-1.06 -1.22,-1.22 -2.08,-2.2 -0.34,0.23 -1.24,0.82 -1.68,0.97z"/>
   <path class="fil4" d="M11.87 19.97l0 -1.11c-0.57,-0.11 -0.45,-0.52 -0.43,-1.06 0,-0.5 0,-1 0,-1.52 0.02,-0.97 0.02,-1.93 0.04,-2.92 -0.47,-0.07 -0.63,-0.13 -1.15,-0.09 -0.05,0.7 0.07,1.83 0.09,2.56l0.21 4.94c0.04,1.09 -0.63,0.81 -0.81,1.77l1.04 0c0.25,-0.39 0.54,-0.63 0.54,-1.22 0,-0.91 -0.13,-1.25 0.47,-1.36z"/>
   <path class="fil5 str1" d="M17.58 5.46c0.3,0.18 -0.05,0.97 -0.14,1.13 -0.16,0.29 -0.5,0.55 -0.82,0.7 -0.48,0.2 -2.29,0.11 -2.92,0.11 0.04,0.75 0.5,1.22 1.24,1.25 0.81,0.05 1.72,0.02 2.52,0.02 1.93,-0.02 1.47,-1.79 1.47,-3.63 -0.27,0.05 -1.18,0.3 -1.34,0.43z"/>
   <path class="fil2" d="M26.74 15.91c0,1.22 0.02,2.42 0.02,3.63 0,0.5 0.11,1.31 -0.18,1.63 -0.27,0.3 -0.63,0.43 -0.75,1.02l1.41 0c0.48,-0.36 0.39,-1.4 0.39,-2.04l0.02 -4.76c0,-0.91 -0.14,-0.89 -0.52,-1.27 -0.16,-0.14 -0.14,-0.18 -0.32,-0.29 0.14,1 -0.13,6.1 0.04,6.46 0,-0.3 0.05,-4.01 -0.02,-4.22 -0.04,-0.11 -0.04,-0.11 -0.09,-0.16z"/>
   <path class="fil6" d="M13.69 7.39c0.63,0 2.43,0.09 2.92,-0.11 0.32,-0.14 0.66,-0.41 0.82,-0.7 0.09,-0.16 0.45,-0.95 0.14,-1.13 -0.38,-0.02 -0.93,0.18 -2.02,0.09 -0.7,-0.05 -1.22,-0.21 -1.86,-0.34l0 2.18z"/>
   <path class="fil3" d="M27.35 11.49l0.04 -0.07c0.07,-0.13 0.04,-0.02 0.05,-0.13 0.32,-0.98 0.45,-3.11 0.25,-4.15 -0.27,-1.25 -1.18,-2.34 -2.61,-2.29 0.13,0.25 1.27,1.02 1.52,2.92 0.09,0.72 -0.07,1.52 0.05,2.2 0.05,0.3 0.14,0.57 0.27,0.82 0.14,0.32 0.29,0.47 0.43,0.7z"/>
   <path class="fil4" d="M2.54 8.53c-0.16,1.4 1.84,1.66 1.9,0.18 -0.27,-0.11 -0.47,-0.29 -0.88,-0.34 -0.39,-0.05 -0.7,0.04 -1.02,0.16z"/>
   <path class="fil1 str0" d="M3.29 18.06c0.48,-0.18 0.29,-0.48 0.21,-1.02 -0.04,-0.2 -0.09,-0.91 -0.2,-1.02 -0.43,0.43 -0.09,1.47 -0.02,2.04z"/>
   <path class="fil0" d="M3.15 5.04c-0.54,0.25 -0.2,0.91 0.29,0.75 0.5,-0.14 0.25,-1.02 -0.29,-0.75z"/>
  </g>
 </g>
</svg>
