<?xml version="1.0" encoding="UTF-8"?>
<!DOCTYPE svg PUBLIC "-//W3C//DTD SVG 1.1//EN" "http://www.w3.org/Graphics/SVG/1.1/DTD/svg11.dtd">
<!-- Creator: CorelDRAW -->
<svg xmlns="http://www.w3.org/2000/svg" xml:space="preserve" width="88.8917mm" height="122.071mm" version="1.1" style="shape-rendering:geometricPrecision; text-rendering:geometricPrecision; image-rendering:optimizeQuality; fill-rule:evenodd; clip-rule:evenodd"
viewBox="0 0 1308.1 1796.36"
 xmlns:xlink="http://www.w3.org/1999/xlink"
 xmlns:xodm="http://www.corel.com/coreldraw/odm/2003">
 <defs>
  <style type="text/css">
   <![CDATA[
    .fil0 {fill:#373435}
    .fil1 {fill:#5B3211}
    .fil5 {fill:#70963E}
    .fil2 {fill:#7D4E24}
    .fil3 {fill:#84AC58}
    .fil4 {fill:#A6D26D}
   ]]>
  </style>
 </defs>
 <g id="Camada_x0020_1">
  <metadata id="CorelCorpID_0Corel-Layer"/>
  <g id="_1998012421104">
   <g>
    <g>
     <path class="fil0" d="M520.72 1339.39l3.47 75.41c0.23,5.05 0.9,9.34 1.78,14.28 1.22,6.87 1.75,13.28 1.83,20.25l6.22 110.25c1.39,12.93 0.06,25.49 0.43,38.37 0.15,5.23 0.64,9.67 1.59,14.79 1.23,6.65 1.89,12.68 2.09,19.48 1.42,49.67 6.79,99.11 6.79,148.84l0 15.3 -196.15 0 0 -15.3c0,-37.46 4.95,-73.94 6.94,-111.16 0.68,-12.72 -0.86,-25.39 0.19,-38.21 3.99,-48.35 5.99,-96.86 9.98,-145.21 1.11,-13.41 -0.59,-27.22 0.14,-40.78 1.9,-35.29 7.3,-70.46 6.89,-105.9 -0.29,-25.6 2.61,-51.02 3.34,-76.6 0.29,-10.16 1.25,-19.95 2.1,-30.05 1.17,-13.95 1.46,-27.85 1.46,-41.85l0 -4.06 2.01 -3.53c4.38,-7.95 5.81,-46.52 6.17,-56.54 0.49,-13.45 0.74,-26.9 1.07,-40.36 0.26,-10.46 0.43,-21.27 1.42,-31.68l1.59 -16.81 103.86 20.2 8.76 7.64 0.27 6.58c0.82,20.35 0.76,40.75 1.61,61.14 0.39,9.28 1.71,42.04 5.4,49.66l1.91 3.42 0 3.98c0,25.43 1.75,50.8 3.54,76.16 1.69,24 3.51,48.21 3.31,72.28z"/>
    </g>
    <path class="fil1" d="M395.11 1191.3c0,43.53 -2.85,47.37 -3.56,72.33 -0.82,28.72 -3.63,49.96 -3.34,75.98 0.4,35.4 -5.32,77.2 -6.91,106.89 -0.71,13.29 0.93,28.01 -0.16,41.22 -3.76,45.54 -6.23,99.67 -9.98,145.21 -1,12.14 0.49,25.58 -0.16,37.77 -1.72,32.32 -6.91,71.33 -6.91,110.34l165.54 0c0,-50.27 -5.32,-97.14 -6.79,-148.41 -0.49,-17.05 -3.18,-17.21 -3.67,-34.26 -0.36,-12.48 1,-25.14 -0.39,-37.54l-6.26 -111c-0.18,-17.82 -2.78,-18.97 -3.6,-34.34l-3.49 -75.83c0.41,-44.7 -6.84,-96.37 -6.84,-148.72 -8.45,-15.17 -7.93,-93.32 -8.91,-117.58l-0.69 -0.61 -83.25 -16.19c-2.75,29.06 -0.23,116.57 -10.61,134.73z"/>
    <path class="fil2" d="M405.87 1054.37l-0.15 2.2 83.25 16.19c-0.38,-25.76 -2.27,-52.23 -3.92,-78.01 -2.56,-40.14 0.45,-36.72 18.92,-60.19 23.62,-29.99 46.39,-57.95 68.99,-86.15 23.65,-29.5 46.05,-58.34 68.64,-86.57 16.49,-20.59 57.9,-69.28 68.71,-88.47l-117.79 94.61c-24.31,18.72 -96.41,83.39 -114.96,93.14 -1.96,-46.17 -4.89,-92.67 -7.4,-138.94 -4.06,-74.88 -5.4,-58.63 30.66,-104.56l126.29 -160.86c-11.21,4.84 -31.86,24.63 -43.31,33.51 -15.36,11.91 -108.86,95.61 -121.05,96.03l-10.27 -184.81c-0.65,-11.68 -0.18,-50.28 -7.73,-56.94l-13.42 242.27c-15.78,-3.12 -145.66,-122.06 -164.74,-130.17l126.59 160.62c38.56,48.78 34.65,29.92 30.33,109.04 -2.46,45 -5.33,89.87 -7.4,134.83 -13.2,-7.29 -19.21,-14.26 -31.69,-24.63 -21.99,-18.28 -188.22,-157.21 -201.09,-163.24 10.33,17.74 21.03,28.83 33.43,44.62 11.21,14.28 22.79,28.27 33.85,42.01 22.45,27.9 45.11,57.18 67.08,84.69 121.22,151.79 88.33,85.9 88.18,209.79z"/>
    <g>
     <path class="fil0" d="M661.96 1095.04c-4.39,14.87 -19.01,30.72 -29.14,40.85 -27.67,27.67 -94.28,68.85 -133.67,70.35l-9.38 0.36 -4.57 -8.2c-10.42,-18.7 -9.89,-87.87 -10.65,-118.53l-1.1 -1.1 0 -6.34c0,-25.45 -2.28,-50.98 -3.71,-76.38 -0.74,-13.15 -2.23,-30.68 2.37,-43.21 3.85,-10.52 12.71,-19.49 19.6,-28.2 22.96,-29.04 46.4,-57.68 69.98,-86.23 19.38,-23.45 37.81,-47.66 56.78,-71.43l-16.74 13.39c-19.93,15.94 -39.27,33.24 -58.86,49.67 -11.01,9.23 -22.11,18.44 -33.47,27.24 -7.34,5.69 -17,13.3 -25.39,17.21l-20.53 9.58 -1.22 -22.63c-2.49,-46.11 -5.1,-92.22 -7.48,-138.34 -0.72,-13.93 -1.74,-28.12 -1.86,-42.06 -0.08,-8.99 0.32,-18.13 3.24,-26.71 2.71,-7.98 7.24,-14.42 12.46,-20.94 6.78,-8.46 13.84,-16.61 20.54,-25.16l41.87 -53.48c-12.18,10.2 -24.5,20.39 -37.14,30.01 -7.27,5.53 -20.6,16.07 -29.78,16.99l-15.95 1.6 -1.14 -21.28 -1.26 22.15 -16.65 -2.56c-10.32,-1.59 -28.38,-16.48 -36.6,-23 -10.16,-8.05 -20.17,-16.32 -30.12,-24.66l42.47 54.25c7.02,8.96 14.43,17.54 21.5,26.43 5.32,6.7 9.88,13.28 12.47,21.53 2.73,8.71 2.85,18.04 2.62,27.09 -0.37,14.47 -1.47,29.08 -2.2,43.56 -2.26,44.75 -6.22,89.42 -7.46,134.21l-0.64 23.05 -20.99 -9.54c-15.14,-6.88 -23.09,-15.63 -35.62,-25.66l-0.29 -0.23 -0.28 -0.24c-12.14,-10.71 -24.77,-21.13 -37.17,-31.55 -20.73,-17.39 -41.54,-34.7 -62.42,-51.91 18.44,23.39 37.06,46.64 55.64,69.91 21.33,26.71 43.25,52.8 64.83,79.28 9.46,11.61 21.74,26.24 27.05,40.35 4.8,12.77 3.85,24.56 2.54,37.86 -1.62,16.46 -2.92,32.27 -3.53,48.53l1.19 0.15 -1.14 16.77 -0.02 0.2c-0.18,1.91 -0.33,3.83 -0.46,5.77l-0.09 8.74 -0.34 -0.05c-0.19,5.11 -0.28,10.23 -0.41,15.24 -0.34,13.62 -0.59,27.25 -1.09,40.87 -0.64,17.49 -1.62,55.36 -10.17,70.31l-5.64 9.87 -11.08 -2.55c-61.57,-14.17 -111.13,-45.29 -150.49,-94.41 -8.75,-10.92 -16.92,-22.67 -22.95,-35.32 -3.16,-6.63 -5.06,-12.9 -7.73,-19.57 -0.78,-1.95 -1.09,-2.76 -2.85,-3.88 -5.28,-3.38 -15.44,-6.13 -21.43,-7.82 -25.67,-7.24 -45.46,-17.11 -67.71,-31.32 -9.92,-6.34 -19.03,-13.07 -27.72,-21.02 -7.89,-7.21 -15.29,-15.04 -22.9,-22.55 -28.31,-27.94 -56.84,-80.62 -63.17,-121.7l-1 -0.85 0 -7.08c0,-0.09 0,-0.19 0,-0.28l-1.96 -18.97c-0.74,-5.1 -1.28,-10.02 -1.56,-15.05l-0.04 -0.43 0.02 0.02c-0.13,-2.51 -0.2,-5.04 -0.2,-7.65 0,-68.02 18.91,-116.44 61.55,-168.6 7.85,-11.74 12.41,-17.52 23.89,-26.47 3.74,-3.13 7.13,-6.41 10.65,-9.45 -0.17,-0.2 -0.34,-0.4 -0.51,-0.6 -4.43,-5.17 -8.96,-10.25 -13.39,-15.42l-0.21 -0.25c-49.32,-60.13 -63.29,-143.12 -45.58,-217.88 19.36,-81.71 74.11,-147.89 152.22,-179.64 3.42,-1.58 6.87,-3.03 10.33,-4.51 0.87,-0.37 2.4,-0.97 3.28,-1.51 1.4,-2.03 3.53,-8.12 4.32,-10.23 11.56,-30.82 40.18,-77.85 67.98,-97.74 14.62,-18.08 55.74,-40.14 75.59,-48.6 23.92,-10.2 49.9,-15.67 75.79,-17.38l0.5 -0.03 35.57 0 0.49 0.03c32.85,2.12 66.12,9.88 96.16,23.42 55.04,24.8 97.08,71.88 123.79,125.22 3.69,7.38 7.27,14.8 10.73,22.29 0.48,1.04 0.99,2.23 1.52,3.43 3.07,0.46 5.98,1.21 9.49,2.44 12.51,4.37 25.49,12.23 36.57,19.37 57.6,37.11 80.41,69.52 107.37,128.32l0.11 0 0.49 1.32c1.11,2.42 2.22,4.89 3.34,7.4l6.42 14.36 -1.99 0.83c12.43,44.32 12.11,103.84 -0.49,145.36 -7.98,26.32 -18.59,50.54 -35.14,72.63 -5.37,7.16 -11.17,13.82 -17.03,20.57 -1.99,2.29 -3.97,4.59 -5.9,6.93 1.52,1.33 2.95,2.54 3.95,3.44 8.44,7.58 16.6,15.27 24.33,23.6 23.73,25.58 41.55,54.6 53.24,87.54 28.96,81.61 13.07,190.69 -46.85,254.79l-0.18 0.19 -0.18 0.18c-3.87,3.87 -7.75,7.68 -11.04,12.07l-0.56 0.75 -0.65 0.67c-33.14,34.47 -74.29,58.48 -120.64,70.26 -2.31,0.59 -8.16,1.97 -10.98,3.23 -1.04,2.43 -2.03,5.98 -2.92,8.26 -3.14,8.06 -7.2,15.63 -11.81,22.95l-0.72 1.14 -10.97 12.06z"/>
    </g>
    <g>
     <g>
      <path class="fil3" d="M19.04 840.69c24.92,21.18 48.59,46.1 78.49,68.53 29.9,22.43 58.56,41.12 92.2,59.8 48.59,27.41 152,77.25 215.55,85.97 1.24,-124.59 33.64,-58.56 -87.22,-210.56 -22.43,-27.41 -44.85,-56.07 -67.28,-84.72 -11.21,-13.71 -22.43,-27.41 -33.64,-42.36 -12.46,-14.95 -23.67,-26.16 -33.64,-43.61 12.46,4.98 179.41,144.53 200.59,163.22 12.46,9.97 18.69,17.44 32.4,23.67 1.24,-44.85 4.98,-89.71 7.48,-134.56 3.74,-78.49 7.48,-59.8 -31.15,-108.4l-125.84 -160.72c18.69,7.48 148.27,127.08 164.46,129.58l13.7 -241.71c7.48,6.23 6.23,44.85 7.48,56.07l9.97 185.64c12.46,-1.25 105.9,-84.72 120.86,-95.94 11.21,-8.72 32.39,-28.66 43.61,-33.64l-125.84 160.72c-36.13,46.1 -34.89,29.9 -31.15,104.66 2.49,46.1 4.98,92.2 7.48,138.3 18.69,-8.72 90.95,-73.51 114.63,-92.2l118.36 -94.69c-11.21,18.69 -52.33,67.28 -68.53,88.46 -22.43,27.41 -44.85,57.31 -68.53,85.97 -23.67,28.66 -46.1,56.07 -69.77,85.97 -18.69,23.67 -21.18,19.94 -18.69,61.05 1.25,24.92 3.74,52.33 3.74,77.25l1.25 1.25c11.21,0 158.23,13.7 158.23,13.7l12.46 -13.7c21.18,-33.64 4.98,-33.64 34.89,-41.12 43.61,-11.21 82.23,-33.64 113.38,-66.04 3.74,-4.98 7.48,-8.72 12.46,-13.7 53.58,-57.31 72.26,-159.48 43.61,-239.22 -26.16,-74.76 -78.49,-105.9 -87.22,-118.36 17.44,-26.16 43.61,-39.87 63.54,-105.9 13.7,-44.85 11.21,-109.64 -3.74,-149.51 0,0 -1.25,0 -1.25,0 -2.49,0 -2.49,3.74 -14.95,-6.23 -4.98,-3.74 -7.48,-6.23 -12.46,-11.21 -9.97,-7.48 -19.94,-13.71 -31.15,-21.18 -108.4,-72.26 -211.81,-129.58 -338.89,-174.43 -23.67,-8.72 -143.28,-42.36 -153.25,-49.84 -24.92,16.2 -53.58,62.3 -64.79,92.2 -7.48,19.93 -7.48,16.2 -26.16,24.92 -156.99,63.54 -191.87,262.89 -100.92,373.78 7.48,8.72 19.94,22.43 24.92,29.9 -8.72,2.49 -16.2,11.21 -23.67,17.44 -11.21,8.72 -13.71,12.46 -21.18,23.67 -39.87,48.59 -58.56,93.44 -58.56,159.48 0,19.94 3.74,26.16 3.74,42.36z"/>
      <path class="fil4" d="M285.14 77.38c10.17,6.49 129.52,40.8 153.73,49.44 126.61,45.19 230.08,102.26 339.31,174.49 10.35,6.85 20.32,14.15 30.17,21.58 6.15,4.64 8.49,7.05 13.41,11.01 12.47,10.06 11.63,5.96 14.14,5.98 0.39,0 1.5,-0.12 2.19,-0.4 -27.68,-61.91 -47.42,-92.91 -105.64,-130.42 -67.33,-43.38 -32.95,7.9 -63.72,-53.54 -25.04,-50.02 -64.5,-94.73 -116.39,-118.12 -27.64,-12.46 -59.13,-20.05 -90.86,-22.1l-34.57 0c-24.87,1.65 -49.07,6.92 -70.8,16.19 -19.91,8.49 -61.5,31.46 -70.98,45.89z"/>
      <path class="fil5" d="M395.11 1191.3c10.38,-18.16 7.86,-105.67 10.61,-134.73l0.15 -2.2c-63.57,-8.24 -167.13,-57.73 -216.55,-84.89 -33.74,-18.54 -61.39,-38.35 -91.39,-60.36 -30.36,-22.28 -53.37,-47.35 -78.73,-67.97 4.31,41.69 35.38,94.51 59.46,118.28 18.13,17.9 25.77,27.3 48.11,41.56 20.09,12.83 37.49,22.12 63.62,29.49 51.95,14.64 18.71,16.8 62.74,71.76 35.79,44.67 81.54,75.16 141.98,89.07z"/>
     </g>
     <path class="fil5" d="M498.57 1190.95c34.12,-1.3 97.49,-39.95 123.43,-65.88 8.55,-8.56 24.63,-25.85 25.88,-37.21 -0.05,-0.02 -147.25,-14.18 -158.22,-14.49 0.98,24.26 0.46,102.41 8.91,117.58z"/>
    </g>
   </g>
   <g>
    <g>
     <path class="fil0" d="M935.32 1339.39l3.47 75.41c0.23,5.05 0.9,9.34 1.78,14.28 1.22,6.87 1.75,13.28 1.83,20.25l6.22 110.25c1.39,12.93 0.06,25.49 0.43,38.37 0.15,5.23 0.64,9.67 1.59,14.79 1.23,6.65 1.89,12.68 2.09,19.48 1.42,49.67 6.79,99.11 6.79,148.84l0 15.3 -196.15 0 0 -15.3c0,-37.46 4.95,-73.94 6.94,-111.16 0.68,-12.72 -0.86,-25.39 0.19,-38.21 3.99,-48.35 5.99,-96.86 9.98,-145.21 1.11,-13.41 -0.59,-27.22 0.14,-40.78 1.9,-35.29 7.3,-70.46 6.89,-105.9 -0.29,-25.6 2.61,-51.02 3.34,-76.6 0.29,-10.16 1.25,-19.95 2.1,-30.05 1.17,-13.95 1.46,-27.85 1.46,-41.85l0 -4.06 2.01 -3.53c4.38,-7.95 5.81,-46.52 6.17,-56.54 0.49,-13.45 0.74,-26.9 1.07,-40.36 0.26,-10.46 0.43,-21.27 1.42,-31.68l1.59 -16.81 103.86 20.2 8.76 7.64 0.27 6.58c0.82,20.35 0.76,40.75 1.61,61.14 0.39,9.28 1.71,42.04 5.4,49.66l1.91 3.42 0 3.98c0,25.43 1.75,50.8 3.54,76.16 1.69,24 3.51,48.21 3.31,72.28z"/>
    </g>
    <path class="fil1" d="M809.71 1191.3c0,43.53 -2.85,47.37 -3.56,72.33 -0.82,28.72 -3.63,49.96 -3.34,75.98 0.4,35.4 -5.32,77.2 -6.91,106.89 -0.71,13.29 0.93,28.01 -0.16,41.22 -3.76,45.54 -6.23,99.67 -9.98,145.21 -1,12.14 0.49,25.58 -0.16,37.77 -1.72,32.32 -6.91,71.33 -6.91,110.34l165.54 0c0,-50.27 -5.32,-97.14 -6.79,-148.41 -0.49,-17.05 -3.18,-17.21 -3.67,-34.26 -0.36,-12.48 1,-25.14 -0.39,-37.54l-6.26 -111c-0.18,-17.82 -2.78,-18.97 -3.6,-34.34l-3.49 -75.83c0.41,-44.7 -6.84,-96.37 -6.84,-148.72 -8.45,-15.17 -7.93,-93.32 -8.91,-117.58l-0.69 -0.61 -83.25 -16.19c-2.75,29.06 -0.23,116.57 -10.61,134.73z"/>
    <path class="fil2" d="M820.47 1054.37l-0.15 2.2 83.25 16.19c-0.38,-25.76 -2.27,-52.23 -3.92,-78.01 -2.56,-40.14 0.45,-36.72 18.92,-60.19 23.62,-29.99 46.39,-57.95 68.99,-86.15 23.65,-29.5 46.05,-58.34 68.64,-86.57 16.49,-20.59 57.9,-69.28 68.71,-88.47l-117.79 94.61c-24.31,18.72 -96.41,83.39 -114.96,93.14 -1.96,-46.17 -4.89,-92.67 -7.4,-138.94 -4.06,-74.88 -5.4,-58.63 30.66,-104.56l126.29 -160.86c-11.21,4.84 -31.86,24.63 -43.31,33.51 -15.36,11.91 -108.86,95.61 -121.05,96.03l-10.27 -184.81c-0.65,-11.68 -0.18,-50.28 -7.73,-56.94l-13.42 242.27c-15.78,-3.12 -145.66,-122.06 -164.74,-130.17l126.59 160.62c38.56,48.78 34.65,29.92 30.33,109.04 -2.46,45 -5.33,89.87 -7.4,134.83 -13.2,-7.29 -19.21,-14.26 -31.69,-24.63 -21.99,-18.28 -188.22,-157.21 -201.09,-163.24 10.33,17.74 21.03,28.83 33.43,44.62 11.21,14.28 22.79,28.27 33.85,42.01 22.45,27.9 45.11,57.18 67.08,84.69 121.22,151.79 88.33,85.9 88.18,209.79z"/>
    <g>
     <path class="fil0" d="M1076.56 1095.04c-4.39,14.87 -19.01,30.72 -29.14,40.85 -27.67,27.67 -94.28,68.85 -133.67,70.35l-9.38 0.36 -4.57 -8.2c-10.42,-18.7 -9.89,-87.87 -10.65,-118.53l-1.1 -1.1 0 -6.34c0,-25.45 -2.28,-50.98 -3.71,-76.38 -0.74,-13.15 -2.23,-30.68 2.37,-43.21 3.85,-10.52 12.71,-19.49 19.6,-28.2 22.96,-29.04 46.4,-57.68 69.98,-86.23 19.38,-23.45 37.81,-47.66 56.78,-71.43l-16.74 13.39c-19.93,15.94 -39.27,33.24 -58.86,49.67 -11.01,9.23 -22.11,18.44 -33.47,27.24 -7.34,5.69 -17,13.3 -25.39,17.21l-20.53 9.58 -1.22 -22.63c-2.49,-46.11 -5.1,-92.22 -7.48,-138.34 -0.72,-13.93 -1.74,-28.12 -1.86,-42.06 -0.08,-8.99 0.32,-18.13 3.24,-26.71 2.71,-7.98 7.24,-14.42 12.46,-20.94 6.78,-8.46 13.84,-16.61 20.54,-25.16l41.87 -53.48c-12.18,10.2 -24.5,20.39 -37.14,30.01 -7.27,5.53 -20.6,16.07 -29.78,16.99l-15.95 1.6 -1.14 -21.28 -1.26 22.15 -16.65 -2.56c-10.32,-1.59 -28.38,-16.48 -36.6,-23 -10.16,-8.05 -20.17,-16.32 -30.12,-24.66l42.47 54.25c7.02,8.96 14.43,17.54 21.5,26.43 5.32,6.7 9.88,13.28 12.47,21.53 2.73,8.71 2.85,18.04 2.62,27.09 -0.37,14.47 -1.47,29.08 -2.2,43.56 -2.26,44.75 -6.22,89.42 -7.46,134.21l-0.64 23.05 -20.99 -9.54c-15.14,-6.88 -23.09,-15.63 -35.62,-25.66l-0.29 -0.23 -0.28 -0.24c-12.14,-10.71 -24.77,-21.13 -37.17,-31.55 -20.73,-17.39 -41.54,-34.7 -62.42,-51.91 18.44,23.39 37.06,46.64 55.64,69.91 21.33,26.71 43.25,52.8 64.83,79.28 9.46,11.61 21.74,26.24 27.05,40.35 4.8,12.77 3.85,24.56 2.54,37.86 -1.62,16.46 -2.92,32.27 -3.53,48.53l1.19 0.15 -1.14 16.77 -0.02 0.2c-0.18,1.91 -0.33,3.83 -0.46,5.77l-0.09 8.74 -0.34 -0.05c-0.19,5.11 -0.28,10.23 -0.41,15.24 -0.34,13.62 -0.59,27.25 -1.09,40.87 -0.64,17.49 -1.62,55.36 -10.17,70.31l-5.64 9.87 -11.08 -2.55c-61.57,-14.17 -111.13,-45.29 -150.49,-94.41 -8.75,-10.92 -16.92,-22.67 -22.95,-35.32 -3.16,-6.63 -5.06,-12.9 -7.73,-19.57 -0.78,-1.95 -1.09,-2.76 -2.85,-3.88 -5.28,-3.38 -15.44,-6.13 -21.43,-7.82 -25.67,-7.24 -45.46,-17.11 -67.71,-31.32 -9.92,-6.34 -19.03,-13.07 -27.72,-21.02 -7.89,-7.21 -15.29,-15.04 -22.9,-22.55 -28.31,-27.94 -56.84,-80.62 -63.17,-121.7l-1 -0.85 0 -7.08c0,-0.09 0,-0.19 0,-0.28l-1.96 -18.97c-0.74,-5.1 -1.28,-10.02 -1.56,-15.05l-0.04 -0.43 0.02 0.02c-0.13,-2.51 -0.2,-5.04 -0.2,-7.65 0,-68.02 18.91,-116.44 61.55,-168.6 7.85,-11.74 12.41,-17.52 23.89,-26.47 3.74,-3.13 7.13,-6.41 10.65,-9.45 -0.17,-0.2 -0.34,-0.4 -0.51,-0.6 -4.43,-5.17 -8.96,-10.25 -13.39,-15.42l-0.21 -0.25c-49.32,-60.13 -63.29,-143.12 -45.58,-217.88 19.36,-81.71 74.11,-147.89 152.22,-179.64 3.42,-1.58 6.87,-3.03 10.33,-4.51 0.87,-0.37 2.4,-0.97 3.28,-1.51 1.4,-2.03 3.53,-8.12 4.32,-10.23 11.56,-30.82 40.18,-77.85 67.98,-97.74 14.62,-18.08 55.74,-40.14 75.59,-48.6 23.92,-10.2 49.9,-15.67 75.79,-17.38l0.5 -0.03 35.57 0 0.49 0.03c32.85,2.12 66.12,9.88 96.16,23.42 55.04,24.8 97.08,71.88 123.79,125.22 3.69,7.38 7.27,14.8 10.73,22.29 0.48,1.04 0.99,2.23 1.52,3.43 3.07,0.46 5.98,1.21 9.49,2.44 12.51,4.37 25.49,12.23 36.57,19.37 57.6,37.11 80.41,69.52 107.37,128.32l0.11 0 0.49 1.32c1.11,2.42 2.22,4.89 3.34,7.4l6.42 14.36 -1.99 0.83c12.43,44.32 12.11,103.84 -0.49,145.36 -7.98,26.32 -18.59,50.54 -35.14,72.63 -5.37,7.16 -11.17,13.82 -17.03,20.57 -1.99,2.29 -3.97,4.59 -5.9,6.93 1.52,1.33 2.95,2.54 3.95,3.44 8.44,7.58 16.6,15.27 24.33,23.6 23.73,25.58 41.55,54.6 53.24,87.54 28.96,81.61 13.07,190.69 -46.85,254.79l-0.18 0.19 -0.18 0.18c-3.87,3.87 -7.75,7.68 -11.04,12.07l-0.56 0.75 -0.65 0.67c-33.14,34.47 -74.29,58.48 -120.64,70.26 -2.31,0.59 -8.16,1.97 -10.98,3.23 -1.04,2.43 -2.03,5.98 -2.92,8.26 -3.14,8.06 -7.2,15.63 -11.81,22.95l-0.72 1.14 -10.97 12.06z"/>
    </g>
    <g>
     <g>
      <path class="fil3" d="M433.64 840.69c24.92,21.18 48.59,46.1 78.49,68.53 29.9,22.43 58.56,41.12 92.2,59.8 48.59,27.41 152,77.25 215.55,85.97 1.24,-124.59 33.64,-58.56 -87.22,-210.56 -22.43,-27.41 -44.85,-56.07 -67.28,-84.72 -11.21,-13.71 -22.43,-27.41 -33.64,-42.36 -12.46,-14.95 -23.67,-26.16 -33.64,-43.61 12.46,4.98 179.41,144.53 200.59,163.22 12.46,9.97 18.69,17.44 32.4,23.67 1.24,-44.85 4.98,-89.71 7.48,-134.56 3.74,-78.49 7.48,-59.8 -31.15,-108.4l-125.84 -160.72c18.69,7.48 148.27,127.08 164.46,129.58l13.7 -241.71c7.48,6.23 6.23,44.85 7.48,56.07l9.97 185.64c12.46,-1.25 105.9,-84.72 120.86,-95.94 11.21,-8.72 32.39,-28.66 43.61,-33.64l-125.84 160.72c-36.13,46.1 -34.89,29.9 -31.15,104.66 2.49,46.1 4.98,92.2 7.48,138.3 18.69,-8.72 90.95,-73.51 114.63,-92.2l118.36 -94.69c-11.21,18.69 -52.33,67.28 -68.53,88.46 -22.43,27.41 -44.85,57.31 -68.53,85.97 -23.67,28.66 -46.1,56.07 -69.77,85.97 -18.69,23.67 -21.18,19.94 -18.69,61.05 1.25,24.92 3.74,52.33 3.74,77.25l1.25 1.25c11.21,0 158.23,13.7 158.23,13.7l12.46 -13.7c21.18,-33.64 4.98,-33.64 34.89,-41.12 43.61,-11.21 82.23,-33.64 113.38,-66.04 3.74,-4.98 7.48,-8.72 12.46,-13.7 53.58,-57.31 72.26,-159.48 43.61,-239.22 -26.16,-74.76 -78.49,-105.9 -87.22,-118.36 17.44,-26.16 43.61,-39.87 63.54,-105.9 13.7,-44.85 11.21,-109.64 -3.74,-149.51 0,0 -1.25,0 -1.25,0 -2.49,0 -2.49,3.74 -14.95,-6.23 -4.98,-3.74 -7.48,-6.23 -12.46,-11.21 -9.97,-7.48 -19.94,-13.71 -31.15,-21.18 -108.4,-72.26 -211.81,-129.58 -338.89,-174.43 -23.67,-8.72 -143.28,-42.36 -153.25,-49.84 -24.92,16.2 -53.58,62.3 -64.79,92.2 -7.48,19.93 -7.48,16.2 -26.16,24.92 -156.99,63.54 -191.87,262.89 -100.92,373.78 7.48,8.72 19.94,22.43 24.92,29.9 -8.72,2.49 -16.2,11.21 -23.67,17.44 -11.21,8.72 -13.71,12.46 -21.18,23.67 -39.87,48.59 -58.56,93.44 -58.56,159.48 0,19.94 3.74,26.16 3.74,42.36z"/>
      <path class="fil4" d="M699.74 77.38c10.17,6.49 129.52,40.8 153.73,49.44 126.61,45.19 230.08,102.26 339.31,174.49 10.35,6.85 20.32,14.15 30.17,21.58 6.15,4.64 8.49,7.05 13.41,11.01 12.47,10.06 11.63,5.96 14.14,5.98 0.39,0 1.5,-0.12 2.19,-0.4 -27.68,-61.91 -47.42,-92.91 -105.64,-130.42 -67.33,-43.38 -32.95,7.9 -63.72,-53.54 -25.04,-50.02 -64.5,-94.73 -116.39,-118.12 -27.64,-12.46 -59.13,-20.05 -90.86,-22.1l-34.57 0c-24.87,1.65 -49.07,6.92 -70.8,16.19 -19.91,8.49 -61.5,31.46 -70.98,45.89z"/>
      <path class="fil5" d="M809.71 1191.3c10.38,-18.16 7.86,-105.67 10.61,-134.73l0.15 -2.2c-63.57,-8.24 -167.13,-57.73 -216.55,-84.89 -33.74,-18.54 -61.39,-38.35 -91.39,-60.36 -30.36,-22.28 -53.37,-47.35 -78.73,-67.97 4.31,41.69 35.38,94.51 59.46,118.28 18.13,17.9 25.77,27.3 48.11,41.56 20.09,12.83 37.49,22.12 63.62,29.49 51.95,14.64 18.71,16.8 62.74,71.76 35.79,44.67 81.54,75.16 141.98,89.07z"/>
     </g>
     <path class="fil5" d="M913.17 1190.95c34.12,-1.3 97.49,-39.95 123.43,-65.88 8.55,-8.56 24.63,-25.85 25.88,-37.21 -0.05,-0.02 -147.25,-14.18 -158.22,-14.49 0.98,24.26 0.46,102.41 8.91,117.58z"/>
    </g>
   </g>
  </g>
 </g>
</svg>
