<?xml version="1.0" encoding="UTF-8"?>
<!DOCTYPE svg PUBLIC "-//W3C//DTD SVG 1.1//EN" "http://www.w3.org/Graphics/SVG/1.1/DTD/svg11.dtd">
<!-- Creator: CorelDRAW -->
<svg xmlns="http://www.w3.org/2000/svg" xml:space="preserve" width="16mm" height="15.9755mm" version="1.1" style="shape-rendering:geometricPrecision; text-rendering:geometricPrecision; image-rendering:optimizeQuality; fill-rule:evenodd; clip-rule:evenodd"
viewBox="0 0 28.47 28.43"
 xmlns:xlink="http://www.w3.org/1999/xlink"
 xmlns:xodm="http://www.corel.com/coreldraw/odm/2003">
 <defs>
  <style type="text/css">
   <![CDATA[
    .str0 {stroke:#FBF4C6;stroke-width:0.36;stroke-miterlimit:22.9256}
    .fil0 {fill:black}
    .fil2 {fill:#B7E445}
    .fil1 {fill:#C7E873}
    .fil5 {fill:#FBF4C6}
    .fil4 {fill:#FBF4C6}
    .fil3 {fill:#FFF8E1}
   ]]>
  </style>
 </defs>
 <g id="Camada_x0020_1">
  <metadata id="CorelCorpID_0Corel-Layer"/>
  <g id="_1433369188336">
   <path class="fil0" d="M9.84 14.66c0.48,0.12 0.55,-0.09 0.76,-0.41 0.35,-0.52 0.69,-0.96 1.15,-1.36 0.11,-0.09 0.2,-0.19 0.32,-0.29 0.62,-0.49 1.08,-0.93 0.64,-2.1 -0.74,-1.97 -0.51,-4.43 0.61,-6.05 0.1,-0.14 0.19,-0.26 0.28,-0.38 0.21,-0.27 0.48,-0.41 0.8,-1.03 0.6,-1.16 0.11,-1.73 0.49,-2.02l0.16 -0.11c0.45,-0.17 0.77,0.35 0.91,0.69 0.09,0.04 0.05,0.03 0.14,0.14 0.25,0.34 0.51,0.6 0.85,0.82 0.14,0.09 0.26,0.12 0.35,0.22 2.57,0.74 4.01,4.69 2.71,7.87 -0.33,0.79 -0.68,1.27 -1.13,1.76 -0.68,0.74 -0.26,1.34 -0.12,2.24 0.26,1.65 -0.32,3.42 -1.05,4.54 -0.72,1.1 -1.66,2.08 -3.07,2.66 -0.8,0.33 -1.45,0.28 -1.82,1.01 -0.16,0.31 -0.25,0.71 -0.41,1.04 -1,2.14 -3.68,3.82 -6.27,3.65 -0.66,-0.04 -1.81,-0.32 -2.13,-0.71 -0.24,-0.08 -0.55,-0.4 -0.93,-0.57 -1.1,-0.48 -2.09,-0.05 -2.23,-0.72 -0.1,-0.52 0.33,-0.56 0.64,-0.77 1.46,-0.98 1.05,-2.21 2.24,-3.6 2.7,-3.16 4.82,-1.88 5.56,-3.28 0.17,-0.32 0.18,-0.79 0.27,-1.18 0.2,-0.92 0.19,-0.64 -0.16,-1.05 -0.58,0.01 -0.64,0.58 -0.75,1.31 -0.17,1.13 -0.29,0.62 -1.94,1.17 -0.83,0.28 -1.4,0.59 -2.1,1.07l-0.84 0.67c-0.1,0.09 -0.18,0.18 -0.28,0.28l-0.91 1.2c-0.71,1.19 -0.62,2.11 -1.53,2.7 -0.31,0.2 -0.9,0.42 -1.03,1.03 -0.01,0.04 -0.01,0.08 -0.02,0.11l0 0.48c0.07,0.42 0.33,0.71 0.6,0.9 0.46,0.32 1.15,0.19 1.77,0.35 1.08,0.28 2.52,2.42 6.51,1.07 0.28,-0.1 0.51,-0.19 0.74,-0.31 0.2,-0.1 0.51,-0.28 0.72,-0.33 0.27,0.18 0.59,0.42 0.89,0.56 0.85,0.38 1.5,0.5 2.45,0.5 0.59,0 0.96,0.04 1,-0.52 -0.25,-0.29 -0.04,-0.36 -0.83,-0.32 -0.35,0.02 -0.7,-0 -1.04,-0.06 -0.63,-0.1 -1.25,-0.33 -1.65,-0.64 -0.07,-0.07 -0.05,-0.01 -0.06,-0.1 0.54,-0.46 0.55,-0.43 1.07,-1.02 0.59,0.25 0.66,0.52 1.76,0.6 1.49,0.07 2.71,-0.64 3.43,-1.34 0.65,-0.63 1.54,-2.06 1,-3.44 -0.24,-0.65 -0.5,-0.73 -0.61,-1.01l0.84 -1.15c0.28,0.2 0.37,0.44 0.76,0.66 0.36,0.2 0.58,0.26 1.02,0.33 1.74,0.05 2.78,-0.94 3.43,-1.92 0.82,-1.23 0.98,-2.7 0.3,-4.13 -0.11,-0.1 -0.1,-0.14 -0.18,-0.24 -0.82,-1.05 -2.16,-1.23 -3.37,-0.66 -0.68,0.32 -0.78,0.57 -1.02,0.64 -0.17,-0.37 -0.29,-0.84 -0.03,-1.14 0.93,-1.06 0.99,-1.27 1.53,-2.69 0.2,0.21 0.46,0.77 1.09,1.18 0.47,0.31 1.1,0.5 1.79,0.41 2.1,-0.39 3,-2.87 2.56,-4.81 -0.13,-0.55 -0.36,-1.55 -1.05,-1.53l-0.14 0.06c-0.25,0.44 -0.06,0.49 0.13,0.91 0.76,1.7 0.14,4.07 -1.43,4.5 -0.93,0.26 -1.43,-0.27 -1.87,-0.65 -0.68,-0.7 -0.98,-2.27 -0.59,-3.48 0.18,-0.56 0.54,-1.1 0.88,-1.35 0.77,-0.57 0.85,-0.26 1.52,-0.61l0.04 -0.19c-0.11,-0.97 -1.84,-0.21 -2.4,0.46 -0.14,0.16 -0.38,0.57 -0.53,0.7 -0.19,-0.64 -0.43,-1.02 -0.51,-1.27 -0.08,-0.26 0.4,-0.7 0.66,-0.98 0.96,-1.05 0.61,-2.24 0.79,-2.49 0.06,-0.09 0.01,-0.03 0.08,-0.06 0.39,-0.55 0.87,0.1 1.06,0.48 0.25,0.25 0.36,0.51 0.63,0.74 0.26,0.22 0.47,0.32 0.8,0.52 1.19,0.33 2.09,1.49 2.57,2.57 0.92,2.09 0.66,5.29 -0.92,6.87 -0.96,0.96 -0.27,1.74 -0.21,2.92 0.04,0.77 -0.07,1.52 -0.28,2.21 -0.21,0.69 -0.47,1.22 -0.8,1.76 -0.28,0.48 -0.78,1.09 -1.1,1.4 -0.62,0.59 -1.5,1.18 -2.39,1.44 -0.32,0.1 -0.65,0.15 -0.91,0.31 -0.9,0.56 -0.37,1.31 -1.96,3.11 -0.53,0.6 -1.44,1.21 -2.26,1.58 -0.41,0.19 -0.53,0.15 -0.52,0.7 0.18,0.14 0.2,0.31 0.58,0.2 0.36,-0.1 1.31,-0.65 1.62,-0.88 0.68,-0.51 1.19,-0.95 1.7,-1.64 0.27,-0.36 0.42,-0.62 0.63,-1.04 0.1,-0.21 0.17,-0.35 0.26,-0.58 0.41,-1.05 0.22,-0.62 1.44,-1.07 0.59,-0.21 1.15,-0.55 1.65,-0.91 1.1,-0.81 2.07,-2.06 2.57,-3.32 0.53,-1.33 0.81,-2.78 0.49,-4.27 -0.11,-0.52 -0.36,-0.83 0.03,-1.28 0.16,-0.18 0.23,-0.23 0.39,-0.44 0.84,-1.13 1.29,-2.53 1.37,-3.96l0 -0.89c-0.13,-2.31 -1.25,-4.51 -3.35,-5.49 -0.22,-0.1 -0.37,-0.13 -0.57,-0.26 -0.41,-0.27 -0.52,-0.5 -0.79,-0.87 -0.25,-0.34 -0.43,-0.68 -0.87,-0.85 -0.5,-0.19 -0.99,-0.09 -1.32,0.17 -0.97,0.78 -0.19,1.41 -0.84,2.5l-0.81 0.91c-0.05,-0.19 -0.05,-0.13 -0.18,-0.27 -0.46,-0.48 -0.6,-0.67 -1.26,-1.07 -0.65,-0.39 -1.1,-0.36 -1.66,-1.12 -0.43,-0.57 -1.03,-1.75 -2.31,-1.01 -1.05,0.6 -0.18,1.57 -1.05,2.73 -0.34,0.45 -0.38,0.36 -0.84,1.05 -1.32,1.99 -1.46,4.48 -0.69,6.74 0.35,1.03 -0.09,0.85 -0.88,1.63 -0.33,0.32 -1.37,1.49 -1.35,1.93 0.01,0.2 0.07,0.24 0.17,0.34z"/>
   <path class="fil1" d="M9.84 14.66c-0.05,0.2 -0.15,0.33 -0.22,0.5 -0.07,0.16 -0.13,0.35 -0.22,0.5 0.35,0.41 0.36,0.14 0.16,1.05 -0.09,0.39 -0.1,0.86 -0.27,1.18 -0.74,1.4 -2.86,0.12 -5.56,3.28 -1.19,1.39 -0.78,2.62 -2.24,3.6 -0.31,0.21 -0.75,0.25 -0.64,0.77 0.13,0.67 1.13,0.24 2.23,0.72 0.38,0.17 0.69,0.49 0.93,0.57 1.25,0.25 3.14,-0.56 3.97,-1.08 2.95,-1.85 2.54,-3.75 3.38,-4.24 0.41,-0.24 1.73,-0.26 3.34,-1.78 1.56,-1.47 2.65,-4.08 2.21,-6.47 -0.06,-0.32 -0.23,-0.73 -0.22,-1.05 0.02,-0.38 0.26,-0.67 0.43,-0.84 0.22,-0.23 0.38,-0.43 0.55,-0.72 1.05,-1.73 1.33,-4.19 0.56,-6.22 -0.2,-0.53 -0.6,-1.34 -0.94,-1.65 -0.09,-0.1 -0.21,-0.13 -0.35,-0.22 -0.34,-0.22 -0.6,-0.49 -0.85,-0.82 -0.08,-0.11 -0.04,-0.1 -0.14,-0.14 -0.34,-0.19 -0.86,-0.31 -1.07,-0.57 -0.38,0.29 0.11,0.86 -0.49,2.02 -0.32,0.63 -0.59,0.76 -0.8,1.03 -0.09,0.12 -0.19,0.24 -0.28,0.38 -1.11,1.62 -1.34,4.08 -0.61,6.05 0.44,1.17 -0.02,1.61 -0.64,2.1 -0.12,0.1 -0.21,0.19 -0.32,0.29 -0.46,0.4 -0.8,0.83 -1.15,1.36 -0.21,0.32 -0.28,0.52 -0.76,0.41z"/>
   <path class="fil2" d="M4.01 26.83c0.32,0.4 1.47,0.67 2.13,0.71 2.59,0.17 5.26,-1.51 6.27,-3.65 0.15,-0.33 0.25,-0.73 0.41,-1.04 0.38,-0.74 1.02,-0.68 1.82,-1.01 1.41,-0.58 2.35,-1.55 3.07,-2.66 0.73,-1.11 1.32,-2.88 1.05,-4.54 -0.14,-0.9 -0.56,-1.5 0.12,-2.24 0.45,-0.49 0.8,-0.97 1.13,-1.76 1.3,-3.17 -0.14,-7.13 -2.71,-7.87 0.35,0.32 0.74,1.13 0.94,1.65 0.77,2.03 0.49,4.49 -0.56,6.22 -0.18,0.29 -0.33,0.5 -0.55,0.72 -0.17,0.18 -0.41,0.46 -0.43,0.84 -0.02,0.32 0.16,0.72 0.22,1.05 0.44,2.39 -0.65,4.99 -2.21,6.47 -1.61,1.52 -2.92,1.54 -3.34,1.78 -0.84,0.49 -0.43,2.39 -3.38,4.24 -0.83,0.52 -2.72,1.33 -3.97,1.08z"/>
   <path class="fil2" d="M25.41 5.52c0.68,-0.02 0.92,0.98 1.05,1.53 0.45,1.95 -0.46,4.42 -2.56,4.81 -0.15,0.82 0.11,0.87 0.22,1.86 0.04,0.37 0.1,0.59 -0.04,0.63 0.68,1.43 0.52,2.89 -0.3,4.13 -0.65,0.98 -1.69,1.97 -3.43,1.92 0.23,0.11 0.27,0.07 0.55,0.04 -0.29,0.27 -0.75,0.49 -1.17,0.66l-1.39 0.46c0.54,1.37 -0.35,2.81 -1,3.44 -0.72,0.69 -1.94,1.41 -3.43,1.34 -0.55,0.4 -1.96,0.54 -2.77,0.52 0.4,0.3 1.02,0.54 1.65,0.64 0.34,0.05 0.69,0.07 1.04,0.06 0.79,-0.04 0.58,0.03 0.83,0.32 0.37,0.04 0.73,-0.18 1.06,-0.2 -0.01,-0.55 0.1,-0.51 0.52,-0.7 0.81,-0.37 1.73,-0.98 2.26,-1.58 1.58,-1.8 1.06,-2.55 1.96,-3.11 0.26,-0.16 0.59,-0.22 0.91,-0.31 0.89,-0.27 1.77,-0.86 2.39,-1.44 0.32,-0.31 0.82,-0.92 1.1,-1.4 0.32,-0.54 0.59,-1.08 0.8,-1.76 0.21,-0.69 0.32,-1.44 0.28,-2.21 -0.07,-1.18 -0.76,-1.95 0.21,-2.92 1.58,-1.59 1.84,-4.78 0.92,-6.87 -0.47,-1.08 -1.38,-2.24 -2.57,-2.57 0.26,0.61 0.66,0.64 1.15,2.63l-0.26 0.09z"/>
   <path class="fil3" d="M22.1 10.34c1.15,-0.15 1.83,-1.04 2.17,-2.05 0.2,-0.59 0.26,-1.26 0.17,-1.91 -0.05,-0.39 -0.28,-1.3 -0.54,-1.48 -0.67,0.36 -0.75,0.04 -1.52,0.61 -0.34,0.25 -0.69,0.79 -0.88,1.35 -0.39,1.21 -0.09,2.78 0.59,3.48z"/>
   <path class="fil1" d="M23.95 4.71c0.31,0.06 0.57,0.18 0.8,0.33 0.16,0.1 0.48,0.36 0.53,0.54l0.14 -0.06 0.26 -0.09c-0.49,-1.99 -0.89,-2.02 -1.15,-2.63 -0.33,-0.19 -0.53,-0.3 -0.8,-0.52 -0.27,-0.22 -0.39,-0.48 -0.63,-0.74 -0.29,-0.07 -0.81,-0.34 -1.06,-0.48 -0.08,0.04 -0.02,-0.03 -0.08,0.06 -0.18,0.25 0.17,1.44 -0.79,2.49 -0.26,0.29 -0.74,0.72 -0.66,0.98 0.08,0.25 0.32,0.64 0.51,1.27 0.15,-0.13 0.39,-0.54 0.53,-0.7 0.57,-0.67 2.29,-1.43 2.4,-0.46z"/>
   <path class="fil3" d="M19.23 18.83c1.02,0.1 2.13,-1.09 2.48,-1.59 0.67,-0.98 0.83,-1.88 0.6,-3.22 -0.61,-0.15 -1.22,0.07 -1.67,0.32 -0.27,0.15 -0.4,0.27 -0.59,0.47 -0.78,0.78 -0.14,0.55 -0.64,2.53 -0.26,1.04 -0.56,1.08 -0.18,1.5z"/>
   <path class="fil4 str0" d="M19.23 18.83c0.34,0.61 1.27,0.92 2.17,0.61 0.74,-0.26 1.29,-0.83 1.64,-1.36 0.86,-1.29 1,-3.61 -0.74,-4.06 0.22,1.34 0.06,2.24 -0.6,3.22 -0.34,0.51 -1.45,1.69 -2.48,1.59z"/>
   <path class="fil5" d="M23.91 4.9c0.26,0.18 0.49,1.09 0.54,1.48 0.08,0.65 0.03,1.32 -0.17,1.91 -0.34,1.01 -1.02,1.9 -2.17,2.05 0.43,0.39 0.94,0.91 1.87,0.65 1.57,-0.44 2.19,-2.8 1.43,-4.5 -0.19,-0.43 -0.38,-0.47 -0.13,-0.91 -0.05,-0.18 -0.37,-0.44 -0.53,-0.54 -0.23,-0.15 -0.49,-0.27 -0.8,-0.33l-0.04 0.19z"/>
   <path class="fil1" d="M24.08 14.35c0.15,-0.04 0.08,-0.26 0.04,-0.63 -0.11,-0.99 -0.37,-1.04 -0.22,-1.86 -0.69,0.09 -1.32,-0.1 -1.79,-0.41 -0.63,-0.41 -0.89,-0.97 -1.09,-1.18 -0.55,1.42 -0.61,1.63 -1.53,2.69 -0.26,0.29 -0.14,0.76 0.03,1.14 0.24,-0.07 0.33,-0.32 1.02,-0.64 1.21,-0.57 2.54,-0.39 3.37,0.66 0.08,0.1 0.08,0.13 0.18,0.24z"/>
   <path class="fil0" d="M14.15 13.2c-1.61,0.37 -2.94,1.82 -3.23,3.59 -0.17,1.05 0.1,2.12 0.62,2.73 0.98,1.15 1.44,0.38 1.24,-0.01 -0.05,-0.1 -1.63,-0.92 -0.91,-3.1 0.3,-0.9 0.86,-1.55 1.44,-1.96 1.42,-1 2.26,-0.09 2.68,-0.25 0.23,-0.09 0.29,-0.35 0.2,-0.56 -0.08,-0.19 -0.31,-0.27 -0.54,-0.35 -0.5,-0.18 -0.97,-0.21 -1.51,-0.09z"/>
   <path class="fil0" d="M15.94 4.31c-2.62,0.49 -3.45,4.42 -1.55,6.63 0.66,0.76 2.07,1.25 2.35,0.76 0.5,-0.89 -0.87,-0.26 -1.84,-1.44 -1.16,-1.41 -0.86,-3.98 0.52,-4.88 0.39,-0.25 1.16,-0.3 1.28,-0.44 0.07,-0.09 0.38,-0.85 -0.76,-0.64z"/>
   <path class="fil0" d="M7.87 19.88c-2.45,0.39 -4.31,2.64 -3.66,4.64 0.32,1.01 0.83,0.64 0.92,0.49 0.25,-0.43 -0.75,-1.25 0.27,-2.73 1.06,-1.54 3.49,-2.13 4.62,-1.06 0.17,0.16 0.57,0.96 0.98,0.43 0.42,-0.55 -1.04,-2.09 -3.12,-1.77z"/>
   <path class="fil4 str0" d="M16.31 21.91c0.1,0.2 -0.31,0.9 -0.42,1.06 -0.18,0.27 -0.51,0.65 -0.77,0.85 -0.56,0.42 -1.29,0.88 -2.23,0.95l-0.17 0.27c1.15,1.11 4.24,0.13 4.86,-1.94 0.23,-0.76 0.04,-1.55 -0.44,-1.89 -0.08,0.04 -0.76,0.6 -0.82,0.7z"/>
   <path class="fil3" d="M12.89 24.78c0.94,-0.07 1.67,-0.53 2.23,-0.95 0.26,-0.19 0.58,-0.58 0.77,-0.85 0.12,-0.17 0.53,-0.86 0.42,-1.06 -0.17,0.03 -0.3,0.15 -0.5,0.27 -0.45,0.28 -1.13,0.55 -1.66,0.68 -0.61,0.15 -0.56,0.25 -0.76,0.8 -0.15,0.43 -0.33,0.73 -0.51,1.11z"/>
   <path class="fil1" d="M18.35 21.56l1.39 -0.46c0.43,-0.17 0.88,-0.39 1.17,-0.66 -0.28,0.03 -0.33,0.06 -0.55,-0.04 -0.43,-0.07 -0.66,-0.13 -1.02,-0.33 -0.4,-0.22 -0.49,-0.46 -0.76,-0.66l-0.84 1.15c0.12,0.28 0.37,0.35 0.61,1.01z"/>
   <path class="fil1" d="M11.15 26.85c0.81,0.02 2.21,-0.12 2.77,-0.52 -1.09,-0.09 -1.16,-0.35 -1.76,-0.6 -0.52,0.59 -0.53,0.56 -1.07,1.02 0.01,0.09 -0.01,0.04 0.06,0.1z"/>
   <path class="fil2" d="M14.89 1.01c0.21,0.26 0.73,0.38 1.07,0.57 -0.13,-0.33 -0.46,-0.85 -0.91,-0.69l-0.16 0.11z"/>
   <path class="fil2" d="M22.03 1.06c0.25,0.14 0.77,0.4 1.06,0.48 -0.2,-0.38 -0.68,-1.03 -1.06,-0.48z"/>
  </g>
 </g>
</svg>
