<?xml version="1.0" encoding="UTF-8"?>
<!DOCTYPE svg PUBLIC "-//W3C//DTD SVG 1.1//EN" "http://www.w3.org/Graphics/SVG/1.1/DTD/svg11.dtd">
<!-- Creator: CorelDRAW -->
<svg xmlns="http://www.w3.org/2000/svg" xml:space="preserve" width="13.909mm" height="16mm" version="1.1" style="shape-rendering:geometricPrecision; text-rendering:geometricPrecision; image-rendering:optimizeQuality; fill-rule:evenodd; clip-rule:evenodd"
viewBox="0 0 103.25 118.78"
 xmlns:xlink="http://www.w3.org/1999/xlink"
 xmlns:xodm="http://www.corel.com/coreldraw/odm/2003">
 <defs>
  <style type="text/css">
   <![CDATA[
    .str1 {stroke:#893B20;stroke-width:1.48;stroke-miterlimit:22.9256}
    .str0 {stroke:#A34B33;stroke-width:1.48;stroke-miterlimit:22.9256}
    .str2 {stroke:#FFD997;stroke-width:1.48;stroke-miterlimit:22.9256}
    .fil0 {fill:black}
    .fil2 {fill:#893B20}
    .fil1 {fill:#A34B33}
    .fil3 {fill:#FFD997}
   ]]>
  </style>
 </defs>
 <g id="Camada_x0020_1">
  <metadata id="CorelCorpID_0Corel-Layer"/>
  <path class="fil0" d="M47.29 117.77c13.84,-3.4 28.29,-11.95 36.99,-21.99 1.42,-1.63 2.63,-3.15 4.05,-4.94 6.64,-8.42 10.89,-18.49 13.26,-28.96 1.82,-8 2.38,-18.68 0.5,-28.61l-1.44 -5.87c-1.52,-4.95 -3.77,-9.51 -6.93,-13.19 -6.41,-7.48 -12.19,-11.14 -21.87,-13.36 -4.78,-1.1 -9.92,-1.11 -14.9,-0.18l-4.3 1.06c-4.74,1.45 -9.19,3.77 -12.85,6.84 -5.5,4.61 -8.59,8.94 -11.3,15.35 -4.88,11.54 0.03,16.63 -10.13,23.83 -4.04,2.87 -6.74,4.92 -9.9,8.8l-3.5 5.28c-3.84,8.77 -6.65,16.02 -3.79,27.66 1.4,5.7 4.14,10.48 6.91,14.24 8.6,11.64 24.95,17.56 39.2,14.06z"/>
  <path class="fil1 str0" d="M14.55 100.48c35.47,11.37 73.92,-17.54 71.76,-57.06 -0.82,-14.96 -6.83,-26.05 -15.36,-35.59 -2.88,-2.57 -15.19,-0.52 -20.86,2.2 -5.77,2.77 -12.29,9.09 -13.52,13.15 11.65,4.83 17.18,21.78 9.92,33.46 -2.83,4.55 -8.36,9.49 -16.14,10.86 -3.37,0.59 -7.18,0.36 -10.03,-0.48 -1.73,-0.51 -2.73,-0.9 -4.2,-1.6 -1.46,-0.7 -2.53,-1.59 -3.89,-2.16 -9,10.3 -4.5,33.02 2.32,37.23z"/>
  <path class="fil2 str1" d="M70.95 7.83c8.53,9.54 14.54,20.63 15.36,35.59 2.16,39.51 -36.28,68.42 -71.76,57.06 3.45,5.3 10.86,9.13 16.87,10.53 21,4.89 45.29,-13.56 55.36,-29.98 10.02,-16.34 14.97,-46.3 1.52,-62.77 -3.75,-4.6 -11.51,-10.1 -17.35,-10.43z"/>
  <path class="fil3 str2" d="M33.78 29.49c-2.88,9.86 0.8,16.95 -17.18,28 2.18,2.65 7.85,4.19 12.58,3.38 9.89,-1.69 16.19,-11.52 13.39,-21.2 -1.47,-5.08 -5.57,-9.24 -8.78,-10.19z"/>
 </g>
</svg>
