<?xml version="1.0" encoding="UTF-8"?>
<!DOCTYPE svg PUBLIC "-//W3C//DTD SVG 1.1//EN" "http://www.w3.org/Graphics/SVG/1.1/DTD/svg11.dtd">
<!-- Creator: CorelDRAW -->
<svg xmlns="http://www.w3.org/2000/svg" xml:space="preserve" width="16mm" height="17.3879mm" version="1.1" style="shape-rendering:geometricPrecision; text-rendering:geometricPrecision; image-rendering:optimizeQuality; fill-rule:evenodd; clip-rule:evenodd"
viewBox="0 0 23.91 25.98"
 xmlns:xlink="http://www.w3.org/1999/xlink"
 xmlns:xodm="http://www.corel.com/coreldraw/odm/2003">
 <defs>
  <style type="text/css">
   <![CDATA[
    .fil1 {fill:#FEFEFE}
    .fil0 {fill:black}
    .fil5 {fill:#CFD8DC}
    .fil3 {fill:#DF5858}
    .fil4 {fill:#E1BD85}
    .fil2 {fill:#FAD436}
   ]]>
  </style>
 </defs>
 <g id="Camada_x0020_1">
  <metadata id="CorelCorpID_0Corel-Layer"/>
  <g id="_1470312307232">
   <path class="fil0" d="M3.44 0.17c-0.84,0 -0.91,0.54 -1.03,0.8 -0.66,0 -1.07,0.04 -1.52,0.78 -0.46,0.75 -0.29,1.25 -0.15,1.86 -0.12,0.18 -0.24,0.24 -0.38,0.43 -0.54,0.71 -0.4,0.9 0.49,0.9 -0.11,0.15 -0.38,0.27 -0.57,0.58 -0.37,0.57 -0.4,1.26 0.02,1.82 0.24,0.33 0.38,0.36 0.73,0.54 -0.85,3.63 -0.92,7.59 1.77,10.25l0.34 0.35c0.03,0.03 0.06,0.05 0.09,0.08 0.07,0.07 0.1,0.09 0.18,0.17 0.48,0.48 2.16,1.88 2.8,2.03l-0.73 2.32c-0.25,0.85 -0.05,0.57 -1.91,1.19 -0.5,0.17 -1.16,0.23 -1.16,0.91 0,0.48 0.3,0.8 0.8,0.8 0.28,0 1.09,-0.31 1.37,-0.41 1.65,-0.55 1.01,-0.55 2.66,0 0.46,0.15 1.03,0.41 1.49,0.41 0.58,0 1.02,-0.97 0.34,-1.43 -0.24,-0.16 -1.7,-0.53 -2.17,-0.76l0.57 -1.85c0.07,-0.2 0.16,-0.41 0.18,-0.62 1.24,0.59 5.1,0.56 6.27,0 0.19,0.83 0.55,1.64 0.75,2.47 -0.95,0.45 -2.53,0.52 -2.53,1.38 0,0.36 0.28,0.8 0.8,0.8 0.39,0 2.45,-0.84 2.7,-0.84 0.34,0 2.16,0.84 2.82,0.84 0.43,0 0.69,-0.37 0.69,-0.86 0,-0.59 -0.68,-0.71 -1.14,-0.87 -0.48,-0.16 -1.04,-0.33 -1.51,-0.5 -0.18,-0.07 -0.17,-0.03 -0.26,-0.2l-0.36 -1.19c-0.1,-0.38 -0.45,-1.29 -0.46,-1.61 0.42,-0.1 1.3,-0.74 1.65,-1.05 0.99,-0.86 1.57,-1.68 1.99,-2.95 0.19,-0.57 0.04,-0.52 0.33,-0.76 0.25,-0.21 0.36,-0.26 0.57,-0.53 1.17,-1.55 1.07,-2.78 1.35,-3.02l0.59 -0.51c0.19,-0.19 0.32,-0.43 0.41,-0.68 0.17,-0.47 0.06,-0.77 0.06,-0.97 0,-0.01 0.46,-1.01 0.17,-1.61 0.63,-0.42 1.38,-0.93 1.38,-1.72 0,-0.6 -0.54,-0.99 -1.09,-1.03 0.41,-0.77 0.11,-1.53 -0.75,-1.67 -0.52,-0.08 -1.05,-0.01 -1.48,0.19 -0.39,0.18 -0.75,0.43 -1.07,0.72 -0.33,0.29 -0.68,0.87 -0.85,0.99 -0.13,-0.08 -0.37,-0.4 -0.82,-0.07 -0.22,0.16 -0.44,0.4 -0.51,0.7 -0.25,-0.02 -0.14,-0.06 -0.57,-0.06 -0.48,0 -1,0.48 -1.09,0.86 -0.31,-0.03 -0.61,-0.19 -1.27,0.29 -0.72,0.52 -0.35,0.81 -0.95,1 -2.34,0.77 -4.66,0.21 -5.41,-2.35 -0.4,-1.38 -0.64,-2.33 -1.68,-3.5 -0.14,-0.15 -0.25,-0.22 -0.36,-0.39 0.17,-0.73 0.36,-1.16 -0.22,-2.02 -0.11,-0.17 -0.19,-0.29 -0.36,-0.39 -0.36,-0.22 -0.46,-0.23 -0.8,-0.23 -0.38,0 -0.36,0.11 -0.58,0.22 -0.21,0.11 -0.36,-0.05 -0.62,-0.05z"/>
   <path class="fil1" d="M18.37 9.15c-0.27,-0.68 0.46,-0.33 -0.16,-2.59 -0.72,0.4 -0.34,1.34 -0.31,1.62 0.18,1.77 -0.98,1.85 -0.7,0.99 0.23,-0.7 0.09,-1.67 -0.18,-1.84 -0.38,-0.12 -0.66,0.17 -0.78,0.42 -0.19,0.39 -0.01,0.62 0.05,1 0.06,0.39 0.04,0.81 -0.05,1.18 -0.11,0.44 -0.17,0.68 -0.63,0.49 -0.16,-0.55 0.46,-0.86 -0.09,-2.26 -0.49,-0.07 -0.87,0.22 -1.04,0.46 -0.38,0.54 0.02,0.5 -0.72,0.77 -0.8,0.29 -1.73,0.48 -2.67,0.38 -0.98,-0.1 -2.09,-0.66 -2.56,-1.23 -0.19,-0.23 -0.1,-0.28 -0.41,-0.34 -0.26,-0.05 -1.06,-0.28 -1.23,-0.21 -0.22,0.6 0.33,2.08 -1.22,1.69l-0.64 -0.17c-0.1,-0.01 0.1,-0.01 -0.09,-0 -0.11,0 -0.07,0 -0.13,0.02 -0.19,0.51 0.07,1.34 -0.35,1.65 -0.45,0.33 -1.23,-0.15 -1.74,-0.13 -0.17,1.48 0.12,2.07 -1.61,1.61 -0.03,1.2 0.5,2.72 0.99,3.53 0.67,1.12 1.24,1.69 2.08,2.46 1.57,1.43 3.54,2.53 6.58,2.52 2.34,-0 5.25,-0.83 6.58,-2.52 0.35,-0.45 0.59,-0.76 0.89,-1.36 0.19,-0.37 0.38,-1.45 0.64,-1.66 0.3,-0.24 0.38,-0.22 0.62,-0.53 0.53,-0.68 0.9,-1.52 1.07,-2.41 -0.93,0.15 -1.45,0.92 -1.57,1.73 -0.07,0.44 -0.07,0.61 -0.55,0.48 -0.14,-0.45 0.07,-1.1 0.28,-1.5 0.69,-1.34 1.94,-1.15 2.45,-1.57 0.38,-0.31 0.67,-0.65 0.64,-1.4 -0.85,-0.12 -1.41,-0.02 -1.99,0.39 -0.27,0.18 -0.41,0.34 -0.61,0.6 -0.21,0.28 -0.35,0.56 -0.68,0.23 -0.2,-0.37 0.82,-1.27 1.17,-1.46 0.72,-0.39 1.25,-0.45 2.19,-0.33 0.13,-0.31 0.21,-0.65 0.09,-1 -0.14,-0.23 -0.75,-0.13 -0.97,-0.06 -0.26,0.09 -0.69,0.41 -0.81,0.02 -0.15,-0.52 1.12,-0.72 1.64,-0.65 0.49,0.07 0.45,-0.06 0.77,-0.3 0.17,-0.13 0.52,-0.38 0.63,-0.57 0.19,-0.33 0.07,-0.63 -0.25,-0.75 -0.4,-0.15 -0.65,0.09 -1.05,-0.04 -0.16,-0.54 0.14,-0.38 0.4,-0.91 0.53,-1.09 -1.6,-1.3 -3.05,0.75 -0.08,0.11 -0.2,0.27 -0.28,0.41 -0.15,0.24 -0.08,0.22 -0.01,0.51 0.1,0.42 0.21,2.12 -0.62,1.88z"/>
   <path class="fil0" d="M10.29 17.54c0.47,0.12 0.8,0.51 1.56,0.57 0.85,0.06 1.13,-0.3 1.57,-0.6 0.18,-0.12 0.56,0.04 0.84,0.09 0.32,0.05 0.68,0.09 1.01,0.03 0.97,-0.15 0.83,-0.74 0.7,-1.25 0.88,-0.2 2.28,-0.85 1.61,-1.99 -0.34,-0.57 -1.61,-1.14 -2.37,-1.47 -1.6,-0.71 -3.8,-1.71 -5.83,-1.86 -1.35,-0.1 -2.3,0.19 -2.87,0.97 -0.6,0.83 -0.76,1.93 -0.36,3.06 0.48,1.36 1.89,3.72 3.61,2.89 0.27,-0.13 0.31,-0.24 0.54,-0.43z"/>
   <path class="fil2" d="M13.27 16.85c0.56,-0.06 1.64,0.51 2.22,0.09 0.04,-0.58 -0.94,-0.84 0.28,-1.1 1.32,-0.28 2.08,-0.98 0.46,-1.79 -1.98,-0.99 -5.58,-2.7 -7.9,-2.43 -1.16,0.14 -1.9,1 -1.86,2.29 0.03,1.19 0.74,2.16 1.28,2.88 0.28,0.37 0.65,0.78 1.33,0.76 0.93,-0.02 0.73,-0.95 1.32,-0.66 0.37,0.19 0.78,0.58 1.44,0.64 0.84,0.08 1.07,-0.38 1.44,-0.68z"/>
   <path class="fil2" d="M0.92 4.35c1.25,0.04 1.12,-0.09 2.13,0.41 0.55,0.27 1.1,0.64 1.3,1.23 0.36,1.05 -0.68,2.09 -1.71,1.82 -0.61,-0.16 -0.38,-0.05 -1,0.09 -0.3,0.56 -0.59,3.27 -0.58,4.11l0.08 0.05c0.25,0.12 0.65,0.23 0.9,0.17 0.08,-0.58 -0.06,-1.41 0.4,-1.68 0.49,-0.29 1.23,0.25 1.64,0.16 0.01,-0.01 0.02,-0.05 0.02,-0.04 0,0.01 0.02,-0.03 0.02,-0.04 0.09,-0.27 -0.03,0.14 0.03,-0.09 0.02,-0.07 0.02,-0.17 0.03,-0.25 0.02,-0.4 -0.04,-1.04 0.31,-1.26 0.49,-0.3 1.17,0.17 1.71,0.15 0.13,-0.48 -0.04,-1.13 0.24,-1.54 0.31,-0.46 0.94,-0.18 1.43,-0.07 -0.14,-0.44 -0.3,-0.74 -0.43,-1.25 -0.81,-3.24 -3.51,-5.23 -4.71,-2.86 -0.16,0.31 -0.11,0.39 -0.52,0.39 -0.54,0.01 -1.08,0.11 -1.26,0.5z"/>
   <path class="fil3" d="M1.27 3.38l0.91 -0.12c0.23,-0.55 0.7,-1.07 1.28,-1.29 0.95,-0.36 1.6,0.17 2.07,0.33 0.18,-0.66 0,-1.43 -0.53,-1.67 -0.56,-0.25 -0.55,0.18 -0.83,0.25 -0.24,0.06 -0.69,-0.24 -0.99,-0.06 -0.28,0.16 -0.11,0.69 -0.37,0.85 -0.22,0.14 -1.04,-0.63 -1.52,0.6 -0.16,0.41 -0.12,0.7 -0.01,1.12z"/>
   <path class="fil4" d="M14.47 21.14c0.1,0.75 0.89,2.44 0.82,3.03 -0.49,0.34 -2.23,0.6 -2.57,0.97 0.04,0.5 0.41,0.24 1.31,-0.07 0.42,-0.14 1.05,-0.4 1.46,-0.49 0.58,-0.13 2.63,0.99 3.02,0.78 0.34,-0.34 -0.7,-0.54 -1.2,-0.71 -1.9,-0.63 -1.38,-0.16 -2,-2.08 -0.1,-0.31 -0.38,-1.36 -0.51,-1.55l-0.34 0.13z"/>
   <path class="fil4" d="M8.84 25.12c-0.34,-0.32 -2.12,-0.64 -2.57,-0.96 -0.04,-0.39 0.68,-2.53 0.84,-2.98 -0.11,-0.07 -0.23,-0.12 -0.4,-0.16 -0.07,0.31 -0.84,2.87 -0.94,3.03 -0.13,0.21 -1.15,0.48 -1.44,0.57 -0.24,0.08 -0.5,0.16 -0.74,0.24 -0.23,0.08 -0.69,0.11 -0.59,0.41 0.11,0.31 1.19,-0.18 1.43,-0.25 1.88,-0.61 1.16,-0.61 3.05,0.03 0.95,0.32 1.32,0.59 1.35,0.07z"/>
   <path class="fil3" d="M2.31 5.02c-0.21,0.38 -0.42,1.2 -0.23,1.68 0.17,0.43 0.78,0.79 1.34,0.47 0.47,-0.27 0.59,-0.94 0.16,-1.39 -0.29,-0.31 -0.84,-0.55 -1.28,-0.76z"/>
   <path class="fil0" d="M4.06 3.01c-1.31,0.22 -0.94,2.12 0.28,1.91 1.27,-0.22 0.93,-2.11 -0.28,-1.91z"/>
   <path class="fil3" d="M1.62 5.21c-1.05,0.35 -1.41,1.56 -0.57,2.03 0.11,0.06 0.74,0.26 0.69,-0.01 -0,-0.01 -0.07,-0.14 -0.07,-0.15 -0.4,-0.74 -0.16,-1.16 -0.04,-1.87z"/>
   <path class="fil5" d="M4.03 3.62c-0.19,0.08 -0.33,0.23 -0.21,0.54 0.07,0.18 0.32,0.28 0.55,0.17 0.41,-0.2 0.22,-0.96 -0.34,-0.71z"/>
  </g>
 </g>
</svg>
