<?xml version="1.0" encoding="UTF-8"?>
<!DOCTYPE svg PUBLIC "-//W3C//DTD SVG 1.1//EN" "http://www.w3.org/Graphics/SVG/1.1/DTD/svg11.dtd">
<!-- Creator: CorelDRAW -->
<svg xmlns="http://www.w3.org/2000/svg" xml:space="preserve" width="16mm" height="17.3879mm" version="1.1" style="shape-rendering:geometricPrecision; text-rendering:geometricPrecision; image-rendering:optimizeQuality; fill-rule:evenodd; clip-rule:evenodd"
viewBox="0 0 24.89 27.05"
 xmlns:xlink="http://www.w3.org/1999/xlink"
 xmlns:xodm="http://www.corel.com/coreldraw/odm/2003">
 <defs>
  <style type="text/css">
   <![CDATA[
    .fil0 {fill:black}
    .fil4 {fill:#CFD8DC}
    .fil3 {fill:#DF5858}
    .fil2 {fill:#E1BD85}
    .fil1 {fill:#FECB7F}
   ]]>
  </style>
 </defs>
 <g id="Camada_x0020_1">
  <metadata id="CorelCorpID_0Corel-Layer"/>
  <g id="_1469335203296">
   <path class="fil0" d="M3.59 0.18c-0.87,0 -0.94,0.56 -1.08,0.84 -0.69,0 -1.11,0.04 -1.58,0.81 -0.48,0.78 -0.3,1.3 -0.15,1.94 -0.12,0.19 -0.25,0.26 -0.4,0.44 -0.56,0.74 -0.41,0.93 0.51,0.93 -0.12,0.16 -0.39,0.29 -0.6,0.6 -0.38,0.59 -0.41,1.31 0.02,1.89 0.25,0.34 0.4,0.37 0.76,0.56 -0.88,3.78 -0.95,7.91 1.84,10.67l0.35 0.37c0.03,0.03 0.06,0.06 0.09,0.09 0.08,0.07 0.11,0.1 0.19,0.17 0.5,0.5 2.25,1.95 2.92,2.11l-0.76 2.42c-0.26,0.89 -0.05,0.6 -1.99,1.24 -0.52,0.17 -1.2,0.24 -1.2,0.95 0,0.5 0.31,0.84 0.84,0.84 0.29,0 1.13,-0.33 1.43,-0.43 1.72,-0.57 1.05,-0.57 2.77,0 0.48,0.16 1.07,0.43 1.55,0.43 0.61,0 1.06,-1.01 0.35,-1.49 -0.25,-0.16 -1.77,-0.55 -2.26,-0.79l0.59 -1.92c0.07,-0.21 0.17,-0.42 0.19,-0.65 1.29,0.62 5.31,0.58 6.52,0 0.2,0.87 0.58,1.71 0.78,2.57 -0.99,0.47 -2.63,0.54 -2.63,1.44 0,0.38 0.3,0.84 0.84,0.84 0.41,0 2.56,-0.87 2.81,-0.87 0.36,0 2.25,0.87 2.93,0.87 0.45,0 0.72,-0.38 0.72,-0.9 0,-0.62 -0.71,-0.74 -1.19,-0.91 -0.5,-0.17 -1.08,-0.34 -1.58,-0.52 -0.19,-0.07 -0.18,-0.03 -0.27,-0.21l-0.38 -1.24c-0.11,-0.39 -0.47,-1.34 -0.48,-1.68 0.44,-0.1 1.35,-0.77 1.72,-1.09 1.03,-0.9 1.63,-1.75 2.07,-3.08 0.2,-0.6 0.04,-0.54 0.35,-0.79 0.26,-0.22 0.38,-0.27 0.59,-0.55 1.22,-1.61 1.11,-2.89 1.41,-3.14l0.61 -0.53c0.19,-0.19 0.33,-0.45 0.43,-0.71 0.17,-0.49 0.07,-0.8 0.07,-1.01 0,-0.01 0.48,-1.05 0.18,-1.68 0.66,-0.44 1.44,-0.97 1.44,-1.8 0,-0.62 -0.56,-1.03 -1.14,-1.08 0.43,-0.8 0.11,-1.6 -0.78,-1.74 -0.54,-0.08 -1.09,-0.01 -1.54,0.2 -0.4,0.19 -0.78,0.45 -1.11,0.74 -0.35,0.31 -0.71,0.91 -0.88,1.03 -0.13,-0.09 -0.38,-0.42 -0.85,-0.07 -0.23,0.17 -0.45,0.42 -0.53,0.73 -0.26,-0.02 -0.15,-0.06 -0.6,-0.06 -0.5,0 -1.04,0.5 -1.14,0.9 -0.33,-0.03 -0.63,-0.2 -1.32,0.3 -0.75,0.54 -0.37,0.84 -0.99,1.05 -2.43,0.8 -4.86,0.22 -5.63,-2.44 -0.42,-1.44 -0.67,-2.43 -1.75,-3.64 -0.14,-0.16 -0.26,-0.23 -0.37,-0.4 0.18,-0.76 0.38,-1.2 -0.23,-2.11 -0.12,-0.18 -0.2,-0.3 -0.37,-0.41 -0.37,-0.23 -0.47,-0.24 -0.84,-0.24 -0.39,0 -0.38,0.11 -0.61,0.23 -0.22,0.11 -0.38,-0.05 -0.65,-0.05z"/>
   <path class="fil1" d="M19.13 9.53c-0.29,-0.71 0.48,-0.34 -0.16,-2.7 -0.75,0.41 -0.35,1.4 -0.32,1.69 0.19,1.85 -1.02,1.93 -0.72,1.03 0.24,-0.73 0.09,-1.74 -0.19,-1.91 -0.4,-0.13 -0.69,0.17 -0.81,0.43 -0.2,0.41 -0.01,0.65 0.06,1.04 0.07,0.41 0.04,0.85 -0.05,1.23 -0.12,0.46 -0.18,0.71 -0.66,0.51 -0.17,-0.57 0.48,-0.89 -0.1,-2.36 -0.51,-0.07 -0.9,0.23 -1.08,0.48 -0.4,0.56 0.02,0.53 -0.75,0.8 -0.84,0.3 -1.81,0.5 -2.78,0.4 -1.02,-0.1 -2.17,-0.69 -2.67,-1.29 -0.2,-0.24 -0.11,-0.29 -0.43,-0.36 -0.27,-0.06 -1.11,-0.29 -1.28,-0.22 -0.23,0.62 0.34,2.17 -1.27,1.76l-0.67 -0.17c-0.11,-0.01 0.1,-0.01 -0.09,-0 -0.12,0 -0.07,0 -0.14,0.03 -0.2,0.53 0.07,1.39 -0.37,1.71 -0.47,0.34 -1.28,-0.16 -1.82,-0.14 -0.17,1.54 0.12,2.15 -1.68,1.67 -0.03,1.25 0.52,2.83 1.03,3.68 0.7,1.16 1.29,1.76 2.17,2.56 1.63,1.49 3.68,2.63 6.85,2.63 2.44,-0 5.46,-0.87 6.85,-2.62 0.37,-0.47 0.61,-0.79 0.92,-1.41 0.19,-0.39 0.4,-1.51 0.67,-1.72 0.32,-0.25 0.4,-0.23 0.65,-0.55 0.55,-0.7 0.93,-1.58 1.11,-2.51 -0.97,0.16 -1.51,0.95 -1.64,1.8 -0.07,0.45 -0.08,0.63 -0.57,0.5 -0.15,-0.47 0.08,-1.14 0.29,-1.56 0.71,-1.4 2.02,-1.2 2.56,-1.63 0.39,-0.32 0.7,-0.68 0.66,-1.46 -0.89,-0.13 -1.47,-0.02 -2.08,0.4 -0.28,0.19 -0.43,0.35 -0.63,0.63 -0.21,0.29 -0.37,0.58 -0.7,0.24 -0.21,-0.38 0.86,-1.32 1.22,-1.52 0.75,-0.41 1.3,-0.47 2.29,-0.35 0.14,-0.33 0.22,-0.68 0.09,-1.04 -0.15,-0.24 -0.79,-0.14 -1.01,-0.06 -0.27,0.1 -0.72,0.42 -0.84,0.02 -0.16,-0.54 1.17,-0.75 1.71,-0.67 0.51,0.07 0.47,-0.06 0.8,-0.31 0.18,-0.13 0.55,-0.4 0.66,-0.6 0.2,-0.34 0.07,-0.66 -0.26,-0.78 -0.42,-0.15 -0.67,0.09 -1.09,-0.04 -0.17,-0.56 0.14,-0.39 0.41,-0.95 0.56,-1.14 -1.67,-1.35 -3.17,0.78 -0.08,0.12 -0.2,0.28 -0.29,0.43 -0.15,0.25 -0.08,0.23 -0.01,0.53 0.1,0.44 0.22,2.21 -0.64,1.96z"/>
   <path class="fil0" d="M10.71 18.26c0.49,0.13 0.84,0.53 1.62,0.59 0.89,0.07 1.18,-0.31 1.64,-0.62 0.19,-0.13 0.59,0.05 0.87,0.09 0.34,0.05 0.7,0.09 1.05,0.04 1.01,-0.16 0.86,-0.77 0.73,-1.3 0.92,-0.21 2.37,-0.89 1.68,-2.07 -0.35,-0.6 -1.67,-1.18 -2.47,-1.53 -1.66,-0.73 -3.96,-1.78 -6.07,-1.94 -1.41,-0.1 -2.4,0.2 -2.99,1.01 -0.63,0.86 -0.79,2.01 -0.38,3.19 0.5,1.42 1.97,3.87 3.76,3.01 0.28,-0.14 0.32,-0.25 0.57,-0.45z"/>
   <path class="fil2" d="M13.82 17.54c0.58,-0.06 1.71,0.53 2.31,0.09 0.04,-0.6 -0.98,-0.88 0.3,-1.14 1.38,-0.29 2.17,-1.02 0.48,-1.86 -2.06,-1.03 -5.81,-2.81 -8.23,-2.53 -1.21,0.14 -1.97,1.04 -1.94,2.39 0.03,1.23 0.77,2.25 1.33,2.99 0.29,0.39 0.68,0.81 1.38,0.79 0.97,-0.02 0.76,-0.99 1.38,-0.69 0.39,0.19 0.81,0.6 1.5,0.67 0.87,0.08 1.11,-0.4 1.49,-0.71z"/>
   <path class="fil2" d="M0.96 4.53c1.3,0.04 1.17,-0.09 2.22,0.43 0.57,0.28 1.14,0.66 1.36,1.28 0.37,1.09 -0.7,2.17 -1.78,1.9 -0.63,-0.16 -0.39,-0.06 -1.04,0.1 -0.32,0.59 -0.61,3.4 -0.61,4.28l0.08 0.05c0.26,0.12 0.68,0.24 0.94,0.17 0.08,-0.61 -0.06,-1.47 0.41,-1.75 0.51,-0.3 1.28,0.26 1.7,0.16 0.01,-0.01 0.02,-0.05 0.02,-0.04 0,0.01 0.02,-0.03 0.02,-0.04 0.1,-0.29 -0.03,0.15 0.03,-0.09 0.02,-0.07 0.02,-0.18 0.03,-0.26 0.02,-0.42 -0.04,-1.09 0.32,-1.31 0.51,-0.31 1.22,0.18 1.78,0.16 0.13,-0.5 -0.04,-1.18 0.25,-1.6 0.32,-0.48 0.98,-0.19 1.48,-0.07 -0.15,-0.45 -0.32,-0.77 -0.45,-1.3 -0.85,-3.37 -3.66,-5.45 -4.9,-2.98 -0.16,0.32 -0.11,0.41 -0.54,0.41 -0.56,0.01 -1.13,0.11 -1.32,0.52z"/>
   <path class="fil3" d="M1.32 3.52l0.95 -0.13c0.23,-0.57 0.73,-1.11 1.33,-1.34 0.99,-0.38 1.66,0.18 2.15,0.35 0.19,-0.69 0,-1.49 -0.55,-1.74 -0.58,-0.26 -0.58,0.18 -0.87,0.26 -0.25,0.06 -0.71,-0.25 -1.03,-0.06 -0.29,0.16 -0.12,0.71 -0.38,0.88 -0.23,0.15 -1.08,-0.65 -1.58,0.63 -0.17,0.43 -0.12,0.73 -0.01,1.16z"/>
   <path class="fil2" d="M15.06 22.01c0.1,0.78 0.93,2.54 0.86,3.15 -0.51,0.36 -2.32,0.63 -2.68,1.01 0.04,0.52 0.43,0.25 1.36,-0.07 0.44,-0.15 1.1,-0.42 1.52,-0.51 0.61,-0.13 2.74,1.03 3.15,0.81 0.35,-0.35 -0.73,-0.57 -1.25,-0.74 -1.98,-0.66 -1.43,-0.16 -2.08,-2.17 -0.1,-0.32 -0.39,-1.42 -0.53,-1.62l-0.35 0.13z"/>
   <path class="fil2" d="M9.2 26.16c-0.36,-0.33 -2.2,-0.67 -2.68,-1 -0.04,-0.41 0.71,-2.63 0.87,-3.11 -0.11,-0.07 -0.24,-0.12 -0.41,-0.16 -0.07,0.33 -0.88,2.99 -0.98,3.16 -0.14,0.21 -1.19,0.5 -1.5,0.6 -0.25,0.08 -0.52,0.16 -0.77,0.25 -0.24,0.08 -0.72,0.11 -0.61,0.43 0.11,0.32 1.24,-0.18 1.49,-0.26 1.95,-0.63 1.21,-0.63 3.17,0.03 0.99,0.33 1.37,0.61 1.41,0.07z"/>
   <path class="fil3" d="M2.41 5.23c-0.22,0.4 -0.44,1.25 -0.24,1.75 0.18,0.45 0.81,0.83 1.4,0.48 0.49,-0.28 0.61,-0.98 0.17,-1.45 -0.3,-0.32 -0.88,-0.57 -1.33,-0.79z"/>
   <path class="fil0" d="M4.23 3.14c-1.37,0.23 -0.98,2.2 0.3,1.99 1.32,-0.22 0.97,-2.2 -0.3,-1.99z"/>
   <path class="fil3" d="M1.68 5.42c-1.09,0.36 -1.47,1.62 -0.6,2.11 0.11,0.06 0.77,0.27 0.72,-0.01 -0,-0.01 -0.08,-0.15 -0.08,-0.15 -0.41,-0.77 -0.16,-1.21 -0.05,-1.95z"/>
   <path class="fil4" d="M4.2 3.77c-0.19,0.08 -0.35,0.24 -0.22,0.56 0.08,0.19 0.33,0.29 0.57,0.18 0.43,-0.2 0.23,-1 -0.36,-0.74z"/>
  </g>
 </g>
</svg>
