<?xml version="1.0" encoding="UTF-8"?>
<!DOCTYPE svg PUBLIC "-//W3C//DTD SVG 1.1//EN" "http://www.w3.org/Graphics/SVG/1.1/DTD/svg11.dtd">
<!-- Creator: CorelDRAW -->
<svg xmlns="http://www.w3.org/2000/svg" xml:space="preserve" width="11.8022mm" height="16mm" version="1.1" style="shape-rendering:geometricPrecision; text-rendering:geometricPrecision; image-rendering:optimizeQuality; fill-rule:evenodd; clip-rule:evenodd"
viewBox="0 0 26.17 35.48"
 xmlns:xlink="http://www.w3.org/1999/xlink"
 xmlns:xodm="http://www.corel.com/coreldraw/odm/2003">
 <defs>
  <style type="text/css">
   <![CDATA[
    .str0 {stroke:#A0D41C;stroke-width:0.44;stroke-miterlimit:22.9256}
    .fil0 {fill:black}
    .fil2 {fill:#91C019}
    .fil3 {fill:#A0D41C}
    .fil1 {fill:#A0D41C}
    .fil4 {fill:#FFFFFE}
   ]]>
  </style>
 </defs>
 <g id="Camada_x0020_1">
  <metadata id="CorelCorpID_0Corel-Layer"/>
  <path class="fil0" d="M4.35 0.55c0.03,1.24 0.88,3.05 1.56,4.05 1.51,2.19 4.21,2.5 7.03,1.84 -0.13,0.28 -0.21,0.89 -0.21,1.32 -0.57,-0.13 -1.31,-0.62 -2.36,0.14 -0.38,0.27 -0.5,0.51 -0.78,0.88 -1.34,1.8 -2.17,1.78 -3.79,2.86 -2.01,1.34 -3.55,3.2 -4.6,5.38 -1.89,3.93 -1.53,8.97 0.87,12.55 1.73,2.58 3.93,4.37 6.91,5.36 0.91,0.3 1.77,0.55 2.85,0.55 0.53,0 0.79,-0.14 1.25,-0.14 0.42,0 0.73,0.14 1.52,0.14 2.09,0 4.83,-1.39 6.5,-2.64 0.74,-0.55 1.38,-1.21 1.97,-1.91 0.86,-1.03 1.49,-2.03 2.04,-3.3 1.99,-4.64 1.07,-9.86 -2.08,-13.61l-0.8 -0.86c-0.34,-0.27 -0.54,-0.49 -0.89,-0.77 -1.64,-1.32 -1.75,-1.1 -3.06,-1.93 -0.19,-0.12 -0.31,-0.2 -0.48,-0.35 -0.65,-0.59 -0.56,-0.4 -1.22,-1.28 -0.62,-0.83 -1.36,-1.69 -2.75,-1.2 -0.23,0.08 -0.44,0.23 -0.62,0.28 0,-1.65 0.74,-2.85 2.11,-3.43 0.26,-0.11 0.36,-0.13 0.38,-0.45 -0.29,-0.19 -0.32,-0.14 -0.66,0.03 -0.21,0.11 -0.43,0.22 -0.62,0.35l-0.54 0.43c-0.24,0.22 -0.18,0.31 -0.47,0.5 -0.35,-1.49 -0.86,-2.53 -1.81,-3.66 -0.97,-1.15 -2.36,-1.61 -3.83,-1.67l-0.65 0c-0.74,0.03 -1.49,0.15 -2.19,0.32 -0.34,0.08 -0.36,0.08 -0.59,0.24z"/>
  <path class="fil1 str0" d="M22.6 30.69c0.1,-0.36 0.61,-1.19 0.82,-1.64 0.85,-1.88 1.18,-4.15 1,-6.24 -0.37,-4.41 -3.07,-8.25 -6.73,-10.17 -3.19,-1.68 -2.62,-2.9 -3.94,-3.33 -1.06,-0.35 -1.55,0.21 -1.97,0.28 -0.63,0.11 -0.94,-0.56 -1.9,-0.34 -0.45,0.34 -0.66,0.99 -2.02,1.76 -0.92,0.52 -1.65,0.88 -2.42,1.46 -1.37,1.05 -2.6,2.41 -3.55,4.21 -3,5.7 -1.08,12.78 4.09,16.26 1.24,0.83 3.74,2.08 5.7,2.09 0.67,0 1.11,-0.25 1.77,-0.12 1.61,0.3 3.32,-0.22 4.76,-0.86 1.72,-0.77 2.75,-1.58 3.96,-2.83 0.21,-0.22 0.34,-0.25 0.42,-0.52z"/>
  <path class="fil2" d="M9.89 9.24c0.96,-0.22 1.27,0.45 1.9,0.34 0.41,-0.07 0.91,-0.63 1.97,-0.28 1.32,0.44 0.74,1.65 3.94,3.33 3.66,1.93 6.36,5.77 6.73,10.17 0.18,2.08 -0.15,4.35 -1,6.24 -0.2,0.45 -0.71,1.29 -0.82,1.64 0.27,-0.17 0.36,-0.36 0.58,-0.63 3.12,-3.9 3.22,-9.98 0.7,-14.04 -3.05,-4.91 -5.56,-4.01 -7.69,-6.94 -0.34,-0.47 -0.6,-0.95 -1.35,-1.08 -1.08,-0.19 -1.57,0.63 -1.77,0.63 -0.24,-0.08 -0.38,-0.33 -0.72,-0.5 -1.03,-0.49 -2.06,0.15 -2.47,1.1z"/>
  <path class="fil3" d="M4.87 0.81c0.25,1.74 1.11,3.44 2.36,4.49 1.27,1.07 3.58,1.14 5.49,0.71 -0.32,-0.29 -0.88,-0.57 -1.28,-0.83l-2.65 -1.65c-0.44,-0.28 -1.19,-0.63 -1.29,-0.96 0.25,-0.37 0.61,0 1.36,0.48l4.12 2.54c-0.25,-1.78 -1.44,-3.55 -2.46,-4.27 -1.7,-1.19 -3.53,-0.88 -5.65,-0.51z"/>
  <path class="fil4" d="M5.33 13.91c-0.27,0.13 -1.86,1.85 -1.88,2.18 -0.04,0.92 1.19,-0.87 1.33,-1.04 0.31,-0.39 0.8,-0.75 0.81,-0.93 0.01,-0.16 -0.12,-0.28 -0.26,-0.21z"/>
  <path class="fil4" d="M6.13 13.53c0.34,0.06 1.15,-0.42 0.85,-0.71 -0.15,-0.14 -0.95,0.22 -0.85,0.71z"/>
 </g>
</svg>
