<?xml version="1.0" encoding="UTF-8"?>
<!DOCTYPE svg PUBLIC "-//W3C//DTD SVG 1.1//EN" "http://www.w3.org/Graphics/SVG/1.1/DTD/svg11.dtd">
<!-- Creator: CorelDRAW -->
<svg xmlns="http://www.w3.org/2000/svg" xml:space="preserve" width="12.3155mm" height="16mm" version="1.1" style="shape-rendering:geometricPrecision; text-rendering:geometricPrecision; image-rendering:optimizeQuality; fill-rule:evenodd; clip-rule:evenodd"
viewBox="0 0 32.67 42.45"
 xmlns:xlink="http://www.w3.org/1999/xlink"
 xmlns:xodm="http://www.corel.com/coreldraw/odm/2003">
 <defs>
  <style type="text/css">
   <![CDATA[
    .fil1 {fill:black}
    .fil2 {fill:#38B44A}
    .fil4 {fill:#ED7906}
    .fil0 {fill:#F7931E}
    .fil3 {fill:#FFFFFE}
   ]]>
  </style>
 </defs>
 <g id="Camada_x0020_1">
  <metadata id="CorelCorpID_0Corel-Layer"/>
  <g id="_1432820843888">
   <path class="fil0" d="M19 10.86c-0.24,-0.11 -1.53,-0.25 -1.91,-0.25 -0.04,0.81 -0.43,0.77 -1.17,0.79 -5.12,0.15 -10.01,3.19 -12.48,7.62 -0.86,1.54 -1.56,3.43 -1.78,5.52 -0.94,8.62 5.43,15.36 12.91,16.27 8.65,1.06 15.49,-5.41 16.42,-12.81 0.78,-6.18 -2.36,-11.84 -7.21,-14.63 -0.76,-0.44 -1.59,-0.82 -2.5,-1.15 -1.5,-0.53 -2.26,-0.33 -2.27,-1.36z"/>
   <path class="fil1" d="M19 10.86c0.02,1.03 0.77,0.83 2.27,1.36 0.91,0.33 1.74,0.71 2.5,1.15 4.85,2.79 7.99,8.45 7.21,14.63 -0.93,7.41 -7.78,13.87 -16.42,12.81 -7.48,-0.92 -13.85,-7.65 -12.91,-16.27 0.23,-2.09 0.93,-3.98 1.78,-5.52 2.47,-4.43 7.36,-7.48 12.48,-7.62 0.74,-0.02 1.13,0.02 1.17,-0.79 -0.05,-1.48 -0.18,-2.09 -0.65,-3.18 -1.01,-2.36 -2.85,-2.67 -2.85,-1.38 0,0.72 0.8,0.59 1.52,2.3 0.23,0.53 0.26,0.94 0.39,1.52 -3.04,0 -6.61,1.47 -8.81,3.13 -1.49,1.11 -2.85,2.52 -3.89,4.07l-1.11 1.87c-0.13,0.29 -0.18,0.41 -0.31,0.68 -0.41,0.85 -0.74,1.98 -0.98,3 -1.33,5.6 0.8,11.46 4.23,14.88 1.48,1.48 2.76,2.42 4.61,3.35 1.88,0.95 3.94,1.48 6.03,1.6l1.98 0c2.98,-0.18 5.92,-1.17 8.38,-2.9 1.42,-1 1.95,-1.49 3.13,-2.84 2.05,-2.35 3.7,-6.06 3.83,-9.1 0.08,-1.8 0.19,-1.71 -0.1,-3.72 -0.72,-5.05 -3.69,-9.38 -8.02,-11.87 -0.91,-0.52 -1.66,-0.84 -2.72,-1.26 -0.93,-0.37 -2.56,-1 -2.75,0.11z"/>
   <path class="fil1" d="M17.66 6.8c0,0.83 0.64,0.96 1.79,1.36 2.17,0.76 4.91,0.58 7.02,-0.26 0.59,-0.23 0.82,-0.38 1.33,-0.66 1.18,-0.64 2.37,-1.79 3.14,-2.83 0.31,-0.43 1.31,-2.05 1.31,-2.67 0,-1.18 -3.64,-1.74 -4.48,-1.74l-0.99 0c-2.23,0 -4.56,1.14 -5.81,2.14 -0.8,0.64 -1.34,1.2 -1.96,2.02 -0.3,0.4 -1.35,2.09 -1.35,2.63z"/>
   <path class="fil2" d="M19.44 6.47c0.54,0.44 2.6,0.67 3.45,0.64 1.22,-0.04 2.34,-0.33 3.34,-0.78 1.45,-0.65 2.58,-1.65 3.43,-2.79 0.22,-0.29 0.69,-1 0.78,-1.38 -0.74,-0.45 -2.5,-0.66 -3.48,-0.62 -3.18,0.11 -6.31,2.12 -7.51,4.93z"/>
   <path class="fil3" d="M20.92 14.83c-0.13,0.06 -0.21,0.03 -0.35,0.26 -0.57,0.97 0.9,1.29 2.06,2.07 1.9,1.28 3.42,3.4 4.15,5.64 0.37,1.14 0.49,2.83 0.66,3.07 0.24,0.33 2.37,1.2 0.74,-3.72 -0.76,-2.29 -2.25,-4.33 -4.03,-5.75 -0.44,-0.35 -2.51,-1.92 -3.22,-1.57z"/>
   <path class="fil3" d="M17.48 13.81c-0.89,0.35 -0.45,1.74 0.55,1.4 0.87,-0.29 0.45,-1.8 -0.55,-1.4z"/>
   <path class="fil4" d="M11.92 31.47c-0.88,0.39 -0.33,1.76 0.62,1.38 0.85,-0.35 0.35,-1.81 -0.62,-1.38z"/>
   <path class="fil4" d="M12.06 36.31c-0.39,0.18 -0.59,0.5 -0.36,0.98 0.14,0.31 0.54,0.53 1,0.36 0.8,-0.31 0.37,-1.82 -0.64,-1.34z"/>
   <path class="fil4" d="M16.6 32.98c-1.01,0.38 -0.41,1.76 0.52,1.4 0.82,-0.32 0.44,-1.76 -0.52,-1.4z"/>
   <path class="fil4" d="M19.97 36.28c-0.91,0.42 -0.28,1.76 0.61,1.37 0.83,-0.36 0.37,-1.82 -0.61,-1.37z"/>
   <path class="fil4" d="M6.91 32.66c-0.21,0.1 -0.3,0.04 -0.4,0.38 -0.06,0.21 -0.05,0.44 0.04,0.62 0.14,0.29 0.54,0.53 1,0.34 0.77,-0.31 0.35,-1.78 -0.64,-1.34z"/>
  </g>
 </g>
</svg>
