<?xml version="1.0" encoding="UTF-8"?>
<!DOCTYPE svg PUBLIC "-//W3C//DTD SVG 1.1//EN" "http://www.w3.org/Graphics/SVG/1.1/DTD/svg11.dtd">
<!-- Creator: CorelDRAW -->
<svg xmlns="http://www.w3.org/2000/svg" xml:space="preserve" width="16mm" height="12.5768mm" version="1.1" style="shape-rendering:geometricPrecision; text-rendering:geometricPrecision; image-rendering:optimizeQuality; fill-rule:evenodd; clip-rule:evenodd"
viewBox="0 0 16.32 12.83"
 xmlns:xlink="http://www.w3.org/1999/xlink"
 xmlns:xodm="http://www.corel.com/coreldraw/odm/2003">
 <defs>
  <style type="text/css">
   <![CDATA[
    .fil1 {fill:#BDBFC1}
    .fil0 {fill:black}
    .fil5 {fill:#365E7C}
    .fil4 {fill:#3E6D8D}
    .fil2 {fill:#AAA79F}
    .fil3 {fill:#E4E4E4}
   ]]>
  </style>
 </defs>
 <g id="Camada_x0020_1">
  <metadata id="CorelCorpID_0Corel-Layer"/>
  <path class="fil0" d="M5.77 9.44c0.18,0.21 0.13,0.24 0.67,0.1 0.25,-0.06 0.5,-0.2 0.72,-0.02 0.48,0.4 -0.27,0.98 -0.39,1.03 -0.01,0.01 -0.01,0.01 -0.02,0.02 -0.01,0.05 -0.26,0.18 -0.31,0.21 -0.47,0.22 -0.91,0.21 -1.4,0.07 -0.43,-0.13 -1.18,-0.57 -1.4,-0.83l0.22 -0.29 0.64 0.03c0.12,0 0.32,0.01 0.44,-0.01 0.2,-0.03 0.15,-0.09 0.23,-0.23 -0.05,-0.29 -0.19,-0.24 -0.51,-0.24 -0.27,0 -0.44,-0.03 -0.73,-0.03 -0.15,-0.31 -0.05,-0.22 -0.34,-0.55 -0.14,-0.15 -0.28,-0.36 -0.37,-0.55 -0.12,-0.24 0.07,-0.15 0.06,-0.62 -0.01,-0.29 -0.06,-0.07 0.15,-0.38 0.06,-0.09 0.13,-0.2 0.16,-0.32 0.08,0.04 0.03,0.03 0.16,0.03 0,0.18 0.04,0.42 0.06,0.58 0.05,0.45 -0,0.32 0.53,0.75 0.1,0.08 0.26,0.24 0.39,0.22 0.17,-0.02 0.27,-0.23 0.16,-0.4l-0.52 -0.43c-0.16,-0.15 -0.04,-0.6 -0.14,-0.82 0.43,-0.23 0.23,-0.14 0.54,-0.35 0.2,0.14 0.1,-0.03 0.24,0.39 0.19,0.57 0.14,0.53 0.56,0.71 0.1,0.04 0.8,0.5 0.79,-0.02 -0.01,-0.32 -0.61,-0.34 -0.76,-0.52 -0.04,-0.06 -0.15,-0.38 -0.17,-0.46 0.07,-0.04 0.16,-0.04 0.25,-0.07 0.09,-0.03 0.17,-0.07 0.26,-0.09 0.58,0.39 1.14,0.36 1.85,0.22 0.24,-0.05 0.41,-0.06 0.42,-0.35 -0.08,-0.09 -0.04,-0.11 -0.16,-0.16 -0.08,-0.03 -0.17,-0 -0.28,-0.01 -0.13,0.12 -0.73,0.13 -0.94,0.12 -1.61,-0.11 -1.01,-2.65 -0.14,-3.33 0.24,-0.18 0.48,-0.25 0.84,-0.21 0.22,0.02 0.77,0.02 0.92,0.11 0.19,-0.03 2.22,0.16 2.33,0.22 0.1,0.19 0.02,0.34 0.22,0.57 0.1,0.12 0.25,0.24 0.46,0.3 0.33,0.09 0.66,-0.03 0.87,-0.25 0.06,-0.06 0.11,-0.15 0.17,-0.21 0.13,0.04 0.55,0.19 0.63,0.28 -0.03,0.08 -0.01,0.06 -0.1,0.12 -0.27,0.18 -1.84,1 -2.06,1.1 -0.38,0.18 -0.75,0.35 -1.16,0.53 -0.79,0.34 -1.04,0.27 -1.01,0.68 0.18,0.27 0.66,-0.01 1.02,-0.15 0.13,-0.05 0.21,-0.1 0.35,-0.13l1.1 0.82c0.22,0.16 0.18,0.08 0.25,0.38 0.09,0.36 0.17,0.66 0.25,1.02 0.08,0.33 0.13,0.88 0.47,0.75 0.28,-0.11 0.09,-0.56 -0.01,-0.95 -0.08,-0.33 -0.17,-0.67 -0.26,-1.02 -0.11,-0.43 -0.07,-0.32 -0.58,-0.7 -0.13,-0.1 -0.66,-0.46 -0.72,-0.55 0.2,-0.05 0.27,-0.19 0.48,-0.13 0.18,0.05 0.38,0.11 0.55,0.16 0.21,0.06 0.95,0.24 1.05,0.36 0.05,0.06 0.1,0.13 0.15,0.2 0.06,0.08 0.09,0.12 0.15,0.2l0.91 1.2c0.14,0.1 0.37,0.03 0.38,-0.16 0.01,-0.16 -0.17,-0.35 -0.25,-0.45 -0.21,-0.28 -0.39,-0.52 -0.6,-0.8 -0.21,-0.29 -0.42,-0.66 -0.68,-0.73 -0.34,-0.1 -0.73,-0.23 -1.09,-0.31 0.05,-0.07 0.35,-0.22 0.44,-0.26 0.11,-0.04 0.46,0 0.67,0 1.57,0 3.47,-0.46 3.47,-2.29l0 -0.04c-0,-0.49 -0.1,-0.84 -0.28,-1.16 -0.36,-0.64 -1.04,-0.99 -1.74,-1.16 -0.2,-0.05 -1.05,-0.19 -1.29,-0.12 -0.21,0.06 -0.24,0.33 -0.08,0.44 0.15,0.1 0.43,0.04 0.66,0.07 1.05,0.14 1.91,0.44 2.16,1.44 0.42,1.64 -1.09,2.32 -2.63,2.32 0.07,-0.1 0.16,-0.1 0.27,-0.18 0.33,-0.26 0.28,-0.69 -0.02,-0.89 -0.1,-0.06 -0.2,-0.1 -0.31,-0.14 -0.53,-0.23 -0.46,-0.11 -0.53,-0.36 -0.04,-0.13 -0.09,-0.22 -0.17,-0.31 -0.15,-0.17 -0.29,-0.27 -0.57,-0.33 -0.27,-0.05 -0.55,0.07 -0.69,0.2 -0.05,0.04 -0.06,0.07 -0.11,0.12 -0.09,0.09 -0.03,0.06 -0.12,0.06l-1.25 -0.11c-0.37,-0.04 -2.22,-0.24 -2.45,-0.21 -0.65,0.1 -0.39,0.21 -0.69,0.06 -0.47,-0.23 -1.82,-0.17 -2.34,0.09 -0.23,0.12 -0.35,0.23 -0.49,0.44 -0.71,0 -1.58,0.35 -1.82,1.08 -0.07,0.2 -0.03,0.16 -0.21,0.23 -0.46,0.19 -1.07,0.77 -1.15,1.37 -0.05,0.39 0.09,0.32 -0.01,0.49 -0.23,0.4 -0.45,0.63 -0.46,1.38l0 0.08c0.01,0.35 0.09,0.66 0.31,0.89 0.33,0.33 0.31,0.67 0.65,1.04 0.23,0.24 0.09,0.16 0.44,0.42 0.21,0.16 0.59,0.39 0.86,0.41 0.4,1.7 1.55,3.17 3.48,2.59 0.44,-0.13 0.67,-0.44 0.67,-0.9 -0,-0.29 -0.05,-0.25 -0.1,-0.45 0.37,-0.18 0.59,-0.2 1,-0.6 0.12,-0.11 0.27,-0.29 0.36,-0.44 0.12,-0.19 0.18,-0.4 0.12,-0.67 -0.09,-0.38 -0.44,-0.74 -0.9,-0.73 -0.18,0 -0.48,0.12 -0.64,0.16 -0.26,0.06 -0.46,0.04 -0.47,0.35z"/>
  <path class="fil1" d="M7.76 6.05c0.1,0.01 0.19,-0.02 0.28,0.01 0.12,0.04 0.08,0.07 0.16,0.16 0.19,-0 0.41,-0.14 0.61,-0.15 -0.03,-0.41 0.22,-0.34 1.01,-0.68 0.41,-0.18 0.78,-0.35 1.16,-0.53 0.21,-0.1 1.79,-0.92 2.06,-1.1 0.09,-0.06 0.07,-0.04 0.1,-0.12 -0.08,-0.09 -0.5,-0.24 -0.63,-0.28 -0.06,0.05 -0.11,0.14 -0.17,0.21 -0.21,0.22 -0.54,0.34 -0.87,0.25 -0.22,-0.06 -0.36,-0.18 -0.46,-0.3 -0.2,-0.23 -0.12,-0.38 -0.22,-0.57 -0.11,-0.06 -2.14,-0.25 -2.33,-0.22 -0.17,0.04 -0.08,-0.02 -0.24,0 -0.05,0.07 -0.09,0.1 -0.15,0.17 -0.45,0.58 -0.86,1.64 -0.68,2.43 0.06,0.24 0.24,0.64 0.39,0.73z"/>
  <path class="fil2" d="M7.76 6.05c-0.15,-0.09 -0.33,-0.48 -0.39,-0.73 -0.18,-0.78 0.23,-1.85 0.68,-2.43 0.06,-0.07 0.1,-0.1 0.15,-0.17 0.15,-0.02 0.07,0.04 0.24,0 -0.14,-0.09 -0.7,-0.09 -0.92,-0.11 -0.37,-0.03 -0.61,0.03 -0.84,0.21 -0.87,0.69 -1.47,3.22 0.14,3.33 0.21,0.01 0.81,0 0.94,-0.12z"/>
  <path class="fil1" d="M4.19 4.53l-0 -0.1c0.17,-0.09 1.01,-0.34 1.19,-0.2 0.03,-0.03 0.29,-0.75 0.36,-0.89 0.23,-0.45 0.29,-0.44 0.47,-0.74 -0.43,-0.15 -1.53,-0.05 -1.89,0.15 -0.3,0.17 -0.28,0.38 -0.26,0.82 0.01,0.23 0.02,0.8 0.14,0.95z"/>
  <path class="fil2" d="M2.79 5.51c-0.02,-0.13 0.03,-0.18 0.1,-0.28 0.05,-0.07 0.15,-0.18 0.22,-0.23 0.15,-0.12 0.38,-0.23 0.6,-0.28 -0.04,-0.25 -0.08,-0.47 -0.11,-0.73 -0.02,-0.25 -0.01,-0.55 -0.04,-0.79 -0.58,0.09 -1.12,0.27 -1.27,0.78 -0.12,0.4 0.29,1.38 0.5,1.52z"/>
  <path class="fil1" d="M5.16 9.52c-0.08,0.14 -0.03,0.2 -0.23,0.23 -0.11,0.02 -0.32,0.01 -0.44,0.01 0.11,0.15 0.72,0.48 0.95,0.58 0.52,0.21 0.71,0.22 1.32,0.21 0.12,-0.05 0.87,-0.63 0.39,-1.03 -0.22,-0.18 -0.47,-0.04 -0.72,0.02 -0.54,0.14 -0.49,0.1 -0.67,-0.1 -0.21,0.01 -0.42,0.04 -0.61,0.09z"/>
  <path class="fil1" d="M1.9 6.77c0.03,-0.27 0.43,-0.68 0.59,-0.77 -0.13,-0.24 -0.27,-0.44 -0.39,-0.7 -0.06,-0.13 -0.11,-0.24 -0.16,-0.38 -0.05,-0.13 -0.08,-0.3 -0.16,-0.42 -0.32,0.12 -0.92,0.66 -0.82,1.17 0.06,0.31 0.74,0.98 0.94,1.1z"/>
  <path class="fil3" d="M4.19 4.53c-0.04,0.53 0.59,1.93 1.4,1.41 -0.08,-0.28 -0.2,-0.38 -0.25,-0.76 -0.05,-0.38 0.05,-0.64 0.03,-0.94 -0.18,-0.14 -1.01,0.1 -1.19,0.2l0 0.1z"/>
  <path class="fil1" d="M5.46 12.24c-0.69,-0.18 -1.06,-0.43 -1.42,-0.98l-0.22 -0.36c-0,-0.01 -0.01,-0.05 -0.02,-0.06 -0,-0.09 -0.06,-0.01 0.02,-0.07 -0.14,-0.11 -0.3,-0.21 -0.44,-0.33 -0.24,-0.2 -0.16,-0.21 -0.58,-0.23 0.17,0.82 0.76,1.81 1.61,2.05 0.25,0.07 0.53,0.08 0.79,0.05 0.1,-0.01 0.18,-0.02 0.26,-0.08z"/>
  <path class="fil2" d="M1.8 8.2c-0.06,-0.18 -0.18,-0.74 -0,-0.9 -0.19,-0.16 -0.62,-0.51 -0.79,-0.71 -0.09,-0.11 -0.12,-0.16 -0.24,-0.26 -0.27,0.32 -0.57,1.52 0.23,1.83 0.24,0.09 0.53,0.06 0.8,0.04z"/>
  <path class="fil2" d="M6.77 10.55c-0.6,0 -0.8,0 -1.32,-0.21 -0.23,-0.1 -0.84,-0.43 -0.95,-0.58l-0.64 -0.03 -0.22 0.29c0.21,0.25 0.96,0.69 1.4,0.83 0.49,0.15 0.93,0.15 1.4,-0.07 0.05,-0.03 0.3,-0.16 0.31,-0.21 0,-0.01 0.01,-0.01 0.02,-0.02z"/>
  <path class="fil1" d="M2.79 5.51c0.03,0.2 0.43,0.61 0.58,0.72 0.4,0.29 0.67,0.08 0.96,-0.1 -0.09,-0.18 -0.21,-0.24 -0.38,-0.63 -0.1,-0.25 -0.17,-0.5 -0.24,-0.77 -0.22,0.05 -0.45,0.16 -0.6,0.28 -0.07,0.05 -0.17,0.16 -0.22,0.23 -0.08,0.1 -0.12,0.16 -0.1,0.28z"/>
  <path class="fil1" d="M3.39 9.25c-0.02,0.03 -0.01,0.07 -0.21,0.02l-0.52 -0.21 -0.44 -0.32c-0.06,-0.06 -0.08,-0.04 -0.03,-0.11 -0.35,0.07 -0.64,0.09 -1.01,0.08 0.22,0.59 1.12,1.06 1.86,1.06 0.3,0 0.52,-0.25 0.36,-0.51z"/>
  <path class="fil3" d="M5.46 12.24c0.27,0.04 0.5,-0.2 0.46,-0.49 -0.07,-0.51 -0.51,-0.1 -1.77,-0.78 -0.12,-0.07 -0.21,-0.14 -0.32,-0.19 -0.08,0.06 -0.02,-0.03 -0.02,0.07 0,0.01 0.01,0.05 0.02,0.06l0.22 0.36c0.36,0.54 0.73,0.8 1.42,0.98z"/>
  <path class="fil3" d="M1.9 6.77c0.17,0.12 0.38,0.32 0.65,0.35 0.39,0.04 0.41,-0.2 0.57,-0.44 -0.08,-0.13 -0.23,-0.21 -0.33,-0.32 -0.09,-0.11 -0.2,-0.26 -0.3,-0.36 -0.16,0.09 -0.56,0.5 -0.59,0.77z"/>
  <path class="fil1" d="M1.8 8.2c0.44,-0.06 0.93,-0.18 0.98,-0.6 -0.45,0.03 -0.67,-0.12 -0.98,-0.3 -0.18,0.16 -0.06,0.72 0,0.9z"/>
  <path class="fil3" d="M2.18 8.62c-0.04,0.07 -0.02,0.05 0.03,0.11l0.44 0.32 0.52 0.21c0.2,0.05 0.18,0.01 0.21,-0.02l-0.32 -0.41c-0.1,-0.12 -0.2,-0.34 -0.29,-0.43 -0.19,0.09 -0.36,0.17 -0.6,0.22z"/>
  <path class="fil4" d="M11.74 3.36c0.47,-0.11 0.47,-0.69 0.02,-0.81 -0.17,0.36 -0.2,0.4 -0.02,0.81z"/>
  <path class="fil5" d="M11.74 3.36c-0.18,-0.41 -0.15,-0.45 0.02,-0.81 -0.63,-0.05 -0.67,0.82 -0.02,0.81z"/>
 </g>
</svg>
