<?xml version="1.0" encoding="UTF-8"?>
<!DOCTYPE svg PUBLIC "-//W3C//DTD SVG 1.1//EN" "http://www.w3.org/Graphics/SVG/1.1/DTD/svg11.dtd">
<!-- Creator: CorelDRAW -->
<svg xmlns="http://www.w3.org/2000/svg" xml:space="preserve" width="16mm" height="9.3605mm" version="1.1" style="shape-rendering:geometricPrecision; text-rendering:geometricPrecision; image-rendering:optimizeQuality; fill-rule:evenodd; clip-rule:evenodd"
viewBox="0 0 44.51 26.04"
 xmlns:xlink="http://www.w3.org/1999/xlink"
 xmlns:xodm="http://www.corel.com/coreldraw/odm/2003">
 <defs>
  <style type="text/css">
   <![CDATA[
    .str0 {stroke:#775151;stroke-width:0.56;stroke-miterlimit:22.9256}
    .str1 {stroke:#F2D7BB;stroke-width:0.56;stroke-miterlimit:22.9256}
    .fil0 {fill:black}
    .fil7 {fill:#775151}
    .fil2 {fill:#775151}
    .fil1 {fill:#8A5D5D}
    .fil6 {fill:#EFC79D}
    .fil5 {fill:#EFC79D}
    .fil3 {fill:#F2D7BB}
    .fil4 {fill:#F2D7BB}
   ]]>
  </style>
 </defs>
 <g id="Camada_x0020_1">
  <metadata id="CorelCorpID_0Corel-Layer"/>
  <g id="_1470278188320">
   <path class="fil0" d="M4 4.4c1.05,-0.18 0.53,-1.45 0.69,-2.44 1.44,-0.61 6.34,-0.77 8,-0.5 0.71,0.06 1.97,0.21 2.62,0.4 0.48,0.14 0.31,0.57 0.3,1.14l-0 13.3c0,0.59 0.16,2.48 -0.09,2.83 -0.1,0.15 -0.3,0.23 -0.43,0.35 -0.62,0.56 -0.77,0.7 -0.45,1.34 0.74,0.39 1.04,-0.17 1.47,-0.5 1.5,-1.14 3.37,-1.62 5.31,-1.18 2.23,0.5 4.16,2.32 4.7,4.46l0.2 1.08 -3.02 0c-0.21,-0.05 -0.44,-0.76 -0.61,-1.16 -0.14,-0.06 -0.09,-0.07 -0.22,-0.2l-0.73 -0.67c-1.16,-0.75 -4.03,-0.8 -3.24,0.87 0.92,0.34 0.98,-0.27 1.96,-0.03 0.65,0.16 1.11,0.58 1.28,1.19l-5.78 0c0.05,-0.41 0.14,-0.88 0.43,-1.15 0.06,-0.55 0.83,-1.28 1.21,-1.54 2.14,-1.5 3.85,-0.31 4.48,-0.36 0.38,-0.03 0.65,-0.34 0.56,-0.76 -0.18,-0.9 -3.2,-1.46 -5.29,-0.26 -1.9,1.08 -2.14,2.45 -2.48,2.91l-0.26 1.15 -0.9 0.01c0.02,-0.25 0.06,-0.51 0.11,-0.74l0.21 -0.52c-0.02,-0.65 0.29,-0.64 -0.29,-1.11 -1.45,-0.42 -0.94,1.94 -1.48,2.37 -1.09,0 -7.06,0.12 -7.61,-0.07l-0.02 -18.05c-0.19,-0.31 -0.16,-0.35 -0.63,-0.42 -0.51,-0 -0.68,0.34 -0.7,0.85 -0.65,0 -2.26,-0.1 -2.69,0.1 -0.42,0.2 -0.57,0.51 -0.62,0.92l0 1.52c0.04,0.94 0.49,1.06 1.24,1.36 0.67,0.27 1.45,0.51 2.06,0.81l0 12.26c-0,1.65 0.09,2.09 2,2.09l36.95 -0c1.62,0 2.37,0.17 2.01,-1.93 -0.21,-1.2 -0.59,-2.11 -1.14,-2.94 -0.31,-0.47 -0.53,-0.75 -0.94,-1.15 -0.19,-0.19 -0.32,-0.33 -0.52,-0.52 -0.2,-0.19 -0.4,-0.28 -0.54,-0.5 2.08,0 3.23,0.33 3.39,-0.77l0 -0.64c-0.03,-0.3 -0.09,-0.66 -0.19,-1.09 -0.74,-3.19 -3.35,-5.32 -6.48,-5.77 -0.83,-0.12 -2,-0.07 -2.97,-0.07 -1.05,0 -2.41,-0.29 -2.42,0.7 0.12,0.72 0.54,0.64 1.29,0.64 0.64,-0 1.28,-0 1.91,-0 1.06,0 2.48,-0.04 3.35,0.39 1.9,0.57 4.09,2.83 4.16,5.3l-12.26 -0.02 -0.19 -1.19c-0.94,-2.24 -0.94,-2.73 -3.11,-4.48 1.98,-0.12 2.9,0.37 3.09,-0.65 -0.03,-0.81 -0.67,-0.7 -1.48,-0.7 -1.48,0 -5.77,-0.09 -6.66,0.03 -2.23,0.32 -4.02,1.21 -5.32,2.93l-0.27 0.33 -0.01 -12.25c-0.13,-1.18 -1.39,-1.16 -2.7,-1.39 -2.69,-0.46 -6.52,-0.44 -9.26,0.2 -1.69,0.39 -1.67,0.26 -1.69,2.49 -0,0.78 -0.07,1.35 0.7,1.4z"/>
   <path class="fil1" d="M4 4.4l0 1.75c0.47,0.07 0.44,0.11 0.63,0.42 0.3,0.42 0.15,3.79 0.15,4.26l0 12.78c1.63,0 3.52,0.3 4.55,-1.1 0.82,-1.11 0.54,-2 2.15,-3.76 0.48,-0.52 1.53,-1.33 1.25,-2.61 -0.41,-0.54 -0.37,-2.51 -0.01,-3.06 0.16,-0.5 0.13,-2.4 0.03,-2.94 -0.42,-0.5 -0.26,-1.77 -0.26,-2.61 0,-0.46 0,-0.93 -0,-1.39 -0,-0.63 -0.04,-0.76 0.31,-1.1 0,-0.72 0.14,-3.07 -0.11,-3.57 -1.66,-0.27 -6.56,-0.12 -8,0.5 -0.16,1 0.36,2.27 -0.69,2.44z"/>
   <path class="fil2 str0" d="M12.8 5.03c0.65,-0.19 0.97,0 1,0.67 0.03,0.6 -0,1.3 -0,1.91 0,1.2 0.39,2.87 -1.04,2.52 0.1,0.55 0.13,2.45 -0.03,2.94 1.24,-0.26 1.07,0.53 1.07,1.58 0,1 0.09,1.75 -1.06,1.48 0.28,1.28 -0.77,2.09 -1.25,2.61 -1.62,1.76 -1.33,2.64 -2.15,3.76 -1.03,1.4 -2.92,1.1 -4.55,1.1l0 -12.78c0,-0.46 0.15,-3.84 -0.15,-4.26l0.02 18.05c0.54,0.19 6.52,0.07 7.61,0.07 0.54,-0.42 0.03,-2.79 1.48,-2.37 0.18,-0.56 0.59,-1.05 0.9,-1.5 -0.32,-0.64 -0.17,-0.78 0.45,-1.34 0.14,-0.12 0.33,-0.2 0.43,-0.35 0.25,-0.35 0.09,-2.24 0.09,-2.83l0 -13.3c0,-0.57 0.17,-1.01 -0.3,-1.14 -0.65,-0.18 -1.9,-0.34 -2.62,-0.4 0.25,0.51 0.11,2.85 0.11,3.57z"/>
   <path class="fil1" d="M27.46 23.58c1.39,0.11 6.96,0.02 8.79,0.02 1.51,0 2.88,0.26 3.49,-0.95 0.63,-1.26 -0.52,-2.44 -0.87,-3.26 -1.68,-0.66 -8.18,-0.41 -10.79,-0.41 -1.12,0 -2.66,-0.09 -3.72,0.02 0.31,0.37 0.89,0.5 1.89,1.91 0.54,0.77 0.92,1.59 1.21,2.67z"/>
   <path class="fil1" d="M30.7 16.47c0.49,0.27 4.44,0.13 5.29,0.13 0.74,0 1.92,0.07 2.61,-0.02 0.44,-0.06 1.68,-0.78 1.31,-1.2 -0.71,0.23 -1.31,0.16 -2.18,0.16 -0.75,0 -1.72,0.17 -1.65,-0.72 0.06,-0.76 1.05,-0.59 1.74,-0.59 0.92,0 1.31,-0.02 2.09,0.14 0.23,-0 0.06,-0.25 -0.04,-0.48 -0.08,-0.2 -0.16,-0.34 -0.26,-0.53 -0.23,-0.43 -0.33,-0.62 -0.62,-1.01 -0.87,-0.44 -2.28,-0.39 -3.35,-0.39 -0.64,0 -1.28,-0 -1.91,0 -0.75,0 -1.17,0.08 -1.29,-0.64l-1.75 0c-0.19,1.02 -1.11,0.53 -3.09,0.65 2.17,1.76 2.17,2.24 3.11,4.48z"/>
   <path class="fil3" d="M14.64 20.82c-0.31,0.45 -0.72,0.94 -0.9,1.5 0.58,0.47 0.27,0.46 0.29,1.11 -0.09,0.31 -0.04,0.07 0.06,0.17l0.79 -0.08c0.33,-0.46 0.58,-1.83 2.48,-2.91 2.1,-1.2 5.11,-0.64 5.29,0.26 0.08,0.42 -0.18,0.73 -0.56,0.76 -0.63,0.05 -2.34,-1.14 -4.48,0.36 -0.38,0.27 -1.16,0.99 -1.21,1.54 0.25,0.14 0.7,0.07 1.01,0.07 0.2,0 0.42,0.01 0.62,0.01 0.31,-0 0.3,0.04 0.49,-0.09 -0.79,-1.67 2.08,-1.62 3.24,-0.87l0.73 0.67c0.14,0.14 0.09,0.15 0.22,0.2 0.62,0.2 2.65,0.08 3.43,0.08 -0.54,-2.14 -2.48,-3.95 -4.7,-4.46 -1.93,-0.44 -3.8,0.04 -5.31,1.18 -0.43,0.33 -0.73,0.88 -1.47,0.5z"/>
   <path class="fil4 str1" d="M17.25 16.52c0.26,0.19 0.94,0.09 1.29,0.05 -0.4,-0.85 0.48,-1.63 0.89,-2.04 1.99,-1.99 2.79,-1.02 2.49,-0.29 -0.21,0.5 -1.67,0.63 -2.38,2.33 0.43,0.06 0.69,0.1 1.07,-0.09 0.14,-0.04 1.54,-2.06 3.81,-1.12 0.56,0.23 0.53,0.62 0.41,1.14 0.27,0.3 1.7,0.13 2.15,0.07 -0.38,-0.76 -1.02,-1.47 -1.75,-1.85 -0.39,-0.2 -0.95,-0.3 -1.13,-0.62 -0.4,-0.71 0.45,-1.89 2.84,0.29 0.28,0.26 0.57,0.56 0.81,0.93 0.31,0.46 0.45,0.67 0.22,1.24 0.36,0.06 1.04,0.16 1.28,-0.07 0.01,-1.09 -1.49,-2.69 -2.06,-3.13 -0.94,-0.73 -2.31,-1.36 -3.91,-1.37 -1.61,-0.01 -2.96,0.6 -3.94,1.34 -0.57,0.43 -2.12,2.1 -2.11,3.19z"/>
   <path class="fil2 str0" d="M27.46 23.58l0.18 1.1 15.35 0c-0.24,-2.54 -2.11,-4.62 -4.12,-5.29 0.35,0.83 1.5,2 0.87,3.26 -0.6,1.2 -1.98,0.95 -3.49,0.95 -1.83,0 -7.4,0.09 -8.79,-0.02z"/>
   <path class="fil2 str0" d="M39.9 14.39c0.18,0.45 0.15,0.58 0,1 0.37,0.41 -0.87,1.14 -1.31,1.2 -0.69,0.09 -1.87,0.02 -2.61,0.02 -0.85,0 -4.8,0.15 -5.29,-0.13l0.19 1.19 12.26 0.02c-0.08,-2.47 -2.27,-4.73 -4.16,-5.3 0.29,0.39 0.39,0.57 0.62,1.01 0.1,0.19 0.18,0.33 0.26,0.53 0.09,0.23 0.26,0.48 0.04,0.48z"/>
   <path class="fil0" d="M6.59 9.75c-0.56,0.32 -0.36,1.93 -0.36,2.98l0.01 8.26c0.06,0.46 0.51,0.81 0.98,0.53 0.51,-0.29 0.31,-2.23 0.31,-2.97l-0.01 -8.25c-0.05,-0.46 -0.46,-0.83 -0.93,-0.56z"/>
   <path class="fil0" d="M9.94 3.59c-0.67,0.29 -0.46,1.26 -0.46,2.1l0 5.13c-0,0.7 -0.11,1.95 0.89,1.6 0.62,-0.22 0.41,-1.44 0.41,-2.12 0,-0.78 0.09,-6 -0.06,-6.38 -0.11,-0.27 -0.45,-0.47 -0.78,-0.33z"/>
   <path class="fil5" d="M29.26 16.48c-0.24,0.23 -0.93,0.13 -1.28,0.07 -0.58,0.34 -0.66,0.16 -1,0.01 -0.45,0.06 -1.88,0.23 -2.15,-0.07 -1.07,0.36 -1.04,-0.28 -2.1,0.02 -0.64,0.18 -0.99,0.6 -1.22,1.14l8.05 0.03c-0.01,-0.23 -0.03,-0.4 -0.07,-0.61 -0.08,-0.41 -0.08,-0.41 -0.22,-0.58z"/>
   <path class="fil0" d="M29.73 22.27l3.74 0c1.24,0 1.25,-1.3 0,-1.3l-3.76 0c-1.23,0 -1.13,1.3 0.02,1.3z"/>
   <path class="fil0" d="M12.8 5.03c-0.35,0.34 -0.31,0.47 -0.31,1.1 0,0.46 0,0.93 0,1.39 0,0.84 -0.16,2.11 0.26,2.61 1.43,0.34 1.04,-1.32 1.04,-2.52 0,-0.61 0.03,-1.31 0,-1.91 -0.03,-0.66 -0.35,-0.86 -1,-0.67z"/>
   <path class="fil0" d="M26.98 16.56c0.34,0.15 0.42,0.33 1,-0.01 0.23,-0.57 0.09,-0.78 -0.22,-1.24 -0.25,-0.37 -0.53,-0.67 -0.81,-0.93 -2.39,-2.18 -3.24,-1 -2.84,-0.29 0.18,0.32 0.74,0.42 1.13,0.62 0.73,0.38 1.37,1.08 1.75,1.85z"/>
   <path class="fil6" d="M18.5 23.52c-0.19,0.12 -0.19,0.08 -0.49,0.09 -0.2,0 -0.41,-0.01 -0.62,-0.01 -0.31,0 -0.76,0.08 -1.01,-0.07 -0.29,0.27 -0.37,0.74 -0.43,1.15l5.78 0c-0.16,-0.61 -0.62,-1.04 -1.28,-1.19 -0.98,-0.24 -1.04,0.37 -1.96,0.03z"/>
   <path class="fil0" d="M18.54 16.56c0.35,0.16 0.64,0.18 1,-0 0.72,-1.7 2.18,-1.83 2.38,-2.33 0.3,-0.73 -0.5,-1.7 -2.49,0.29 -0.41,0.41 -1.3,1.19 -0.89,2.04z"/>
   <path class="fil0" d="M39.91 15.38c0.14,-0.42 0.18,-0.55 -0,-1 -0.78,-0.17 -1.17,-0.14 -2.09,-0.14 -0.69,0 -1.67,-0.17 -1.74,0.59 -0.07,0.89 0.9,0.72 1.65,0.72 0.88,-0 1.47,0.07 2.18,-0.16z"/>
   <path class="fil0" d="M6.73 4.98c-0.7,0.24 -0.49,1.01 -0.5,1.84 -0,0.34 -0.06,0.79 0.1,1.06 0.13,0.21 0.47,0.37 0.79,0.25 0.57,-0.21 0.4,-1.12 0.41,-1.83 0,-0.66 0.01,-1.6 -0.81,-1.32z"/>
   <path class="fil0" d="M12.72 13.07c-0.36,0.55 -0.4,2.52 0.01,3.06 1.15,0.26 1.06,-0.49 1.06,-1.48 -0,-1.05 0.16,-1.84 -1.07,-1.58z"/>
   <path class="fil0" d="M32.16 15.54c1.04,0 2.21,0.2 2.22,-0.64 0.02,-0.88 -1.11,-0.66 -2.31,-0.66 -0.48,0 -0.85,0.15 -0.85,0.66 0,0.54 0.4,0.64 0.94,0.64z"/>
   <path class="fil6" d="M20.61 16.47c-0.39,0.18 -0.64,0.15 -1.07,0.09 -0.36,0.18 -0.65,0.16 -1,0 -0.35,0.05 -1.03,0.14 -1.29,-0.05 -0.22,0.22 -0.27,0.79 -0.29,1.16 3.35,0 3.04,0.26 3.34,-0.55 0.1,-0.27 0.2,-0.4 0.31,-0.66z"/>
   <path class="fil0" d="M36.15 21.05c-0.61,0.33 -0.41,1.11 0.22,1.21 0.33,0.05 1.81,0.05 2.05,-0.06 0.53,-0.23 0.47,-1.09 -0.17,-1.21 -0.36,-0.07 -1.85,-0.07 -2.1,0.06z"/>
   <path class="fil6" d="M26.12 23.59c-0.78,0 -2.81,0.12 -3.43,-0.08 0.17,0.41 0.41,1.12 0.61,1.16l3.02 0 -0.2 -1.08z"/>
   <path class="fil0" d="M9.91 14.36c-0.59,0.25 -0.43,0.88 -0.44,1.59 -0,0.63 0.13,1.3 0.92,1.02 0.56,-0.21 0.39,-1.09 0.39,-1.63 0,-0.6 -0.18,-1.27 -0.87,-0.98z"/>
   <path class="fil7" d="M1.3 9.34c0.15,0.29 0.41,0.3 0.97,0.51 0.34,0.13 0.73,0.31 1.07,0.39l0.01 -1.89 -2.02 -0.03 -0.03 1.02z"/>
   <path class="fil6" d="M14.87 23.51l-0.79 0.08c-0.1,-0.1 -0.15,0.14 -0.06,-0.17l-0.21 0.52c-0.05,0.23 -0.09,0.49 -0.11,0.74l0.9 -0.01 0.26 -1.15z"/>
  </g>
 </g>
</svg>
