<?xml version="1.0" encoding="UTF-8"?>
<!DOCTYPE svg PUBLIC "-//W3C//DTD SVG 1.1//EN" "http://www.w3.org/Graphics/SVG/1.1/DTD/svg11.dtd">
<!-- Creator: CorelDRAW -->
<svg xmlns="http://www.w3.org/2000/svg" xml:space="preserve" width="14.6239mm" height="16mm" version="1.1" style="shape-rendering:geometricPrecision; text-rendering:geometricPrecision; image-rendering:optimizeQuality; fill-rule:evenodd; clip-rule:evenodd"
viewBox="0 0 51.88 56.76"
 xmlns:xlink="http://www.w3.org/1999/xlink"
 xmlns:xodm="http://www.corel.com/coreldraw/odm/2003">
 <defs>
  <style type="text/css">
   <![CDATA[
    .str1 {stroke:#669C4E;stroke-width:0.71;stroke-miterlimit:22.9256}
    .str0 {stroke:#91BD00;stroke-width:0.71;stroke-miterlimit:22.9256}
    .fil1 {fill:black}
    .fil2 {fill:#669C4E}
    .fil0 {fill:#91BD00}
    .fil3 {fill:#9DE12B}
   ]]>
  </style>
 </defs>
 <g id="Camada_x0020_1">
  <metadata id="CorelCorpID_0Corel-Layer"/>
  <path class="fil0 str0" d="M24.63 12.72c-1.43,-0.04 -4.12,1.4 -5.16,2 -2.98,1.73 -5.34,4 -7.37,6.82 -0.51,0.7 -2.36,3.67 -2.52,4.63 0.94,0.77 0.55,1.61 -0.72,1.62 -0.38,1.79 -1.02,3.23 -1.14,5.29 0.95,-0.04 2.37,-0.25 2.35,0.84 -0.02,1.05 -1.47,0.86 -2.48,0.77 -0.04,0.96 -0.01,1.91 0.07,2.87 0.06,0.63 0.02,2.03 0.52,2.4l1.15 0.07c0.55,0.14 1.01,0.54 0.64,1.23 -0.25,0.46 -0.87,0.41 -1.51,0.41 1.02,4.55 4.02,7.03 4.87,8.5 0.53,0.92 0.59,2.46 0.8,3.63 1.28,-0.1 2.44,0.25 3.69,0.34 3.44,0.25 6.92,-0.52 9.89,-2 2.31,-1.16 5.31,-3.26 6.84,-5.14 1.04,-1.28 1.2,-1.68 2.24,-1.39 0.31,-0.55 0.94,-1.17 1.12,-1.81 -0.46,-0.64 -0.42,-0.83 -0.03,-1.57 0.87,-1.66 1.31,-2.64 1.88,-4.55 0.66,-2.21 1.12,-5.17 0.88,-7.62 -0.16,-0.32 -3.92,-1.91 -6.52,-6.97 -1.9,-3.71 -2.07,-6.82 -1.54,-11.35 -1.59,-0.02 -2.35,0.85 -3.72,1.18 -1.78,0.42 -2.74,-0.29 -4.23,-0.18z"/>
  <path class="fil1" d="M36.8 45.6c-1.04,-0.3 -1.2,0.1 -2.24,1.39 -1.52,1.88 -4.53,3.99 -6.84,5.14 -2.97,1.49 -6.45,2.25 -9.89,2 -1.25,-0.09 -2.41,-0.43 -3.69,-0.34 -2.2,0.32 -5.46,3.34 -6.08,-1.12 -0.57,-4.1 -1.12,-2.99 -3.39,-6.47 -2.78,-4.25 -3.67,-10.54 -2.25,-16.28 1.84,-7.41 7.23,-13.33 13.7,-15.9 1.76,-0.7 6.52,-1.91 8.51,-1.31 1.49,-0.11 2.45,0.6 4.23,0.18 1.37,-0.33 2.13,-1.2 3.72,-1.18 -0.52,4.53 -0.36,7.64 1.54,11.35 2.59,5.06 6.36,6.65 6.52,6.97 0.24,2.46 -0.22,5.41 -0.88,7.62 -0.57,1.91 -1.01,2.89 -1.88,4.55 -0.39,0.74 -0.43,0.93 0.03,1.57 1.13,0.58 1.6,-0.99 2.1,-1.99 0.49,-1 0.85,-2.06 1.23,-3.2 0.88,-2.64 1.09,-4.81 1.09,-7.66 1.47,0.34 4.8,2.29 7.32,1 1.4,-0.72 1.82,-2.1 2.04,-3.61 0.5,-3.43 -0.1,-6.62 -1.32,-9.54 -0.65,-1.57 -0.84,-1.93 -1.86,-1.71 -1.33,1.54 2.45,3.48 1.51,10.92 -0.13,1.02 -0.28,2.39 -1.77,2.65 -1.78,0.31 -5.54,-1.38 -6.77,-2.08 -5.03,-2.89 -8.01,-8.68 -7.5,-14.61 0.12,-1.48 0.14,-2.57 1.18,-3.27 1.77,-1.19 7.41,1.46 9.52,3.28 1.85,1.6 1.54,1.78 2.65,1.37 0.38,-0.81 0.28,-0.93 -0.3,-1.5 -0.78,-0.76 -1.61,-1.51 -2.54,-2.12 -0.26,-0.18 -0.4,-0.27 -0.66,-0.44 -1.84,-1.21 -5.62,-2.61 -7.81,-2.61 0.09,-1.11 0.83,-1.44 0.41,-4.29 -0.06,-0.39 -0.23,-0.87 -0.37,-1.29 -0.3,-0.86 -1.41,-2.75 -2,-2.99 -0.08,-0.03 -0.15,-0.05 -0.22,-0.07l-0.41 0c-0.24,0.06 -0.42,0.23 -0.52,0.44 -0.27,0.56 0.01,0.79 0.31,1.15 0.29,0.34 0.49,0.58 0.71,0.95 1.93,3.22 0.44,5.44 -0.67,7.55 -0.82,-0.02 -0.22,-0.26 -1.75,0.03 -2.1,0.39 -2.5,1.58 -4.85,1.13 -2.4,-0.46 -5.26,-0.35 -7.55,0.11 -4.21,0.84 -7.57,2.86 -10.77,5.53 -1.1,0.92 -2.92,3.07 -3.76,4.33 -1.25,1.89 -1.99,3.18 -2.86,5.34 -2.89,7.16 -2.23,15.94 2.75,22.29 2.08,2.65 1.43,1.19 1.93,4.17 0.26,1.56 0.87,3.06 2.49,3.61 0.2,0.07 0.39,0.11 0.57,0.15l1.23 0c1.68,-0.29 2.96,-1.63 4.83,-1.23 4.62,0.98 9.36,-0.09 13.48,-2.13 1.26,-0.62 2.55,-1.48 3.65,-2.34 1.71,-1.33 2.77,-2.42 4.13,-4.08 0.43,-0.52 0.46,-0.86 0.02,-1.39z"/>
  <path class="fil2 str1" d="M14.15 53.79c-0.2,-1.17 -0.27,-2.71 -0.8,-3.63 -0.85,-1.48 -3.86,-3.95 -4.87,-8.5 -0.79,0 -1.71,-0.21 -1.28,-1.18 0.28,-0.63 1.34,-0.51 2.14,-0.45l-1.15 -0.07c-0.49,-0.37 -0.46,-1.77 -0.52,-2.4 -0.09,-0.96 -0.11,-1.91 -0.07,-2.87 -0.6,-0.51 -0.77,-1.2 0.13,-1.61 0.11,-2.06 0.76,-3.5 1.14,-5.29 -0.45,-0 -1.03,0.09 -1.39,-0.13 -0.25,-0.15 -0.45,-0.53 -0.32,-0.97 0.23,-0.77 1.57,-0.62 2.43,-0.52 0.16,-0.95 2.01,-3.93 2.52,-4.63 2.03,-2.82 4.39,-5.09 7.37,-6.82 1.04,-0.6 3.73,-2.04 5.16,-2 -1.99,-0.61 -6.75,0.61 -8.51,1.31 -6.47,2.56 -11.86,8.48 -13.7,15.9 -1.42,5.73 -0.54,12.03 2.25,16.28 2.28,3.47 2.82,2.37 3.39,6.47 0.62,4.46 3.89,1.44 6.08,1.12z"/>
  <path class="fil3" d="M48.53 17.07c-0.18,-0.33 -0.34,-0.5 -0.58,-0.84 -0.14,-0.2 -0.18,-0.27 -0.33,-0.45 -0.22,-0.27 -0.19,-0.09 -0.3,-0.45 -1.11,0.41 -0.8,0.23 -2.65,-1.37 -2.1,-1.82 -7.74,-4.47 -9.52,-3.28 -1.04,0.7 -1.05,1.8 -1.18,3.27 -0.5,5.94 2.47,11.72 7.5,14.61 1.23,0.71 5,2.4 6.77,2.08 1.49,-0.26 1.64,-1.63 1.77,-2.65 0.94,-7.44 -2.84,-9.38 -1.51,-10.92z"/>
  <path class="fil1" d="M37.64 13.97c-1.42,0.52 0.16,2.05 1.16,3.43l6.06 8.46c0.47,0.67 0.88,1.49 1.63,1.24 1,-0.33 0.39,-1.3 -0.03,-1.85 -2.29,-3.03 -4.94,-6.98 -7.27,-10.14 -0.37,-0.49 -0.77,-1.44 -1.56,-1.15z"/>
  <path class="fil1" d="M7.6 34.68c1.01,0.1 2.46,0.29 2.48,-0.77 0.03,-1.1 -1.4,-0.88 -2.35,-0.84 -0.9,0.41 -0.73,1.1 -0.13,1.61z"/>
  <path class="fil1" d="M13.44 43.56c-0.67,0.32 -0.76,1.02 -0.22,1.41 0.35,0.26 1.67,0.25 2.12,0.1 0.64,-0.21 0.68,-1.14 0.13,-1.47 -0.35,-0.21 -1.7,-0.2 -2.04,-0.04z"/>
  <path class="fil1" d="M13.4 29.68c-0.56,0.26 -0.74,1.03 -0.16,1.41 0.33,0.22 1.68,0.24 2.09,0.1 0.63,-0.21 0.7,-1.16 0.16,-1.47 -0.34,-0.2 -1.73,-0.22 -2.1,-0.05z"/>
  <path class="fil1" d="M8.87 27.78c1.27,-0.01 1.66,-0.84 0.72,-1.62 -0.85,-0.1 -2.2,-0.25 -2.43,0.52 -0.13,0.44 0.06,0.82 0.32,0.97 0.37,0.21 0.95,0.13 1.39,0.13z"/>
  <path class="fil1" d="M8.48 41.66c0.63,0 1.26,0.05 1.51,-0.41 0.37,-0.69 -0.09,-1.09 -0.64,-1.23 -0.81,-0.06 -1.86,-0.18 -2.14,0.45 -0.44,0.97 0.49,1.19 1.28,1.18z"/>
  <path class="fil1" d="M14.07 38.2l0.66 0c1.54,0 1.55,-1.66 0,-1.66l-0.78 0c-1.42,0 -1.56,1.66 0.11,1.66z"/>
 </g>
</svg>
