<?xml version="1.0" encoding="UTF-8"?>
<!DOCTYPE svg PUBLIC "-//W3C//DTD SVG 1.1//EN" "http://www.w3.org/Graphics/SVG/1.1/DTD/svg11.dtd">
<!-- Creator: CorelDRAW -->
<svg xmlns="http://www.w3.org/2000/svg" xml:space="preserve" width="14.8987mm" height="16mm" version="1.1" style="shape-rendering:geometricPrecision; text-rendering:geometricPrecision; image-rendering:optimizeQuality; fill-rule:evenodd; clip-rule:evenodd"
viewBox="0 0 54.67 58.71"
 xmlns:xlink="http://www.w3.org/1999/xlink"
 xmlns:xodm="http://www.corel.com/coreldraw/odm/2003">
 <defs>
  <style type="text/css">
   <![CDATA[
    .fil1 {fill:black}
    .fil2 {fill:#F9E0BF}
    .fil0 {fill:#FDF6EA}
   ]]>
  </style>
 </defs>
 <g id="Camada_x0020_1">
  <metadata id="CorelCorpID_0Corel-Layer"/>
  <g id="_1998001879840">
   <path class="fil0" d="M53.63 27.41l-0 -1.49c-0.42,-0.27 -0.66,-0.16 -0.79,-0.74 -0.24,-1.11 0.3,-22.89 -0.18,-23.34 -0.28,-0.26 -30.06,-0.11 -35.2,-0.11 -2.32,0 -3.88,0.38 -4.1,-0.92l-1.52 0.06c-0.55,0.83 0.22,0.85 -2.41,0.85 -0.88,-0 -2.52,-0.09 -3.25,0.08 -0.23,0.91 -0.09,24.03 -0.09,25.61 0,8.55 -0.17,17.27 0.01,25.79 3.26,-0.42 6.7,-1.17 9.98,-1.71l24.93 -4.32c1.04,-0.19 1.71,-0.03 2.21,0.58 0.64,0.78 0.31,1.46 0.2,2.44 -0.19,1.78 0.38,3.43 1.15,4.58 0.77,1.13 1.96,2.44 3.49,2.11 1.59,-0.34 2.89,-1.28 3.59,-2.26 1.09,-1.55 1.17,-2.53 1.16,-4.72 -0,-0.69 -0.1,-21.33 0.05,-21.82 0.15,-0.49 0.39,-0.41 0.77,-0.66z"/>
   <path class="fil1" d="M30.86 57.84c-0.62,-1.01 -0.04,-0.85 -2.87,-0.85 -1.26,0 -2.52,0 -3.78,0 -7.09,0 -15.63,0.2 -22.39,-0.01l-0 -1.29 40.06 -6.91c-0.25,2.62 -0.45,4.17 1.14,6.71 0.38,0.61 0.84,1 1.14,1.48 -2.67,0.11 -6.72,0.02 -9.63,0.01 -2.2,-0 -1.7,0.03 -2.18,0.84 0.1,0.57 0.39,0.8 0.81,0.88l1.83 0 10.32 0c2.77,0 3.98,-0.03 5.71,-1.17 3.96,-2.61 3.57,-6.15 3.57,-10.3l0 -17.2c0,-1.41 0.27,-2.4 -0.97,-2.64 -0.39,0.25 -0.62,0.17 -0.77,0.66 -0.15,0.49 -0.05,21.13 -0.05,21.82 0,2.19 -0.07,3.18 -1.16,4.72 -0.7,0.99 -2,1.93 -3.59,2.26 -1.53,0.32 -2.72,-0.98 -3.49,-2.11 -0.77,-1.15 -1.35,-2.8 -1.15,-4.58 0.11,-0.98 0.44,-1.66 -0.2,-2.44 -0.5,-0.61 -1.17,-0.76 -2.21,-0.58l-24.93 4.32c-3.27,0.54 -6.72,1.29 -9.98,1.71 -0.18,-8.52 -0.01,-17.25 -0.01,-25.79 0,-1.58 -0.15,-24.7 0.09,-25.61 0.73,-0.17 2.37,-0.08 3.25,-0.08 2.63,0 1.85,-0.02 2.41,-0.85 -0.23,-0.63 -0.32,-0.82 -0.77,-0.87l-1.64 0 -3.06 0c-0.9,0.13 -1.65,0.5 -1.93,1.44 -0.19,0.67 -0.06,14.55 -0.06,15.99 0,11.68 0.11,23.79 0.01,35.45 -0.01,0.83 0.1,0.6 -2.22,0.99 -1.01,0.17 -1.62,0.41 -1.95,1.26 -0.31,0.81 -0.27,2.04 0.12,2.71 0.45,0.76 0.97,0.88 2.05,0.89l25.96 0 1.77 0c0.43,-0.05 0.53,-0.25 0.75,-0.87z"/>
   <path class="fil2" d="M30.86 57.84c0.46,0.11 1.03,0.11 1.49,-0.01 0.48,-0.81 -0.02,-0.85 2.18,-0.84 2.91,0 6.96,0.1 9.63,-0.01 -0.31,-0.48 -0.76,-0.87 -1.14,-1.48 -1.58,-2.54 -1.38,-4.09 -1.14,-6.71l-40.06 6.91 0 1.29c6.76,0.21 15.3,0.01 22.39,0.01 1.26,0 2.52,0 3.78,0 2.82,0 2.24,-0.16 2.87,0.85z"/>
   <path class="fil1" d="M13.35 0.8c0.22,1.3 1.78,0.92 4.1,0.92 5.14,0 34.92,-0.15 35.2,0.11 0.49,0.45 -0.06,22.23 0.18,23.34 0.13,0.59 0.37,0.48 0.79,0.74 1.36,-0.26 0.97,-1.73 0.97,-3.33l0 -12.96c0,-1.82 0.26,-7.26 -0.23,-8.38 -0.44,-1.01 -1.19,-1.22 -1.98,-1.26l-1 0 -37.05 0c-0.62,0.03 -0.92,0.18 -0.99,0.8z"/>
  </g>
 </g>
</svg>
