<?xml version="1.0" encoding="UTF-8"?>
<!DOCTYPE svg PUBLIC "-//W3C//DTD SVG 1.1//EN" "http://www.w3.org/Graphics/SVG/1.1/DTD/svg11.dtd">
<!-- Creator: CorelDRAW -->
<svg xmlns="http://www.w3.org/2000/svg" xml:space="preserve" width="16mm" height="12.055mm" version="1.1" style="shape-rendering:geometricPrecision; text-rendering:geometricPrecision; image-rendering:optimizeQuality; fill-rule:evenodd; clip-rule:evenodd"
viewBox="0 0 41.27 31.1"
 xmlns:xlink="http://www.w3.org/1999/xlink"
 xmlns:xodm="http://www.corel.com/coreldraw/odm/2003">
 <defs>
  <style type="text/css">
   <![CDATA[
    .fil0 {fill:black}
    .fil3 {fill:#A85E2C}
    .fil2 {fill:#D37E4B}
    .fil1 {fill:#ECC0B8}
   ]]>
  </style>
 </defs>
 <g id="Camada_x0020_1">
  <metadata id="CorelCorpID_0Corel-Layer"/>
  <g id="_1471228592448">
   <path class="fil0" d="M3.71 18.11c0.58,0.38 0.52,0.3 1.12,0.04 1.21,-0.53 2.53,-0.66 3.84,-0.35 4.99,1.16 6.39,7.69 2.24,10.78 -4.35,3.24 -10.41,-0.45 -9.63,-5.75 0.47,-3.17 2.12,-2.76 1.47,-4.1 -0.69,-0.16 -0.75,-0.19 -1.45,0.81 -0.78,1.1 -1.2,2.35 -1.29,3.61l0 1.07c0.2,2.75 1.93,5.38 4.95,6.41 1.9,0.65 7.16,0.43 9.48,0.43 1.53,0 18.65,0.11 19.7,-0.05 0.39,-0.06 0.77,-0.04 1.11,-0.1 0.42,-0.07 0.64,-0.13 0.97,-0.24 0.72,-0.24 1.12,-0.41 1.7,-0.8 1.14,-0.77 1.72,-1.37 2.44,-2.56 0.52,-0.86 0.83,-1.8 0.93,-2.77l0 -1.54c-0.25,-2.27 -1.57,-4.46 -3.86,-5.73 -1.18,-0.65 -2.29,-0.88 -4.12,-0.88l0.65 -1.21c0.21,-0.43 0.49,-1.08 -0.16,-1.3 -0.93,-0.07 -0.76,0.67 -1.2,1.21 -0.75,1.62 -1.38,1.34 -2.19,1.34 -3.12,-0 -7.76,-0.12 -10.57,0.04l0.8 -1.37c0.29,-0.97 0.57,-1.48 0.62,-2.66 0.09,-2.09 -0.86,-4.44 -2.33,-5.68 -0.2,-0.17 -0.68,-0.49 -0.83,-0.7 1.64,-0.16 4,-0.02 5.71,-0.02 3.36,0 6.45,-0.5 8.59,2.72 1.7,2.56 0.32,3.65 1.65,3.98 0.73,-0.08 0.64,-0.92 0.53,-1.64 -0.44,-2.95 -2.58,-5.35 -5.47,-6.06 -1.33,-0.33 -2.79,-0.26 -4.42,-0.26 -0.08,-0.29 -2.27,-3.75 -2.6,-4.33 -0.44,-0.76 -0.94,-0.41 -2.14,-0.01 -0.48,0.16 -1.15,0.21 -1.13,0.86l0.56 3.48c-2.08,0 -4.34,-0.09 -6.28,0.09 -2.37,0.21 -4.59,1.91 -5.65,4.02 -1.07,2.13 -0.97,4.56 0.05,6.56 0.2,0.38 0.4,0.66 0.59,1.02 -1.52,-0.13 -2.5,0.02 -3.88,0.63 -0.45,0.2 -0.71,0.4 -0.47,1.01z"/>
   <path class="fil1" d="M3.71 18.11c-0.41,0.12 -0.57,0.4 -0.97,0.61 0.65,1.34 -1,0.93 -1.47,4.1 -0.79,5.3 5.28,8.99 9.63,5.75 4.15,-3.09 2.76,-9.62 -2.24,-10.78 -1.3,-0.3 -2.63,-0.17 -3.84,0.35 -0.6,0.26 -0.55,0.34 -1.12,-0.04z"/>
   <path class="fil1" d="M19.72 17.71c-3,0.47 -5.67,3.3 -5.09,6.93 0.48,3.02 3.29,5.64 6.93,5.08 3,-0.46 5.64,-3.29 5.08,-6.91 -0.46,-2.99 -3.31,-5.66 -6.92,-5.09z"/>
   <path class="fil1" d="M13.12 6.1c-3.04,0.44 -5.69,3.24 -5.17,6.84 0.44,3.06 3.24,5.69 6.87,5.18 3.01,-0.42 5.67,-3.26 5.16,-6.88 -0.43,-3 -3.28,-5.67 -6.85,-5.14z"/>
   <path class="fil2" d="M20.62 15.1l11.96 -0.01c0.43,-0.54 0.27,-1.28 1.2,-1.21 0.07,-0.29 0.15,-0.91 0.24,-1.14 -1.32,-0.32 0.06,-1.42 -1.65,-3.98 -2.14,-3.22 -5.24,-2.72 -8.59,-2.72 -1.72,0 -4.08,-0.14 -5.71,0.02 0.15,0.2 0.63,0.53 0.83,0.7 1.48,1.24 2.42,3.59 2.33,5.68 -0.05,1.17 -0.32,1.69 -0.62,2.66z"/>
   <path class="fil2" d="M27.37 26.65c0.14,0.07 11.15,0.14 11.9,0.01 0.87,-0.94 0.98,-3.5 0.42,-5.06 -0.54,-1.48 -1.68,-2.67 -2.96,-3.32 -1.69,-0.85 -3.65,-0.64 -5.69,-0.64 -1.15,0 -5.5,-0.06 -6.28,0.02 0.16,0.23 4.14,2.81 2.95,7.74 -0.1,0.42 -0.32,0.86 -0.35,1.24z"/>
   <path class="fil3" d="M39.27 26.66c-0.75,0.12 -11.76,0.06 -11.9,-0.01 -0.47,0.4 -0.25,1.15 -2.42,2.92 -0.14,0.11 -0.13,0.12 -0.22,0.21 2.9,0.07 5.89,0 8.81,0.01 1.88,0 3.54,-0.53 4.78,-1.77 0.25,-0.25 0.77,-0.93 0.96,-1.36z"/>
   <path class="fil0" d="M13.1 7.11c-5.06,0.89 -5.71,7.66 -1.23,9.66 2.57,1.14 4.89,-0.04 6.09,-1.51 1.41,-1.73 1.41,-4.6 -0.04,-6.32 -0.2,-0.24 -0.77,-0.97 -1.25,-0.36 -0.7,0.88 1.89,1.67 0.98,4.69 -0.7,2.31 -3.37,3.35 -5.38,2.37 -3.42,-1.68 -2.69,-6.6 0.9,-7.32 0.63,-0.13 1.39,0.04 1.36,-0.7 -0.03,-0.72 -0.84,-0.61 -1.45,-0.5z"/>
   <path class="fil0" d="M17.96 19.42c-0.64,0.18 -1.57,1.39 -1.88,2.01 -1.49,2.95 0.24,6.54 3.39,7.25 2.5,0.56 4.51,-0.76 5.42,-2.15 2.07,-3.15 -0.28,-6.57 -1.23,-6.88 -0.63,-0.21 -1,0.44 -0.72,0.88 0.33,0.51 1.15,0.8 1.49,2.38 0.52,2.35 -1.16,4.24 -3.06,4.62 -3.66,0.72 -5.91,-3.52 -3.84,-6.17 0.4,-0.51 0.87,-0.78 1,-0.93 0.43,-0.47 0.03,-1.17 -0.58,-1.01z"/>
   <path class="fil0" d="M6.5 18.68c-4.39,0.7 -5.23,6.4 -3.41,5.57 0.39,-0.18 0.28,-0.89 0.41,-1.45 0.13,-0.52 0.32,-0.92 0.57,-1.28 0.47,-0.68 1.06,-1.21 2.1,-1.53 3.05,-0.94 6.1,2.24 4.61,5.42 -1.45,3.06 -4.76,1.54 -4.03,3.09 0.36,0.76 3.22,0.27 4.76,-1.96 2.55,-3.68 -0.73,-8.54 -5.01,-7.85z"/>
   <path class="fil0" d="M6.84 20.78c-2.68,0.42 -3.37,3.84 -1.28,5.36 0.95,0.69 2.39,0.71 3.4,0.02 1.1,-0.75 1.73,-2.62 0.93,-2.99 -1.29,-0.6 -0.26,1.67 -2.1,2.22 -2.1,0.64 -3.23,-2.39 -1.2,-3.3 0.92,-0.41 1.22,0.08 1.81,0.17 1.24,0.18 0.87,-1.86 -1.56,-1.48z"/>
   <path class="fil0" d="M13.55 9.18c-1.21,0.18 -2.07,0.97 -2.4,1.99 -0.42,1.3 0.16,2.64 0.87,3.2 1.85,1.47 3.1,0.36 2.35,-0.33 -0.18,-0.17 -2.56,-0.26 -2.12,-2.32 0.23,-1.07 1.52,-1.81 2.69,-1.07 1.61,1.01 -0.08,2.86 1.13,2.98 0.65,0.06 0.82,-0.71 0.86,-1.28 0.13,-1.84 -1.44,-3.46 -3.37,-3.17z"/>
   <path class="fil3" d="M32.58 15.09l-11.96 0.01 -0.8 1.37c2.81,-0.15 7.45,-0.04 10.57,-0.04 0.81,0 1.44,0.28 2.19,-1.34z"/>
   <path class="fil0" d="M20.22 20.78c-3.14,0.49 -3.41,4.8 -0.53,5.75 0.55,0.18 1.35,0.31 1.51,-0.25 0.35,-1.24 -1.62,-0.32 -2.21,-1.96 -0.7,-1.93 1.8,-3.18 2.98,-1.77 0.48,0.57 0.34,1.25 0.56,1.54 0.59,0.79 1.77,-0.32 0.54,-2.08 -0.51,-0.73 -1.55,-1.44 -2.86,-1.23z"/>
   <path class="fil0" d="M22.16 6.92c-0.66,0.19 -0.61,1.12 0.24,1.18l7 -0.03c0.6,-0.15 0.74,-1.15 -0.3,-1.18l-6.94 0.03z"/>
   <path class="fil3" d="M11.37 29.77l5.17 0.02 -0.36 -0.32c-0.59,-0.43 -1.29,-1.22 -1.69,-1.85 -0.22,-0.34 -0.36,-0.74 -0.55,-0.91 -0.52,0.8 -0.86,1.65 -1.78,2.41 -0.24,0.2 -0.56,0.44 -0.79,0.65z"/>
   <path class="fil0" d="M28.86 24.82c-0.17,1.18 0.69,0.91 2.42,0.91 0.54,0 1.07,-0 1.61,0 0.55,0 1.16,0.1 1.33,-0.36 0.45,-1.18 -1.6,-0.85 -2.38,-0.85 -0.54,0 -1.08,0 -1.61,0 -0.81,-0 -0.81,-0.12 -1.37,0.3z"/>
   <path class="fil0" d="M27.41 10.63l3.87 0c1.07,0 1.16,-1.21 -0.08,-1.21l-3.71 0c-0.51,0 -0.88,0.09 -0.87,0.6 0,0.48 0.34,0.61 0.79,0.61z"/>
   <path class="fil0" d="M31.52 22.22l3.78 0c0.51,0 0.86,-0.1 0.87,-0.6 0.01,-0.52 -0.36,-0.61 -0.86,-0.61l-3.79 0c-1.09,0 -1.09,1.21 0,1.21z"/>
   <path class="fil0" d="M28.78 20.01l3.81 0c1.15,0 1.1,-1.21 -0.02,-1.21l-3.79 0c-1.14,0 -1.13,1.21 0,1.21z"/>
   <path class="fil0" d="M22.41 10.63l2.74 0c1.03,0 1.09,-1.21 -0.08,-1.21l-2.58 0c-1.19,0 -1.12,1.21 -0.08,1.21z"/>
   <polygon class="fil2" points="20.56,1.53 21.48,4.72 23.24,4.77 21.19,1.37 "/>
   <path class="fil0" d="M36.68 19.1c-0.54,-0.4 -0.58,-0.31 -1.37,-0.3 -0.55,0.01 -1.08,0.19 -0.84,0.85 0.17,0.46 0.8,0.37 1.33,0.37 0.72,-0 1,-0.12 0.88,-0.92z"/>
   <polygon class="fil3" points="23.24,4.77 21.48,4.72 20.56,1.53 20.12,1.65 20.58,4.82 23.14,4.86 "/>
   <path class="fil3" d="M13.92 20.75c0.07,-0.06 0.05,-0.05 0.12,-0.14 0.05,-0.07 0.05,-0.08 0.09,-0.16l0.63 -1.09 -1.62 0.02 0.77 1.37z"/>
  </g>
 </g>
</svg>
