<?xml version="1.0" encoding="UTF-8"?>
<!DOCTYPE svg PUBLIC "-//W3C//DTD SVG 1.1//EN" "http://www.w3.org/Graphics/SVG/1.1/DTD/svg11.dtd">
<!-- Creator: CorelDRAW -->
<svg xmlns="http://www.w3.org/2000/svg" xml:space="preserve" width="16mm" height="15.3147mm" version="1.1" style="shape-rendering:geometricPrecision; text-rendering:geometricPrecision; image-rendering:optimizeQuality; fill-rule:evenodd; clip-rule:evenodd"
viewBox="0 0 47.64 45.6"
 xmlns:xlink="http://www.w3.org/1999/xlink"
 xmlns:xodm="http://www.corel.com/coreldraw/odm/2003">
 <defs>
  <style type="text/css">
   <![CDATA[
    .fil1 {fill:black}
    .fil9 {fill:#554D55}
    .fil7 {fill:#685D68}
    .fil8 {fill:#786B77}
    .fil3 {fill:#ACBE3D}
    .fil2 {fill:#BED051}
    .fil6 {fill:#F66531}
    .fil4 {fill:#FDD568}
    .fil0 {fill:#FE7849}
    .fil5 {fill:#FEC244}
   ]]>
  </style>
 </defs>
 <g id="Camada_x0020_1">
  <metadata id="CorelCorpID_0Corel-Layer"/>
  <g id="_1433412541600">
   <path class="fil0" d="M26.28 9.62c0.17,0.57 0.08,1.28 0.07,1.88 0.93,0.21 0.66,1.06 0.44,1.92 -0.19,0.76 -0.46,1.46 -0.83,2.06 -0.76,1.25 -1.57,2 -2.32,3.36 -4.94,8.99 -0.34,21.33 8.03,21.99 0,-0.7 -0.1,-1.41 0.71,-1.4 0.8,0.01 0.62,0.71 0.72,1.39 2.06,-0.02 3.87,-1.18 5.24,-2.27 0.35,-0.27 1.7,-1.75 1.98,-2.21 0.18,-0.3 0.08,-0.07 0.12,-0.31 2.06,-5.46 1.6,-11.7 -0.71,-16.73 -0.57,-1.24 -1.18,-2.15 -1.88,-3.14 -0.68,-0.96 -1.47,-1.66 -1.55,-3.38 -0.11,-2.66 0.29,-3.96 -0.98,-6.47 -0.16,-0.31 -0.26,-0.49 -0.44,-0.77 -0.21,-0.34 -0.33,-0.43 -0.54,-0.76 -0.32,-0.17 -0.88,-0.22 -1.27,-0.16 0,1.2 0,2.4 0,3.6 0,0.84 0.39,3.02 -0.77,2.9 -0.97,-0.1 -0.62,-2.09 -0.62,-3 0,-1.18 0,-2.37 0,-3.55 -1.8,0.06 -2.76,0.78 -3.57,1.69 -1.55,1.75 -0.45,3.27 -1.82,3.36z"/>
   <path class="fil1" d="M2.25 21.14c0.5,-0.64 0.55,-0.4 0.27,-1.4 -0.48,-1.73 -0.23,-3.59 0.54,-5.13 0.71,-1.44 2.55,-3.34 3.94,-4.07 3.04,-1.59 6.4,-1.08 8.83,1.29 0.37,0.36 0.66,0.66 1.02,1.02 0.2,0.2 0.83,0.74 0.93,0.94 1.23,0.54 1.38,0.8 3.09,0.94 -0.11,0.34 -0.6,0.96 -0.82,1.32 -1.43,2.36 -2.31,4.93 -2.71,7.71 -0.09,0.62 -0.15,1.22 -0.19,1.84 -0.05,0.82 -0.04,1.24 0.83,1.22 0.73,-0.24 0.54,-0.85 0.61,-1.73 0.16,-1.83 0.59,-3.83 1.27,-5.5 1.59,-3.91 2.49,-4.03 3.4,-5.63 1.33,-2.34 0.14,-5.12 1.31,-7.81 0.81,-1.87 2.87,-4 4.72,-4.29 1.91,-0.87 5.79,-0.44 7.46,0.51 1.73,0.98 3.23,2.56 3.83,4.92 0.75,2.95 -0.58,4.98 1.44,7.41 8.14,9.78 3.82,26.14 -6.51,28.85 -0.63,0.15 -1.71,0.43 -2.42,0.37 0,-0.36 -0,-0.73 -0.01,-1.09 -0.01,-0.52 -0.1,-0.55 0.34,-0.63 3.31,-0.6 1.94,-0.45 4.58,-1.61 0.19,-0.25 2.03,-1.25 3.75,-3.84 0.33,-0.5 0.88,-1.17 0.24,-1.73 -1.16,-0.3 -0.91,0.62 -1.55,1.01 -0.04,0.24 0.06,0.01 -0.12,0.31 -0.27,0.46 -1.63,1.94 -1.98,2.21 -1.37,1.08 -3.18,2.24 -5.24,2.27 -0.09,-0.68 0.08,-1.37 -0.72,-1.39 -0.8,-0.01 -0.71,0.7 -0.71,1.4 -8.36,-0.66 -12.96,-13 -8.03,-21.99 0.75,-1.36 1.56,-2.11 2.32,-3.36 0.37,-0.6 0.63,-1.3 0.83,-2.06 0.22,-0.86 0.5,-1.71 -0.44,-1.92 -0.96,0.12 -0.76,1.11 -1.04,2.02 -0.53,1.67 -1.49,2.42 -2.37,3.77 -3.99,6.17 -3.61,14.85 0.98,20.69 1.24,1.58 3.26,3.12 5.34,3.78 2.79,0.88 2.41,-0.35 2.4,2.19 -5.9,-0.37 -10.06,-4.97 -11.85,-9.68 -0.33,-0.88 -0.63,-1.82 -0.84,-2.79 -0.35,-1.59 -0.13,-2.22 -0.78,-2.71 -0.57,-0.05 -0.45,-0.02 -0.83,0.16 -0.37,1.1 0.53,4.11 0.91,5.2 0.96,2.73 2.76,5.74 4.79,7.49 0.76,0.65 2.62,2.13 3.57,2.46 -1.14,0.2 -5.38,0.01 -6.05,-0.64 -0.75,0.02 -2.85,-1.02 -3.47,-1.37 -5.26,-3 -9.07,-7.98 -9.79,-14.31 -0.27,-2.38 -1.37,-3.1 -2.75,-4.51 -0.38,-0.39 -0.65,-0.89 -1.44,-0.55 -1.14,1.07 1.75,2.02 2.54,4.09 0.38,0.99 0.33,5.12 2.95,9.05l0.93 1.4c0.65,0.93 1.46,1.78 2.26,2.58l1.26 1.16c1.48,1.41 4.18,2.81 6.04,3.54 5.36,2.11 9.72,0.47 10.13,0.5 0.46,0.03 1.97,0.44 3.18,0.37 0.25,-0.01 0.75,-0.04 1.14,-0.06 0.67,-0.03 1.47,-0.23 2.05,-0.37 1.78,-0.44 3.43,-1.28 4.83,-2.34 1.01,-0.76 1.66,-1.43 2.5,-2.34l1.06 -1.36c0.19,-0.25 0.31,-0.44 0.48,-0.73 1.21,-2.05 1.88,-3.37 2.5,-5.87 0.35,-1.4 0.56,-2.86 0.63,-4.31l0 -2.17c-0.04,-0.76 -0.11,-1.51 -0.23,-2.24 -0.46,-2.96 -1.6,-6.19 -3.39,-8.62 -1.82,-2.46 -1.8,-1.76 -1.78,-5.38 0.01,-3.31 -1.38,-6.18 -4.02,-7.99 -0.49,-0.33 -1.02,-0.61 -1.57,-0.85 -2.18,-0.98 -6.15,-1 -8.24,-0.15 -1.13,0.46 -2.78,1.44 -3.54,2.42 -1.44,1.86 -2.38,3.46 -2.37,6.1 0.01,1.22 0.14,2.4 -0.19,3.43 -0.11,0.35 -0.29,0.58 -0.36,0.85 -0.7,0 -2.09,-0.18 -2.58,-0.4 -0.87,-0.39 -1.11,-0.73 -1.73,-1.34 -0.98,-0.98 -2.08,-2.09 -3.39,-2.66 -5.48,-2.34 -8.84,1.01 -9.33,1.14 -0.01,-0.47 -0.25,-1.1 -0.35,-1.51 -0.14,-0.56 -0.31,-0.98 -0.76,-1.19 -1.06,-0.5 -1.96,0.8 -2.45,1.28 -0.36,0.36 -1.22,0.98 -1.37,1.73l0 0.45c0.01,0.06 0.03,0.13 0.06,0.2 0.32,0.79 2.33,1.17 2.73,1.18 -0.07,0.26 -0.41,0.65 -0.58,0.91 -1.17,1.88 -1.6,3.9 -1.25,6.12 0.21,1.36 0.36,1.81 1.28,1.81z"/>
   <path class="fil2" d="M2.25 21.14c0.25,0.58 0.52,1.09 0.92,1.55 0.78,-0.35 1.05,0.15 1.44,0.55 1.38,1.41 2.48,2.13 2.75,4.51 0.72,6.33 4.53,11.31 9.79,14.31 0.61,0.35 2.72,1.39 3.47,1.37 -0.01,-0.01 -0.95,-1.07 -1.1,-1.22 -0.39,-0.41 -0.74,-0.91 -1.11,-1.4 -4.75,-6.22 -5.62,-16.54 -2.27,-23.74l1.65 -3.27c-0.1,-0.2 -0.73,-0.75 -0.93,-0.94 -0.36,-0.36 -0.66,-0.67 -1.02,-1.02 -2.43,-2.37 -5.8,-2.88 -8.83,-1.29 -1.38,0.72 -3.22,2.62 -3.94,4.07 -0.76,1.54 -1.02,3.41 -0.54,5.13 0.28,1 0.23,0.76 -0.27,1.4z"/>
   <path class="fil1" d="M29.94 17.49c-1.49,0.44 -1.86,1.33 -1.83,3.09 -1.45,0.76 -2,1.24 -1.76,3.17 -2.52,0.54 -2.46,4.3 0.01,4.81 -0.11,0.78 -0.11,1.42 0.29,2.04 0.45,0.71 0.77,0.73 1.49,1.15 -0.08,0.78 -0.02,1.47 0.35,2.03 0.31,0.46 0.8,0.89 1.48,1.04 -0.5,3.31 3.01,4.04 4.38,2.25 0.54,-0.7 0.57,-1.28 0.44,-2.25 1.32,-0.3 2.03,-1.47 1.82,-3.06 0.23,-0.16 0.54,-0.23 0.78,-0.39 0.92,-0.64 1.18,-1.64 1.01,-2.8 2.65,-0.63 2.35,-4.32 -0,-4.8 0.25,-1.87 -0.45,-2.6 -1.81,-3.16 0.33,-2.41 -1.04,-2.63 -1.8,-3.18 0.45,-3 -2.84,-4.13 -4.4,-2.18 -0.51,0.63 -0.54,1.32 -0.45,2.25z"/>
   <path class="fil3" d="M20.61 43.43c0.67,0.65 4.91,0.83 6.05,0.64 -0.95,-0.33 -2.81,-1.81 -3.57,-2.46 -2.03,-1.74 -3.83,-4.76 -4.79,-7.49 -0.38,-1.09 -1.28,-4.1 -0.91,-5.2 0.38,-0.18 0.25,-0.21 0.83,-0.16 -0.08,-0.06 0.08,-0.1 -0.34,-0.17 -0.03,-0.55 -0.21,-1.4 0.11,-1.76 -0.86,0.03 -0.88,-0.39 -0.83,-1.22 0.04,-0.62 0.1,-1.22 0.19,-1.84 0.4,-2.78 1.28,-5.35 2.71,-7.71 0.21,-0.35 0.71,-0.98 0.82,-1.32 -1.71,-0.14 -1.86,-0.4 -3.09,-0.94l-1.65 3.27c-3.36,7.19 -2.48,17.52 2.27,23.74 0.37,0.49 0.72,0.99 1.11,1.4 0.15,0.15 1.09,1.21 1.1,1.22z"/>
   <path class="fil4" d="M17.97 26.82c-0.32,0.36 -0.14,1.22 -0.11,1.76 0.42,0.07 0.27,0.11 0.34,0.17 0.65,0.48 0.44,1.12 0.78,2.71 0.21,0.97 0.51,1.91 0.84,2.79 1.78,4.71 5.95,9.31 11.85,9.68 0.01,-2.53 0.39,-1.3 -2.4,-2.19 -2.08,-0.66 -4.1,-2.19 -5.34,-3.78 -4.59,-5.84 -4.97,-14.52 -0.98,-20.69 0.87,-1.35 1.84,-2.11 2.37,-3.77 0.29,-0.91 0.08,-1.9 1.04,-2.02 0,-0.6 0.1,-1.31 -0.07,-1.88 -0.56,-0.15 -0.66,-0.34 -0.6,-1.03 0.1,-1.23 0.69,-2.47 1.44,-3.31 0.91,-1.03 2.27,-2.02 4.35,-2.1l0.94 -0.08c-0.1,-0.09 0,-0.02 -0.16,-0.15 -0.57,-0.47 -2.23,-1.09 -2.97,-1.09 -1.85,0.29 -3.91,2.43 -4.72,4.29 -1.17,2.69 0.02,5.47 -1.31,7.81 -0.91,1.59 -1.81,1.72 -3.4,5.63 -0.68,1.66 -1.11,3.66 -1.27,5.5 -0.08,0.88 0.12,1.49 -0.61,1.73z"/>
   <path class="fil5" d="M29.28 1.86c0.74,-0 2.4,0.62 2.97,1.09 0.16,0.13 0.06,0.05 0.16,0.15l-0.94 0.08c1.89,-0.05 3.29,-0.04 4.71,0.86 1.07,0.68 2.05,1.65 2.56,3.12 1.12,3.25 -0.99,4.99 2.25,9.01 1.58,1.96 2.86,4.77 3.33,7.94 0.37,2.51 0.26,5.12 -0.38,7.58 -0.24,0.93 -0.23,1.69 -1.26,1.63l-0.7 1.7c0.63,0.55 0.09,1.22 -0.24,1.73 -1.72,2.59 -3.56,3.59 -3.75,3.84 -0.13,0.37 -0.91,1.3 -1.18,1.55 -0.39,0.37 -1.02,0.93 -1.32,1.41 10.33,-2.71 14.65,-19.06 6.51,-28.85 -2.02,-2.42 -0.69,-4.45 -1.44,-7.41 -0.6,-2.36 -2.09,-3.94 -3.83,-4.92 -1.67,-0.95 -5.55,-1.38 -7.46,-0.51z"/>
   <path class="fil1" d="M26.28 9.62c1.37,-0.1 0.27,-1.62 1.82,-3.36 0.81,-0.91 1.77,-1.63 3.57,-1.69 0,1.18 0,2.37 0,3.55 0,0.9 -0.35,2.9 0.62,3 1.16,0.11 0.77,-2.06 0.77,-2.9 0,-1.2 0,-2.4 0,-3.6 0.38,-0.06 0.95,-0.01 1.27,0.16 1.23,0.28 2.22,1.2 2.74,2.1 1.39,2.36 -0.23,4.74 1.48,8.19 1.21,2.44 3.79,3.86 4.47,9.96 0.25,2.23 0.07,4.49 -0.53,6.62 -0.24,0.87 -0.52,1.14 0.18,1.67 1.03,0.06 1.01,-0.7 1.26,-1.63 0.64,-2.46 0.75,-5.07 0.38,-7.58 -0.47,-3.17 -1.75,-5.98 -3.33,-7.94 -3.24,-4.03 -1.13,-5.76 -2.25,-9.01 -0.51,-1.47 -1.49,-2.44 -2.56,-3.12 -1.42,-0.9 -2.82,-0.91 -4.71,-0.86 -2.08,0.08 -3.44,1.06 -4.35,2.1 -0.75,0.85 -1.33,2.08 -1.44,3.31 -0.06,0.69 0.04,0.89 0.6,1.03z"/>
   <path class="fil6" d="M40.44 36.02c0.64,-0.4 0.39,-1.32 1.55,-1.01l0.7 -1.7c-0.7,-0.53 -0.42,-0.8 -0.18,-1.67 0.6,-2.13 0.77,-4.4 0.53,-6.62 -0.68,-6.1 -3.26,-7.52 -4.47,-9.96 -1.72,-3.46 -0.09,-5.83 -1.48,-8.19 -0.52,-0.89 -1.51,-1.81 -2.74,-2.1 0.21,0.33 0.33,0.43 0.54,0.76 0.18,0.28 0.28,0.47 0.44,0.77 1.27,2.51 0.87,3.81 0.98,6.47 0.07,1.72 0.87,2.42 1.55,3.38 0.7,1 1.32,1.9 1.88,3.14 2.3,5.03 2.77,11.27 0.71,16.73z"/>
   <path class="fil4" d="M35.49 43.53c0.3,-0.47 0.93,-1.04 1.32,-1.41 0.27,-0.25 1.05,-1.18 1.18,-1.55 -2.65,1.16 -1.28,1 -4.58,1.61 -0.44,0.08 -0.35,0.12 -0.34,0.63 0,0.36 0.01,0.72 0.01,1.09 0.71,0.07 1.79,-0.21 2.42,-0.37z"/>
   <path class="fil7" d="M30.23 18.87c-1.34,0.48 -0.79,2.55 0.73,2.07 1.26,-0.4 0.66,-2.56 -0.73,-2.07z"/>
   <path class="fil8" d="M37.45 25.13c-0.38,0.15 -0.5,0.2 -0.65,0.52 -0.45,0.97 0.44,1.84 1.35,1.54 1.34,-0.45 0.66,-2.58 -0.7,-2.06z"/>
   <path class="fil7" d="M35.56 28.29c-1.39,0.66 -0.47,2.5 0.85,2 1.29,-0.48 0.54,-2.66 -0.85,-2z"/>
   <path class="fil7" d="M35.53 22.04c-1.31,0.57 -0.48,2.55 0.87,2.01 1.23,-0.49 0.6,-2.65 -0.87,-2.01z"/>
   <path class="fil9" d="M33.93 25.09c-1.39,0.32 -0.91,2.48 0.53,2.13 1.41,-0.34 0.87,-2.45 -0.53,-2.13z"/>
   <path class="fil8" d="M31.91 22.04c-1.34,0.64 -0.42,2.56 0.93,1.98 1.25,-0.55 0.43,-2.62 -0.93,-1.98z"/>
   <path class="fil8" d="M26.65 25.12c-1.47,0.51 -0.65,2.56 0.7,2.06 1.27,-0.47 0.7,-2.54 -0.7,-2.06z"/>
   <path class="fil9" d="M33.81 18.89c-0.48,0.19 -0.9,0.57 -0.69,1.32 0.15,0.54 0.75,0.96 1.46,0.71 1.32,-0.47 0.56,-2.57 -0.77,-2.03z"/>
   <path class="fil9" d="M28.36 28.27c-1.22,0.49 -0.66,2.55 0.81,2.04 1.25,-0.43 0.62,-2.62 -0.81,-2.04z"/>
   <path class="fil8" d="M32.13 15.72c-1.45,0.35 -0.95,2.43 0.49,2.13 1.31,-0.27 0.92,-2.47 -0.49,-2.13z"/>
   <path class="fil8" d="M32.01 34.51c-1.35,0.52 -0.63,2.56 0.79,2.04 1.17,-0.43 0.64,-2.59 -0.79,-2.04z"/>
   <path class="fil9" d="M28.32 22.06c-0.08,0.04 -0.35,0.03 -0.55,0.52 -0.11,0.27 -0.12,0.58 -0.02,0.86 0.18,0.49 0.82,0.89 1.48,0.59 1.18,-0.53 0.51,-2.66 -0.91,-1.97z"/>
   <path class="fil7" d="M30.26 25.12c-1.46,0.48 -0.7,2.49 0.64,2.08 1.26,-0.38 0.77,-2.55 -0.64,-2.08z"/>
   <path class="fil9" d="M33.91 31.36c-1.51,0.47 -0.73,2.52 0.63,2.08 1.21,-0.39 0.76,-2.52 -0.63,-2.08z"/>
   <path class="fil8" d="M31.95 28.3c-0.56,0.26 -0.84,0.79 -0.59,1.4 0.2,0.48 0.84,0.89 1.5,0.57 1.15,-0.55 0.46,-2.6 -0.91,-1.97z"/>
   <path class="fil7" d="M30.34 31.34c-1.29,0.33 -0.98,2.48 0.51,2.13 1.37,-0.32 0.89,-2.49 -0.51,-2.13z"/>
   <polygon class="fil3" points="1.6,10.56 3.75,11.13 3.21,9 "/>
  </g>
 </g>
</svg>
