<?xml version="1.0" encoding="UTF-8"?>
<!DOCTYPE svg PUBLIC "-//W3C//DTD SVG 1.1//EN" "http://www.w3.org/Graphics/SVG/1.1/DTD/svg11.dtd">
<!-- Creator: CorelDRAW -->
<svg xmlns="http://www.w3.org/2000/svg" xml:space="preserve" width="15.9841mm" height="16mm" version="1.1" style="shape-rendering:geometricPrecision; text-rendering:geometricPrecision; image-rendering:optimizeQuality; fill-rule:evenodd; clip-rule:evenodd"
viewBox="0 0 55.47 55.52"
 xmlns:xlink="http://www.w3.org/1999/xlink"
 xmlns:xodm="http://www.corel.com/coreldraw/odm/2003">
 <defs>
  <style type="text/css">
   <![CDATA[
    .str0 {stroke:#E19974;stroke-width:0.69;stroke-miterlimit:22.9256}
    .fil0 {fill:black}
    .fil2 {fill:#908190}
    .fil3 {fill:#DB8658}
    .fil5 {fill:#E19974}
    .fil4 {fill:#E19974}
    .fil1 {fill:#E7AC8B}
   ]]>
  </style>
 </defs>
 <g id="Camada_x0020_1">
  <metadata id="CorelCorpID_0Corel-Layer"/>
  <path class="fil0" d="M23.87 47.39c0.89,-0.91 0.57,-0.49 0.22,-2.43 -0.66,-3.71 0.58,-4.99 -0.14,-8.99 -0.35,-1.94 -0.62,-3.86 0.32,-5.49 0.72,-1.27 2.09,-2.37 4.11,-2.39 2.51,0.09 4.38,1.77 4.68,4.09 0.23,1.78 0.1,6.46 -0.16,8.26 -0.75,5.12 -2.39,6.13 -3.27,9.62 -0.37,1.48 -0.23,2.39 -0.39,3.82 -0.38,-0.34 -0.85,-0.92 -1.09,-1.38 -0.22,-0.04 -0.2,-0.13 -0.38,-0.36l-1.86 -2.48c-0.29,-0.48 -0.5,-0.61 -1.21,-0.44 -0.54,0.43 -0.57,0.77 -0.16,1.37 0.96,1.39 1.66,2.24 2.73,3.56 0.36,0.45 0.87,1.19 1.6,1.38l0.75 0c0.12,-0.03 0.24,-0.07 0.36,-0.13 1.1,-0.54 0.98,-1.68 1,-3.23 0.04,-3.61 3.69,-7.21 3.69,-13.12 1.21,0.81 3.06,1.67 3.86,2.21 1.79,1.24 1.62,3.05 2.41,3.66 0.68,0.52 1.54,0.5 2.21,-0 0.73,-0.54 0.63,-1.22 0.63,-2.41 -0,-2.06 -0,-4.12 -0,-6.18 0.67,0.01 1.86,0.49 2.42,0.73 4.28,1.85 5.45,5.41 6.84,5.96 1.35,0.54 2.64,-0.62 2.4,-1.96 -0.09,-0.48 -0.18,-0.94 -0.26,-1.37 -0.19,-0.93 -0.31,-1.79 -0.51,-2.75 -0.37,-1.83 -0.54,-3.65 -1.17,-5.22 -0.29,-0.73 -0.71,-1.43 -1.13,-2.01 -1.73,-2.36 -2.6,-2.11 -5.09,-4.56l-1.57 -1.68c-0.63,-0.63 -1.01,-1.31 -1.98,-0.68 -0.36,0.84 0.03,1.21 1.09,2.11 0.38,0.33 0.53,0.6 0.87,0.98 3.53,4.03 5.68,2.54 6.99,9.38 0.18,0.93 1.15,5.69 1.05,6.25 -0.32,-0.19 -1.45,-1.64 -1.78,-2.06 -0.27,-0.34 -0.64,-0.75 -0.92,-1.03 -0.37,-0.39 -0.73,-0.57 -1.04,-1.05l-2.25 -1.4c-2.41,-1.34 -4.56,-1.14 -7.08,-3.01l-0.35 -0.3 0.79 -1.18c0.89,-1.27 -0.84,-2.37 -2.08,-0.01 -0.37,-0.17 -0.9,-0.67 -1.15,-0.93 -0.61,-0.66 -1.37,-1.11 -2.05,-1.96 -0.23,-0.28 -0.52,-0.84 -0.67,-1.28 -0.37,-1.09 -0.24,-2.31 0.25,-3.26 0.33,-0.64 1.34,-1.84 2.1,-1.87 0.92,-0.9 3.43,-0.1 3.51,-0.09 0.58,0.05 0.73,-0.32 0.94,-0.49 0,-0.84 -0.32,-1.07 -1.02,-1.26 -1.79,-0.5 -3.04,-0.31 -4.62,0.51 -0.38,0.2 -0.38,0.26 -0.78,0.02l-3.49 -2.16c-0.81,-0.47 -0.5,-1.14 -0.5,-2.97l0 -13.66c0,-0.31 0.17,-1.81 -0.55,-2.06l-0.49 0c-0.06,0.02 -0.12,0.04 -0.19,0.06 -0.41,0.16 -0.37,0.39 -0.5,0.76 0.17,0.33 0.07,13.79 0.07,16.31 -0,1.28 -0,1.83 0.75,2.54 0.44,0.41 3.42,2.27 3.98,2.5 -0.15,0.37 0.03,0.03 -0.21,0.41 -0.08,0.12 -0.13,0.18 -0.22,0.32 -0.16,0.26 -0.24,0.44 -0.35,0.75 -1.02,-0.36 -2.91,-2.17 -4,-1.98 -1.48,0.26 -1.06,2.59 -1.07,4.76l-1.68 0.15c0,-1.02 -0,-2.04 0,-3.05 0.01,-4.28 -3.29,-0.97 -4.72,-0.35 -0.17,-0.27 -0.27,-0.43 -0.51,-0.68 -0.21,-0.22 -0.36,-0.34 -0.5,-0.6 0.43,-0.41 1.64,-1.05 2.19,-1.4 3.05,-1.94 2.42,-1.47 2.42,-8.33 0.77,-0.18 1.7,0.1 1.69,-0.89 -0.01,-0.95 -0.84,-0.7 -1.69,-0.83l-0 -5.87c0.77,-0.18 1.7,0.1 1.69,-0.89 -0.01,-0.94 -0.84,-0.71 -1.69,-0.83l0.06 -2.04c-0.16,-0.45 -0.16,-0.77 -0.77,-0.83l-0.23 0c-1.1,0.11 -0.73,1.9 -0.73,3.58l0.01 13.78c0,0.91 -0.26,0.92 -1.42,1.61l-2.42 1.49c-1.5,0.9 -0.15,0.13 -2.79,-0.07 -0.81,-0.06 -1.95,0.27 -2.52,0.51 -1.31,0.55 -4.33,2.8 -5.3,4.03 -1.24,1.57 -1.31,3.23 -1.86,4.32 -1.27,2.53 -3.81,3 -5.36,6.9 -1.03,2.59 -0.61,3.29 -1.05,5.02 -0.21,0.83 -0.54,1.44 -0.99,2.04 -0.45,0.6 -0.84,1.48 -0.29,2.25 1.08,1.5 2.58,0.48 4.19,-0.19 2.19,-0.92 3.28,-1.18 4.68,-3.02 1.79,-2.35 0.07,-2.92 3.8,-5.42 0.34,-0.23 0.64,-0.51 1.02,-0.61 0,0.73 0.63,4.55 0.76,5.75 0.07,0.65 0.26,2.3 0.48,2.77 0.32,0.67 1.28,1.21 2.24,0.82 0.78,-0.32 0.98,-1.18 1.29,-1.96 0.82,-2.04 0.9,-2.6 2.18,-4.32 0.36,-0.48 1.14,-1.32 1.61,-1.64 0,1.29 0.19,0.73 -0.09,2.62l-0.23 2.79c0.07,0.85 0.3,3.06 0.64,3.81 0.19,0.41 0.42,0.54 1.02,0.54z"/>
  <path class="fil1" d="M23.87 47.39c0.18,0.6 0.5,1.28 0.83,1.82 0.71,-0.18 0.92,-0.04 1.21,0.44l1.86 2.48c0.19,0.23 0.16,0.32 0.38,0.36 0.26,-0.09 0.16,-0.21 0.16,-0.64l0.13 -2.13c0.09,-0.93 0.22,-1.82 0.41,-2.72 0.26,-1.24 1.27,-4.02 1.24,-4.97 -0.74,0.47 -3.5,0.78 -3.21,-0.68 0.15,-0.76 0.97,-0.61 1.82,-0.61 0.91,-0 1.38,-0.07 1.51,0.8 0.69,-1.2 0.68,-5.84 0.47,-7.42 -0.3,-2.19 -1.16,-4.6 -2.31,-6.03 -2.03,0.02 -3.39,1.12 -4.11,2.39 -0.93,1.64 -0.67,3.56 -0.32,5.49 0.72,3.99 -0.52,5.28 0.14,8.99 0.34,1.94 0.66,1.52 -0.22,2.43z"/>
  <path class="fil2" d="M29.79 0.82c-0.62,-0.13 -3.19,-0.14 -3.8,0.01l-0.06 2.04c0.85,0.12 1.68,-0.11 1.69,0.83 0.01,1 -0.92,0.71 -1.69,0.89l0 5.87c0.85,0.12 1.68,-0.12 1.69,0.83 0.01,0.99 -0.92,0.71 -1.69,0.89 0,6.86 0.63,6.39 -2.42,8.33 -0.55,0.35 -1.76,0.99 -2.19,1.4 0.14,0.26 0.28,0.37 0.5,0.6 0.24,0.25 0.34,0.4 0.51,0.68 1.43,-0.62 4.74,-3.93 4.72,0.35 -0,1.02 -0,2.04 -0,3.05l1.68 -0.15c0.01,-2.17 -0.41,-4.5 1.07,-4.76 1.09,-0.19 2.98,1.62 4,1.98 0.11,-0.31 0.19,-0.49 0.35,-0.75 0.09,-0.14 0.15,-0.2 0.22,-0.32 0.24,-0.38 0.07,-0.04 0.21,-0.41 -0.56,-0.23 -3.54,-2.09 -3.98,-2.5 -0.76,-0.71 -0.76,-1.27 -0.75,-2.54 0.01,-2.53 0.1,-15.98 -0.07,-16.31z"/>
  <path class="fil1" d="M3.05 42.19c0.15,0.28 -0.03,0.14 0.27,-0.01l2.16 -1.86c2.47,-2.4 2.64,-3.69 4.07,-5.26 0.64,-0.71 1.64,-1.45 2.6,-2.06 2.1,-1.34 3.63,-2.21 5.56,-3.77 0.63,-0.5 1.54,-1.65 1.89,-2.77 0.47,-1.53 0.1,-2.58 -0.36,-3.92 -1.48,-1.09 -3.5,-0.23 -4.82,0.69l-1.25 0.95c0.36,0.55 1.8,1.45 1.33,2.21 -0.67,0.48 -0.92,0.58 -1.54,-0.02 -0.38,-0.37 -0.82,-0.79 -1.14,-1.16 -1.65,1.18 -1.61,3.95 -3.05,5.92 -0.19,0.27 -0.43,0.47 -0.55,0.78 0.29,0.27 1.33,0.95 0.66,1.71 -0.72,0.82 -1.52,-0.39 -1.83,-0.64 -0.49,0.23 -1.3,1.15 -1.66,1.6 -1.04,1.33 -1.69,2.93 -1.9,4.72 -0.07,0.59 -0.45,2.61 -0.44,2.88z"/>
  <path class="fil1" d="M49.99 37.35c0.41,-0.57 -0.94,-4.28 -1.24,-4.86 -0.35,0.31 -0.62,0.83 -0.98,1.22 -0.35,0.38 -1.06,0.5 -1.36,-0.12 -0.4,-0.81 1.1,-2.01 1.38,-2.58 0.12,-0.41 -0.01,-0.44 -0.26,-0.82l-1.51 -2.07c-0.48,-0.59 -1.83,-2.02 -2.41,-2.47 -1.22,-0.94 -4.79,-3.65 -6.12,-3.5 -0.76,0.03 -1.76,1.23 -2.1,1.87 -0.49,0.94 -0.62,2.17 -0.25,3.26 0.15,0.44 0.45,1.01 0.67,1.28 0.69,0.84 1.44,1.3 2.05,1.96 0.25,0.27 0.78,0.76 1.15,0.93 1.24,-2.36 2.97,-1.26 2.08,0.01l-0.79 1.18 0.35 0.3c2.52,1.87 4.67,1.67 7.08,3.01l2.25 1.4z"/>
  <path class="fil3" d="M30.36 26.76c1.68,0.77 2.89,1.49 3.75,3.29 1.04,2.19 0.44,4.08 0.62,6.5 0.13,1.76 4.96,2.12 6.76,5.75 0.2,0.4 0.32,0.97 0.55,1.31 0.13,-0.24 0.11,-0.61 0.11,-0.89 -0.01,-1.25 0.09,-6.6 -0.1,-6.99 -0.02,-0.03 -0.05,-0.09 -0.06,-0.07 -0.01,0.02 -0.04,-0.05 -0.06,-0.07 -0.19,-0.17 0.01,-0.02 -0.2,-0.16l-1.21 -0.64c-1.26,-0.77 -2.25,-1.7 -3.31,-2.66 -2.19,-1.99 -3.91,-3.1 -3.91,-6.78 -0.37,-0.33 -2.46,-1.65 -2.95,-1.82l-0 3.21z"/>
  <path class="fil4 str0" d="M3.05 42.19c-0.27,0.28 -0.32,0.69 -0.65,1.24 -0.28,0.46 -0.51,0.71 -0.72,1.17 0.99,-0.23 2.86,-1.15 3.9,-1.58 1.28,-0.52 2.28,-1.5 2.77,-2.76 0.76,-1.95 0.72,-2.28 1.98,-3.55 0.82,-0.82 5.29,-3.62 6.59,-4.47 2.11,-1.37 4.98,-3.53 4.66,-6.43 -0.17,-1.52 -1.22,-2.84 -2.34,-3.26 0.45,1.34 0.83,2.39 0.36,3.92 -0.34,1.12 -1.26,2.27 -1.89,2.77 -1.94,1.56 -3.47,2.42 -5.56,3.77 -0.97,0.62 -1.96,1.36 -2.6,2.06 -1.43,1.57 -1.6,2.85 -4.07,5.26l-2.16 1.86c-0.3,0.15 -0.12,0.29 -0.27,0.01z"/>
  <path class="fil5" d="M30.22 41.55l-0.12 0.49c0.03,0.94 -0.98,3.73 -1.24,4.97 -0.18,0.9 -0.31,1.78 -0.41,2.72l-0.13 2.13c-0.01,0.43 0.09,0.54 -0.16,0.64 0.24,0.46 0.71,1.05 1.09,1.38 0.16,-1.43 0.02,-2.34 0.39,-3.82 0.87,-3.48 2.51,-4.49 3.27,-9.62 0.26,-1.79 0.39,-6.48 0.16,-8.26 -0.3,-2.32 -2.17,-4 -4.68,-4.09 1.15,1.43 2.01,3.84 2.31,6.03 0.21,1.58 0.22,6.22 -0.47,7.42z"/>
  <path class="fil3" d="M23.07 24.64c-0.04,1.24 0.35,1.71 -0.05,3.19 -0.96,3.55 -5.09,5.5 -7.1,7 -0.66,0.49 -0.21,2.19 -0.1,3 0.07,0.48 0.62,5.78 0.96,6.2 1.07,-2.97 1.63,-4.45 3.59,-6.69 0.55,-0.63 1.17,-1.04 1.84,-1.65 -0.21,-3.36 -0.74,-6.11 3.2,-8.49l0.01 -3.94c-0.83,0.42 -1.53,0.98 -2.35,1.39z"/>
  <path class="fil5" d="M37.49 22.16c1.33,-0.15 4.9,2.56 6.12,3.5 0.59,0.45 1.94,1.87 2.41,2.47l1.51 2.07c0.25,0.38 0.37,0.41 0.26,0.82 1.33,-0.32 1.5,0.52 0.96,1.48 0.3,0.58 1.65,4.29 1.24,4.86 0.31,0.48 0.67,0.67 1.04,1.05 0.28,0.29 0.65,0.69 0.92,1.03 0.32,0.41 1.46,1.87 1.78,2.06 0.1,-0.56 -0.88,-5.32 -1.05,-6.25 -1.31,-6.84 -3.47,-5.35 -6.99,-9.38 -0.33,-0.38 -0.48,-0.65 -0.87,-0.98 -1.05,-0.9 -1.44,-1.27 -1.09,-2.11l-1.79 -1.19c-0.21,0.17 -0.36,0.54 -0.94,0.49 -0.08,-0.01 -2.59,-0.81 -3.51,0.09z"/>
  <path class="fil0" d="M25.42 33.57c-0.72,0.37 -0.66,1.5 0.57,1.53 0.52,0.01 2.59,0.06 2.91,-0.1 0.67,-0.33 0.68,-1.46 -0.52,-1.53 -0.59,-0.03 -2.57,-0.11 -2.97,0.1z"/>
  <path class="fil0" d="M47.8 31.01c-0.28,0.57 -1.79,1.77 -1.38,2.58 0.31,0.61 1.01,0.5 1.36,0.12 0.36,-0.39 0.63,-0.9 0.98,-1.22 0.54,-0.96 0.37,-1.79 -0.96,-1.48z"/>
  <path class="fil0" d="M30.1 42.04l0.12 -0.49c-0.13,-0.87 -0.6,-0.8 -1.51,-0.8 -0.85,0 -1.67,-0.15 -1.82,0.61 -0.29,1.46 2.47,1.15 3.21,0.68z"/>
 </g>
</svg>
