<?xml version="1.0" encoding="UTF-8"?>
<!DOCTYPE svg PUBLIC "-//W3C//DTD SVG 1.1//EN" "http://www.w3.org/Graphics/SVG/1.1/DTD/svg11.dtd">
<!-- Creator: CorelDRAW -->
<svg xmlns="http://www.w3.org/2000/svg" xml:space="preserve" width="13.891mm" height="16mm" version="1.1" style="shape-rendering:geometricPrecision; text-rendering:geometricPrecision; image-rendering:optimizeQuality; fill-rule:evenodd; clip-rule:evenodd"
viewBox="0 0 32.68 37.64"
 xmlns:xlink="http://www.w3.org/1999/xlink"
 xmlns:xodm="http://www.corel.com/coreldraw/odm/2003">
 <defs>
  <style type="text/css">
   <![CDATA[
    .fil1 {fill:black}
    .fil3 {fill:#5DA46F}
    .fil2 {fill:#E28423}
    .fil0 {fill:#E7A42D}
   ]]>
  </style>
 </defs>
 <g id="Camada_x0020_1">
  <metadata id="CorelCorpID_0Corel-Layer"/>
  <g id="_1433413249392">
   <path class="fil0" d="M12.36 36.44c0.34,-0.09 1.02,-0.04 1.5,-0.11 1.3,-0.21 2.52,-0.54 3.74,-0.97 3.64,-1.28 6.77,-3.6 9.01,-6.67 2.51,-3.44 3.53,-7.86 2.6,-12.45 -0.56,-2.77 -2.12,-5.13 -4.22,-6.75 -0.21,-0.16 -0.78,-0.51 -0.81,-0.67 -1.04,-0.19 -1.19,-0.43 -2.77,-0.51 -2.11,-0.11 -3.76,0.35 -5.54,1.25 -0.81,0.41 -1.42,0.91 -2.03,1.42 -1.03,0.85 -2.16,2.34 -2.82,4.03 -0.81,2.08 -0.82,3.65 -0.54,5.99 0.51,4.3 -1.12,8.31 -3.45,10.11 -0.65,0.5 -1.38,0.77 -1.49,1.9 -0.1,1.14 0.58,1.83 1.28,2.16 0.92,0.44 4.45,1.55 5.54,1.27z"/>
   <path class="fil1" d="M11.05 7.47c0.27,0.15 0.27,0.4 0.77,0.26 0.21,-0.06 0.55,-0.25 0.78,-0.33 1.62,-0.61 4.34,-0.69 5.35,0.15 -0.55,0.31 -1.6,0.39 -3.21,1.4 -0.73,0.45 -2,1.43 -2.54,2.09 -1.39,1.69 -2.51,3.43 -2.91,6.36 -1.37,0.21 -2.56,0.33 -3.99,0.24 -0.94,-0.06 -3,-0.27 -3.68,-0.68 3.98,-0.7 5.38,-3.52 6.94,-6.11 1.18,-1.98 1.77,-1.5 1.4,-2.58 -0.72,-0.35 -1.2,0.32 -1.76,1.1 -0.15,0.21 -0.32,0.42 -0.46,0.65 -1.06,1.68 -1.63,3.41 -3.74,4.8 -1.85,1.22 -2.57,0.9 -3.21,1.13 -0.46,0.17 -0.85,0.67 -0.76,1.36 0.06,0.46 0.97,1.45 1.38,1.78 0.69,0.55 0.8,0.77 1.78,1.46 1.26,0.89 2.78,1.66 4.35,2.05 0.46,0.11 1.4,0.31 1.9,0.31 0,2.68 -1.26,6.1 -3.3,7.45 -0.32,0.21 -0.64,0.38 -0.88,0.67 -1.14,1.37 -1.14,3.08 0.03,4.41 0.78,0.89 3.15,1.57 4.36,1.82 5.12,1.05 10.79,-0.19 14.83,-2.89 0.87,-0.58 1.87,-1.27 2.62,-2.01 0.33,-0.32 0.53,-0.46 0.27,-0.97 -0.73,-0.28 -0.63,-0.21 -1.61,0.66 -0.39,0.35 -0.98,0.77 -1.47,1.11 -2.73,1.87 -6.16,3.07 -9.55,3.32 -0.4,0.03 -0.8,0.05 -1.2,0.05l-1.19 -0.09c-1.09,0.28 -4.62,-0.83 -5.54,-1.27 -0.7,-0.33 -1.39,-1.02 -1.28,-2.16 0.1,-1.13 0.84,-1.4 1.49,-1.9 2.33,-1.8 3.95,-5.81 3.45,-10.11 -0.27,-2.34 -0.27,-3.9 0.54,-5.99 0.66,-1.69 1.78,-3.18 2.82,-4.03 0.62,-0.51 1.22,-1.01 2.03,-1.42 1.79,-0.9 3.43,-1.36 5.54,-1.25 1.58,0.08 1.73,0.32 2.77,0.51 3.84,1.42 6.57,4.38 7.24,9.11 0.35,2.49 0.09,4.95 -0.69,7.15 -0.35,0.99 -0.82,1.95 -1.31,2.74 -0.98,1.61 -1.57,1.74 -1.1,2.52 0.6,0.27 0.85,-0.18 1.11,-0.52 0.25,-0.34 0.5,-0.67 0.72,-1.04 1.51,-2.57 2.53,-4.85 2.53,-8.22 -0.01,-4.64 -1.16,-7.87 -4.43,-10.73l-2.73 -1.68c-0.81,-0.39 -0.71,0.01 -0.88,-0.96 -0.31,-1.77 -1.21,-3.42 -2.46,-4.67 -0.61,-0.61 -1.2,-1.12 -1.98,-1.55 -3.7,-2.05 -3.22,-0.25 -2.87,-0 0.31,0.22 1.53,0.42 3.02,1.47 0.27,0.19 0.26,0.24 0.56,0.4 -0.08,0.36 -0.11,0.75 -0.17,1.16 -0.11,0.78 -0.49,2.7 -0.79,3.26 -0.5,0 -0.46,-0.15 -1,-0.47 -2.18,-1.32 -5.01,-1.28 -7.27,-0.21 -0.48,0.23 -0.64,0.23 -0.64,0.91z"/>
   <path class="fil2" d="M12.36 36.44l1.19 0.09c0.4,-0 0.8,-0.02 1.2,-0.05 3.39,-0.25 6.82,-1.45 9.55,-3.32 0.48,-0.33 1.08,-0.76 1.47,-1.11 0.98,-0.87 0.88,-0.95 1.61,-0.66 0.13,-0.2 0.28,-0.32 0.46,-0.5 0.17,-0.17 0.36,-0.43 0.49,-0.53 -0.47,-0.78 0.11,-0.91 1.1,-2.52 0.49,-0.79 0.96,-1.76 1.31,-2.74 0.77,-2.2 1.04,-4.67 0.69,-7.15 -0.67,-4.73 -3.41,-7.69 -7.24,-9.11 0.03,0.15 0.61,0.51 0.81,0.67 2.09,1.62 3.66,3.98 4.22,6.75 0.93,4.6 -0.08,9.02 -2.6,12.45 -2.24,3.07 -5.37,5.38 -9.01,6.67 -1.21,0.43 -2.44,0.76 -3.74,0.97 -0.48,0.08 -1.17,0.02 -1.5,0.11z"/>
   <path class="fil3" d="M11.05 7.47c-0.18,0.25 0.01,0.04 -0.24,0.2 -0.16,0.1 -0.15,0.1 -0.31,0.21 -0.22,0.16 -0.35,0.26 -0.56,0.4 0.38,1.08 -0.21,0.6 -1.4,2.58 -1.55,2.59 -2.96,5.41 -6.94,6.11 0.67,0.41 2.73,0.62 3.68,0.68 1.43,0.09 2.62,-0.03 3.99,-0.24 0.4,-2.93 1.52,-4.68 2.91,-6.36 0.55,-0.66 1.81,-1.64 2.54,-2.09 1.61,-1.01 2.66,-1.09 3.21,-1.4 -1.01,-0.84 -3.73,-0.76 -5.35,-0.15 -0.23,0.09 -0.57,0.28 -0.78,0.33 -0.49,0.14 -0.5,-0.11 -0.77,-0.26z"/>
   <path class="fil3" d="M9.43 21.79c-0.07,-1.12 -0.26,-2.03 -0.25,-3.21 -4.2,0.37 -2.42,0.27 -6.89,-0.23 0.45,0.64 2.1,1.73 3.02,2.22 1.21,0.64 2.54,1.08 4.12,1.22z"/>
  </g>
 </g>
</svg>
