<?xml version="1.0" encoding="UTF-8"?>
<!DOCTYPE svg PUBLIC "-//W3C//DTD SVG 1.1//EN" "http://www.w3.org/Graphics/SVG/1.1/DTD/svg11.dtd">
<!-- Creator: CorelDRAW -->
<svg xmlns="http://www.w3.org/2000/svg" xml:space="preserve" width="16mm" height="13.5003mm" version="1.1" style="shape-rendering:geometricPrecision; text-rendering:geometricPrecision; image-rendering:optimizeQuality; fill-rule:evenodd; clip-rule:evenodd"
viewBox="0 0 42.57 35.92"
 xmlns:xlink="http://www.w3.org/1999/xlink"
 xmlns:xodm="http://www.corel.com/coreldraw/odm/2003">
 <defs>
  <style type="text/css">
   <![CDATA[
    .fil2 {fill:black}
    .fil6 {fill:#53CC8D}
    .fil7 {fill:#565657}
    .fil5 {fill:#79D9A8}
    .fil4 {fill:#DFA357}
    .fil1 {fill:#E8BB83}
    .fil3 {fill:#EDD50F}
    .fil0 {fill:#F9EE92}
    .fil8 {fill:#FDFDFD}
   ]]>
  </style>
 </defs>
 <g id="Camada_x0020_1">
  <metadata id="CorelCorpID_0Corel-Layer"/>
  <g id="_1469730500352">
   <path class="fil0" d="M17.45 31.5c-0.1,-0.23 -0.7,-0.93 -0.91,-1.23 -3.72,-5.29 -3.35,-12.88 0.84,-17.72 1.32,-1.52 2.93,-2.98 4.82,-3.77 -0.17,-0.11 -0.73,-0.5 -0.83,-0.64 -0.2,0.13 -0.27,0.28 -0.38,0.51 -0.78,-0.32 -1.1,-0.74 -2.72,-1.32 -1.03,-0.37 -2.11,-0.61 -3.28,-0.71 -2.39,-0.2 -4.72,0.31 -6.6,1.25 -3.24,1.63 -6.07,4.61 -6.91,9.05 -0.63,3.32 0.14,6.86 2,9.52 0.79,1.14 1.8,2.21 2.94,3.05 3.07,2.25 7.45,3.19 11.04,2z"/>
   <path class="fil1" d="M31.09 31.66l2.41 -1.56c0.74,-0.68 1.21,-1.12 1.86,-2.05 2.47,-3.5 2.58,-8.42 0.13,-11.99 -0.82,-1.19 -0.86,-1.14 -1.83,-2.08 -0.96,-0.93 -2.08,-1.36 -2.32,-1.65 -1.35,-0.55 -3.7,-0.48 -5.16,-0.11 -4.18,1.07 -7.57,4.75 -7.61,9.65 -0.04,4.9 3.38,8.74 7.53,9.81 1.34,0.35 3.71,0.48 4.99,-0.02z"/>
   <path class="fil2" d="M38.28 12.72c-0.15,0.2 -0.3,0.37 -0.41,0.5 0.26,0.27 0.64,0.75 0.92,1.12 4.55,6.09 2.71,14.65 -3.52,18.43 -0.98,0.59 -1.8,0.95 -2.98,1.36 -0.12,0 -1.66,0.45 -3.03,0.51 -7.02,0.33 -13.29,-5.16 -13.33,-12.61 -0.03,-4.63 2.47,-8.27 4.82,-10.02 3.51,-2.61 7.04,-3.37 11.45,-2.24 0.93,0.26 1.8,0.64 2.56,1.05 0.85,0.46 1.46,0.95 2.1,1.46 0.15,-0.12 0.35,-0.33 0.49,-0.46l0.35 -0.42c-0.39,-0.58 -2.14,-1.62 -2.87,-1.98 -1.12,-0.56 -2.29,-0.94 -3.69,-1.21 -2.31,-0.45 -5.23,-0.21 -7.43,0.67 -0.28,0.11 -0.63,0.28 -0.91,0.34 -0.3,0.33 -5.96,2.52 -7.66,9.21 -0.63,2.49 -0.6,4.99 0.11,7.42 0.32,1.1 0.76,2.07 1.26,2.98 0.69,1.26 1.39,1.89 1.71,2.43l-0.74 0.24c-3.59,1.2 -7.97,0.25 -11.04,-2 -1.14,-0.83 -2.14,-1.91 -2.94,-3.05 -1.86,-2.66 -2.63,-6.2 -2,-9.52 0.85,-4.45 3.67,-7.42 6.91,-9.05 1.88,-0.95 4.21,-1.45 6.6,-1.25 1.18,0.1 2.25,0.34 3.28,0.71 1.62,0.58 1.94,1 2.72,1.32 0.11,-0.23 0.18,-0.38 0.38,-0.51 0.08,-0.32 0.16,-0.21 0.25,-0.58 -0.46,-0.24 -0.88,-0.51 -1.33,-0.75 -1.18,-0.62 -3.56,-1.41 -4.91,-1.41 0,-0.55 0.56,-5.2 0.67,-5.4l-4.16 0c0.01,0.57 0.2,1.34 0.25,1.91 -0.84,-0.44 -1.12,-0.92 -2.53,-1.46 -2.63,-1.01 -5.46,-0.16 -7.47,1.77 -0.36,0.35 -0.66,0.75 -1.06,1.02 0.85,1.27 3.08,2.76 4.65,3.16 0.43,0.11 0.64,0.13 1.16,0.17 0.56,0.05 0.56,-0.01 1.17,-0.01 -0.02,0.01 -0.04,0.01 -0.05,0.04 -0.01,0.02 -0.04,0.03 -0.05,0.04 -0.13,0.09 -0.03,0.03 -0.15,0.1 -0.09,0.05 -0.17,0.08 -0.28,0.14 -1.21,0.59 -2.52,1.62 -3.44,2.54 -2.52,2.52 -3.93,5.76 -4.09,9.14l0 1.4c0.08,1.63 0.45,3.27 1.12,4.87 0.79,1.89 2.14,3.6 3.56,4.92l0.97 0.78c0.62,0.49 1.44,0.95 2.17,1.32 1.39,0.7 3.73,1.4 5.4,1.42 1.25,0.02 2.13,-0.03 3.21,-0.2 0.8,-0.13 2.12,-0.49 2.69,-0.8 0.35,0.24 0.6,0.45 0.93,0.73 0.9,0.74 2.1,1.44 3.2,1.87 1.86,0.74 3.2,1.04 5.76,1.06 3.65,0.02 7.13,-1.77 9.5,-4.14 2.57,-2.57 3.91,-5.93 4.05,-9.3l0 -1.22c-0.12,-2.88 -1.12,-5.7 -2.98,-7.97 -0.15,-0.19 -0.21,-0.24 -0.38,-0.45 -0.16,-0.2 -0.27,-0.32 -0.46,-0.45 -0.29,0.08 -0.26,0.15 -0.47,0.33z"/>
   <path class="fil2" d="M33.34 31.6l-0.31 -0.59c-0.67,0.21 -1.16,0.52 -1.94,0.65 -1.28,0.5 -3.65,0.37 -4.99,0.02 -4.15,-1.07 -7.57,-4.91 -7.53,-9.81 0.04,-4.89 3.43,-8.57 7.61,-9.65 1.45,-0.37 3.81,-0.44 5.16,0.11 1.77,0.35 3.87,1.91 4.64,2.82 1.11,1.31 2.04,2.67 2.48,4.91 0.66,3.33 -0.37,6.05 -2.24,8.43 -0.3,0.39 -0.51,0.62 -0.89,0.94 -0.3,0.24 -0.75,0.58 -1.03,0.84 0.12,0.29 0.22,0.38 0.36,0.63l0.31 0.38c1.81,-1.22 3.15,-2.89 4.03,-4.91 0.35,-0.8 0.45,-1.44 0.71,-2.27 0.14,-1.78 0.35,-2.93 -0.11,-4.72 -1.52,-7.23 -10.12,-10.93 -16.45,-7.29 -9.35,5.39 -6.7,18.69 2.93,20.87 1.29,0.29 2.65,0.37 4,0.19 1,-0.13 2.73,-0.56 3.43,-1.05l-0.17 -0.49z"/>
   <path class="fil0" d="M32.28 34.13c0.01,-0.05 -0.13,-0.03 0.26,-0.25 2.94,-1.62 4.66,-3.16 6.22,-6.43 0.3,-0.64 1.01,-2.58 0.95,-3.36 -0.25,0.82 -0.36,1.46 -0.71,2.27 -0.87,2.02 -2.21,3.69 -4.03,4.91l-0.31 -0.38c-0.3,-0.03 -1.11,0.46 -1.32,0.71l0.17 0.49c-0.7,0.5 -2.43,0.92 -3.43,1.05 -1.36,0.18 -2.72,0.1 -4,-0.19 -9.62,-2.18 -12.28,-15.48 -2.93,-20.87 6.33,-3.65 14.92,0.06 16.45,7.29 0.2,-0.49 -0.72,-2.71 -0.98,-3.21 -0.59,-1.12 -0.96,-1.69 -1.64,-2.6 -0.6,-0.8 -1.37,-1.5 -2.18,-2.15 -0.88,-0.71 -2.43,-1.47 -2.61,-1.66 -4.41,-1.13 -7.93,-0.38 -11.45,2.24 -2.35,1.75 -4.85,5.4 -4.82,10.02 0.04,7.45 6.32,12.94 13.33,12.61 1.37,-0.07 2.91,-0.51 3.03,-0.51z"/>
   <path class="fil3" d="M39.6 19.38c0.46,1.79 0.25,2.94 0.11,4.72 0.06,0.78 -0.64,2.72 -0.95,3.36 -1.56,3.27 -3.28,4.81 -6.22,6.43 -0.4,0.22 -0.25,0.2 -0.26,0.25 1.18,-0.41 2,-0.76 2.98,-1.36 6.23,-3.79 8.07,-12.34 3.52,-18.43 -0.28,-0.37 -0.66,-0.85 -0.92,-1.12 0.11,-0.13 0.26,-0.3 0.41,-0.5 -0.17,-0.18 -0.3,-0.32 -0.47,-0.48 -0.18,-0.16 -0.34,-0.24 -0.48,-0.42 -0.14,0.12 -0.34,0.33 -0.49,0.46 -0.64,-0.51 -1.25,-1 -2.1,-1.46 -0.75,-0.41 -1.63,-0.79 -2.56,-1.05 0.19,0.19 1.73,0.95 2.61,1.66 0.8,0.64 1.58,1.35 2.18,2.15 0.68,0.91 1.06,1.48 1.64,2.6 0.26,0.5 1.18,2.72 0.98,3.21z"/>
   <path class="fil4" d="M31.09 31.66c0.78,-0.14 1.27,-0.45 1.94,-0.65l0.31 0.59c0.21,-0.24 1.03,-0.73 1.32,-0.71 -0.14,-0.25 -0.24,-0.34 -0.36,-0.63 0.28,-0.26 0.73,-0.59 1.03,-0.84 0.38,-0.31 0.59,-0.55 0.89,-0.94 1.87,-2.38 2.9,-5.11 2.24,-8.43 -0.44,-2.24 -1.37,-3.6 -2.48,-4.91 -0.77,-0.91 -2.87,-2.47 -4.64,-2.82 0.25,0.28 1.36,0.71 2.32,1.65 0.97,0.94 1.01,0.89 1.83,2.08 2.45,3.57 2.34,8.49 -0.13,11.99 -0.65,0.93 -1.12,1.36 -1.86,2.05l-2.41 1.56z"/>
   <path class="fil2" d="M13.94 30.57l0.02 -1.22c-2.86,-0.28 -4.99,-0.83 -7.1,-2.94 -1.5,-1.5 -2.87,-3.99 -2.94,-7.11l-1.25 0c0.06,2.71 1.12,5.77 2.94,7.61 1.11,1.13 2.28,1.99 3.72,2.68 1.23,0.59 3.04,1.03 4.61,0.99z"/>
   <path class="fil3" d="M17.45 31.5l0.74 -0.24c-0.32,-0.54 -1.02,-1.17 -1.71,-2.43 -0.5,-0.91 -0.94,-1.88 -1.26,-2.98 -0.7,-2.42 -0.74,-4.93 -0.11,-7.42 1.7,-6.69 7.36,-8.87 7.66,-9.21 -0.17,-0.12 -0.4,-0.29 -0.57,-0.44 -1.89,0.79 -3.51,2.25 -4.82,3.77 -4.19,4.83 -4.56,12.43 -0.84,17.72 0.21,0.3 0.81,1 0.91,1.23z"/>
   <path class="fil5" d="M4.4 4.39c1.33,0.41 2.92,0.26 4.06,-0.36 -0.96,-0.18 -2.04,0.1 -2.5,-0.11l0 -1.24 4.93 -0c-1.81,-1.61 -4.07,-1.82 -6.29,-0.64 -0.69,0.37 -1.2,0.88 -1.73,1.18 0.21,0.37 1.1,1.08 1.52,1.18z"/>
   <path class="fil2" d="M22.72 20.1c-0.9,0.28 -1.71,1.22 -1.3,2.46 0.8,2.4 4.46,1.3 3.73,-1.16 -0.27,-0.92 -1.24,-1.66 -2.44,-1.3z"/>
   <path class="fil2" d="M28.03 14.78c-0.89,0.28 -1.65,1.24 -1.27,2.45 0.28,0.9 1.33,1.68 2.52,1.24 2.33,-0.87 1.22,-4.45 -1.25,-3.69z"/>
   <path class="fil2" d="M33.38 20.11c-2.56,0.84 -1.22,4.56 1.23,3.69 0.81,-0.29 1.55,-1.25 1.2,-2.41 -0.27,-0.89 -1.23,-1.67 -2.44,-1.28z"/>
   <path class="fil2" d="M28.15 25.39c-2.51,0.64 -1.55,4.42 0.95,3.79 0.88,-0.22 1.69,-1.15 1.42,-2.34 -0.21,-0.93 -1.2,-1.75 -2.37,-1.45z"/>
   <path class="fil6" d="M4.4 4.39c0.53,0.62 2.41,1.05 3.48,0.91 0.99,-0.13 2.59,-0.86 3.02,-1.37l-4.94 -0.01c0.45,0.21 1.53,-0.07 2.5,0.11 -1.14,0.62 -2.73,0.77 -4.06,0.36z"/>
   <path class="fil7" d="M13.97 5.34c0.22,-0.21 0.57,-3.54 0.59,-4.08l-1.22 0c0.02,0.65 0.17,1.47 0.25,2.13l0.18 1.54c0.06,0.38 -0.04,0.26 0.19,0.41z"/>
   <polygon class="fil8" points="24.62,25.91 25.92,25.92 25.96,25.61 25.95,24.66 24.61,24.66 "/>
   <polygon class="fil8" points="27.95,21.24 29.24,21.25 29.29,20.95 29.28,20 27.94,20 "/>
   <polygon class="fil8" points="32.62,27.23 33.92,27.25 33.95,26.94 33.95,25.99 32.61,26 "/>
   <polygon class="fil2" points="22.62,27.91 23.93,27.91 23.95,27.6 23.95,26.66 22.62,26.66 "/>
   <path class="fil8" d="M31.95 18.58l1.28 0.01c0.1,-0.37 0.1,-0.89 0,-1.26l-1.26 0 -0.03 1.24z"/>
   <path class="fil2" d="M29.28 23.9l1.29 0.01c0.07,-0.38 0.1,-0.9 -0.03,-1.25l-1.23 0 -0.04 1.24z"/>
   <polygon class="fil2" points="23.29,18.58 24.57,18.58 24.61,17.33 23.32,17.33 "/>
   <path class="fil8" d="M33.64 21.33c-0.84,0.39 -0.24,1.71 0.65,1.25 0.73,-0.38 0.23,-1.66 -0.65,-1.25z"/>
   <path class="fil8" d="M28.33 26.65c-0.85,0.37 -0.29,1.67 0.58,1.27 0.82,-0.38 0.3,-1.65 -0.58,-1.27z"/>
   <path class="fil8" d="M22.97 21.36c-0.85,0.42 -0.2,1.62 0.61,1.23 0.79,-0.38 0.33,-1.7 -0.61,-1.23z"/>
   <path class="fil8" d="M28.28 16.04c-0.86,0.45 -0.1,1.71 0.73,1.17 0.68,-0.45 0.14,-1.63 -0.73,-1.17z"/>
  </g>
 </g>
</svg>
