<?xml version="1.0" encoding="UTF-8"?>
<!DOCTYPE svg PUBLIC "-//W3C//DTD SVG 1.1//EN" "http://www.w3.org/Graphics/SVG/1.1/DTD/svg11.dtd">
<!-- Creator: CorelDRAW -->
<svg xmlns="http://www.w3.org/2000/svg" xml:space="preserve" width="16mm" height="14.6854mm" version="1.1" style="shape-rendering:geometricPrecision; text-rendering:geometricPrecision; image-rendering:optimizeQuality; fill-rule:evenodd; clip-rule:evenodd"
viewBox="0 0 14.51 13.32"
 xmlns:xlink="http://www.w3.org/1999/xlink"
 xmlns:xodm="http://www.corel.com/coreldraw/odm/2003">
 <defs>
  <style type="text/css">
   <![CDATA[
    .fil0 {fill:#0E0E0F}
    .fil1 {fill:#65A43D}
    .fil4 {fill:#7FD24A}
    .fil3 {fill:#A4ED75}
    .fil2 {fill:#EE3A3A}
   ]]>
  </style>
 </defs>
 <g id="Camada_x0020_1">
  <metadata id="CorelCorpID_0Corel-Layer"/>
  <g id="_1432827723712">
   <path class="fil0" d="M11.23 7.82c-0.24,0.06 -1.47,0.02 -1.81,0.02 0.05,-0.08 0.09,-0.11 0.15,-0.19 0.39,-0.53 0.25,-0.71 0.97,-1.55 0.69,-0.81 0.5,-1.02 0.88,-1.99 0.06,0.09 0.07,0.24 0.08,0.36 0.02,0.13 0.03,0.26 0.04,0.39 0.03,0.52 -0.02,1.06 -0.14,1.56 -0.03,0.12 -0.08,0.23 -0.05,0.36 0.03,0.14 0.12,0.15 0.19,0.24 0.33,0 0.35,-0.19 0.41,-0.47 0.17,-0.8 0.21,-1.67 0.05,-2.44 -0.15,-0.76 -0.36,-1.31 -0.76,-1.91 -0.13,-0.19 -0.26,-0.34 -0.39,-0.52 0.02,-0.03 0.17,-0.16 0.21,-0.19 0.12,-0.08 0.16,-0.05 0.31,-0.08 0.44,-0.09 0.28,-0.83 -0.48,-0.51 -0.21,0.09 -0.35,0.27 -0.47,0.35 -0.07,-0.02 -0.34,-0.25 -0.43,-0.31 -0.46,-0.32 -0.98,-0.57 -1.54,-0.73 -1.64,-0.46 -3.47,-0.1 -4.89,0.76 -0.79,0.48 -1.05,0.75 -1.67,1.36 -0.08,0.08 -0.1,0.11 -0.17,0.2 -0.71,0.88 -1.15,1.58 -1.47,2.67 -0.15,0.52 -0.24,1.04 -0.27,1.55l0 0.57c0.05,0.98 0.35,1.92 0.94,2.75 0.41,0.58 0.97,1.1 1.6,1.44 0.37,0.2 0.65,0.31 1.07,0.43 1.28,0.36 2.26,0.12 2.36,0.16 0.07,0.03 0.87,0.82 2.32,1.12 1.47,0.3 2.98,-0.05 4.14,-0.9 0.08,-0.06 0.13,-0.1 0.21,-0.16 0.95,-0.74 1.6,-1.92 1.82,-3.12 0.07,-0.4 0.14,-0.83 -0.31,-1.08 -0.19,-0.11 -0.36,-0.1 -0.64,-0.1 -0.29,0 -0.48,-0.03 -0.74,-0.03 -0.51,0 -1.02,-0 -1.53,0z"/>
   <path class="fil1" d="M1.5 9.84c0.07,0.17 0.63,0.73 0.81,0.79 0.32,-0.4 1.03,-0.66 1.51,-1.04 0.11,-0.09 0.34,-0.33 0.43,-0.46 -0.02,-0.24 -0.1,-0.51 -0.04,-0.74 0.18,-0.72 0.99,-0.46 1.53,-0.54 0.18,-0.03 0.48,-0.49 0.6,-0.65 0.7,-0.96 1.11,-0.84 1.7,-1.65 0.12,-0.16 0.21,-0.34 0.32,-0.5 0.52,-0.71 0.71,-0.69 1.24,-1.26 0.26,-0.28 0.65,-1.22 1.03,-1.49 -0.08,-0.18 -0.6,-0.68 -0.77,-0.78 -0.67,0.56 -0.41,0.38 -1.22,0.84 -0.49,0.28 -0.72,0.65 -1.07,1.03 -0.28,0.31 -0.8,0.6 -1.18,0.89 -0.5,0.38 -0.5,0.83 -1.52,1.6 -0.1,0.08 -0.19,0.14 -0.29,0.22 -0.56,0.42 -0.7,0.92 -1.18,1.46 -0.33,0.37 -0.79,0.56 -1.05,1.02 -0.13,0.23 -0.25,0.44 -0.39,0.66 -0.22,0.37 -0.29,0.38 -0.45,0.6z"/>
   <path class="fil2" d="M12.73 8.38l-6.77 0c0.14,1.71 1.58,3.1 3.38,3.11 1.81,0.01 3.26,-1.41 3.4,-3.11z"/>
   <path class="fil3" d="M1.16 9.34c0.09,-0.05 0.17,-0.17 0.23,-0.26 0.08,-0.11 0.13,-0.2 0.2,-0.31 0.28,-0.45 0.15,-0.32 0.5,-0.77 0.38,-0.49 0.87,-0.72 1.15,-1.12l0.63 -0.9c0.26,-0.34 0.78,-0.62 1.1,-0.94 0.7,-0.68 0.36,-0.77 1.52,-1.52 0.49,-0.31 0.45,-0.32 0.82,-0.71 0.56,-0.59 0.5,-0.68 1.4,-1.16 0.26,-0.14 0.41,-0.29 0.6,-0.42 -0.07,-0.13 -0.22,-0.16 -0.35,-0.22 -0.46,-0.2 -0.33,0.11 -1.12,0.34 -0.92,0.27 -0.77,0.07 -1.5,0.65 -0.19,0.15 -0.36,0.33 -0.61,0.47 -0.72,0.41 -0.72,0.22 -1.3,0.85 -0.17,0.18 -0.32,0.43 -0.5,0.6l-0.87 0.75c-0.31,0.29 -0.39,0.67 -0.59,1.03 -0.11,0.21 -0.33,0.49 -0.46,0.65 -0.81,0.96 -0.34,0.89 -1.02,2.22 -0.12,0.23 -0.14,0.22 0.05,0.59l0.11 0.18z"/>
   <path class="fil1" d="M0.68 8.02c0.19,-0.44 0.23,-0.98 0.45,-1.37 0.23,-0.43 0.54,-0.66 0.79,-1.05 0.25,-0.38 0.39,-0.81 0.66,-1.16 0.39,-0.5 0.59,-0.31 1.39,-1.37 0.63,-0.83 1.03,-0.73 1.63,-1.13 0.44,-0.29 0.55,-0.59 1.02,-0.8 0.45,-0.21 0.96,-0.25 1.4,-0.45 -0.31,-0.15 -1.34,-0.12 -1.73,-0.07 -0.55,0.07 -1.03,0.2 -1.51,0.39 -0.83,0.33 -1.67,0.91 -2.26,1.51 -0.96,0.98 -1.7,2.25 -1.89,3.76 -0.05,0.38 -0.1,1.44 0.06,1.73z"/>
   <path class="fil4" d="M13.97 8.43c-0.16,-0.07 -0.47,-0.07 -0.69,-0.04 -0.13,0.47 -0.02,0.7 -0.41,1.49 -0.65,1.32 -2.03,2.18 -3.54,2.18 -2.09,-0.01 -3.83,-1.67 -3.94,-3.68 -0.55,-0 -0.7,-0.13 -0.61,0.44 0.59,3.77 5.29,5.15 7.84,2.56 0.06,-0.06 0.08,-0.08 0.15,-0.14 0.22,-0.19 0.58,-0.75 0.71,-1.02 0.2,-0.4 0.56,-1.29 0.48,-1.8z"/>
   <path class="fil3" d="M6.53 7.84l1.87 0c0.23,0 0.28,-0.08 0.41,-0.2 0.23,-0.2 0.39,-0.34 0.55,-0.7 0.5,-1.1 0.5,-0.8 1,-1.52 0.38,-0.55 0.21,-0.96 0.68,-1.81 0.09,-0.15 0.18,-0.24 0.11,-0.42l-0.25 -0.42c-0.21,0.32 -0.18,0.19 -0.46,0.7 -0.46,0.84 -0.56,0.78 -1.1,1.28 -0.35,0.32 -0.21,0.14 -0.57,0.62 -0.56,0.75 -0.33,0.67 -1.09,1.26 -0.25,0.19 -0.45,0.33 -0.65,0.55 -0.1,0.11 -0.46,0.55 -0.51,0.67z"/>
   <path class="fil1" d="M11.23 7.82c0.01,-0.1 0.11,-0.3 0.16,-0.41 0.05,-0.13 0.1,-0.3 0.15,-0.41 -0.07,-0.09 -0.16,-0.09 -0.19,-0.24 -0.03,-0.13 0.02,-0.24 0.05,-0.36 0.12,-0.5 0.17,-1.04 0.14,-1.56 -0.01,-0.13 -0.02,-0.26 -0.04,-0.39 -0.01,-0.11 -0.02,-0.26 -0.08,-0.36 -0.38,0.98 -0.19,1.19 -0.88,1.99 -0.72,0.84 -0.58,1.02 -0.97,1.55 -0.06,0.09 -0.1,0.11 -0.15,0.19 0.34,0.01 1.57,0.04 1.81,-0.02z"/>
   <path class="fil3" d="M2.79 10.97c0.71,0.34 0.42,0.32 0.95,0.06 0.62,-0.31 0.83,-0.26 1.05,-0.36l-0.36 -0.83c-0.04,-0.08 -0.02,-0.03 -0.03,-0.06 -0.38,0.31 -0.26,0.3 -0.81,0.59 -0.12,0.06 -0.57,0.31 -0.65,0.4 -0.04,0.05 -0.13,0.16 -0.16,0.2z"/>
   <path class="fil1" d="M4.05 11.43c0.26,0.14 1.02,0.14 1.36,0.12 -0.01,-0.04 -0.25,-0.35 -0.31,-0.43 -0.55,0.08 -0.65,0.17 -1.05,0.31z"/>
   <path class="fil0" d="M10.95 8.92c-0.33,0.2 -0.05,0.62 0.26,0.47 0.29,-0.14 0.06,-0.67 -0.26,-0.47z"/>
   <path class="fil0" d="M9.23 8.93c-0.14,0.07 -0.19,0.18 -0.12,0.35 0.05,0.12 0.21,0.21 0.38,0.12 0.29,-0.15 0.09,-0.64 -0.26,-0.47z"/>
   <path class="fil0" d="M10.14 10.19c-0.34,0.09 -0.22,0.61 0.15,0.52 0.31,-0.08 0.22,-0.61 -0.15,-0.52z"/>
   <path class="fil0" d="M8.4 10.2c-0.37,0.14 -0.14,0.65 0.2,0.49 0.28,-0.12 0.14,-0.62 -0.2,-0.49z"/>
   <path class="fil0" d="M7.5 8.93c-0.33,0.18 -0.05,0.62 0.25,0.46 0.28,-0.15 0.08,-0.65 -0.25,-0.46z"/>
  </g>
 </g>
</svg>
