<?xml version="1.0" encoding="UTF-8"?>
<!DOCTYPE svg PUBLIC "-//W3C//DTD SVG 1.1//EN" "http://www.w3.org/Graphics/SVG/1.1/DTD/svg11.dtd">
<!-- Creator: CorelDRAW -->
<svg xmlns="http://www.w3.org/2000/svg" xml:space="preserve" width="16mm" height="16mm" version="1.1" style="shape-rendering:geometricPrecision; text-rendering:geometricPrecision; image-rendering:optimizeQuality; fill-rule:evenodd; clip-rule:evenodd"
viewBox="0 0 25.88 25.88"
 xmlns:xlink="http://www.w3.org/1999/xlink"
 xmlns:xodm="http://www.corel.com/coreldraw/odm/2003">
 <defs>
  <style type="text/css">
   <![CDATA[
    .fil0 {fill:black}
    .fil6 {fill:#C38778}
    .fil5 {fill:#D8AA8C}
    .fil4 {fill:#E69642}
    .fil3 {fill:#F5F8F9}
    .fil2 {fill:#FEC150}
    .fil1 {fill:#FEDF7C}
   ]]>
  </style>
 </defs>
 <g id="Camada_x0020_1">
  <metadata id="CorelCorpID_0Corel-Layer"/>
  <g id="_1469285431120">
   <path class="fil0" d="M22.37 17.54c-0.3,0.2 -0.35,0.01 -0.37,0.76 -0.05,1.87 -0.72,3.98 -1.73,5.51 -0.16,0.25 -0.35,0.54 -0.57,0.63 -0.12,0.26 -0.7,0.52 -1.07,0.61 -0.69,0.16 -7.18,0.08 -8.36,0.08 -0.55,0 -1.02,0.03 -1.52,-0.15 -0.48,-0.17 -0.72,-0.38 -1.04,-0.68 -0.45,-0.43 -0.95,-1.45 -1.25,-2.14 -0.77,-1.78 -1.05,-3.86 -0.74,-5.82 0.12,-0.73 0.36,-1.59 0.65,-2.28 0.1,-0.24 0.04,-0.19 0.28,-0.2l9.15 -0c-0.04,0.61 -0.2,1.31 0.04,1.85 0.45,1.04 2.03,1.04 2.48,-0.01 0.23,-0.54 0.08,-1.23 0.04,-1.83l2.79 -0.01c0.17,0.5 0.39,0.96 0.53,1.52 0.28,1.08 0.09,1.39 0.66,1.44 0.37,-0.11 0.35,-0.3 0.28,-0.72 -0.07,-0.39 -0.14,-0.67 -0.22,-0.99 -0.38,-1.51 -1.29,-3.14 -2.35,-4.27 -0.12,-0.12 -0.2,-0.18 -0.29,-0.32 0.11,-0.46 0.1,-0.02 0.1,-0.81 -0,-0.3 0,-0.61 0,-0.91 1.18,0.28 2.35,0.56 3.57,0.83 0.72,0.16 1.28,0.42 1.82,0.16 0.27,-0.13 0.55,-0.44 0.63,-0.82l0 -0.45c-0.02,-0.08 -0.05,-0.16 -0.08,-0.24 -0.29,-0.61 -0.72,-0.61 -1.39,-0.78 -0.6,-0.15 -1.21,-0.29 -1.81,-0.42l-2.7 -0.63c-0.46,-0.11 -0.54,-0.12 -0.79,0.18 0.04,0.57 0.26,0.5 1.29,0.73 0.57,0.13 1.12,0.26 1.68,0.39 0.54,0.13 1.08,0.25 1.64,0.38 0.28,0.06 0.54,0.13 0.82,0.19 0.37,0.08 0.54,0.08 0.58,0.46 -0.04,0.16 -0.1,0.21 -0.18,0.32 -0.2,0.12 -7.51,-1.65 -8.33,-1.84 -0.46,-0.11 -8.05,-1.83 -8.28,-1.95 0.01,-0.1 0.01,-0.14 0.03,-0.22l0.09 -0.19 0 -0.24 8.82 1.98c0.81,0.19 0.82,0.27 1.17,-0.12 -0.01,-0.52 -0.38,-0.5 -0.94,-0.62 -0.45,-0.1 -0.82,-0.2 -1.27,-0.29l-6.97 -1.63c-0.21,-0.05 -0.48,-0.13 -0.68,-0.13 -0.01,-0.43 -0.07,-0.83 -0.21,-1.26 -0.27,-0.84 -1.13,-1.69 -1.85,-1.94 -0.33,-0.11 -0.39,0 -0.54,0.17 -0.09,0.54 0.4,0.58 0.74,0.84 0.75,0.55 1.09,1.25 1.05,2.25 -0.01,0.3 -0.13,1.1 -0.26,1.31 -0.18,0.88 -0.75,1.58 -1.43,1.86 -0.48,0.2 -0.91,0.1 -1.41,0.21 -0.73,0.16 -0.65,0.6 -0.83,0.85 0.09,0.54 0.1,1.45 0.15,2.06 0.05,0.55 0.27,1.56 -0.06,1.91 -0.32,0.33 -0.85,0.17 -0.99,-0.21 -0.24,-0.68 0.5,-3.18 0.04,-4.34 -0.59,-1.48 -2.52,-0.97 -2.23,-3.69 0,-0.03 0.02,-0.14 0.03,-0.17l0.04 -0.12c0,-0.01 0.01,-0.03 0.02,-0.04 -0.05,-0.42 0.28,-1.16 0.46,-1.49 0.7,-1.3 2.09,-1.45 3.45,-1.16 0.35,0.07 0.53,0.08 0.66,-0.23l0.02 -0.3c-0.16,-0.1 -0.12,-0.13 -0.32,-0.19 -0.31,-0.09 -0.66,-0.14 -1.02,-0.16l-0.57 0c-0.6,0.03 -1.19,0.17 -1.67,0.42 -0.98,0.52 -1.75,1.94 -1.89,3.37l0 0.88c0.09,0.92 0.49,1.76 1.32,2.29 0.29,0.19 0.41,0.2 0.66,0.45 0.71,0.7 0.34,1.57 0.29,2.69 -0.04,0.89 -0.41,2.03 0.42,2.66 0.65,0.49 1.72,0.35 2.11,-0.58 0.11,-0.26 0.12,-0.62 0.09,-1.02 -0.03,-0.63 -0.15,-1.35 -0.2,-1.97 -0.08,-1.03 -0.13,-1.13 0.32,-1.19 0.19,-0.03 0.35,-0.01 0.54,-0.02 0.92,-0.07 1.59,-0.54 2.08,-1.2 0.12,-0.16 0.35,-0.52 0.4,-0.72l7.11 1.64c0.01,0 0.12,0.03 0.12,0.03 0.11,0.04 0.05,0.01 0.1,0.05l-6.52 -0c-0.41,0 -0.71,0.18 -0.89,0.43 -0.32,0.42 -0.22,1.04 -0.22,1.75 -0,0.39 0.04,0.29 0.1,0.55l-0.48 0.53c-0.77,0.98 -1.23,1.54 -1.76,2.84 -0.27,0.67 -0.49,1.37 -0.63,2.2l-0.18 1.95c0.05,1.41 0.35,2.82 0.82,4.09l0.43 0.99c0.09,0.18 0.16,0.26 0.25,0.45 0.2,0.4 0.56,0.96 0.86,1.26 0.25,0.25 0.46,0.45 0.79,0.63 0.32,0.17 0.64,0.3 1.04,0.37 0.13,0.02 0.44,0.04 0.87,0.05l7.53 0c1.59,0 2.14,-0.14 3.12,-1.12 0.53,-0.54 1.23,-2.01 1.51,-2.73 0.25,-0.61 0.5,-1.53 0.61,-2.22 0.04,-0.25 0.05,-0.37 0.08,-0.63 0.03,-0.19 0.02,-0.43 0.04,-0.67 0.05,-0.49 0.15,-0.87 -0.39,-0.97z"/>
   <path class="fil1" d="M19.7 24.44c0.23,-0.09 0.41,-0.38 0.57,-0.63 1.02,-1.53 1.69,-3.63 1.73,-5.51 0.02,-0.75 0.07,-0.56 0.37,-0.76 0.07,-0.36 -0.03,-0.41 -0.03,-0.73 -0.57,-0.05 -0.38,-0.36 -0.66,-1.44 -0.15,-0.57 -0.37,-1.03 -0.53,-1.52l-2.79 0.01c0.05,0.6 0.2,1.29 -0.04,1.83 -0.45,1.05 -2.02,1.05 -2.48,0.01 -0.24,-0.54 -0.08,-1.24 -0.04,-1.85l-9.15 0c-0.44,2 -0.62,3.36 -0.17,5.45 0.33,1.55 1.12,3.2 1.89,4.23 0.54,0.72 0.89,0.97 2.09,0.97 1.4,-0 8.93,0.09 9.23,-0.06z"/>
   <path class="fil2" d="M0.88 3.54c0.05,0.57 0.41,1.14 0.75,1.36 -0,0 0,0 0,0.01l0.09 -0.05c0.44,-1.21 0.48,-3.73 1.29,-3.11 0.29,0.22 -0.11,1.43 -0.2,1.81 -0.15,0.61 -0.29,1.28 -0.45,1.81 0.07,0.2 0.85,0.45 1.11,0.5 0.2,-0.67 0.35,-1.49 0.52,-2.19 0.09,-0.36 0.17,-0.74 0.25,-1.11 0.08,-0.37 0.1,-0.91 0.52,-0.9 0.65,0.02 0.18,1.19 -0,2.02 -0.09,0.42 -0.51,1.96 -0.5,2.26 -0.02,0.19 0,0.1 0.17,0.14l0.94 0.05 0.1 -0.38 0.61 -2.58c0.08,-0.34 0.08,-0.64 0.45,-0.64 0.91,0.01 -0.31,2.38 -0.28,3.39 0.05,0.11 0.13,0.04 0.28,-0.02 0.14,-0.06 0.24,-0.1 0.38,-0.19 0.28,-0.18 0.43,-0.29 0.64,-0.53 0.13,-0.21 0.25,-1.01 0.26,-1.31 0.04,-1 -0.3,-1.69 -1.05,-2.25 -0.35,-0.26 -0.84,-0.3 -0.74,-0.84 -0.19,-0.05 -0.33,-0.14 -0.56,-0.15 -0.13,0.3 -0.31,0.3 -0.66,0.23 -1.35,-0.29 -2.74,-0.14 -3.45,1.16 -0.18,0.33 -0.51,1.07 -0.46,1.49z"/>
   <path class="fil3" d="M11.28 10.52c-0.11,0.43 -0.59,0.3 -1.42,0.3 -0.29,0 -0.57,-0 -0.86,-0 -0.41,-0 -0.42,0.07 -0.63,0.28 -0.25,0.24 -0.55,0.6 -0.8,0.92 -0.23,0.3 -0.51,0.7 -0.69,1.07l9.01 0.01c0.06,-0.84 0.39,-2.1 -0.78,-2.27l-2.42 -0.01c-0.33,0 -0.5,0.02 -0.6,-0.27 -0.18,-0.15 -0.13,-0.11 -0.41,-0.11 -0.22,0 -0.25,-0.03 -0.4,0.08z"/>
   <path class="fil2" d="M19.7 24.44c-0.3,0.14 -7.83,0.06 -9.23,0.06 -1.2,0 -1.55,-0.25 -2.09,-0.97 -0.77,-1.03 -1.56,-2.67 -1.89,-4.23 -0.45,-2.09 -0.27,-3.45 0.17,-5.45 -0.24,0.01 -0.18,-0.04 -0.28,0.2 -0.29,0.7 -0.53,1.55 -0.65,2.28 -0.31,1.96 -0.03,4.04 0.74,5.82 0.3,0.69 0.8,1.71 1.25,2.14 0.31,0.3 0.56,0.51 1.04,0.68 0.5,0.18 0.96,0.15 1.52,0.15 1.18,-0 7.67,0.08 8.36,-0.08 0.37,-0.09 0.95,-0.34 1.07,-0.61z"/>
   <path class="fil4" d="M3.96 12.1c-0.9,-0.08 -0.57,-1.19 -0.51,-1.97 0.03,-0.39 0.07,-0.77 0.11,-1.16 0.03,-0.26 0.04,-0.98 0.31,-0.85 0.18,-0.24 0.1,-0.69 0.83,-0.85 0.49,-0.11 0.93,-0.01 1.41,-0.21 0.67,-0.28 1.24,-0.98 1.43,-1.86 -0.21,0.24 -0.36,0.35 -0.64,0.53 -0.14,0.09 -0.23,0.13 -0.38,0.19 -0.15,0.06 -0.23,0.13 -0.28,0.02 -0.16,0.17 -0.12,0.42 -0.47,0.39 -0.3,-0.03 -0.34,-0.26 -0.31,-0.56l-0.1 0.38 -0.94 -0.05c-0.17,-0.05 -0.19,0.04 -0.17,-0.14 -0.06,0.09 -0.09,0.25 -0.21,0.33 -0.17,0.12 -0.61,0.15 -0.59,-0.41 -0.26,-0.04 -1.04,-0.29 -1.11,-0.5 -0.47,0.21 -0.72,0.03 -0.64,-0.51l-0.09 0.05c-0,-0 -0,-0.01 -0,-0.01 -0.34,-0.22 -0.7,-0.79 -0.75,-1.36 -0.01,0.01 -0.01,0.03 -0.02,0.04l-0.04 0.12c-0.01,0.03 -0.02,0.14 -0.03,0.17 -0.29,2.72 1.64,2.21 2.23,3.69 0.46,1.16 -0.28,3.65 -0.04,4.34 0.13,0.38 0.67,0.54 0.99,0.21z"/>
   <path class="fil5" d="M19.12 9.42c-0,-0.5 0.1,-0.86 -0.46,-0.88 -1.03,-0.04 -3,0 -4.1,0 -1.81,0 -3.63,-0.02 -5.44,0 0,0.49 -0.09,0.84 0.43,0.88l4.1 0c1.82,0 3.65,0.01 5.47,-0.01z"/>
   <path class="fil6" d="M11.28 10.52c0.15,-0.11 0.19,-0.08 0.4,-0.08 0.28,-0 0.23,-0.04 0.41,0.11l-0.02 -0.3c0.4,-0.3 0.76,-0.19 1.58,-0.19 1.82,0 3.64,0 5.47,0l0 -0.64c-1.82,0.02 -3.65,0.01 -5.47,0.01l-4.1 -0c-0.52,-0.04 -0.43,-0.4 -0.43,-0.88 -0.79,-0.01 -0.63,0.25 -0.63,1.52 0.54,0 1.08,0 1.62,-0 0.52,0 1.2,-0.17 1.16,0.46z"/>
   <path class="fil5" d="M8.46 4.89c0.13,0.21 0.7,0.24 0.96,0.3l11.49 2.66c0.62,0.14 3.88,0.99 4.22,0.91 -0.04,-0.38 -0.21,-0.38 -0.58,-0.46 -0.28,-0.06 -0.54,-0.12 -0.82,-0.19 -0.56,-0.13 -1.1,-0.25 -1.64,-0.38 -0.56,-0.13 -1.11,-0.27 -1.68,-0.39 -1.03,-0.23 -1.25,-0.16 -1.29,-0.73 -0.25,-0.01 -0.41,-0.09 -0.66,-0.11 -0.35,0.39 -0.36,0.31 -1.17,0.12l-8.82 -1.98 -0 0.24z"/>
   <path class="fil6" d="M25.12 8.77c-0.34,0.08 -3.6,-0.77 -4.22,-0.91l-11.49 -2.66c-0.25,-0.06 -0.83,-0.09 -0.96,-0.3l-0.09 0.19c-0.03,0.09 -0.03,0.13 -0.03,0.22 0.23,0.12 7.81,1.84 8.28,1.95 0.82,0.19 8.13,1.96 8.33,1.84 0.08,-0.11 0.14,-0.17 0.18,-0.32z"/>
   <path class="fil3" d="M18.28 13.06c0.28,0.08 2.03,0.03 2.46,0.03 -0.32,-0.66 -1.35,-1.96 -1.78,-2.23 -0.99,0.22 -0.77,1.21 -0.68,2.2z"/>
   <path class="fil0" d="M3.46 5.86c-0.02,0.56 0.41,0.53 0.59,0.41 0.12,-0.08 0.15,-0.24 0.21,-0.33 -0.02,-0.3 0.4,-1.84 0.5,-2.26 0.18,-0.83 0.66,-2 0,-2.02 -0.42,-0.01 -0.44,0.54 -0.52,0.9 -0.08,0.36 -0.17,0.74 -0.25,1.11 -0.17,0.71 -0.31,1.52 -0.52,2.19z"/>
   <path class="fil0" d="M5.45 5.76c-0.03,0.31 0.02,0.54 0.31,0.56 0.36,0.03 0.32,-0.22 0.47,-0.39 -0.04,-1.01 1.19,-3.38 0.28,-3.39 -0.37,-0.01 -0.38,0.3 -0.45,0.64l-0.61 2.58z"/>
   <path class="fil0" d="M1.71 4.85c-0.08,0.55 0.17,0.72 0.64,0.51 0.16,-0.53 0.3,-1.2 0.45,-1.81 0.09,-0.38 0.49,-1.59 0.2,-1.81 -0.82,-0.62 -0.85,1.89 -1.29,3.11z"/>
   <path class="fil4" d="M17.47 15.54c-0.83,0.04 -0.53,-1.24 -0.47,-1.89 0.03,-0.39 0.07,-0.76 0.1,-1.15 0.04,-0.41 -0.02,-0.86 0.36,-0.95 0.06,-0.35 0.11,-0.43 0.25,-0.72l-1.25 0c0.63,1.47 -0.12,3.38 0.03,4.39 0.07,0.46 0.76,0.75 0.99,0.33z"/>
   <path class="fil2" d="M3.96 12.1c0.33,-0.36 0.12,-1.36 0.06,-1.91 -0.06,-0.61 -0.07,-1.52 -0.15,-2.06 -0.27,-0.13 -0.29,0.59 -0.31,0.85 -0.04,0.38 -0.07,0.77 -0.11,1.16 -0.06,0.78 -0.39,1.89 0.51,1.97z"/>
   <path class="fil2" d="M17.47 15.54c0.42,-0.15 0.14,-1.44 0.11,-1.89 -0.05,-0.61 -0.18,-1.51 -0.11,-2.11 -0.38,0.09 -0.32,0.54 -0.36,0.95 -0.04,0.39 -0.07,0.77 -0.1,1.15 -0.05,0.65 -0.36,1.93 0.47,1.89z"/>
  </g>
 </g>
</svg>
