<?xml version="1.0" encoding="UTF-8"?>
<!DOCTYPE svg PUBLIC "-//W3C//DTD SVG 1.1//EN" "http://www.w3.org/Graphics/SVG/1.1/DTD/svg11.dtd">
<!-- Creator: CorelDRAW -->
<svg xmlns="http://www.w3.org/2000/svg" xml:space="preserve" width="16mm" height="15.1202mm" version="1.1" style="shape-rendering:geometricPrecision; text-rendering:geometricPrecision; image-rendering:optimizeQuality; fill-rule:evenodd; clip-rule:evenodd"
viewBox="0 0 9.24 8.74"
 xmlns:xlink="http://www.w3.org/1999/xlink"
 xmlns:xodm="http://www.corel.com/coreldraw/odm/2003">
 <defs>
  <style type="text/css">
   <![CDATA[
    .fil1 {fill:black}
    .fil2 {fill:#FBE88C}
    .fil3 {fill:#FEB73B}
    .fil0 {fill:#FFE139}
   ]]>
  </style>
 </defs>
 <g id="Camada_x0020_1">
  <metadata id="CorelCorpID_0Corel-Layer"/>
  <g id="_1469733898800">
   <path class="fil0" d="M3.71 1.05c0.88,-0.12 1.59,-0.16 2.47,0 0.37,0.07 0.73,0.17 1.06,0.3 0.12,0.05 0.63,0.24 0.65,0.36 0.02,0.1 -0.06,0.18 -0.16,0.16 -0.16,-0.03 -1.27,-0.81 -3.36,-0.64 -0.23,0.02 -0.96,0.12 -1.12,0.2 -0.17,0.18 -0.31,0.35 -0.45,0.58 -0.15,0.24 -0.21,0.41 -0.32,0.68l0.05 0.01c0.12,0.02 0.51,-0.05 0.67,-0.07 0.12,-0.01 0.6,-0.11 0.49,0.16 -0.04,0.1 -0.16,0.09 -0.29,0.1 -0.11,0.01 -0.23,0.02 -0.34,0.03 -0.17,0.02 -0.5,0.05 -0.65,0.09 -0.1,0.36 -0.06,0.78 -0.01,1.14 0.58,0.16 2.35,0.2 3,0.19 0.51,-0.01 1.01,-0.05 1.51,-0.1 0.23,-0.03 0.46,-0.06 0.69,-0.1 0.16,-0.03 0.58,-0.19 0.63,-0.01 0.06,0.21 -0.34,0.24 -0.51,0.27 -1.52,0.29 -3.78,0.3 -5.24,0.05 0.06,0.39 0.5,0.99 0.68,1.2 0.26,0.29 0.57,0.52 0.91,0.74 0.09,0.06 0.07,0.05 0.19,0.07 0.16,0.03 0.43,-0.08 0.56,-0.14 0.31,-0.14 0.58,-0.4 0.68,-0.73 0.17,-0.53 -0.36,-0.44 1.68,-0.44 1.22,0 0.96,-0.05 1,0.41 0.5,-0.52 0.95,-1.44 0.76,-2.47 -0.08,-0.47 -0.28,-0.86 -0.49,-1.17 -0.06,-0.08 -0.11,-0.16 -0.18,-0.23 -0.04,-0.04 -0.05,-0.07 -0.09,-0.11l-0.33 -0.3c-0.09,-0.08 -0.15,-0.13 -0.1,-0.27 -0.05,-0.03 -0.09,-0.05 -0.14,-0.09 -0.05,-0.03 -0.09,-0.07 -0.15,-0.08 -0.13,0.12 -0.19,0.04 -0.47,-0.11 -0.36,-0.19 -1.32,-0.49 -1.64,-0.43 -0.09,0.02 -0.13,-0 -0.25,0.04 -0.08,0.02 -0.14,0.04 -0.22,0.07 -0.29,0.11 -0.55,0.22 -0.81,0.38 -0.09,0.05 -0.29,0.17 -0.35,0.25z"/>
   <path class="fil1" d="M1.08 7.45c0.09,-0.21 0,-0.18 -0.2,-0.43 -0.09,-0.12 -0.21,-0.28 -0.29,-0.44 -0.16,-0.33 -0.31,-0.7 -0.32,-1.13l0.3 0c0.09,1.02 0.59,1.59 1.12,2.02 1.91,1.54 5.62,0.76 5.9,-2.01l0.3 -0.01c-0.06,1.43 -1.27,2.43 -2.44,2.79 -1.07,0.33 -2.27,0.27 -3.29,-0.22 -0.2,-0.1 -0.43,-0.23 -0.61,-0.37 -0.1,-0.07 -0.14,-0.06 -0.23,-0 -0.09,0.19 0.1,0.27 0.36,0.42 0.9,0.54 1.9,0.76 3.03,0.62 1.55,-0.19 2.81,-1.11 3.31,-2.42 0.12,-0.31 -0.03,-0.1 0.22,-0.35 0.62,-0.62 0.96,-1.37 1.01,-2.13l0 -0.39c-0.04,-0.62 -0.28,-1.25 -0.71,-1.8 -0.03,-0.04 -0.04,-0.05 -0.07,-0.08 -0.12,-0.15 -0.35,-0.38 -0.51,-0.5 -0.08,-0.07 -0.14,-0.05 -0.22,-0 -0.06,0.14 0.01,0.19 0.1,0.27l0.33 0.3c0.04,0.04 0.05,0.07 0.09,0.11 0.07,0.08 0.13,0.15 0.18,0.23 0.22,0.31 0.41,0.7 0.49,1.17 0.19,1.04 -0.26,1.95 -0.76,2.47 -0.03,-0.47 0.23,-0.41 -1,-0.41 -2.04,0 -1.51,-0.09 -1.68,0.44 -0.11,0.33 -0.37,0.58 -0.68,0.73 -0.13,0.06 -0.4,0.16 -0.56,0.14 -0.32,0.13 -1.13,-0.12 -1.45,-0.61 -0.49,-0.77 0.46,-0.69 -1.41,-0.69 -0.84,-1.28 -0.49,-2.68 0.35,-3.6 0.59,-0.65 1.56,-1.11 2.45,-1.24 0.21,-0.03 1.01,-0.11 1.16,-0.03 0.32,-0.06 1.28,0.24 1.64,0.43 0.28,0.15 0.34,0.22 0.47,0.11 0.08,-0.18 -0.09,-0.23 -0.31,-0.34 -1.23,-0.62 -2.75,-0.67 -4.03,-0.17 -0.71,0.28 -1.23,0.65 -1.72,1.22 -0.19,0.21 -0.36,0.49 -0.48,0.75 -0.07,0.15 -0.14,0.34 -0.19,0.52 -0.04,0.16 -0.1,0.42 -0.1,0.61 -0.21,-0.11 -0.28,-0.25 -0.33,-0.5 -0.02,-0.11 0.01,-0.28 -0.06,-0.35 -0.09,-0.1 -0.23,-0.03 -0.24,0.09l0 0.17c0.03,0.35 0.21,0.75 0.55,0.87 0.04,0.02 0.04,0.01 0.08,0.03 0,0.51 0.19,1 0.42,1.43 -0.19,0 -0.37,0 -0.56,0 -0.17,0 -0.42,-0.03 -0.47,0.09 -0.01,0.01 -0.01,0.02 -0.01,0.04l0 0.35c0.05,0.34 0.2,0.78 0.3,0.98 0.11,0.23 0.17,0.32 0.32,0.52l0.26 0.31c0.08,0.07 0.12,0.06 0.21,0.01z"/>
   <path class="fil2" d="M7.32 5.45l-1.52 0c-0.25,1.78 -3.19,1.73 -3.43,0l-1.51 -0c0.05,0.86 0.59,1.48 1.04,1.82 1.23,0.93 3.13,0.94 4.36,0.01 0.45,-0.34 1.02,-0.96 1.06,-1.83z"/>
   <path class="fil3" d="M4.25 6.48c-0.11,-0.02 -0.1,-0.02 -0.19,-0.07 -0.33,-0.21 -0.64,-0.44 -0.91,-0.74 -0.18,-0.21 -0.62,-0.81 -0.68,-1.2 -0.18,-0.03 -0.76,-0.09 -0.82,-0.22 -0.04,-0.08 0.01,-0.16 0.07,-0.18 0.07,-0.03 0.15,0 0.22,0.02 0.15,0.03 0.3,0.07 0.45,0.09 -0.05,-0.36 -0.1,-0.78 0.01,-1.14 -0.24,0.03 -0.61,0.15 -0.69,0.09 -0.05,-0.03 -0.09,-0.11 -0.05,-0.18 0.08,-0.13 0.74,-0.14 0.86,-0.23l-0.05 -0.01c0.11,-0.28 0.17,-0.44 0.32,-0.68 0.14,-0.22 0.28,-0.4 0.45,-0.58 -0.52,0.09 -1.06,0.47 -1.18,0.43 -0.06,-0.02 -0.11,-0.1 -0.07,-0.19 0.06,-0.15 1.03,-0.48 1.3,-0.54 0.13,-0.03 0.31,-0.06 0.42,-0.09 0.06,-0.08 0.27,-0.2 0.35,-0.25 0.26,-0.16 0.52,-0.27 0.81,-0.38 0.08,-0.03 0.14,-0.05 0.22,-0.07 0.12,-0.04 0.16,-0.01 0.25,-0.04 -0.14,-0.09 -0.95,-0 -1.16,0.03 -0.88,0.13 -1.85,0.58 -2.45,1.24 -0.84,0.92 -1.2,2.33 -0.35,3.6 1.87,0 0.92,-0.08 1.41,0.69 0.32,0.5 1.14,0.75 1.45,0.61z"/>
   <path class="fil3" d="M1.08 7.45c0.08,0.06 0.15,0.14 0.23,0.2 0.09,-0.05 0.13,-0.07 0.23,0 0.18,0.13 0.4,0.27 0.61,0.37 1.02,0.49 2.22,0.56 3.29,0.22 1.17,-0.36 2.38,-1.37 2.44,-2.79l-0.3 0.01c-0.28,2.77 -3.99,3.55 -5.9,2.01 -0.54,-0.43 -1.03,-1 -1.12,-2.02l-0.3 -0c0.01,0.43 0.15,0.81 0.32,1.13 0.08,0.16 0.19,0.31 0.29,0.44 0.2,0.26 0.29,0.23 0.2,0.43z"/>
   <path class="fil1" d="M2.48 4.47c1.46,0.25 3.72,0.23 5.24,-0.05 0.17,-0.03 0.57,-0.06 0.51,-0.27 -0.05,-0.18 -0.47,-0.01 -0.63,0.01 -0.23,0.04 -0.46,0.08 -0.69,0.1 -0.5,0.06 -1,0.09 -1.51,0.1 -0.65,0.02 -2.41,-0.02 -3,-0.19 -0.15,-0.02 -0.31,-0.05 -0.45,-0.09 -0.07,-0.02 -0.15,-0.05 -0.22,-0.02 -0.06,0.02 -0.1,0.09 -0.07,0.18 0.06,0.13 0.64,0.19 0.82,0.22z"/>
   <path class="fil1" d="M3.71 1.05c-0.11,0.04 -0.29,0.06 -0.42,0.09 -0.27,0.07 -1.24,0.39 -1.3,0.54 -0.04,0.09 0.01,0.17 0.07,0.19 0.12,0.04 0.67,-0.34 1.18,-0.43 0.16,-0.09 0.89,-0.18 1.12,-0.2 2.09,-0.18 3.21,0.61 3.36,0.64 0.1,0.02 0.18,-0.06 0.16,-0.16 -0.02,-0.13 -0.53,-0.32 -0.65,-0.36 -0.33,-0.13 -0.69,-0.23 -1.06,-0.3 -0.88,-0.16 -1.59,-0.13 -2.47,-0z"/>
   <path class="fil1" d="M4.26 2.59c-0.11,0.05 -0.17,0.27 0.15,0.26 0.89,-0.02 1.88,0.01 2.76,0.13 0.14,0.02 0.93,0.18 0.98,0.16 0.04,-0.02 0.24,-0.2 -0.12,-0.28 -0.48,-0.11 -1.01,-0.18 -1.51,-0.22 -0.31,-0.03 -2.09,-0.12 -2.26,-0.04z"/>
   <path class="fil1" d="M2.53 2.72c-0.12,0.08 -0.79,0.09 -0.86,0.23 -0.04,0.07 -0,0.15 0.05,0.18 0.09,0.06 0.45,-0.07 0.69,-0.09 0.15,-0.04 0.48,-0.08 0.65,-0.09 0.11,-0.01 0.23,-0.02 0.34,-0.03 0.12,-0.01 0.24,0 0.29,-0.1 0.12,-0.27 -0.36,-0.17 -0.49,-0.16 -0.16,0.02 -0.55,0.09 -0.67,0.07z"/>
  </g>
 </g>
</svg>
