<?xml version="1.0" encoding="UTF-8"?>
<!DOCTYPE svg PUBLIC "-//W3C//DTD SVG 1.1//EN" "http://www.w3.org/Graphics/SVG/1.1/DTD/svg11.dtd">
<!-- Creator: CorelDRAW -->
<svg xmlns="http://www.w3.org/2000/svg" xml:space="preserve" width="130.15mm" height="135.45mm" version="1.1" style="shape-rendering:geometricPrecision; text-rendering:geometricPrecision; image-rendering:optimizeQuality; fill-rule:evenodd; clip-rule:evenodd"
viewBox="0 0 551.56 574.02"
 xmlns:xlink="http://www.w3.org/1999/xlink"
 xmlns:xodm="http://www.corel.com/coreldraw/odm/2003">
 <defs>
  <style type="text/css">
   <![CDATA[
    .fil0 {fill:black}
    .fil2 {fill:#A1E52E}
    .fil1 {fill:#BAEB6C}
    .fil3 {fill:#FDF38A}
    .fil4 {fill:#FFEB57}
   ]]>
  </style>
 </defs>
 <g id="Camada_x0020_1">
  <metadata id="CorelCorpID_0Corel-Layer"/>
  <g id="_2033461011728">
   <path class="fil0" d="M42.68 442.84c10.36,-8.9 8.09,-1.17 4.22,-26.98 -5.36,-35.73 -2.42,-75.02 -3.55,-110.92 -2.8,-89.56 -22.64,-107.18 -26.03,-126.08 6.14,0.89 16.39,5.04 20.44,8.31 14.62,4.48 39.34,25.1 47.75,33.19 10.88,10.47 25.79,29.4 34.42,46.31 4.21,8.24 23.32,49.44 21.69,58.16 -0.24,1.25 -14.17,18.93 -17.1,22.98 -3.07,4.24 -5.36,7.85 -8.01,12.17 -2.41,3.93 -4.82,9.33 -7.59,12.28 -0.1,-24.83 -0.04,-44.48 -5,-68.3 -1.95,-9.35 -4.83,-19.11 -8.13,-27.74 -4.01,-10.49 -5.17,-20.17 -17.81,-18.24 -8.43,9.76 -1.46,14.15 2.54,25.66 12.82,36.88 11.26,57.21 11.69,96.42 0.48,43.82 1.18,69.22 24.53,101.71 3.56,4.95 2.28,7.76 -0.1,13.63l-0.83 4.09c-21.91,-2.5 -38.38,-12.56 -49.75,-28.71 -4.44,-6.31 -5.85,-11.14 -15.8,-7.81 -10.83,8.34 9.76,27.63 15.96,33.43 6.68,6.25 26.98,17.93 38.98,18.2 -3.74,16.05 -30.45,9.93 19.88,55.24 2.36,2.12 4.52,3.46 6.56,4.18l7.52 0c10.03,-3.39 19.82,-18.82 42.08,-22.78 4.72,-0.84 2.88,-0.39 7.59,3.02 18.67,13.55 37.86,19.73 57.21,19.76l0.86 0c22.13,-0.18 44.44,-8.4 66.4,-22.85 5.93,-3.91 10.88,-6.21 7.16,-15.7 -9.66,-7.83 -14.84,2.55 -36.39,12.29 -30.53,13.8 -57.13,12.77 -84.26,-6.68 -6.79,-4.87 -24.3,-21.36 -28.18,-27.15 45.95,12.26 75.53,9.37 113.23,-18.1 5.18,-3.78 8.64,-7.37 13.41,-11.25 11.74,-9.55 46.71,-45.64 50.21,-48.43 31.6,-25.26 26.33,-20.77 61.62,-37.06 6.72,-3.1 8.18,-11.59 1.77,-15.2 -11.82,-6.66 -57.85,26.26 -64.21,31.24 -9.8,7.67 -17.54,15.71 -25.65,23.68 -15.44,15.16 -34.76,34.25 -51.69,46.97 -9.41,7.07 -20.5,12.1 -33.74,15.65 -23.03,6.18 -54.54,0.54 -75.74,-9.87 -1.31,-0.64 -1.28,-0.59 -2.3,-1.3 -1.55,-1.08 -1.1,-0.73 -2.13,-1.86 17.55,-3.71 33.78,-10.6 47.34,-18.74 27.86,-16.72 37.87,-32.67 53.37,-45.25 6.26,-5.08 11.89,-10.05 18.35,-15.32 54.46,-44.46 124.7,-73.78 198.71,-59.35 10.03,1.96 45.28,10.52 47.97,18.02 -2.3,2.98 -23.96,10.65 -29.27,13.26 -35.18,17.31 -49.17,31.92 -75.04,52.71l-22.18 20.44c-11.3,10.81 -44.1,45.31 -53.54,52.95 -5.04,4.08 -8.04,6.48 -4.57,15.35 10.16,8.07 19.21,-5.4 30.84,-17.1 5.11,-5.14 9.78,-8.22 14.59,-13.44l13.44 -14.59c9.43,-9.43 18.39,-17.67 28.01,-26.93 2.92,-2.81 4.42,-3.31 7.32,-6.13 19.55,-19.03 50.02,-38.53 74.81,-50.76 6.49,-3.2 13.84,-4.88 20.21,-7.81 6.08,-2.8 11.16,-7.14 12.25,-14.72 1.43,-9.96 -2.89,-15.72 -8.2,-19.63 -5.12,-3.78 -33.25,-14.82 -41.06,-15 0.92,-3.45 3.99,-7.56 5.96,-10.86 8.44,-14.1 23.76,-43.02 29.6,-57.85 3.45,-8.77 6.74,-15.63 9.99,-24.77 5.94,-16.66 13.32,-34.98 15.83,-53.69 4.14,-30.93 -22.17,-70.29 -68.13,-70.36 -10.54,-0.02 -20.17,3.25 -28.72,6.04l-85.62 35.47 -34.75 19.06c-1.08,-2.26 -1.51,-4.96 -2.38,-7.71l-8.98 -24.66c-2.16,-5.37 -3.93,-9.2 -8.61,-12.69 -4.51,-3.37 -10.63,-5.16 -17.1,-3.25 -12.48,3.68 -13.36,14.44 -18.02,25.74 -2.53,6.14 -9.87,24.37 -15.55,28.18 -0.43,-19.1 -20.65,-76.19 -28.83,-96.74 -6.48,-16.28 -20.85,-46.37 -29.66,-60.03 -11.86,-18.38 -32.07,-27.9 -52.86,-28.22l-2.1 0c-7.34,0.11 -14.72,1.35 -21.8,3.76 -10.01,3.41 -14.95,7.56 -22.19,13.68 -5.95,5.04 -11.72,13.57 -15.21,20.67 -3.98,8.08 -8.75,15.27 -12.17,23.71 -12.66,31.28 -19.36,40.97 -29.79,77.84 -2.08,7.36 -7.2,22.3 -7.36,29.63 -10.58,-5.08 -24.61,-11.96 -33.97,-3.7 -13.09,11.54 -5.62,21.8 -0.75,32.82 32.51,73.57 12.05,168.65 25.28,231.46 1.9,9.01 2.35,11.21 10.82,12.98z"/>
   <path class="fil1" d="M320.46 535.46c1.31,-0.55 2.14,-0.87 4.02,-2.24 1.96,-1.42 2.33,-2 4.31,-3.57 2.7,-2.13 6.73,-4.95 8.76,-7.21 -3.47,-8.87 -0.47,-11.26 4.57,-15.35 9.44,-7.64 42.24,-42.15 53.54,-52.95l22.18 -20.44c25.86,-20.79 39.86,-35.4 75.04,-52.71 5.31,-2.61 26.97,-10.28 29.27,-13.26 -2.69,-7.51 -37.94,-16.07 -47.97,-18.02 -74.01,-14.43 -144.26,14.89 -198.71,59.35 -6.45,5.27 -12.09,10.24 -18.35,15.32 -15.5,12.58 -25.5,28.53 -53.37,45.25 -13.56,8.14 -29.79,15.02 -47.34,18.74 1.04,1.13 0.59,0.78 2.13,1.86 1.02,0.72 0.99,0.66 2.3,1.3 21.19,10.41 52.7,16.05 75.74,9.87 13.23,-3.55 24.33,-8.58 33.74,-15.65 16.92,-12.72 36.25,-31.81 51.69,-46.97 8.12,-7.97 15.85,-16 25.65,-23.68 6.36,-4.98 52.38,-37.9 64.21,-31.24 6.41,3.61 4.94,12.1 -1.77,15.2 -35.28,16.29 -30.02,11.81 -61.62,37.06 -3.49,2.79 -38.47,38.88 -50.21,48.43 -4.77,3.88 -8.23,7.47 -13.41,11.25 -37.7,27.48 -67.28,30.36 -113.23,18.1 3.88,5.8 21.39,22.28 28.18,27.15 27.13,19.46 53.73,20.48 84.26,6.68 21.55,-9.74 26.73,-20.12 36.39,-12.29z"/>
   <path class="fil1" d="M148.92 449.2c2.02,-41.21 22.74,-62.12 44.29,-86.5l25.61 -27.11c3.46,-3.49 8.81,-11.29 16.06,-10.06 6.08,1.03 9.88,8.38 2.13,15.92 -16.56,16.09 -50.34,49.89 -60.76,70.43 -6.29,12.41 -10.24,26.04 -10.75,41.95 10.61,-2.59 25.06,-11.93 32.26,-17.1 10.38,-7.45 17.58,-15.5 25.94,-23.38 8.25,-7.77 44.76,-40.87 55.79,-44.52 6.73,-7.72 17.86,-29.19 23.23,-41.24 6.32,-14.18 12.65,-32.16 16.18,-48.92 7.34,-34.92 6.23,-82.39 -7.57,-113.41l-21.93 38.01c-8.45,13.06 -16.89,23.03 -26,34.49 -47.62,59.91 -166.68,140.69 -127.07,222.04 3.95,0.73 7.68,0.7 11.59,-1.25l1.03 -9.34z"/>
   <path class="fil1" d="M116.66 495.4c2.37,-5.87 3.66,-8.68 0.1,-13.63 -23.35,-32.48 -24.05,-57.89 -24.53,-101.71 -0.43,-39.21 1.13,-59.54 -11.69,-96.42 -4,-11.51 -10.97,-15.9 -2.54,-25.66 12.63,-1.93 13.8,7.75 17.81,18.24 3.3,8.64 6.18,18.4 8.13,27.74 4.96,23.82 4.9,43.47 5,68.3 2.77,-2.95 5.18,-8.35 7.59,-12.28 2.65,-4.32 4.94,-7.93 8.01,-12.17 2.93,-4.04 16.86,-21.72 17.1,-22.98 1.64,-8.73 -17.48,-49.92 -21.69,-58.16 -8.63,-16.91 -23.54,-35.84 -34.42,-46.31 -8.41,-8.09 -33.12,-28.71 -47.75,-33.19 -1.29,2.37 0.09,4.48 1.72,8.56 7.83,19.58 13.02,49.37 15.05,70.02 6.99,71.12 -10.75,158.11 32.65,210.82 4.15,5.04 19.55,17.05 29.46,18.83z"/>
   <path class="fil2" d="M148.92 449.2l-1.03 9.34c-3.9,1.95 -7.64,1.97 -11.59,1.25 -39.61,-81.36 79.45,-162.13 127.07,-222.04 9.11,-11.46 17.55,-21.44 26,-34.49l21.93 -38.01c-1.6,-5.12 -4.42,-14.54 -8.78,-17.75 -4.56,2.25 -2.47,2.08 -5.7,10.5 -1.49,3.89 -3.23,8.3 -4.94,11.89 -3.93,8.2 -7.19,14.43 -11.56,22.05 -53.79,93.88 -170,154.87 -167.64,234.11 0.55,18.39 9.85,38.31 19.43,48.06l17.36 -1.32 -0.55 -23.58z"/>
   <path class="fil2" d="M42.68 442.84c2.24,6.48 4.33,14.17 7.59,20.12 9.95,-3.33 11.36,1.5 15.8,7.81 11.37,16.16 27.85,26.22 49.75,28.71l0.83 -4.09c-9.92,-1.78 -25.32,-13.79 -29.46,-18.83 -43.4,-52.71 -25.66,-139.7 -32.65,-210.82 -2.03,-20.65 -7.23,-50.44 -15.05,-70.02 -1.63,-4.08 -3.01,-6.19 -1.72,-8.56 -4.05,-3.28 -14.3,-7.43 -20.44,-8.31 3.39,18.9 23.23,36.52 26.03,126.08 1.12,35.9 -1.82,75.2 3.55,110.92 3.87,25.8 6.14,18.08 -4.22,26.98z"/>
   <path class="fil3" d="M353.04 275.8l41.08 41.25c8.83,-9.8 16.72,-18.42 25.55,-28.91 -4.07,-5.23 -34.95,-36.22 -39.22,-38.39 -2.36,4.54 -23.3,19.66 -27.41,26.05z"/>
   <polygon class="fil3" points="121.22,222.75 179.86,223.29 177.72,184.47 123.7,184.24 "/>
   <path class="fil4" d="M373.17 320.63l-24.48 8.19c-14.29,4.77 -7.51,-8.89 -5.19,-16.52 1.5,-4.96 2.41,-11.57 4.99,-16l-8.09 -8.92c-11.4,6.92 -10.97,19.69 -20.84,42.44 -8.23,18.99 -19.29,35.49 -22.24,42.44 8.52,-3.09 31.21,-20.03 64.33,-30.6 12.84,-4.1 14.3,-2.87 20.41,-12.05l-8.9 -8.98z"/>
   <path class="fil3" d="M394.9 238.61c2.03,2.81 32.44,34.22 36.55,35.86 3.36,-3.03 23.16,-27.09 24.48,-30.18 -5.82,-5.88 -25.66,-27.37 -31.2,-30.32 -3.11,1.58 -28.23,22.32 -29.83,24.64z"/>
   <polygon class="fil3" points="124.65,167.41 176.4,167.43 172.73,128.48 128.47,128.47 "/>
   <path class="fil3" d="M443.61 287.01c3.63,6.21 27.21,27.84 33.87,34.47 3.34,-2.78 18.55,-30.06 20.03,-35.79 -9.14,-7.99 -20.05,-21.97 -29.18,-28.54 -1.97,1.33 -23.6,27.58 -24.73,29.86z"/>
   <path class="fil2" d="M165.49 453.82l0.58 13.64c13.93,-0.28 39.16,-19.02 50.28,-27.8l27.38 -25.33c8.26,-8.7 31.64,-36.63 35.74,-45.51 -11.04,3.64 -47.54,36.74 -55.79,44.52 -8.36,7.88 -15.55,15.93 -25.94,23.38 -7.2,5.17 -21.65,14.51 -32.26,17.1z"/>
   <path class="fil3" d="M193.25 166.69c6.54,1.87 39.49,0.73 48.85,0.73 -0.77,-5.25 -8.52,-37.69 -12.45,-38.95l-40.08 0 3.68 38.22z"/>
   <path class="fil3" d="M222.68 223.24c1.69,-3.2 3.81,-5.33 5.95,-7.9 2.97,-3.57 3.56,-4.45 6.42,-8.14 3.43,-4.42 9.37,-11.59 11.7,-17.27l-0.7 -5.54 -51.01 -0.18 1.66 38.28c6.06,1.89 19.01,0.78 25.99,0.74z"/>
   <path class="fil2" d="M113.68 533.66l21.6 22.42c10.25,-5.15 7.86,-8.29 29.64,-17.65l4.18 -2.53 -35.69 -35.53c-3.08,4.82 -5.41,12.47 -8.26,17.38 -3.86,6.66 -7.66,10.22 -11.47,15.91z"/>
   <path class="fil3" d="M131.16 111.67l39.63 0c0.03,-7.45 -4.3,-29.56 -5.56,-38.39l-29.35 -0.59c-1.17,9.2 -5.63,31.73 -4.72,38.98z"/>
   <path class="fil3" d="M438.85 202.92l28.33 28.53c3.59,-7.2 19.89,-24.64 22.72,-31.89l-20.07 -20.13c-7.91,4.9 -24.81,17.35 -30.98,23.49z"/>
   <path class="fil3" d="M357.15 200.92l24.94 25.34c2.5,-1 26.9,-21.03 30.15,-24.45 -1.14,-3.07 -1.69,-3.05 -4.31,-5.61 -2.15,-2.11 -3.49,-3.45 -5.63,-5.59 -3.52,-3.52 -6.9,-8.14 -10.94,-10.01 -5.21,2.64 -30.41,15.2 -34.2,20.33z"/>
   <polygon class="fil3" points="71.74,167.42 107.93,167.43 111.48,128.48 82.01,128.5 "/>
   <path class="fil3" d="M187.65 111.39l37.06 0.3c-0.48,-4.79 -10.46,-27.89 -13.74,-34.65 -3.29,-6.77 -3.71,-4.39 -28.68,-4.39l5.37 38.74z"/>
   <path class="fil3" d="M479.13 243.28l26.14 26.32c3.34,-4.99 14.29,-31.49 15.84,-38.65l-18.64 -18.88c-4.16,5.24 -7.76,10.34 -11.65,15.45 -4.03,5.29 -7.8,9.84 -11.68,15.76z"/>
   <path class="fil4" d="M180.18 253.45c-1.97,12.16 3.92,9.26 -4.44,18.89 -15.58,17.97 -16.91,7.89 -26.23,-11.73 -2.35,-4.95 -9.33,-17.66 -12.92,-20.68 -0.18,-0.07 -8.82,-1.17 -11.81,2.03 11.92,19.81 24.68,42.01 30.48,67.73 4.14,-2.14 7.34,-6.61 10.66,-10.17 16.69,-17.92 15.46,-11.24 15.22,-25.94 -0.1,-6.11 1.05,-15.29 -0.96,-20.12z"/>
   <path class="fil3" d="M124.78 241.96c2.99,-3.2 11.63,-2.1 11.81,-2.03 3.6,3.03 10.57,15.73 12.92,20.68 9.31,19.62 10.65,29.7 26.23,11.73 8.36,-9.64 2.46,-6.73 4.44,-18.89l0.34 -13.38 -55.14 0.05c-1.07,1.39 -1.06,-0.49 -0.6,1.84z"/>
   <path class="fil0" d="M276.1 254.41c-6.7,3.13 -6.09,7.85 -9.2,14.91l-16.57 30.67c-2.57,7.38 3.34,14.21 10.86,10.78 5.44,-2.48 14.87,-21.91 18.38,-28.8 2.09,-4.11 5.83,-12.28 6.84,-16.79 1.77,-7.94 -4.04,-13.69 -10.31,-10.77z"/>
   <path class="fil3" d="M408.71 172.17c1.75,3.57 14.18,16.24 18.77,18.59 3.89,-5.78 23.4,-17.24 29.64,-23.71l-11.25 -10.79c-5.43,1.09 -33.69,13.21 -37.15,15.91z"/>
   <path class="fil3" d="M112.97 110.78l5.97 -38.12 -15.63 0.01c-1.65,5.95 -5.29,12.53 -7.69,18.66 -2.53,6.45 -5,12.64 -7.2,19.31l24.54 0.14z"/>
   <path class="fil4" d="M445.67 314.32l-25.42 -0.4c-3.26,2.71 -13.19,11.89 -13.25,16.59 7.15,0.69 19.44,-1.19 27.81,-1.21 8.76,-0.02 19.8,1.65 27.59,1.18l-16.73 -16.16z"/>
   <path class="fil4" d="M356.35 249.2c-2.54,-3.18 -1.7,-21.61 -1.5,-22.43 1.02,-4.14 -1.55,0.47 1.08,-2.2l-16.64 -17.07c0.36,9.81 1.06,18.37 1.01,27.93 -0.04,7.18 -2.33,22.04 -0.55,27.8 4.05,-1.52 13.1,-10.66 16.61,-14.03z"/>
   <path class="fil3" d="M373.17 320.63c-2.73,-4 -21.16,-22.58 -24.68,-24.33 -2.58,4.42 -3.49,11.04 -4.99,16 -2.31,7.64 -9.1,21.29 5.19,16.52l24.48 -8.19z"/>
   <path class="fil3" d="M139.11 55.79l4.22 0.06 14.57 -0.01 4.16 -0.08c-0.71,-13.5 -4.83,-29.66 -11.52,-38.4 -6.82,7.57 -10.65,25.95 -11.43,38.43z"/>
   <path class="fil3" d="M484.34 169.29l16.01 16.52c6.92,-8.13 17.92,-24.52 19.18,-35.65 -10.86,1.21 -30.1,13.58 -35.19,19.13z"/>
   <path class="fil4" d="M112.97 110.78l-24.54 -0.14c2.2,-6.67 4.67,-12.86 7.2,-19.31 2.4,-6.13 6.04,-12.7 7.69,-18.66 -13.43,-0.02 -10.08,-2.79 -19.19,18.37 -2.29,5.33 -6.88,15.29 -7.64,20.62 8.42,0.03 30.82,2.2 36.49,-0.88z"/>
   <path class="fil4" d="M71.74 167.42l10.26 -38.92c-11.93,-0.02 -11.51,-2.16 -14.73,8.47 -3.04,10.04 -6.29,19.86 -8.2,30.45l12.67 -0z"/>
   <path class="fil4" d="M357.15 200.92c3.8,-5.12 28.99,-17.69 34.2,-20.33 -1.93,-3.46 -4.7,-6.18 -8.11,-8.23 -6.16,2.18 -30.72,15.73 -34.74,19.35 1.72,3.51 5.4,6.84 8.64,9.21z"/>
   <path class="fil3" d="M512.67 198.05c3.89,4.24 10.42,11.26 14.86,14.63 4.07,-11.64 10.73,-30.54 3.7,-42.5l-18.57 27.87z"/>
   <path class="fil3" d="M179.63 55.72l20.52 0.09c-4.61,-13.72 -16.17,-28.45 -27.64,-33.41l7.11 33.33z"/>
   <path class="fil4" d="M105.57 200.82c-4.96,-2.27 -5.61,-4.85 -10.23,-8.21 -2.71,-1.97 -6.28,-4.78 -8.87,-7.48l19.87 -0.11c-5.89,-2.62 -29.58,-0.78 -37.99,-0.76l27.54 22.41c2.74,2.54 6.05,6.85 8.94,8.57l0.75 -14.42z"/>
   <path class="fil4" d="M408.71 172.17c3.47,-2.7 31.72,-14.81 37.15,-15.91l-7.39 -8.06c-6.53,2.74 -13.14,4.93 -19.47,7.54 -6.5,2.67 -12.48,5.78 -19.11,7.98l8.83 8.45z"/>
   <path class="fil4" d="M222.68 223.24l16.11 -0.02c2.16,-4.55 7.55,-9.44 9.9,-13.67 2.54,-4.58 -0.04,-14.98 -1.94,-19.62 -2.34,5.67 -8.28,12.84 -11.7,17.27 -2.86,3.69 -3.45,4.58 -6.42,8.14 -2.14,2.57 -4.26,4.7 -5.95,7.9z"/>
   <path class="fil4" d="M197.89 266.28c3.28,-0.31 10.54,-9.69 13.2,-12.42 2.52,-2.59 4.41,-3.95 6.74,-6.68 2.14,-2.51 3.59,-4.67 5.72,-6.76l-26.13 -0.39 0.47 26.25z"/>
   <path class="fil4" d="M121.85 54.79l-9.57 0.22c1.36,-3.68 4.39,-9.25 6.13,-12.68 2.89,-5.69 5.39,-11.87 7.25,-9.43l2.99 -10.5c-10.77,4.45 -23.61,20.27 -27.64,33.33 5.82,0.2 16.55,1.73 20.83,-0.95z"/>
   <path class="fil4" d="M464.85 150.2c1.66,-2.06 2.69,-2.31 6.77,-3.59 2.73,-0.86 4.82,-1.42 7.71,-2.31 2.79,-0.86 5.32,-1.67 7.77,-2.36 3,-0.85 5.59,-1.93 8.39,-0.67 0.14,-0.09 2,-1.19 2.04,-1.22l2.68 -2.23c-12.97,-2.24 -30.58,-2.92 -42.76,4.57l7.4 7.82z"/>
   <path class="fil3" d="M356.35 249.2c3,-2.05 10.9,-9.05 12.83,-11.53l-13.25 -13.1c-2.63,2.67 -0.06,-1.94 -1.08,2.2 -0.2,0.82 -1.04,19.24 1.5,22.43z"/>
   <path class="fil3" d="M420.26 313.92l25.42 0.4c-2.28,-3.16 -10.74,-12.02 -14.56,-14.13 -3.26,5.52 -8.22,8.64 -10.86,13.73z"/>
   <path class="fil3" d="M464.85 150.2l6.72 6.82c3.55,-1.9 8.5,-5.58 11.65,-7.75 4.18,-2.87 7.65,-5.24 12.27,-8.01 -2.81,-1.26 -5.39,-0.17 -8.39,0.67 -2.44,0.69 -4.97,1.5 -7.77,2.36 -2.89,0.89 -4.98,1.45 -7.71,2.31 -4.08,1.29 -5.11,1.54 -6.77,3.59z"/>
   <path class="fil3" d="M105.57 200.82l0.77 -15.81 -19.87 0.11c2.59,2.71 6.17,5.51 8.87,7.48 4.61,3.37 5.26,5.94 10.23,8.21z"/>
   <path class="fil3" d="M121.85 54.79l3.82 -21.89c-1.86,-2.44 -4.37,3.74 -7.25,9.43 -1.74,3.43 -4.77,9 -6.13,12.68l9.57 -0.22z"/>
  </g>
 </g>
</svg>
