<?xml version="1.0" encoding="UTF-8"?>
<!DOCTYPE svg PUBLIC "-//W3C//DTD SVG 1.1//EN" "http://www.w3.org/Graphics/SVG/1.1/DTD/svg11.dtd">
<!-- Creator: CorelDRAW -->
<svg xmlns="http://www.w3.org/2000/svg" xml:space="preserve" width="13.9264mm" height="16mm" version="1.1" style="shape-rendering:geometricPrecision; text-rendering:geometricPrecision; image-rendering:optimizeQuality; fill-rule:evenodd; clip-rule:evenodd"
viewBox="0 0 8.09 9.29"
 xmlns:xlink="http://www.w3.org/1999/xlink"
 xmlns:xodm="http://www.corel.com/coreldraw/odm/2003">
 <defs>
  <style type="text/css">
   <![CDATA[
    .fil0 {fill:black}
    .fil1 {fill:#A0DF3E}
    .fil2 {fill:#BBE972}
    .fil6 {fill:#D0EFA1}
    .fil7 {fill:#F8C52D}
    .fil5 {fill:#FCDC45}
    .fil4 {fill:#FDE782}
    .fil3 {fill:#FDF0B1}
   ]]>
  </style>
 </defs>
 <g id="Camada_x0020_1">
  <metadata id="CorelCorpID_0Corel-Layer"/>
  <g id="_1433375303344">
   <path class="fil0" d="M3.52 1.97c0.2,0.11 0.26,-0.07 0.58,-0.32 0.09,-0.08 0.17,-0.15 0.26,-0.23 0.05,-0.04 0.09,-0.07 0.13,-0.11 0.04,-0.04 0.1,-0.08 0.13,-0.11l-0.23 0.65c-0.2,0.6 -0.41,1.52 -0.53,2.14 -0.11,0.61 -0.22,1 -0.45,1.54 -0.07,0.16 -0.08,0.09 -0.43,0.24 -0.11,0.05 -0.2,0.09 -0.3,0.15 -0.11,0.06 -0.22,0.09 -0.14,0.26 0.13,0.12 0.22,-0.01 0.53,-0.15 0.4,-0.19 0.89,-0.28 1.33,-0.3 0.27,-0.01 0.53,0.03 0.79,0.01 0.45,-0.04 0.5,-0.14 0.79,-0.25 -0.08,0.2 -0.72,1.07 -0.85,1.24 -0.16,0.2 -0.32,0.38 -0.47,0.56l-0.26 0.26c-0.05,0.04 -0.08,0.09 -0.12,0.13 -0.39,0.36 -0.93,0.75 -1.46,0.9 -0.63,0.17 -1.24,-0.03 -1.62,-0.35l0.1 -0.27c0.07,-0.27 0.51,-0.95 0.74,-1.17 0.19,-0.18 0.29,-0.22 0.23,-0.38 -0.15,-0.09 -0.19,-0.05 -0.38,0.16 -0.06,0.06 -0.1,0.09 -0.15,0.16 -0.18,0.24 -0.19,0.23 -0.39,0.54 -0.07,0.11 -0.16,0.32 -0.22,0.4 -0.1,-1.28 0.69,-2.69 1.44,-3.6 0.08,-0.09 0.14,-0.18 0.21,-0.26l0.65 -0.71c0.09,-0.14 -0.06,-0.28 -0.19,-0.19 -0.01,0 -0.04,0.04 -0.06,0.05 -0.02,0.02 -0.03,0.03 -0.06,0.05l-0.22 0.24c-0.04,0.05 -0.08,0.07 -0.12,0.12 -1.17,1.34 -1.98,2.52 -1.94,4.51 -0.18,-0.13 -0.32,-0.57 -0.35,-0.77 -0.05,-0.34 0,-0.68 0.09,-0.99 0.28,-1 0.96,-1.8 1.59,-2.57l0.4 -0.44c0.15,-0.17 0.17,-0.17 0.28,-0.28 0.1,-0.1 0.19,-0.18 0.28,-0.28 0.11,-0.13 0.23,-0.13 0.14,-0.34 -0.17,-0.08 -0.23,0.04 -0.34,0.15l-0.56 0.57c-0.08,0.11 -0.14,0.14 -0.2,0.22l-0.58 0.69c-0.25,0.31 -0.5,0.65 -0.71,1l-0.2 0.36c-0.2,0.34 -0.38,0.83 -0.45,1.24 -0.02,0.13 -0.05,0.37 -0.03,0.51 0.01,0.09 0.01,0.17 0.03,0.25 0.04,0.21 0.13,0.47 0.24,0.63 -0.13,0.19 -0.71,0.51 -0.28,0.88l0.4 0.34c0.15,0.12 0.24,0.23 0.4,0.25l0.08 0c0,-0 0.01,-0 0.01,-0 0.14,-0.02 0.21,-0.12 0.27,-0.22 0.27,-0.39 0.16,-0.3 0.42,-0.23 0.08,0.02 0.14,0.04 0.22,0.05 0.48,0.09 0.96,-0.03 1.36,-0.23 0.07,-0.03 0.11,-0.06 0.18,-0.09 0.07,-0.04 0.11,-0.07 0.17,-0.1 0.12,-0.07 0.22,-0.14 0.33,-0.23 0.34,-0.25 0.64,-0.55 0.91,-0.87 0.46,-0.52 0.89,-1.08 1.24,-1.68 0.03,-0.05 0.08,-0.13 0.1,-0.17 0.07,-0.17 -0.03,-0.33 -0.16,-0.36l0 -0.15c0.16,-0.08 0.2,-0.06 0.35,-0.26 0.05,-0.06 0.08,-0.11 0.11,-0.2 0.04,-0.14 0.02,-0.14 0.01,-0.26 0.26,-0.12 0.15,-0.05 0.34,-0.26 0.14,-0.16 0.15,-0.27 0.13,-0.45 0.04,-0.02 0.07,-0.02 0.11,-0.04 0.04,-0.02 0.06,-0.04 0.1,-0.06 0.1,-0.07 0.23,-0.23 0.26,-0.36 0.03,-0.15 0.01,-0.14 0.01,-0.26 0.22,-0.02 0.58,-0.41 0.41,-0.79 -0.11,-0.24 -0.07,-0.03 0.07,-0.45 0.03,-0.08 0.11,-0.3 0.06,-0.38 -0.03,-0.06 -0.04,-0.04 -0.09,-0.07 -0.19,0.03 -0.15,0.09 -0.2,0.26 -0.04,0.13 -0.09,0.22 -0.12,0.34 -0.07,-0.02 -0.11,-0.06 -0.19,-0.08 -0.09,-0.03 -0.17,-0.01 -0.21,-0.04 -0.03,-0.28 -0.15,-0.32 -0.3,-0.45 -0.15,-0.13 -0.23,-0.21 -0.52,-0.23 -0.03,-0.06 -0.04,-0.15 -0.07,-0.21 -0.04,-0.08 -0.07,-0.09 -0.11,-0.16 0.08,-0.03 0.17,-0.1 0.27,-0.15 0.29,-0.15 0.87,-0.25 0.98,-0.08 0.1,0.04 0.18,0.13 0.23,0.22 0.07,0.13 0.04,0.2 0.22,0.19 0.12,-0.07 0.11,-0.13 0.05,-0.26 -0.16,-0.34 -0.44,-0.49 -0.75,-0.51l-0.21 0c-0.16,0.01 -0.32,0.05 -0.48,0.12 -0.08,0.03 -0.21,0.1 -0.28,0.14l-0.25 0.16c-0.08,0 -0.38,-0.26 -0.76,0.23 -0.05,0.07 -0.1,0.17 -0.1,0.28 -0.14,0 -0.13,0.01 -0.24,0.04 -0.17,-0.11 -0.19,-0.23 -0.45,-0.02 -0.06,0.05 -0.12,0.1 -0.19,0.16 -0.07,0.05 -0.13,0.1 -0.19,0.16l-0.55 0.48c-0.07,0.07 -0.12,0.13 -0.05,0.23z"/>
   <path class="fil1" d="M3.52 1.97c-0.06,0.06 -0.07,0.08 -0.14,0.13 -0.06,0.04 -0.08,0.08 -0.14,0.12 0.08,0.21 -0.04,0.21 -0.14,0.34 -0.09,0.11 -0.18,0.18 -0.28,0.28 -0.11,0.12 -0.13,0.11 -0.28,0.28l-0.4 0.44c-0.64,0.76 -1.31,1.56 -1.59,2.57 -0.09,0.31 -0.14,0.65 -0.09,0.99 0.03,0.19 0.17,0.64 0.35,0.77 -0.04,-1.98 0.77,-3.16 1.94,-4.51 0.04,-0.04 0.08,-0.07 0.12,-0.12l0.22 -0.24c0.02,-0.02 0.03,-0.03 0.06,-0.05 0.01,-0.01 0.05,-0.05 0.06,-0.05 0.13,-0.09 0.28,0.05 0.19,0.19l-0.65 0.71c-0.07,0.08 -0.14,0.16 -0.21,0.26 -0.75,0.9 -1.53,2.31 -1.44,3.6 0.06,-0.07 0.16,-0.29 0.22,-0.4 0.2,-0.31 0.21,-0.3 0.39,-0.54 0.05,-0.07 0.09,-0.1 0.15,-0.16 0.19,-0.21 0.23,-0.25 0.38,-0.16 0.05,-0.09 0.19,-0.18 0.3,-0.23 -0.08,-0.17 0.04,-0.2 0.14,-0.26 0.11,-0.06 0.19,-0.1 0.3,-0.15 0.35,-0.15 0.36,-0.08 0.43,-0.24 0.24,-0.54 0.34,-0.93 0.45,-1.54 0.12,-0.62 0.33,-1.54 0.53,-2.14l0.23 -0.65c-0.03,0.03 -0.09,0.07 -0.13,0.11 -0.04,0.04 -0.08,0.07 -0.13,0.11 -0.09,0.08 -0.17,0.15 -0.26,0.23 -0.32,0.26 -0.38,0.43 -0.58,0.32z"/>
   <path class="fil2" d="M2.53 6.18c-0.11,0.05 -0.25,0.14 -0.3,0.23 0.06,0.16 -0.04,0.2 -0.23,0.38 -0.22,0.22 -0.66,0.9 -0.74,1.17 0.15,0.02 0.28,0.11 0.46,0.11 -0.23,-0.36 0.29,-0.14 0.89,-0.3 0.33,-0.09 0.63,-0.23 0.88,-0.39 0.27,-0.17 0.51,-0.36 0.73,-0.54 0.06,-0.05 0.1,-0.1 0.16,-0.15 0.06,-0.05 0.11,-0.1 0.16,-0.16 0.05,-0.05 0.11,-0.11 0.16,-0.17 0.04,-0.05 0.09,-0.13 0.16,-0.16 0.02,-0.06 0.04,-0.07 0.07,-0.12 0.03,-0.04 0.06,-0.07 0.09,-0.11 0.05,-0.07 0.12,-0.14 0.15,-0.22 -0.26,0.01 -0.52,-0.02 -0.79,-0.01 -0.45,0.02 -0.94,0.11 -1.33,0.3 -0.3,0.14 -0.4,0.27 -0.53,0.15z"/>
   <path class="fil1" d="M5.18 5.75c-0.03,0.08 -0.1,0.15 -0.15,0.22 -0.03,0.04 -0.06,0.07 -0.09,0.11 -0.04,0.05 -0.06,0.06 -0.07,0.12 0.11,-0.01 0.19,0.03 0.18,0.15 -0.01,0.1 -0.42,0.5 -0.48,0.56 -0.49,0.45 -0.98,0.83 -1.66,1.07 -0.25,0.09 -0.91,0.23 -1.18,0.1 -0.18,-0 -0.31,-0.09 -0.46,-0.11l-0.1 0.27c0.38,0.32 0.99,0.52 1.62,0.35 0.54,-0.14 1.07,-0.53 1.46,-0.9 0.05,-0.04 0.08,-0.09 0.12,-0.13l0.26 -0.26c0.16,-0.19 0.32,-0.36 0.47,-0.56 0.13,-0.16 0.77,-1.04 0.85,-1.24 -0.29,0.11 -0.34,0.21 -0.79,0.25z"/>
   <path class="fil0" d="M1.73 8.08c0.26,0.13 0.92,-0.01 1.18,-0.1 0.67,-0.23 1.16,-0.62 1.66,-1.07 0.07,-0.06 0.47,-0.46 0.48,-0.56 0.01,-0.12 -0.07,-0.16 -0.18,-0.15 -0.07,0.03 -0.11,0.11 -0.16,0.16 -0.05,0.06 -0.11,0.11 -0.16,0.17 -0.06,0.06 -0.1,0.11 -0.16,0.16 -0.06,0.05 -0.1,0.1 -0.16,0.15 -0.22,0.19 -0.45,0.37 -0.73,0.54 -0.25,0.16 -0.55,0.3 -0.88,0.39 -0.6,0.16 -1.12,-0.06 -0.89,0.3z"/>
   <path class="fil3" d="M7.26 1.64c0.02,-0.02 0.01,-0.01 0.03,-0.03 0.01,-0.01 0.02,-0.03 0.02,-0.03 0.01,-0.02 0.02,-0.04 0.03,-0.06 0.02,-0.05 0.04,-0.09 0.06,-0.14 0.12,-0.28 0.23,-0.73 0.11,-1.01 -0.11,-0.17 -0.69,-0.07 -0.98,0.08 -0.1,0.05 -0.19,0.12 -0.27,0.15 0.04,0.07 0.07,0.08 0.11,0.16 0.03,0.06 0.04,0.14 0.07,0.21 0.28,0.02 0.37,0.09 0.52,0.23 0.14,0.13 0.26,0.18 0.3,0.45z"/>
   <path class="fil0" d="M3.36 3.66c-0.08,0.02 -0.13,0.11 -0.21,0.22 -0.18,0.25 -0.34,0.5 -0.5,0.77 -0.1,0.18 -0.2,0.36 -0.29,0.56 -0.05,0.11 -0.28,0.62 0.04,0.53 0.1,-0.03 0.17,-0.34 0.27,-0.56 0.15,-0.32 0.44,-0.79 0.64,-1.06 0.05,-0.07 0.14,-0.17 0.18,-0.24 0.07,-0.12 -0.01,-0.25 -0.14,-0.22z"/>
   <path class="fil4" d="M7.26 1.64c0.05,0.03 0.12,0.01 0.21,0.04 0.08,0.02 0.12,0.06 0.19,0.08 0.04,-0.11 0.09,-0.21 0.12,-0.34 0.05,-0.18 0.01,-0.23 0.2,-0.26 0,-0.06 0,-0.14 0,-0.2 -0,-0.08 -0.02,-0.09 -0.02,-0.18 -0.18,0.01 -0.16,-0.06 -0.22,-0.19 -0.05,-0.1 -0.13,-0.19 -0.23,-0.22 0.12,0.28 0.01,0.74 -0.11,1.01 -0.02,0.05 -0.04,0.09 -0.06,0.14 -0.01,0.02 -0.02,0.04 -0.03,0.06 -0,0.01 -0.02,0.03 -0.02,0.03 -0.02,0.03 -0.01,0.01 -0.03,0.03z"/>
   <path class="fil4" d="M5.22 5.3c0.15,-0.05 0.16,-0.1 0.24,-0.19 0.07,-0.08 0.13,-0.15 0.14,-0.3 -0.05,-0.05 -0.21,-0.19 -0.28,-0.21 -0.26,-0.07 -0.55,0.36 -0.38,0.49 0.05,0.04 0.1,0.06 0.15,0.11 0.06,0.05 0.08,0.07 0.14,0.11z"/>
   <path class="fil4" d="M4.83 3.8c0.13,-0.03 0.17,-0.1 0.23,-0.17 0.07,-0.08 0.12,-0.14 0.11,-0.28 -0.21,-0.23 -0.37,-0.31 -0.58,-0.07 -0.08,0.1 -0.15,0.23 -0.03,0.32 0.09,0.07 0.17,0.15 0.26,0.21z"/>
   <path class="fil5" d="M4.27 4.49c0.11,0.01 0.2,-0.11 0.25,-0.17 0.05,-0.06 0.15,-0.18 0.12,-0.3 -0.01,-0.03 -0.38,-0.41 -0.46,-0.19 -0,0.01 -0.01,0.06 -0.02,0.07l-0.08 0.46c0.14,0.07 0.1,0.11 0.19,0.13z"/>
   <path class="fil5" d="M5.35 3.12c0.14,-0 0.37,-0.27 0.35,-0.45 -0.03,-0.06 -0.17,-0.17 -0.25,-0.18 -0.15,-0.03 -0.23,0.06 -0.3,0.14 -0.05,0.06 -0.15,0.2 -0.07,0.3 0.03,0.04 0.23,0.19 0.25,0.2z"/>
   <path class="fil6" d="M0.72 8.81c0.11,-0.06 0.18,-0.26 0.28,-0.35 -0.13,-0.14 -0.29,-0.21 -0.38,-0.39 -0.08,0.03 -0.35,0.31 -0.34,0.35 0.04,0.07 0.36,0.32 0.44,0.38z"/>
   <path class="fil5" d="M5.71 4.55c0.12,-0.02 0.18,-0.1 0.24,-0.17 0.05,-0.06 0.14,-0.17 0.1,-0.29 -0,-0 -0.24,-0.39 -0.55,-0 -0.05,0.06 -0.07,0.15 -0.05,0.25l0.26 0.21z"/>
   <path class="fil4" d="M5.9 2.45c0.11,-0.03 0.16,-0.09 0.22,-0.16 0.06,-0.07 0.11,-0.14 0.11,-0.27 -0.16,-0.19 -0.34,-0.22 -0.5,-0.01 -0.04,0.06 -0.13,0.18 -0.05,0.27 0.02,0.02 0.21,0.17 0.22,0.17z"/>
   <path class="fil5" d="M3.88 5.1l-0.11 0.29c0.3,0.14 0.35,0.02 0.5,-0.17 0.16,-0.2 0.01,-0.39 -0.19,-0.5 0.01,0.1 -0.02,0.17 -0.06,0.23 -0.03,0.05 -0.1,0.13 -0.15,0.15z"/>
   <path class="fil4" d="M6.2 3.82c0.13,-0.04 0.14,-0.08 0.21,-0.17 0.08,-0.1 0.12,-0.13 0.13,-0.3 -0.37,-0.35 -0.62,0.17 -0.55,0.31 0.02,0.04 0.17,0.14 0.21,0.15z"/>
   <path class="fil7" d="M4.27 4.49l0.24 0.22c0.16,0.05 0.46,-0.27 0.37,-0.48 -0.03,-0.08 -0.17,-0.19 -0.24,-0.22 0.04,0.12 -0.06,0.24 -0.12,0.3 -0.05,0.07 -0.15,0.19 -0.25,0.17z"/>
   <path class="fil5" d="M6.2 3.82c0.03,0.07 0.05,0.06 0.1,0.1 0.15,0.13 0.2,0.2 0.4,-0.04 0.07,-0.08 0.14,-0.19 0.06,-0.32 -0.03,-0.05 -0.18,-0.19 -0.23,-0.21 -0,0.17 -0.05,0.2 -0.13,0.3 -0.07,0.09 -0.09,0.12 -0.21,0.17z"/>
   <path class="fil5" d="M6.41 1.79c0.12,-0.01 0.17,-0.09 0.22,-0.16 0.06,-0.08 0.12,-0.15 0.1,-0.27 -0.21,-0.33 -0.62,0.07 -0.52,0.27l0.2 0.16z"/>
   <path class="fil7" d="M5.71 4.55c0.07,0.07 0.17,0.13 0.24,0.21 0.27,0.01 0.49,-0.33 0.29,-0.53 -0.05,-0.04 -0.14,-0.12 -0.19,-0.14 0.04,0.12 -0.05,0.22 -0.1,0.29 -0.06,0.08 -0.12,0.15 -0.24,0.17z"/>
   <path class="fil7" d="M5.35 3.12l0.22 0.2c0.14,0.09 0.46,-0.2 0.36,-0.44 -0.03,-0.07 -0.16,-0.19 -0.23,-0.21 0.02,0.18 -0.21,0.45 -0.35,0.45z"/>
   <path class="fil5" d="M4.83 3.8c0.21,0.22 0.32,0.3 0.51,0.07 0.06,-0.08 0.13,-0.17 0.06,-0.31 -0.03,-0.06 -0.17,-0.18 -0.23,-0.21 0.01,0.14 -0.05,0.2 -0.11,0.28 -0.06,0.08 -0.1,0.14 -0.23,0.17z"/>
   <path class="fil5" d="M5.06 1.75c0.18,-0.05 0.3,-0.23 0.34,-0.43 -0.05,-0.07 -0.2,-0.16 -0.35,-0.09 -0.09,0.05 -0.2,0.18 -0.18,0.35 0.03,0.05 0.14,0.12 0.19,0.17z"/>
   <path class="fil5" d="M7.12 2.4c0.24,0.2 0.3,0.33 0.51,0.09 0.2,-0.23 0.02,-0.43 -0.17,-0.51 -0.01,0.13 -0.05,0.19 -0.11,0.27 -0.05,0.06 -0.11,0.14 -0.23,0.16z"/>
   <path class="fil7" d="M6.68 3.1l0.22 0.2c0.16,0.1 0.46,-0.2 0.33,-0.43 -0.03,-0.06 -0.17,-0.18 -0.24,-0.21 0.03,0.12 -0.04,0.2 -0.09,0.27 -0.05,0.07 -0.1,0.14 -0.22,0.16z"/>
   <path class="fil7" d="M6.41 1.79c0.03,0.04 0.06,0.07 0.1,0.1 0.09,0.07 0.2,0.24 0.39,-0.02 0.19,-0.25 -0.01,-0.44 -0.18,-0.51 0.03,0.12 -0.03,0.2 -0.1,0.27 -0.05,0.07 -0.1,0.15 -0.22,0.16z"/>
   <path class="fil5" d="M5.22 5.3c0.03,0.04 0.06,0.06 0.11,0.1 0.1,0.09 0.33,-0.05 0.43,-0.1 0.22,-0.11 0.03,-0.4 -0.16,-0.49 -0,0.15 -0.06,0.22 -0.14,0.3 -0.08,0.09 -0.09,0.14 -0.24,0.19z"/>
   <path class="fil5" d="M4.53 2.35l-0.02 0.08c0.1,0.05 0.1,0.1 0.17,0.14 0.2,0.07 0.65,-0.38 0.15,-0.66 0.01,0.13 -0.05,0.21 -0.1,0.28 -0.04,0.04 -0.15,0.2 -0.19,0.15z"/>
   <path class="fil5" d="M5.9 2.45c0.05,0.06 0.17,0.16 0.24,0.21 0.11,0.04 0.31,-0.14 0.33,-0.28 0.03,-0.17 -0.14,-0.31 -0.25,-0.36 0.01,0.13 -0.05,0.2 -0.11,0.27 -0.06,0.07 -0.1,0.13 -0.22,0.16z"/>
   <path class="fil5" d="M6.68 3.1c0.12,-0.02 0.17,-0.09 0.22,-0.16 0.05,-0.07 0.13,-0.15 0.09,-0.27 -0.02,-0.07 -0.12,-0.1 -0.22,-0.09 -0.11,0.01 -0.15,0.07 -0.19,0.13 -0.14,0.19 -0.09,0.3 0.09,0.39z"/>
   <path class="fil5" d="M5.61 1.13c0.02,0.03 0.15,0.16 0.2,0.19 0.23,0.08 0.58,-0.42 0.12,-0.62 0.02,0.19 -0.18,0.39 -0.32,0.43z"/>
   <path class="fil7" d="M5.06 1.75l0.2 0.18c0.12,0.05 0.22,-0.06 0.27,-0.11 0.2,-0.25 0.05,-0.37 -0.13,-0.5 -0.04,0.21 -0.16,0.39 -0.34,0.43z"/>
   <path class="fil1" d="M0.72 8.81c0.03,0.03 0.23,0.22 0.28,0.21 0.06,-0.02 0.26,-0.32 0.29,-0.38 -0.11,-0.06 -0.19,-0.12 -0.29,-0.18 -0.1,0.09 -0.17,0.29 -0.28,0.35z"/>
   <path class="fil4" d="M5.61 1.13c0.14,-0.04 0.34,-0.24 0.32,-0.43 -0.19,-0.26 -0.71,0.28 -0.32,0.43z"/>
   <path class="fil4" d="M7.12 2.4c0.12,-0.01 0.18,-0.09 0.23,-0.16 0.07,-0.08 0.1,-0.14 0.11,-0.27 -0.14,-0.12 -0.29,0.01 -0.35,0.08 -0.04,0.05 -0.08,0.09 -0.09,0.17 -0.01,0.13 0.02,0.13 0.1,0.17z"/>
   <path class="fil4" d="M4.53 2.35c0.04,0.05 0.16,-0.11 0.19,-0.15 0.06,-0.07 0.12,-0.16 0.1,-0.28 -0.05,-0.04 -0.07,-0.08 -0.13,-0.1 -0.03,0.05 -0.16,0.45 -0.17,0.53z"/>
   <path class="fil5" d="M4.43 5.46l0.55 0.02c-0.06,-0.05 -0.16,-0.17 -0.27,-0.18 -0.16,-0.02 -0.23,0.08 -0.28,0.16z"/>
   <path class="fil4" d="M3.88 5.1c0.05,-0.02 0.12,-0.11 0.15,-0.15 0.04,-0.07 0.08,-0.14 0.06,-0.23l-0.08 -0.06 -0.13 0.45z"/>
   <path class="fil7" d="M4.32 3.16c0.08,-0.05 0.28,-0.3 0.11,-0.43l-0.11 0.43z"/>
  </g>
 </g>
</svg>
