<?xml version="1.0" encoding="UTF-8"?>
<!DOCTYPE svg PUBLIC "-//W3C//DTD SVG 1.1//EN" "http://www.w3.org/Graphics/SVG/1.1/DTD/svg11.dtd">
<!-- Creator: CorelDRAW -->
<svg xmlns="http://www.w3.org/2000/svg" xml:space="preserve" width="14.256mm" height="16mm" version="1.1" style="shape-rendering:geometricPrecision; text-rendering:geometricPrecision; image-rendering:optimizeQuality; fill-rule:evenodd; clip-rule:evenodd"
viewBox="0 0 212.71 238.73"
 xmlns:xlink="http://www.w3.org/1999/xlink"
 xmlns:xodm="http://www.corel.com/coreldraw/odm/2003">
 <defs>
  <style type="text/css">
   <![CDATA[
    .fil1 {fill:black}
    .fil8 {fill:#8AC527}
    .fil4 {fill:#A0E32D}
    .fil2 {fill:#E9F6FF}
    .fil0 {fill:#FCB87C}
    .fil6 {fill:#FDE077}
    .fil5 {fill:#FEA95C}
    .fil7 {fill:#FED15B}
    .fil3 {fill:#FFEFAC}
   ]]>
  </style>
 </defs>
 <g id="Camada_x0020_1">
  <metadata id="CorelCorpID_0Corel-Layer"/>
  <g id="_2663352594768">
   <path class="fil0" d="M26.17 152.37l0 9.37c4.98,0.78 3.62,5.88 3.62,13.59 0.01,18.83 -6.92,22.69 -16.79,35.32 -2.29,2.93 -6.04,5.81 -5.77,11.27 0.24,4.99 3.68,8.56 8,9.54 5.38,1.21 27.64,0.29 34.73,0.29 46.55,0 93.11,-0.11 139.65,0 2.67,-2.64 5.6,-8.4 3.82,-14.29 -3.16,-10.42 -20.62,-19.19 -21.91,-36.67 -0.78,-10.58 0.61,-74.2 -0.38,-78.64l-141.3 0c-0.37,12.37 -0.04,27.64 -0.04,40.54 0,4.54 1.28,8.96 -3.62,9.69z"/>
   <path class="fil1" d="M26.17 152.37c4.9,-0.72 3.62,-5.14 3.62,-9.69 -0,-12.89 -0.33,-28.17 0.04,-40.54l141.3 -0 11.78 0.01 0.1 19.92c0.41,2.84 1.39,2.18 3.33,3.36 4.6,-0.87 3.97,-4.55 3.96,-9.79 -0.01,-4.51 0,-9.02 0,-13.52 4.62,-0.38 8.2,-3.36 9.96,-6.82 2.34,-4.57 1.69,-9.07 1.69,-15.56 0,-6.24 0.6,-11.26 -1.7,-15.55 -1.85,-3.44 -5.73,-6.52 -10.44,-6.82 -6.6,-0.42 -3.66,0.54 -11.31,-5.94l-6.92 -5.67c-1,-0.81 -1.36,-1.34 -2.46,-2.2 -1.66,-1.3 -3.05,-2.44 -4.59,-3.81l-9.33 -7.92c-2.19,-1.85 -3.65,-1.9 -5.8,-0.13 -0.98,2.23 -1.2,3.3 0.47,5 2.77,2.81 22.85,18.66 24.23,20.77l-9.14 0 -126.3 -0.02 1.94 -2c0.87,-0.78 1.2,-0.97 2.04,-1.68l42.77 -36.02c2.74,-2.39 12.13,-11.26 18.08,-10.17 0.5,-0.3 -0.07,-0.15 1.08,-0.42 10.61,-2.51 23.04,11.05 30.86,17.4 0.66,0.53 1.37,1.32 1.99,1.74 2.14,1.44 3.85,0.12 5.31,-0.62 0.99,-4.41 -0.83,-5.24 -6.33,-9.56 -1.65,-1.3 -2.94,-2.51 -4.54,-3.85 -4.82,-4.05 -9.36,-8.37 -15.18,-10.47 -2.76,-1 -5.66,-1.61 -8.58,-1.8l-3.98 0c-5.09,0.34 -10.12,1.98 -14.55,5.13l-6.88 5.71c-0.98,0.87 -1.52,1.17 -2.56,2.1 -1.54,1.37 -3.03,2.5 -4.61,3.78 -6.75,5.45 -16.51,14.4 -22.98,19.46 -1.66,1.3 -3.05,2.44 -4.59,3.81l-13.93 11.71c-1.56,1.26 -2.98,2.56 -4.52,3.87 -3.09,2.61 -2.34,1.38 -7.02,1.84 -4.42,0.44 -8.18,3.39 -10,6.78 -2.31,4.29 -1.7,9.31 -1.7,15.55 0,7.23 -1.25,21.31 11.66,22.38l0 40.57c-0,4.41 -0.55,9.73 3.73,9.69z"/>
   <path class="fil2" d="M22.62 64.74c-4.19,1.13 -4.64,3.48 -4.62,8.46 0.02,4.35 0.02,8.71 0,13.06 -0.05,10.93 4.87,8.89 17.48,8.89 10.39,0 151.9,0.57 155.01,-0.31 3.91,-1.1 4.21,-4.37 4.19,-8.58 -0.11,-24.42 1.36,-21.77 -17.46,-21.79 -10.39,-0.01 -151.42,-0.58 -154.62,0.28z"/>
   <path class="fil1" d="M97.74 125.46c-5.13,-2.2 -9.63,-3.12 -13,1.79 -7.85,11.45 -6.31,17.76 -23.04,34.54 -5.69,5.71 -13.29,11.15 -15.84,22.75 -4.95,22.49 14.62,42.1 36.98,37.48 14.82,-3.06 20.91,-15.87 32.79,-24.76 18.11,-13.56 33.83,-11.84 26.52,-27.38 10.93,-11.29 20.94,-38.22 7.42,-51.83 -13.65,-13.75 -41.42,-3.03 -51.83,7.42z"/>
   <path class="fil3" d="M164.95 57.47c-0.77,-1.39 -12.64,-10.85 -14.77,-12.71l-37.99 -31.95c-3.67,-2.99 -4.07,-3.03 -8.7,-5.23 -5.95,-1.1 -15.34,7.78 -18.08,10.17l-42.77 36.02c-0.84,0.71 -1.17,0.9 -2.04,1.68l-1.94 2 126.3 0.02z"/>
   <path class="fil1" d="M189.6 231.75c-46.54,-0.12 -93.1,-0 -139.65,-0 -7.09,0 -29.34,0.92 -34.73,-0.29 -4.32,-0.97 -7.76,-4.55 -8,-9.54 -0.27,-5.46 3.48,-8.35 5.77,-11.27 9.88,-12.63 16.81,-16.49 16.79,-35.32 -0,-7.71 1.36,-12.81 -3.62,-13.59 -7.17,1.02 -1.67,13.9 -4.38,23.19 -2.01,6.89 -4.2,8.69 -7.75,13.24 -1.01,1.3 -1.98,2.55 -3.14,3.85 -4.67,5.24 -9.84,10.72 -10.74,17.24 -1.2,8.79 4.44,15.21 9.83,17.93 1.61,0.81 3.8,1.28 6.29,1.54l19.68 0c46.47,0 92.94,0 139.42,0l20.94 0c2.31,-0.23 4.32,-0.61 5.79,-1.24 9.92,-4.26 14.54,-17.59 6.48,-27.31 -2.22,-2.68 -4.12,-4.94 -6.32,-7.67 -4.77,-5.92 -8.75,-9.32 -11.11,-16.87 -2.47,-7.87 0.13,-42.22 -1.1,-47.86 -0.63,-2.89 -1.43,-2.61 -3.66,-3.5 -4.3,2.88 -3.46,0.13 -3.46,13.52 0,5.91 0,11.81 0,17.72 0,12.98 -0.96,19.78 4.84,30.02 2.68,4.73 11.71,14.24 15.56,19.41 2.81,3.78 2.93,9.14 -0.1,12.93 -3.26,4.07 -7.13,3.82 -13.64,3.86z"/>
   <path class="fil4" d="M135.68 176.06c-1.12,-1.13 -0.78,-0.77 -2.57,-1.3 -1.08,-0.31 -2.18,-0.57 -3.1,-0.83 -2.3,-0.64 -4.35,-1.21 -6.55,-1.84 -21.86,-6.24 -45.01,-16.06 -63.24,2.74 -13.45,13.87 -5.7,37.75 14.01,39.35 17.87,1.45 21.66,-14.26 39.85,-26.28 5.58,-3.69 15.34,-8.86 21.6,-11.83z"/>
   <path class="fil5" d="M189.6 231.75c6.51,-0.04 10.38,0.21 13.64,-3.86 3.04,-3.79 2.91,-9.15 0.1,-12.93 -3.85,-5.17 -12.88,-14.68 -15.56,-19.41 -5.8,-10.24 -4.84,-17.04 -4.84,-30.02 0,-5.91 0,-11.81 0,-17.72 0,-13.39 -0.84,-10.65 3.46,-13.52l-0.07 -8.86c-1.94,-1.18 -2.92,-0.52 -3.33,-3.36l-0.1 -19.92 -11.78 -0.01c0.99,4.45 -0.4,68.06 0.38,78.64 1.28,17.48 18.75,26.25 21.91,36.67 1.78,5.88 -1.15,11.65 -3.82,14.29z"/>
   <path class="fil6" d="M123.86 163.47c1.84,-3.29 4.54,-4.84 7.14,-7.85 1.75,-2.02 4.18,-5.68 5.81,-8.71 2.71,-5.05 6.82,-17.38 5.09,-24.05 -1.22,-4.8 -20.39,-4.16 -33.61,5.01 -11.25,7.81 -5.56,5.54 0.02,31.46l15.54 4.14z"/>
   <path class="fil6" d="M164.95 57.47l9.14 0c-1.38,-2.11 -21.46,-17.97 -24.23,-20.77 -1.67,-1.69 -1.45,-2.77 -0.47,-5 -1.2,-1.4 -1.95,-1.74 -3.28,-2.92 -1.26,-1.12 -2.46,-1.8 -3.38,-3.1 -1.47,0.74 -3.17,2.06 -5.31,0.62 -0.62,-0.42 -1.33,-1.21 -1.99,-1.74 -7.82,-6.34 -20.25,-19.91 -30.86,-17.4 -1.15,0.27 -0.58,0.12 -1.08,0.42 4.63,2.2 5.03,2.24 8.7,5.23l37.99 31.95c2.13,1.85 14,11.32 14.77,12.71z"/>
   <path class="fil7" d="M123.86 163.47c9.19,2.91 10,3.63 12.98,-0.34 2.58,-3.44 5.03,-6.48 7.11,-11.35 3.93,-9.21 6.88,-23.8 -2.04,-28.92 1.73,6.67 -2.38,18.99 -5.09,24.05 -1.63,3.03 -4.06,6.69 -5.81,8.71 -2.6,3.01 -5.3,4.56 -7.14,7.85z"/>
   <path class="fil8" d="M78.26 156.01c12.25,-1.21 7.6,-0.94 20.61,0.43l-6.7 -24.5c-2.33,2.08 -7.81,13.85 -10.3,18.16 -1.15,2 -2.86,3.89 -3.61,5.91z"/>
   <path class="fil1" d="M103.27 36.75c-5.16,1.77 -1.94,8.27 2.38,6.4 3.45,-1.5 1.93,-7.87 -2.38,-6.4z"/>
   <path class="fil1" d="M96.91 22.15c-4.14,1.24 -2.61,8.01 2.19,6.52 4.15,-1.28 2.2,-7.84 -2.19,-6.52z"/>
   <path class="fil1" d="M81.44 36.82c-1.24,0.45 -1.36,0.21 -2.09,1.49 -1.45,2.55 0.67,6.17 4.42,4.89 3.62,-1.24 1.85,-7.89 -2.33,-6.38z"/>
  </g>
 </g>
</svg>
