<?xml version="1.0" encoding="UTF-8"?>
<!DOCTYPE svg PUBLIC "-//W3C//DTD SVG 1.1//EN" "http://www.w3.org/Graphics/SVG/1.1/DTD/svg11.dtd">
<!-- Creator: CorelDRAW -->
<svg xmlns="http://www.w3.org/2000/svg" xml:space="preserve" width="16mm" height="13.3115mm" version="1.1" style="shape-rendering:geometricPrecision; text-rendering:geometricPrecision; image-rendering:optimizeQuality; fill-rule:evenodd; clip-rule:evenodd"
viewBox="0 0 31.64 26.32"
 xmlns:xlink="http://www.w3.org/1999/xlink"
 xmlns:xodm="http://www.corel.com/coreldraw/odm/2003">
 <defs>
  <style type="text/css">
   <![CDATA[
    .fil0 {fill:black}
    .fil5 {fill:#5A5564}
    .fil3 {fill:#E9DEDE}
    .fil4 {fill:#F1BD9F}
    .fil1 {fill:#F6EFEF}
    .fil2 {fill:#F9D1B3}
   ]]>
  </style>
 </defs>
 <g id="Camada_x0020_1">
  <metadata id="CorelCorpID_0Corel-Layer"/>
  <g id="_1470312408256">
   <path class="fil0" d="M19.3 4.53c-0.97,0 -1.04,0.04 -1.63,0.44 -0.9,-0.6 -1.6,-0.6 -2.51,0 -0.74,-0.49 -1.37,-0.62 -2.19,-0.19 -0.34,-0.22 -1.08,-1.25 -2.51,-0.5 -0.25,-0.16 -0.29,-0.32 -0.58,-0.48 -0.89,-0.48 -1.94,-0.34 -2.49,0.48 -1.14,-0.6 -1.86,0 -2.13,0.06 -0.77,-0.51 -0.67,-0.56 -1.75,-0.56 -0.11,-0.47 -0.85,-1 -1.44,-1l-0.38 0c-0.81,0 -1.69,0.88 -1.69,1.69 0,1.09 0.25,0.87 0.25,1.19 0,0.09 -0.8,1.41 0.42,2.46 0.26,0.22 0.33,0.12 0.33,0.49 0,0.4 -1,0.31 -1,2 0,0.56 0.41,1.09 0.75,1.32 -0.05,0.2 -0.06,0.12 -0.15,0.35 -0.2,0.52 -0.12,1.26 0.21,1.72 0.24,0.34 0.53,0.49 0.61,0.58 0.13,0.15 0.19,0.61 0.34,0.85 0.16,0.25 0.39,0.39 0.55,0.64 -0.25,1.08 -1.25,1.94 -1.25,3.19 0,0.33 0.2,1.29 0.27,1.67l0.6 3.28c0.11,0.54 0.07,1.29 0.07,1.94 0.13,0.09 0.16,0.19 0.31,0.19l3.63 0c0.76,0 -0.19,-1.62 -0.19,-2.13l0 -3.44c0,-0.19 0.48,-0.43 0.83,-0.74 0.6,-0.53 1.9,-2 2.05,-2.65 1.29,0.86 1.89,0.22 2.25,0.22 0.23,0 0.88,0.53 1.94,-0.03 0.6,0.4 0.47,0.75 1.75,0.75 0.45,0 0.8,-0.26 1.06,-0.44 0.63,0.42 0.67,0.44 1.69,0.44l0.63 5.76c0.06,0.65 0.06,1.33 0.06,2.07 0.13,0.09 0.16,0.19 0.31,0.19l3.63 0c0.76,0 -0.19,-1.55 -0.19,-2.25l0 -7.52c0.73,-0.17 0.86,-1.07 1.02,-1.23 0.13,-0.13 0.82,-0.18 1.27,-0.98 0.22,-0.39 0.21,-0.71 0.21,-1.29 0.46,-0.11 1,-0.87 1,-1.44 0,-0.52 0,-0.71 -0.25,-1.19 0.19,-0.13 0.41,-0.36 0.54,-0.59 0.17,-0.3 0.2,-0.54 0.21,-0.98 0.01,-0.57 0.49,-1.23 0.5,-1.88 0.94,0 1.32,-0.03 2.21,0.42 0.84,0.42 0.86,0.65 1.67,0.65 0.82,0 1.44,-0.98 1.44,-1.82 0,-0.74 0.01,-1.09 -0.44,-1.75 -0.15,-0.22 -0.2,-0.29 -0.39,-0.48l-1.67 -1.84c-0.13,-0.17 -0.28,-0.31 -0.45,-0.43 0.38,-0.78 -0.11,-1.69 -0.94,-1.69 -1.52,0 -2.72,-0.19 -3.87,0.77 -0.24,0.2 -0.46,0.46 -0.69,0.69 -0.17,0.17 -0.18,0.2 -0.31,0.37 -0.17,0.21 -0.17,0.17 -0.51,0.18 -1.51,0.01 -1.65,1.38 -1.91,1.54 -0.14,0.09 -0.3,0.09 -0.49,0.2 -0.27,0.16 -0.6,0.44 -0.67,0.77z"/>
   <path class="fil1" d="M19.99 4.84c0.11,0.13 1.2,1.17 0.73,1.8 -0.04,0.05 -0.54,0.48 -0.69,-0.4 -0.21,-1.27 -1.99,-1.24 -2.21,-0.05 -0.04,0.22 -0.02,0.41 -0.17,0.52 -0.15,0.11 -0.36,0.1 -0.49,-0.03 -0.24,-0.24 -0.02,-0.81 0.05,-1.06 -1.03,-0.9 -1.7,0.22 -1.91,0.3 -0.62,0.25 -0.41,-1.02 -2.04,-0.46 0.01,0.36 0.1,0.77 -0.3,0.82 -0.45,0.05 -0.39,-0.37 -0.48,-0.69 -0.14,-0.52 -0.77,-0.97 -1.45,-0.74 -0.89,0.3 -0.6,1.2 -0.94,1.39 -0.37,0.2 -0.59,-0.11 -0.56,-0.5 0.03,-0.35 0.2,-0.63 0.31,-0.89 -0.31,-0.61 -1.2,-0.78 -1.73,-0.23 -0.23,0.23 -0.28,0.66 -0.64,0.64 -0.3,-0.02 -0.39,-0.36 -0.85,-0.45 -1.17,-0.22 -1.18,0.93 -1.53,1.05 -0.26,0.1 -0.58,-0.18 -1.08,-0.01 -0.32,0.11 -0.55,0.38 -0.68,0.69 0.05,0.05 0.01,0.03 0.1,0.08 0.39,0.23 1.28,0.53 1.32,1.68 0.02,0.62 -0.64,0.68 -0.74,0.12 -0.36,-1.93 -2.54,-1.15 -2.2,0.33 0.16,0.7 -0.25,0.48 -0.65,0.83 -0.28,0.24 -0.5,0.65 -0.35,1.18 0.15,0.53 0.45,0.52 0.78,0.79 0.58,0.48 -1.06,1.18 0.04,2.21 0.18,0.16 0.39,0.21 0.5,0.31 0.18,0.16 0.1,0.38 0.16,0.65 0.22,0.96 1.38,0.45 0.56,2.14 -0.23,0.47 -0.96,1.75 -1.02,2.21 0.56,0.04 1.78,0.16 2.22,-0.19 0.61,-0.48 1.65,-1.41 1.97,-2.11 -0.14,-0.29 -0.34,-0.4 -0.46,-0.87 -0.09,-0.36 -0.1,-0.87 0.37,-0.81 0.53,0.06 0.14,1.27 1.22,1.47 0.41,0.08 0.76,-0.07 0.99,-0.28 0.46,-0.43 0.22,-0.52 0.41,-0.97 0.14,-0.34 0.67,-0.3 0.71,0.15 0.04,0.42 -0.18,0.76 -0.31,1.06 0.13,0.27 0.37,0.47 0.71,0.54 0.49,0.1 0.65,-0.05 0.96,-0.25 0.63,-0.39 0.4,0.57 1.92,0.09 -0,-0.37 -0.07,-1.01 0.5,-0.79 0.32,0.13 0.17,0.63 0.45,1 0.17,0.22 0.47,0.47 0.91,0.47 0.56,-0 0.68,-0.26 0.93,-0.5 0.67,-0.64 0.75,0.89 1.98,0.42 0.85,-0.32 0.77,0.01 0.9,1.59l1.32 0c0,-0.66 -0.04,-1.33 0.12,-1.95 0.14,-0.54 0.55,-0.99 0.3,-1.6 -0.11,-0.27 -0.35,-0.39 -0.34,-0.65 0.01,-0.29 0.32,-0.46 0.58,-0.29 0.39,0.26 0.56,0.85 0.6,1.47 1.28,0.03 1.18,-1.14 1.33,-1.35 0.22,-0.29 1.42,0.03 1.41,-1.33l-0.27 -0.11c-0.34,-0.17 -0.32,-0.62 0.15,-0.71 1.17,-0.22 1.43,-1.08 0.79,-1.92 -0.42,-0.56 0.21,-0.64 0.5,-0.93 0.28,-0.28 0.47,-0.76 0.24,-1.25 -0.23,-0.5 -0.5,-0.53 -1.08,-0.68 -0.74,-0.18 -0.22,-1.5 1.42,-0.12 0.68,-0.78 0.5,-4.31 0.64,-4.81 0.43,-1.49 1.76,-1.18 2.02,-1.43 0.13,-0.13 0.14,-0.34 0.03,-0.49 -0.18,-0.24 -2.55,-0.32 -3.45,0.33 -0.49,0.36 -0.95,0.98 -1.36,1.4 -0.39,0.4 -1.38,-0.23 -1.8,0.83 -0.2,0.51 0.1,0.7 -0.57,0.81 -0.43,0.07 -0.67,0.25 -0.82,0.55z"/>
   <path class="fil2" d="M26.54 6.17c0.85,0.06 1.48,0.1 2.18,0.45 0.88,0.44 1.25,0.89 1.78,0.48 -0.18,-0.21 -0.46,-0.33 -0.67,-0.56 -0.01,-0.32 0.07,-0.55 0.42,-0.51 0.27,0.03 0.32,0.27 0.61,0.29 0.12,-1.06 -0.36,-1.68 -1.07,-2.34l-1.66 -1.78c-0.96,0.11 -1.51,0.25 -1.5,1.31 0,0.36 -0.1,2.61 -0.09,2.65z"/>
   <path class="fil3" d="M1.2 7.53c0.16,-0.13 0.11,-0.15 0.25,-0.31 0.49,-0.57 0.92,-0.53 1.07,-0.69 0.34,-0.59 0.2,-0.69 0.75,-1.13 0.54,-0.42 0.78,-0.31 1.49,-0.38 -0.08,-0.26 -0.42,-0.47 -0.81,-0.49 -0.42,-0.02 -0.75,0.26 -0.97,-0.16 -0.2,-0.38 -0.22,-0.55 -0.63,-0.75 -0.68,-0.32 -1.55,0.16 -1.58,0.97 -0.03,0.62 0.33,0.69 0.36,1.01 0.04,0.35 -0.92,1.19 0.07,1.93z"/>
   <polygon class="fil2" points="2.7,24.06 3.5,24.07 3.52,19.81 1.89,19.81 "/>
   <polygon class="fil2" points="18.76,24.04 19.55,24.07 19.55,19.81 18.31,19.81 "/>
   <path class="fil4" d="M4.27 24.07l0.74 0 0.01 -3.44c0,-0.51 0.28,-0.57 0.56,-0.8l-0.25 -0.02 -1.06 0 -0 4.26z"/>
   <polygon class="fil4" points="20.3,24.07 21.05,24.07 21.05,19.81 20.3,19.81 "/>
   <path class="fil3" d="M5.03 19.04l1.24 0.02c0.49,-0 1.41,-1.41 1.57,-1.81 -0.63,0.08 -0.63,0.03 -1.2,-0.08 -0.12,0.25 -0.57,0.83 -0.75,1.01l-0.86 0.85z"/>
   <path class="fil3" d="M20.3 19.06l0.75 0 0 -2.26 -0.44 -0c-0.39,0.64 -0.31,1.46 -0.31,2.27z"/>
   <path class="fil0" d="M27.8 3.31c-0.42,0.18 -0.37,1.43 0.29,1.18 0.39,-0.15 0.35,-1.45 -0.29,-1.18z"/>
   <polygon class="fil5" points="2.76,25.57 3.64,25.57 3.86,25.55 3.62,24.83 3.39,24.81 2.76,24.82 "/>
   <polygon class="fil5" points="18.8,25.57 19.67,25.57 19.89,25.55 19.66,24.83 19.42,24.81 18.8,24.82 "/>
   <path class="fil5" d="M4.77 25.56l0.59 -0.01c-0.05,-0.12 -0.09,-0.25 -0.13,-0.38 -0.13,-0.41 -0.06,-0.34 -0.8,-0.33 0.18,0.37 0.1,0.61 0.34,0.72z"/>
   <path class="fil5" d="M20.8 25.56l0.59 -0.01c-0.35,-0.75 0.1,-0.73 -0.93,-0.71 0.05,0.12 0.09,0.25 0.13,0.38 0.07,0.22 0.04,0.26 0.21,0.34z"/>
  </g>
 </g>
</svg>
