<?xml version="1.0" encoding="UTF-8"?>
<!DOCTYPE svg PUBLIC "-//W3C//DTD SVG 1.1//EN" "http://www.w3.org/Graphics/SVG/1.1/DTD/svg11.dtd">
<!-- Creator: CorelDRAW -->
<svg xmlns="http://www.w3.org/2000/svg" xml:space="preserve" width="11.778mm" height="16mm" version="1.1" style="shape-rendering:geometricPrecision; text-rendering:geometricPrecision; image-rendering:optimizeQuality; fill-rule:evenodd; clip-rule:evenodd"
viewBox="0 0 13.53 18.38"
 xmlns:xlink="http://www.w3.org/1999/xlink"
 xmlns:xodm="http://www.corel.com/coreldraw/odm/2003">
 <defs>
  <style type="text/css">
   <![CDATA[
    .str0 {stroke:#FFE9CB;stroke-width:0.23;stroke-miterlimit:22.9256}
    .fil1 {fill:#3B3B3D}
    .fil0 {fill:#FFE9CB}
   ]]>
  </style>
 </defs>
 <g id="Camada_x0020_1">
  <metadata id="CorelCorpID_0Corel-Layer"/>
  <g id="_1469335223264">
   <path class="fil0 str0" d="M4.98 16.81c-0.36,0.04 -0.86,-0.03 -1.08,-0.27 0.08,-0.46 0.1,-0.25 0.39,-0.4 0.55,-0.28 0.18,-0.03 0.57,-0.65 0.84,0.07 1.03,-0.38 1.74,-0.73 0.47,0.16 0.28,0.22 0.44,0.32 0.34,0.22 -0.18,-0.02 0.53,-0.04 0.29,0.49 0.74,0.64 0.28,1.29 -0.28,0.4 -0.13,-0.03 -0.37,0.39 -0.05,0.08 -0.3,1.19 -1.65,1.03 -0.9,-0.11 -0.85,-0.26 -0.85,-0.94zm-2.43 -3.3c0.41,0.29 0.62,0.6 0.17,1l-0.48 -0.32c0.05,-0.47 -0.02,-0.34 0.31,-0.68zm6.23 2.15c0.18,-0.28 0.38,-0.61 0.55,-0.87l0.94 0.01c-0.08,0.57 -0.7,1.3 -1.49,0.86zm-5.03 -3.49c-0.06,0.03 -1.08,0.73 -1.35,-0.33 -0.19,-0.75 0.57,-1.21 0.71,-1.35 0.14,-0.14 0.14,-0.2 0.29,-0.36 0.1,0.07 0.87,1.3 0.78,1.87l-0.42 0.17zm1.85 0.41c-0.21,-0.51 -0.24,-0.15 -0.06,-0.62 0.15,-0.04 0.82,0.26 1.04,0.34l-0.2 0.94 -0.56 -0.03c-0.2,-0.29 -0.06,-0.22 -0.23,-0.63zm3.8 1.85c0.08,-0.75 -0.07,-0.86 0.54,-1.27 0.41,-0.28 0.87,-0.35 1.31,-0.37 -0.15,0.55 -0.23,0.48 -0.38,0.82 -0.26,0.57 -0.08,0.66 -0.68,0.72 -0.87,0.09 -0.19,0.26 -0.79,0.1zm2.1 -2.69c-0.13,0.47 0.04,0.29 -0.37,0.54 -0.31,-0.3 -0.32,-0.36 -0.03,-0.74l0.41 0.2zm-0.68 -0.13c-0.31,0.2 -0.45,0.42 -0.52,-0.17 0.57,-0.23 0.24,-0.18 0.52,0.17zm-9.78 -3.74c0.33,-0.12 0.53,-0.22 0.81,-0.23l0.16 1 -0.53 0.63 -0.69 -0.32 0.24 -1.08zm6.67 1.79c0.46,0.33 0.59,0.27 0.97,0.55l-0.33 0.46c-0.94,-0.09 -0.11,-0.26 -0.83,-0.17 -0.46,0.06 -0.54,-0.07 -0.61,-0.55l0.8 -0.29zm-2.17 -0.77c-0.16,-0.48 -0.16,-0.99 -0.14,-1.45 0.03,-0.63 -0.16,-0.31 0.31,-0.72 0.62,-0.54 1.4,-0.9 2.27,-0.5 0.75,0.35 0.32,0.75 0.4,1.47 -0.65,0.45 -0.13,-0.1 -0.64,0.54 -0.14,0.18 -0.38,0.44 -0.63,0.53 -0.43,0.15 -0.39,-0.04 -0.87,-0.04 -0.66,-0.01 -0.12,0.25 -0.7,0.17zm-3.72 -3.63c-0.03,-0.6 0.32,-0.77 0.85,-0.61 -0.21,0.4 -0.43,0.58 -0.85,0.61zm8.97 2.77c0.59,0.36 0.34,0.3 0.69,-0.11 0.73,0.52 0.74,0.66 0.33,1.43 -0.27,0.51 -0.87,0.56 -1.44,0.45 -0.09,-0.43 0.02,-0.27 0.01,-0.59 -0.02,-0.46 -0.36,-0.71 0.41,-1.18zm-4.36 -3.19c0.58,0.21 0.1,-0.16 0.64,0.2 -0.05,0.68 -0.22,0.5 -0.71,0.8 -0.44,0.27 -0.25,0.37 -0.78,0.62 -0.82,-0.16 -0.67,-0.41 -1,-0.69 -0.27,0.74 -0.08,0.68 -0.82,1.01 -0.41,0.18 -0.77,0.54 -1.09,0.4 -0.7,-0.3 0.06,-1.89 0.75,-2.28 1.23,0.48 0.14,0.14 1.19,-0.02l0.24 0.58c0.38,-0.36 0.09,-0.2 0.56,-0.5 0.23,-0.14 0.29,-0.21 0.52,-0.36l0.49 0.23zm-3.42 -1.74c0.34,-0.61 -0.02,-0.12 0.62,-0.46 0.4,-0.21 1,-0.89 1.93,-0.92 0.29,1.15 -0.31,0.66 -0.65,1.63 -1.65,-0.29 -0.64,0.21 -1.9,-0.25zm6.12 14.48c-0.01,-0.17 -1.46,-0.84 0,-1.38 2.41,-0.89 1.06,-0.11 1.94,0.29 1.9,-1.29 2.26,-4.66 1.93,-6.76 -0.18,-1.12 -1.18,-5.74 -2.44,-5.81 0.06,0.48 0.26,0.07 0.16,1 -0.05,0.48 -0.05,0.75 -0.56,0.97 -0.9,-0.15 -0.66,-0.71 -0.45,-1.34 -0.96,-0.36 -1.36,-0.05 -2.23,-0.22 -0.1,-0.71 0.14,-0.16 0.05,-0.85 -0.03,-0.24 -0.2,-0.29 -0.05,-0.61 0.18,-0.39 0.97,-0.59 1.33,-0.74 0.1,-0.23 -0.58,0.01 -0.47,-0.57 0.2,-1.07 -2.54,-1.91 -4.67,-0.09 -1.94,1.66 -3,5.16 -3.2,7.63 -0.19,2.43 0.01,4.84 1.57,6.81 1.57,1.97 4.78,2.53 7.06,1.65z"/>
   <path class="fil1" d="M9.14 17.56c-2.28,0.89 -5.49,0.33 -7.06,-1.65 -1.57,-1.97 -1.77,-4.38 -1.57,-6.81 0.19,-2.48 1.26,-5.97 3.2,-7.63 2.13,-1.82 4.87,-0.98 4.67,0.09 -0.11,0.58 0.57,0.34 0.47,0.57 -0.37,0.15 -1.15,0.35 -1.33,0.74 -0.15,0.31 0.02,0.36 0.05,0.61 0.09,0.69 -0.15,0.14 -0.05,0.85 0.87,0.17 1.26,-0.14 2.23,0.22 -0.21,0.63 -0.45,1.19 0.45,1.34 0.5,-0.22 0.51,-0.49 0.56,-0.97 0.09,-0.93 -0.11,-0.52 -0.16,-1 1.26,0.07 2.26,4.69 2.44,5.81 0.33,2.1 -0.03,5.47 -1.93,6.76 -0.88,-0.4 0.47,-1.18 -1.94,-0.29 -1.46,0.54 -0.01,1.21 -0,1.38zm-2.23 -17.49c-7.16,-1.37 -11.13,18.71 0.17,18.3 10.68,-0.39 6.29,-17.06 -0.17,-18.3z"/>
   <path class="fil1" d="M4.98 16.81c0,0.67 -0.05,0.83 0.85,0.94 1.34,0.16 1.6,-0.95 1.65,-1.03 0.25,-0.42 0.09,0.01 0.37,-0.39 0.46,-0.65 0.01,-0.8 -0.28,-1.29 -0.7,0.02 -0.18,0.26 -0.53,0.04 -0.16,-0.1 0.03,-0.16 -0.44,-0.32 -0.72,0.35 -0.9,0.8 -1.74,0.73 -0.39,0.62 -0.02,0.37 -0.57,0.65 -0.29,0.15 -0.31,-0.07 -0.39,0.4 0.21,0.25 0.71,0.32 1.08,0.27z"/>
   <path class="fil1" d="M5.55 8.87c0.58,0.08 0.04,-0.18 0.7,-0.17 0.48,0 0.44,0.19 0.87,0.04 0.25,-0.09 0.49,-0.35 0.63,-0.53 0.51,-0.63 -0.01,-0.09 0.64,-0.54 -0.08,-0.72 0.36,-1.12 -0.4,-1.47 -0.87,-0.41 -1.66,-0.05 -2.27,0.5 -0.47,0.41 -0.27,0.1 -0.31,0.72 -0.02,0.46 -0.02,0.98 0.14,1.45z"/>
   <path class="fil1" d="M5.96 4.59c-0.22,0.14 -0.29,0.21 -0.52,0.36 -0.47,0.3 -0.18,0.14 -0.56,0.5l-0.24 -0.58c-1.05,0.15 0.04,0.5 -1.19,0.02 -0.7,0.39 -1.45,1.98 -0.75,2.28 0.32,0.14 0.68,-0.22 1.09,-0.4 0.75,-0.33 0.55,-0.27 0.82,-1.01 0.33,0.27 0.17,0.53 1,0.69 0.52,-0.25 0.33,-0.36 0.78,-0.62 0.49,-0.29 0.66,-0.12 0.71,-0.8 -0.54,-0.36 -0.07,0.01 -0.64,-0.2l-0.49 -0.23z"/>
   <path class="fil1" d="M4.17 11.98c0.09,-0.57 -0.68,-1.8 -0.78,-1.87 -0.15,0.16 -0.14,0.22 -0.29,0.36 -0.14,0.14 -0.9,0.6 -0.71,1.35 0.27,1.06 1.3,0.36 1.35,0.33l0.42 -0.17z"/>
   <path class="fil1" d="M10.81 8.01c-0.77,0.47 -0.43,0.72 -0.41,1.18 0.02,0.32 -0.09,0.15 -0.01,0.59 0.57,0.11 1.16,0.06 1.44,-0.45 0.41,-0.77 0.4,-0.9 -0.33,-1.43 -0.36,0.41 -0.1,0.47 -0.69,0.11z"/>
   <path class="fil1" d="M3.02 3.08c1.26,0.45 0.25,-0.04 1.9,0.25 0.34,-0.97 0.95,-0.47 0.65,-1.63 -0.93,0.04 -1.53,0.72 -1.93,0.92 -0.64,0.33 -0.28,-0.16 -0.62,0.46z"/>
   <path class="fil1" d="M9.4 14.42c0.6,0.16 -0.08,-0.01 0.79,-0.1 0.61,-0.06 0.42,-0.15 0.68,-0.72 0.15,-0.34 0.23,-0.27 0.38,-0.82 -0.44,0.02 -0.91,0.09 -1.31,0.37 -0.61,0.41 -0.46,0.51 -0.54,1.27z"/>
   <path class="fil1" d="M1.04 7.85l-0.24 1.08 0.69 0.32 0.53 -0.63 -0.16 -1c-0.27,0.01 -0.47,0.1 -0.81,0.23z"/>
   <path class="fil1" d="M6.91 9.93c0.07,0.48 0.15,0.61 0.61,0.55 0.73,-0.1 -0.11,0.08 0.83,0.17l0.33 -0.46c-0.38,-0.27 -0.51,-0.22 -0.97,-0.55l-0.8 0.29z"/>
   <path class="fil1" d="M5.54 11.95c-0.18,0.46 -0.15,0.1 0.06,0.62 0.17,0.41 0.03,0.34 0.23,0.63l0.56 0.03 0.2 -0.94c-0.22,-0.08 -0.89,-0.38 -1.04,-0.34z"/>
   <path class="fil1" d="M8.78 15.65c0.79,0.44 1.41,-0.29 1.49,-0.86l-0.94 -0.01c-0.17,0.26 -0.38,0.59 -0.55,0.87z"/>
   <path class="fil1" d="M2.55 13.5c-0.33,0.34 -0.26,0.2 -0.31,0.68l0.48 0.32c0.45,-0.39 0.24,-0.7 -0.17,-1z"/>
   <path class="fil1" d="M1.83 5.24c0.42,-0.04 0.64,-0.22 0.85,-0.61 -0.53,-0.16 -0.88,0.01 -0.85,0.61z"/>
   <path class="fil1" d="M11.13 12.26c0.41,-0.25 0.24,-0.07 0.37,-0.54l-0.41 -0.2c-0.29,0.39 -0.28,0.44 0.03,0.74z"/>
   <path class="fil1" d="M10.31 11.42c0.07,0.59 0.21,0.37 0.52,0.17 -0.28,-0.35 0.05,-0.4 -0.52,-0.17z"/>
  </g>
 </g>
</svg>
