<?xml version="1.0" encoding="UTF-8"?>
<!DOCTYPE svg PUBLIC "-//W3C//DTD SVG 1.1//EN" "http://www.w3.org/Graphics/SVG/1.1/DTD/svg11.dtd">
<!-- Creator: CorelDRAW -->
<svg xmlns="http://www.w3.org/2000/svg" xml:space="preserve" width="16mm" height="15.4314mm" version="1.1" style="shape-rendering:geometricPrecision; text-rendering:geometricPrecision; image-rendering:optimizeQuality; fill-rule:evenodd; clip-rule:evenodd"
viewBox="0 0 25.79 24.87"
 xmlns:xlink="http://www.w3.org/1999/xlink"
 xmlns:xodm="http://www.corel.com/coreldraw/odm/2003">
 <defs>
  <style type="text/css">
   <![CDATA[
    .str1 {stroke:#FEDAA9;stroke-width:0.32;stroke-miterlimit:22.9256}
    .str0 {stroke:#FFF0EA;stroke-width:0.32;stroke-miterlimit:22.9256}
    .fil0 {fill:#050505}
    .fil4 {fill:#8D5945}
    .fil1 {fill:#E6B165}
    .fil8 {fill:#F5C682}
    .fil7 {fill:#FBE0C4}
    .fil2 {fill:#FEDAA9}
    .fil6 {fill:#FEDAA9}
    .fil3 {fill:#FFF0EA}
    .fil5 {fill:#FFF0EA}
   ]]>
  </style>
 </defs>
 <g id="Camada_x0020_1">
  <metadata id="CorelCorpID_0Corel-Layer"/>
  <path class="fil0" d="M6.8 1.28c0.39,0.22 0.4,0.12 0.72,-0.11 0.83,-0.61 1.67,-0.43 2.38,0.12 0.73,0.56 1.31,1.88 1.47,2.79 -0.22,0.16 -1.32,0.22 -2.29,1.98 -0.08,0.15 -0.16,0.3 -0.24,0.47 -0.05,0.11 -0.06,0.14 -0.11,0.24 -0.06,0.14 -0.05,0.14 -0.13,0.24 -0.45,-1.26 -1.37,-2.62 -2.72,-2.89 0.03,-0.27 0.16,-0.55 0.23,-0.82 0.12,-0.5 0.03,-0.46 -0.14,-0.62l-0.05 -0.06c-0.36,0 -0.44,-0.04 -0.6,0.54 -0.1,0.33 -0.16,0.59 -0.23,0.93 -1.09,0.02 -2.01,1.1 -2.5,1.98 -0.7,1.25 -0.82,2.24 -0.82,3.71 -0.73,0 -1.39,-0 -1.63,0.94 -0.17,0.65 0.25,1.48 1.03,1.48 0,1.31 -0.06,2.79 -0,4.08 0.08,1.69 1.14,2.32 1.41,2.72 -0.62,0 -1.24,0 -1.86,-0 -0.36,-0 -0.62,-0 -0.7,0.27 -0,0.01 -0.01,0.02 -0.01,0.04l0 0.21c0.14,0.51 1.4,0.3 2.32,0.3 3.19,0 6.38,0 9.57,0 -1.07,1.6 -0.2,3.13 1.29,4.1 1.92,1.26 5.37,1.53 6.94,-0.56 0.19,-0.25 0.25,-0.4 0.39,-0.67 0.26,0.06 0.88,0.48 1.91,0.4 0.34,-0.03 0.67,-0.11 0.95,-0.2 0.37,-0.12 0.56,-0.13 0.56,-0.65 -0.15,-0.1 -0.22,-0.28 -0.53,-0.19 -0.17,0.05 -0.32,0.14 -0.52,0.19 -0.32,0.08 -1.04,0.2 -1.29,-0.02 -0.34,0.01 -0.58,-0.17 -0.85,-0.27 0.05,-0.92 0.08,-1.41 -0.28,-2.18 -0.21,-0.47 -0.75,-1.13 -1.11,-1.3 0.1,-1.68 1.06,-3.41 2.24,-3.85 0.67,-0.36 1.59,0.1 1.92,0.44 0.25,0.26 0.39,0.39 0.6,0.7 0.16,0.23 0.33,0.55 0.46,0.86 0.28,0.66 0.46,1.4 0.47,2.19 0.04,1.78 -0.59,1.42 0,2.12 0.44,0 0.5,-0.17 0.63,-0.73 0.07,-0.3 0.11,-0.61 0.13,-0.92l0 -0.74c-0.1,-1.71 -0.87,-3.46 -2.21,-4.36 -0.23,-0.16 -0.66,-0.38 -1.02,-0.39l0 -1.56c1.16,0 1.4,-1.73 0.52,-2.23 -0.35,-0.2 -0.6,-0.18 -1.13,-0.18 0,-2.11 -0.29,-3.11 -1.49,-4.66 -0.2,-0.26 -0.64,-0.61 -0.94,-0.77 -0.2,-0.11 -0.61,-0.26 -0.89,-0.27 -0.22,-0.94 -0.48,-1.77 -0.97,-2.45l-0.57 -0.69c-0.42,-0.42 -0.74,-0.66 -1.37,-0.84 -2.14,-0.63 -3.77,2.13 -3.84,2.88 -0.01,-0.01 -0.02,-0.04 -0.02,-0.03l-0.07 -0.13c-0.04,-0.1 -0.04,-0.12 -0.09,-0.22 -0.78,-1.91 -2.72,-3.44 -4.63,-2.05 -0.34,0.25 -0.47,0.31 -0.29,0.74z"/>
  <path class="fil1" d="M18.63 18c0.12,-1.02 0.53,-1.99 1.01,-2.69 0.51,-0.75 1.02,-1.28 2.15,-1.57l0 -1.52 -19.86 -0.01c-0.06,0.99 -0.01,2.12 -0.01,3.11 0,1.08 0.06,1.85 0.62,2.54 1.2,1.48 2.9,1.13 5.16,1.13l4.69 0c0.45,-0 0.42,-0.21 1.06,-0.55 1.15,-0.6 2.5,-0.94 3.87,-0.77 0.54,0.07 0.87,0.24 1.3,0.32z"/>
  <path class="fil2" d="M16.12 18.41c-1.56,0.16 -3.93,1.13 -3.93,2.84 0,1.59 2.21,2.67 3.92,2.83 5.27,0.49 5.15,-6.2 0.01,-5.67z"/>
  <path class="fil2" d="M15.5 9.79l5.65 -0c0.33,-1.46 -0.79,-4.91 -2.77,-4.97 -1.1,-0.03 -1.84,0.97 -2.22,1.67 -0.5,0.91 -0.73,2.09 -0.66,3.3z"/>
  <path class="fil3" d="M21.58 22.19c0.33,0 0.23,0.05 0.5,-0.16 0.38,-0.29 0.71,-0.73 0.92,-1.19 0.66,-1.42 0.43,-3.29 -0.24,-4.66 -0.57,-1.17 -1.02,-1.33 -1.19,-1.58 -1.18,0.44 -2.14,2.17 -2.24,3.85 0.36,0.17 0.9,0.83 1.11,1.3 0.35,0.77 0.33,1.27 0.28,2.18 0.27,0.09 0.51,0.28 0.85,0.27z"/>
  <path class="fil4" d="M1.18 10.57c-0.56,0.17 -0.37,0.74 -0.05,0.84 0.26,0.08 14.58,0.03 15.75,0.03 0.78,0 5.35,0.09 5.72,-0.03 0.38,-0.12 0.38,-0.75 -0.02,-0.85 -0.26,-0.07 -14.57,-0.02 -15.73,-0.02 -0.82,0 -5.26,-0.09 -5.67,0.03z"/>
  <path class="fil2" d="M6.8 1.28c-0.15,0.16 -0.35,0.42 -0.47,0.62 -0.14,0.23 -0.26,0.52 -0.4,0.72l0.05 0.06c0.17,0.16 0.26,0.13 0.14,0.62 -0.07,0.28 -0.2,0.56 -0.23,0.82 1.34,0.27 2.26,1.62 2.72,2.89 0.08,-0.1 0.07,-0.1 0.13,-0.24 0.04,-0.11 0.06,-0.14 0.11,-0.24 0.08,-0.16 0.15,-0.31 0.24,-0.47 0.96,-1.75 2.06,-1.81 2.29,-1.98 -0.16,-0.91 -0.74,-2.23 -1.47,-2.79 -0.71,-0.55 -1.54,-0.72 -2.38,-0.12 -0.32,0.23 -0.33,0.33 -0.72,0.11z"/>
  <path class="fil5 str0" d="M6.59 9.79c0.07,-1.05 -0.08,-2.05 -0.45,-2.93 -0.15,-0.36 -0.95,-1.91 -1.44,-1.85 -0.6,0.06 -1.37,1.18 -1.65,1.82 -0.3,0.67 -0.68,2.11 -0.48,2.94l4.02 0.03z"/>
  <path class="fil6 str1" d="M13.06 9.79c0.02,-0.35 0.03,-0.7 -0,-1.05 -0.03,-0.32 -0.12,-0.64 -0.13,-0.94 -0.03,-0.26 -0.3,-0.71 -0.43,-0.9 -0.26,-0.38 -0.44,-0.3 -0.33,-0.87 -0.38,-0.66 -0.74,-0.82 -0.85,-1.06 -0.8,0.22 -1.41,1.05 -1.75,1.78 -0.4,0.87 -0.61,1.92 -0.54,3.03l4.03 0.02z"/>
  <path class="fil7" d="M21.58 14.59c0.17,0.25 0.62,0.41 1.19,1.58 0.67,1.37 0.9,3.25 0.24,4.66 -0.22,0.46 -0.55,0.9 -0.92,1.19 -0.28,0.22 -0.17,0.16 -0.5,0.16 0.25,0.22 0.97,0.1 1.29,0.02 0.2,-0.05 0.36,-0.14 0.52,-0.19 0.32,-0.09 0.38,0.09 0.53,0.19 0.08,-0.13 0.2,-0.18 0.32,-0.29 0.4,-0.38 0.39,-0.4 0.67,-0.84 0.03,-0.05 0.03,-0.05 0.06,-0.09 0.07,-0.1 0.01,-0.03 0.06,-0.09 -0.59,-0.69 0.04,-0.33 -0,-2.12 -0.02,-0.79 -0.2,-1.54 -0.47,-2.19 -0.13,-0.3 -0.3,-0.62 -0.46,-0.86 -0.21,-0.31 -0.35,-0.45 -0.6,-0.7 -0.34,-0.34 -1.25,-0.8 -1.92,-0.44z"/>
  <path class="fil5 str0" d="M16.29 4.98c0.06,-0.38 -0.09,-0.89 -0.14,-1.26 -0.01,-0.26 -0.39,-0.89 -0.56,-1.07 -0.2,-0.22 -0.35,-0.21 -0.18,-0.66 -0.2,-0.35 -0.38,-0.59 -0.67,-0.86 -0.05,-0.05 -0.08,-0.07 -0.13,-0.12l-0.05 -0.05c-0.01,-0.01 -0.02,-0.01 -0.02,-0.03 -0,-0.02 -0.02,-0.02 -0.02,-0.03 -0.92,0.26 -2.04,1.93 -2.15,3.21 1.12,0.32 1.78,1.03 2.29,1.95 0.14,0.25 0.33,0.77 0.47,0.95 0.14,-0.38 0.32,-0.77 0.51,-1.1l0.66 -0.93z"/>
  <path class="fil7" d="M4.7 5.01c0.48,-0.06 1.29,1.49 1.44,1.85 0.37,0.88 0.52,1.88 0.45,2.93l1.63 0c0.08,-1.37 -0.19,-2.53 -0.79,-3.52 -0.29,-0.48 -0.59,-0.85 -1.03,-1.13 -0.34,-0.22 -1.33,-0.55 -1.69,-0.13z"/>
  <path class="fil8" d="M11.31 4.97c0.11,0.24 0.47,0.41 0.85,1.06 0.37,-0.16 0.46,-0.13 0.71,0.14 0.25,0.27 0.79,1.11 0.77,1.43 -0.03,0.44 -0.45,0.32 -0.71,0.2 0.01,0.31 0.1,0.63 0.13,0.94 0.04,0.35 0.02,0.7 0,1.05l1.64 0c0.08,-1.3 -0.2,-2.51 -0.74,-3.44 -0.39,-0.67 -1.35,-1.85 -2.64,-1.38z"/>
  <path class="fil7" d="M14.51 0.9c0.01,0.01 0.02,0.01 0.02,0.03 0,0.02 0.02,0.02 0.02,0.03l0.05 0.05c0.05,0.05 0.08,0.08 0.13,0.12 0.29,0.27 0.47,0.51 0.67,0.86 0.4,-0.22 0.49,-0.1 0.73,0.16 0.23,0.24 0.81,1.13 0.72,1.47 -0.1,0.39 -0.49,0.24 -0.71,0.11 0.05,0.37 0.2,0.88 0.14,1.26 0.21,-0.11 0.41,-0.33 0.68,-0.5 0.28,-0.17 0.52,-0.29 0.87,-0.35 -0.07,-1.39 -1.73,-4 -3.32,-3.22z"/>
  <path class="fil0" d="M17.85 19.44c-0.37,0.16 -0.29,0.48 -0.17,0.6 0.12,0.13 0.35,0.19 0.55,0.41 0.39,0.42 0.13,1.33 0.79,1.14 0.83,-0.24 -0.43,-2.46 -1.16,-2.15z"/>
  <path class="fil0" d="M15.41 1.99c-0.17,0.45 -0.03,0.44 0.18,0.66 0.17,0.18 0.55,0.81 0.56,1.07 0.22,0.13 0.61,0.28 0.71,-0.11 0.09,-0.33 -0.49,-1.22 -0.72,-1.47 -0.24,-0.25 -0.33,-0.37 -0.73,-0.16z"/>
  <path class="fil0" d="M12.16 6.03c-0.11,0.57 0.07,0.49 0.33,0.87 0.13,0.19 0.4,0.64 0.43,0.9 0.26,0.12 0.68,0.24 0.71,-0.2 0.02,-0.32 -0.51,-1.16 -0.77,-1.43 -0.25,-0.27 -0.34,-0.3 -0.71,-0.14z"/>
 </g>
</svg>
