<?xml version="1.0" encoding="UTF-8"?>
<!DOCTYPE svg PUBLIC "-//W3C//DTD SVG 1.1//EN" "http://www.w3.org/Graphics/SVG/1.1/DTD/svg11.dtd">
<!-- Creator: CorelDRAW -->
<svg xmlns="http://www.w3.org/2000/svg" xml:space="preserve" width="135.485mm" height="101.78mm" version="1.1" style="shape-rendering:geometricPrecision; text-rendering:geometricPrecision; image-rendering:optimizeQuality; fill-rule:evenodd; clip-rule:evenodd"
viewBox="0 0 1245.81 935.88"
 xmlns:xlink="http://www.w3.org/1999/xlink"
 xmlns:xodm="http://www.corel.com/coreldraw/odm/2003">
 <defs>
  <style type="text/css">
   <![CDATA[
    .fil2 {fill:#F7ADAF}
    .fil3 {fill:#EC268F}
    .fil1 {fill:#A8518A}
    .fil0 {fill:black}
    .fil4 {fill:#283593}
    .fil5 {fill:#F4F4F4}
   ]]>
  </style>
 </defs>
 <g id="Camada_x0020_1">
  <metadata id="CorelCorpID_0Corel-Layer"/>
  <path class="fil0" d="M450.15 171.75c-41.88,28.04 -47.99,29.77 -91.75,66.41 -19.67,16.48 -42.6,40.18 -59.71,59.52 -5.7,6.45 -12.93,18.13 -18.87,22.49 -5.54,-4.06 -17.25,-26.76 -28.6,-39.53 -11.47,-12.91 -23.31,-23.7 -37.1,-33.46 -31.93,-22.6 -127.81,-60.8 -152.61,-43.24 -27.21,19.28 -61.51,103.81 -61.51,150.29 0,47.12 0.77,62.08 22.71,106.26 6.65,13.4 10.87,20.18 19.65,31.45 8.4,10.79 18.56,16.98 25.78,27.76 -6.87,10.26 -16.89,16.47 -24.75,26.35 -6.38,8.03 -14.93,21.4 -19.9,31.19 -14.2,27.98 -21.75,56.86 -23.48,85.66l0 26.05c2.6,43.74 18.17,86.62 43.76,125.2 18.1,27.28 20.15,31.48 71.59,20.42 60.31,-12.97 94.82,-34.9 133.48,-73.34 8.22,-8.18 25.5,-30.58 28.55,-42.01l4.87 0c1.85,6.93 11.1,16.43 16.44,22.49 20.1,22.79 56.47,58.27 80.87,77.29 40.66,31.69 73.49,53.85 122.35,74.74 19.46,8.32 36.91,15.29 58.75,21.55 114.89,32.93 239.67,26.47 347.64,-20.16 26.3,-11.36 52.39,-26.13 76.13,-40.67 29.89,-18.31 58.07,-41.16 83.1,-65.33 14.47,-13.98 10.63,-5.26 29.49,-28.9 4.67,-5.85 9.04,-9.39 14.4,-14.8 47.27,-47.7 134.39,-178.64 134.39,-230.6 0,-44.51 -99.31,-185.95 -142.95,-229.33 -45.91,-45.65 -40.11,-42.13 -85.41,-77.61l-42.2 -28.36c-23.61,-15.26 -69.08,-36.91 -95.31,-45.82 -12.47,-4.24 -22.29,-8.04 -35.13,-11.1 -35.62,-8.49 -11.85,-20.99 -70.27,-68.42 -35.2,-28.58 -88.01,-49.33 -134.73,-52.63 -77.2,-5.45 -177.97,-0.62 -191.45,83.25 -5.6,34.83 1.79,53.03 1.79,86.95z"/>
  <path class="fil1" d="M858.94 867.22l21.25 -14.16c-8.47,-10.33 -32.08,-30.37 -50.09,-51.42 -9.5,-11.11 -7.33,-14.76 -16.87,-15.53 -40.11,21.61 -60.64,43.82 -127.04,45.31 -55.95,1.25 -95.03,-19.27 -103.51,-69.22 -8.04,-47.31 17.49,-104.38 37.9,-132.89 24.62,-34.39 51.27,-52.06 104.54,-66.51 6.92,-12.54 1.51,-50.4 2.43,-67.54 1.05,-19.61 3.58,-39.62 7.18,-58.32 6.78,-35.25 18.29,-69.9 32.1,-99.34 48.69,-103.79 89.49,-118.58 113.42,-151.25 -7.72,-5.91 -14.65,-6.64 -21.31,-13.91 -33.63,-16.5 -105.39,-26.16 -148.44,-26.31 -54.06,-0.19 -107.17,8.12 -154.65,24.27 -110.36,37.54 -170.65,94.66 -232.35,164.3l-55.88 75.47c-13.35,21.76 -24.03,47.64 -41.23,46.98 -12.66,-0.49 -21.61,-10.42 -19.31,-24.52 1.39,-8.52 26.98,-47.27 33.56,-56.71 8.56,-12.28 11.71,-12.24 4.36,-28.07 -5.15,-11.09 -10.17,-19.42 -16.18,-27.76 -30.58,-42.36 -84.92,-69.99 -145.53,-77.03 -43.12,64.97 -62.95,154.31 -7.59,222.87 8.67,10.74 15.29,17.52 25.13,25.94 8.92,7.63 23.52,11.38 23.68,27.85 0.16,16.5 -12.29,18.73 -22.07,27.01 -29.06,24.59 -48.86,52.17 -57.31,93.4 -13.19,64.32 12.94,114.53 37.71,156.57 69.17,-7.01 132.76,-43.57 160.74,-101.54 11.07,-22.92 6.57,-13.69 -19.43,-56.46 -5.48,-9.01 -35.01,-48.55 -2.21,-55.66 21.23,-4.61 30,21.19 44.57,44.93 11.59,18.89 23.39,34.62 36.17,51.4 6.5,8.53 12.35,15.31 19.68,24.05 95.02,113.25 222.97,191.09 388.18,190.18 40.78,-0.22 117.48,-9.79 148.42,-26.37z"/>
  <path class="fil2" d="M935.9 816.94c11.44,-5.45 28.56,-19.51 37.25,-27.32 13.73,-12.33 22.41,-19.83 34.43,-31.25 44.01,-41.79 155.21,-191.04 155.09,-238.66 -0.08,-34.76 -76.02,-145.34 -92.93,-167.01 -25.1,-32.17 -100.15,-117.61 -133.68,-130.08 -29.71,18.79 -78.13,99.03 -94.69,138.39 -11.39,27.08 -20.65,59.14 -25.98,90.94 -3.31,19.75 -11.34,93.71 -1.87,107.53 6.44,8.77 11.86,3.44 29.87,19.52 35.49,31.69 32.51,73.03 18.92,116.91 -6.44,20.79 -4.14,19 5.98,35.82 14.61,24.28 49.36,72.66 67.61,85.2z"/>
  <path class="fil3" d="M717.56 785.44l9.6 -8.24c35.94,-30.42 57.85,-77.96 61.41,-126.07 2.26,-30.49 -5.52,-32.79 -14.26,-51.7 -33.38,-0.15 -63.64,9.1 -87.71,22.93 -23.15,13.31 -37.62,32.41 -48.77,60.74 -32.12,81.66 -14.49,121.23 79.74,102.35z"/>
  <path class="fil3" d="M936.06 222.62c33.53,12.47 108.58,97.91 133.68,130.08 16.92,21.68 92.85,132.25 92.93,167.01 0.11,47.62 -111.09,196.87 -155.09,238.66 -12.02,11.42 -20.7,18.92 -34.43,31.25 -8.69,7.8 -25.81,21.87 -37.25,27.32 3.82,4.6 5.49,5.78 10.63,9.73 39.32,-13.11 124.44,-96.25 151.85,-130.75 22.82,-28.71 105.49,-144.99 105.53,-176.24 0.02,-16.45 -37.91,-79.07 -46.9,-93.64 -32.08,-52.03 -81.37,-113.67 -127.83,-154.4 -14.16,-12.41 -62.53,-51.58 -82.66,-58.78l-10.47 9.76z"/>
  <path class="fil3" d="M491.16 150.76c44.23,-12.49 51.64,-25.57 123.78,-38.33 56.31,-9.96 97.36,-7.7 154.43,-4.23 -10.4,-16.93 -41.24,-37.57 -64.71,-47.43 -50.65,-21.26 -146.92,-28.07 -193.86,-1.21 -28.69,16.41 -22.62,53.16 -19.63,91.19z"/>
  <path class="fil3" d="M725.11 562.81l44.55 -5.08c-1.03,-115.01 12.67,-202.36 78.92,-296.59 20.13,-28.63 51.85,-61.23 57.5,-69.93 -12.99,-8.53 -31.19,-15.56 -47.13,-18.78 6.65,7.27 13.59,8 21.31,13.91 -23.94,32.66 -64.74,47.46 -113.42,151.25 -13.81,29.44 -25.32,64.09 -32.1,99.34 -3.6,18.7 -6.13,38.71 -7.18,58.32 -0.92,17.14 4.49,54.99 -2.43,67.54z"/>
  <path class="fil0" d="M999.92 419.06c-80.45,24.9 -41.9,143.61 37.25,118.17 27.08,-8.7 49.61,-39.06 40.11,-75.3 -7.59,-28.94 -39.69,-54.53 -77.36,-42.87z"/>
  <path class="fil4" d="M717.56 785.44c51.98,-7.7 81.2,-37.55 97.64,-78.27 6.49,-16.07 17.47,-53.62 14.58,-72.92 -4.13,-27.58 -26.1,-34.34 -55.48,-34.82 8.74,18.92 16.52,21.21 14.26,51.7 -3.56,48.11 -25.46,95.65 -61.41,126.07l-9.6 8.24z"/>
  <path class="fil3" d="M813.22 786.11c9.54,0.77 7.37,4.42 16.87,15.53 18.01,21.06 41.63,41.09 50.09,51.42l-21.25 14.16c10.69,-2.02 39.81,-12.76 47.57,-19.03 -10.09,-13.01 -24.78,-26.68 -37.19,-42.03 -6.83,-8.44 -11.33,-14.89 -17.78,-23.57 -4.84,-6.52 -11.41,-18.67 -16.6,-23.64 -7.28,9.8 -15.37,18.17 -21.73,27.16z"/>
  <path class="fil5" d="M1007.67 460.96c-25.2,12.87 -3.24,50.62 21.46,34.36 19.6,-12.9 4.33,-47.54 -21.46,-34.36z"/>
 </g>
</svg>
