<?xml version="1.0" encoding="UTF-8"?>
<!DOCTYPE svg PUBLIC "-//W3C//DTD SVG 1.1//EN" "http://www.w3.org/Graphics/SVG/1.1/DTD/svg11.dtd">
<!-- Creator: CorelDRAW -->
<svg xmlns="http://www.w3.org/2000/svg" xml:space="preserve" width="16mm" height="13.9915mm" version="1.1" style="shape-rendering:geometricPrecision; text-rendering:geometricPrecision; image-rendering:optimizeQuality; fill-rule:evenodd; clip-rule:evenodd"
viewBox="0 0 177.5 155.22"
 xmlns:xlink="http://www.w3.org/1999/xlink"
 xmlns:xodm="http://www.corel.com/coreldraw/odm/2003">
 <defs>
  <style type="text/css">
   <![CDATA[
    .str0 {stroke:#E1F4C5;stroke-width:2.22;stroke-miterlimit:22.9256}
    .str1 {stroke:#FCA863;stroke-width:2.22;stroke-miterlimit:22.9256}
    .fil0 {fill:black}
    .fil2 {fill:#82B732}
    .fil1 {fill:#98D43B}
    .fil6 {fill:#BBE973}
    .fil5 {fill:#E1F4C5}
    .fil7 {fill:#FCA863}
    .fil4 {fill:#FCC99D}
    .fil3 {fill:#FEE6D5}
   ]]>
  </style>
 </defs>
 <g id="Camada_x0020_1">
  <metadata id="CorelCorpID_0Corel-Layer"/>
  <g id="_1433414909952">
   <path class="fil0" d="M151.15 15.4c6.95,1.91 4.55,-13.4 11.81,-9.26 0.41,1.62 -1.25,10.44 -1.41,13.62 -0.23,4.66 -1.16,9.1 -2.13,13.47 -3.85,-3.37 -5.34,-5.14 -12.7,-5.44 0.62,-1.36 1.64,-2.4 2.26,-3.65 0.95,-1.93 -0.18,-2.99 -0.89,-4.04 -3.67,0 -2.96,0.19 -6.43,5.41 -3.58,5.38 -2.45,3.99 -5.9,6.23 -11.99,7.81 -14.43,17.79 -15.89,19.82 -1.84,2.56 -3.48,4.26 -5.72,6.42 -9.14,8.83 -9.17,-0.07 -26.44,9.27 -5.56,3.01 -10.75,7.37 -13.51,13.18 -0.05,0.11 -0.38,0.81 -0.45,0.93 -0.9,1.48 -2.97,1.96 -5.32,2.65 -3.34,0.99 -6.31,1.14 -10.02,1.77 -1.92,0.32 -3.71,0.12 -5.72,0.18 -9.94,0.28 -25.69,7.41 -29.66,18.18 -0.7,1.89 -1.66,1.95 -3.16,3.08 -4.79,3.58 -9.66,6.53 -15.31,8.61 -2.75,1.02 -4.21,2.85 -4.55,4.94l0 1.97c0.53,3.56 3.85,7.37 9.23,9.12 10.57,3.44 17.8,13.58 40.35,13.39 4.8,-0.04 1.95,-0.44 8.11,4.02 7.72,5.59 22.65,9.74 30.07,0.54 0.76,-0.95 2.05,-2.66 2.37,-3.87 2.35,1.24 4.19,2.14 7.21,2.85 8.32,1.95 17.97,0.92 24.4,-3.83 7.94,-5.87 8.72,-17.27 2.29,-24.24 -0.99,-1.07 -2.01,-1.48 -2.69,-2.51 12.48,-8.36 10.23,-11.62 19.96,-17.49 5.65,-3.41 8.98,-3.44 12.97,-5.76 2.47,-1.44 6.05,-3.69 8.1,-5.77 1.44,-1.45 1.03,-1.6 0.58,-3.62 -1.42,-0.62 -2.34,-1.51 -4.1,-0.25 -0.6,0.43 -0.86,0.79 -1.5,1.28 -10.65,8.23 -18.94,5.9 -29.21,18.62 -2.75,3.41 -8.81,8.77 -12.23,10 -2.28,0.82 -7.35,-2.89 -7.14,2.81 1.28,3.06 4.07,1.07 9.45,4.68 2.4,1.61 4.74,4.47 4.79,9.02 0.05,4.42 -2.4,7.54 -4.82,9.31 -2.71,1.98 -6.53,2.81 -10.56,3.25 -24.31,0.57 -22.85,-16.34 -15.37,-21.55 5.35,-3.73 8.85,-1.6 10.32,-4.94l0.09 -0.83c-0.68,-2.83 -2.5,-2.6 -5.32,-1.94 -10.29,2.39 -11.54,7.29 -13.44,9 -4.39,-3.56 -5.73,-3.44 -8.69,-5.36 -6.23,-1.98 -11.46,-3.96 -18.28,-1.07 -4.47,1.89 -8.61,6.76 -9.43,12.75 -0.47,5 0.34,5.68 1.62,9.59 -5.51,0.15 -20.34,-2.38 -23.04,-5.6 -1.94,-0.21 -8.46,-4.68 -10.98,-5.91 -2.53,-1.24 -9.91,-2.46 -9.82,-7.08l6.16 -2.49c2.18,3.46 2.89,4.95 9.75,5.81 15.58,1.96 25.67,-12.71 44.96,-16.9 4.59,-1 8.79,-1.05 13.12,-2.51 4.3,-1.45 7.03,-3.08 10.24,-5.37 2.99,-2.14 5.81,-4.59 8.4,-6.85 5.12,-4.46 11.66,-8.74 19.54,-11.66 8.49,-3.15 15.04,-3.97 22.23,-8.62 6.4,-4.13 11.44,-8.95 15.6,-15.6 3.19,-5.09 7.94,-14.91 9.01,-21.96 1.16,1.24 5.45,8.64 5.5,10.46l2.35 9.15c0.33,3.57 -0.01,7.15 -0.61,10.6 -0.56,3.25 -1.73,5.89 -3.07,8.38 -0.71,1.31 -1.69,2.48 -2.3,3.6 -1.12,2.04 -0.04,2.77 0.6,4.07 3.04,0.7 3.74,-0.76 5.06,-2.92 3.43,-5.62 5.31,-11.87 5.69,-18.19l0 -4.84c-0.38,-6.37 -2.28,-12.66 -5.65,-18.32 -4.44,-7.44 -5.57,-10.22 -4.72,-20.88 0.41,-5.18 3.19,-10.45 -0.79,-14.17 -3.05,-2.86 -9.22,-3.26 -12.06,1.32 -0.98,1.58 -1.97,3.93 -2.89,5.77 -1.26,2.52 -2.74,3.77 -0.23,6.16z"/>
   <path class="fil1" d="M26.08 134.34c5.11,1.05 15.8,1 20.72,-0.36 0,-1.71 -0.37,-2.54 0.7,-3.63 0.82,-5.99 4.96,-10.86 9.43,-12.75 6.81,-2.88 12.05,-0.91 18.28,1.07 2.33,-2.58 11.21,-4.98 15.65,-5.57 23.48,-3.12 29.65,-18.17 38.48,-24.33 5.13,-3.58 7.94,-4.2 14.25,-6.89 5.61,-2.39 8.24,-4.63 12.48,-8.33 2.98,-2.6 7.04,-7.19 9.35,-11.46 1.92,-3.55 5.44,-11.75 4.36,-16.43 -0.05,-1.82 -4.33,-9.22 -5.5,-10.46 -1.06,7.06 -5.82,16.87 -9.01,21.96 -4.16,6.64 -9.2,11.47 -15.6,15.6 -7.19,4.64 -13.74,5.47 -22.23,8.62 -7.88,2.92 -14.42,7.2 -19.54,11.66 -2.59,2.26 -5.41,4.71 -8.4,6.85 -3.21,2.29 -5.94,3.92 -10.24,5.37 -4.33,1.46 -8.53,1.51 -13.12,2.51 -19.28,4.19 -29.38,18.86 -44.96,16.9 -6.86,-0.86 -7.57,-2.36 -9.75,-5.81l-6.16 2.49c-0.09,4.62 7.29,5.84 9.82,7.08 2.51,1.24 9.04,5.71 10.98,5.91z"/>
   <path class="fil2" d="M75.21 118.67c2.95,1.92 4.3,1.8 8.69,5.36 1.9,-1.71 3.15,-6.61 13.44,-9 2.82,-0.65 4.64,-0.89 5.32,1.94l5.51 -0.16 0.6 1.23c-0.21,-5.7 4.85,-1.99 7.14,-2.81 3.42,-1.23 9.48,-6.59 12.23,-10 10.28,-12.72 18.56,-10.39 29.21,-18.62 0.64,-0.5 0.89,-0.85 1.5,-1.28 1.76,-1.25 2.67,-0.37 4.1,0.25 0.57,-0.78 1.11,-1.23 1.73,-2.04 0.68,-0.89 1.13,-1.44 2.07,-2.08 -0.64,-1.3 -1.72,-2.03 -0.6,-4.07 0.61,-1.12 1.6,-2.28 2.3,-3.6 1.34,-2.49 2.51,-5.13 3.07,-8.38 0.59,-3.45 0.93,-7.03 0.61,-10.6l-2.35 -9.15c1.08,4.68 -2.44,12.88 -4.36,16.43 -2.31,4.27 -6.37,8.86 -9.35,11.46 -4.24,3.7 -6.87,5.94 -12.48,8.33 -6.31,2.69 -9.12,3.31 -14.25,6.89 -8.83,6.17 -15,21.21 -38.48,24.33 -4.43,0.59 -13.32,2.99 -15.65,5.57z"/>
   <path class="fil3" d="M107.62 144.29c1.5,-1.69 9.01,-4.97 7.14,-15.31 -0.19,-1.03 -0.35,-1.78 -1.08,-2.57 -0.52,1.74 -1.18,1.99 -3.25,2.38 -13.67,2.57 -15.85,-3.53 -12.37,-5.1 1.36,-0.62 2.93,0.03 4.38,0.21 3.72,0.47 6.99,-0.7 9.57,-0.38 -0.99,-2.39 -5.66,-5.06 -9.44,-5.71 -1.47,3.34 -4.98,1.21 -10.32,4.94 -7.47,5.21 -8.93,22.12 15.37,21.55z"/>
   <path class="fil4" d="M65.25 147.24c3.74,1.09 8.3,-1.59 10.17,-3.19 0.86,-0.74 5.22,-6.52 4.12,-8.66 -3.06,0.9 -5.84,-0.39 -8.53,-1.87 -1.81,-1 -6.01,-3.53 -6.35,-5.39 -0.31,-1.67 0.91,-3.07 2.59,-3.02 2.35,0.07 2.93,3.33 11.84,5.93 0.44,-0.68 0.49,0.67 0.18,-1.23 -0.04,-0.28 -0.36,-1 -0.48,-1.26 -0.47,-1.01 -0.74,-1.46 -1.13,-2.46 -15.92,-11.95 -31.6,1.41 -22.37,13.81 1.95,2.62 7.09,6.8 9.98,7.35z"/>
   <path class="fil5 str0" d="M126.93 64.29c5.94,-1.4 12.2,-7.73 14.92,-11.2 3.21,-4.1 8.41,-12.19 5.71,-19.47l-1.19 -0.23c-6.14,-0.67 -14.24,8.23 -16.5,11.18 -1.73,2.26 -3.81,5.52 -4.81,9.05 -1.09,3.86 -0.85,8.86 1.88,10.66z"/>
   <path class="fil5 str0" d="M27.73 112.29c7.09,1.33 20.58,-5.06 26.03,-11.74 1.43,-1.75 2.57,-3.87 3.11,-6.29 0.32,-1.45 0.34,-1.79 -0.33,-2.67 -6.86,-1.31 -15.07,2.16 -19.82,5.09 -4.32,2.67 -10.86,7.71 -8.99,15.61z"/>
   <path class="fil6" d="M126.93 64.29c0.95,1.91 3.49,3.45 6.53,3.74 4.28,0.41 5.2,-0.86 7.55,-2.6 6.54,-4.83 13.97,-16.12 16.12,-24.12 1.02,-3.81 -7.22,-10.27 -10.76,-7.92l1.19 0.23c2.7,7.28 -2.5,15.37 -5.71,19.47 -2.71,3.47 -8.98,9.8 -14.92,11.2z"/>
   <path class="fil5 str0" d="M77.82 89.15c7.03,0.36 13.66,-3.6 18.23,-6.61 3.75,-2.47 10.04,-8.2 10.48,-14.82 -7.28,-0.77 -14.57,2.63 -19.09,5.87 -3.88,2.79 -10.3,8.02 -9.63,15.56z"/>
   <path class="fil6" d="M77.82 89.15c0.62,2.84 4.26,9.63 7.77,7.21 8.5,-5.85 11.97,-11.37 23.79,-17.16 1.48,-0.72 4.37,-1.79 5.58,-2.59 -0.29,-4.83 -4,-7.79 -8.42,-8.89 -0.44,6.62 -6.73,12.35 -10.48,14.82 -4.57,3.01 -11.21,6.97 -18.23,6.61z"/>
   <path class="fil2" d="M151.15 15.4c-1.15,1.23 -1.88,3.73 -3.07,4.7 0.72,1.05 1.84,2.11 0.89,4.04 -0.62,1.25 -1.64,2.29 -2.26,3.65 7.36,0.29 8.85,2.07 12.7,5.44 0.98,-4.37 1.9,-8.81 2.13,-13.47 0.16,-3.18 1.82,-12 1.41,-13.62 -7.26,-4.14 -4.86,11.17 -11.81,9.26z"/>
   <path class="fil6" d="M27.73 112.29c1.1,3.46 2.29,3.46 3.71,5.6 3.62,-0.47 16.6,-9.32 24.73,-12.5 3.29,-1.29 6.11,-1.83 9.52,-2.96 0.32,-6.2 -3.77,-9.87 -9.15,-10.84 0.67,0.89 0.65,1.22 0.33,2.67 -0.53,2.42 -1.67,4.54 -3.11,6.29 -5.45,6.67 -18.94,13.06 -26.03,11.74z"/>
   <path class="fil4" d="M102.56 117.8c3.78,0.65 8.45,3.31 9.44,5.71 1.29,0.66 1.74,0.91 1.67,2.9 0.73,0.79 0.89,1.54 1.08,2.57 1.87,10.34 -5.64,13.63 -7.14,15.31 4.03,-0.43 7.86,-1.27 10.56,-3.25 2.42,-1.77 4.87,-4.89 4.82,-9.31 -0.05,-4.55 -2.38,-7.41 -4.79,-9.02 -5.39,-3.61 -8.17,-1.62 -9.45,-4.68l-0.6 -1.23 -5.51 0.16 -0.09 0.83z"/>
   <path class="fil7 str1" d="M79.08 131.04c1.43,1.61 1.31,2.22 0.46,4.34 1.1,2.14 -3.26,7.92 -4.12,8.66 -1.87,1.61 -6.43,4.29 -10.17,3.19 1.45,1.57 6.31,2.56 8.93,2.69 5.2,0.26 9.81,-2.39 11.43,-6.47 0.69,-1.74 -0.5,-2.09 -1.43,-3.7 -1.58,-2.74 -2.06,-6.12 -1.85,-9.77 -1.1,-1.46 -2.99,-2.99 -4.7,-3.91 0.4,1.01 0.66,1.46 1.13,2.46 0.12,0.26 0.44,0.99 0.48,1.26 0.31,1.9 0.26,0.56 -0.18,1.23z"/>
   <path class="fil0" d="M113.67 126.41c0.07,-1.99 -0.38,-2.24 -1.67,-2.9 -2.59,-0.32 -5.86,0.85 -9.57,0.38 -1.45,-0.18 -3.02,-0.83 -4.38,-0.21 -3.47,1.58 -1.29,7.67 12.37,5.1 2.07,-0.39 2.73,-0.64 3.25,-2.38z"/>
   <path class="fil0" d="M79.53 135.38c0.85,-2.11 0.97,-2.72 -0.46,-4.34 -8.91,-2.6 -9.49,-5.86 -11.84,-5.93 -1.68,-0.05 -2.89,1.34 -2.59,3.02 0.34,1.86 4.54,4.39 6.35,5.39 2.69,1.48 5.47,2.76 8.53,1.87z"/>
   <path class="fil2" d="M113.77 65.18c2.62,1.75 5.38,5.04 6.26,9.66l8.67 -2.41c-2.18,-1.87 -3.92,-2.14 -5.9,-4.57 -2.58,-3.17 -1.87,-3.59 -3.54,-7.15 -0.31,0.16 -5.04,3.98 -5.49,4.47z"/>
   <path class="fil2" d="M26.08 134.34c2.71,3.22 17.53,5.76 23.04,5.6 -1.28,-3.91 -2.09,-4.59 -1.62,-9.59 -1.07,1.09 -0.7,1.92 -0.7,3.63 -4.92,1.37 -15.61,1.41 -20.72,0.36z"/>
   <path class="fil2" d="M65.92 90.2c2.4,3.27 4.81,5.07 5.06,11.47 1.5,-0.14 2.62,-0.32 4.07,-0.66 0.5,-0.12 1.11,-0.26 1.65,-0.42 0.29,-0.09 0.49,-0.14 0.78,-0.26l0.91 -0.49c-2.74,-2.63 -5.51,-5.71 -5.88,-11.49l-6.59 1.85z"/>
   <path class="fil2" d="M16.72 117.84c2.63,1.56 5.25,1.87 8.98,1.73 -0.6,-1.1 -1.37,-1.89 -2.01,-3.22 -0.59,-1.23 -0.91,-2.87 -1.51,-4.07 -1.91,0.93 -5.07,3.33 -5.46,5.56z"/>
  </g>
 </g>
</svg>
