<?xml version="1.0" encoding="UTF-8"?>
<!DOCTYPE svg PUBLIC "-//W3C//DTD SVG 1.1//EN" "http://www.w3.org/Graphics/SVG/1.1/DTD/svg11.dtd">
<!-- Creator: CorelDRAW -->
<svg xmlns="http://www.w3.org/2000/svg" xml:space="preserve" width="11.4084mm" height="16mm" version="1.1" style="shape-rendering:geometricPrecision; text-rendering:geometricPrecision; image-rendering:optimizeQuality; fill-rule:evenodd; clip-rule:evenodd"
viewBox="0 0 4.23 5.93"
 xmlns:xlink="http://www.w3.org/1999/xlink"
 xmlns:xodm="http://www.corel.com/coreldraw/odm/2003">
 <defs>
  <style type="text/css">
   <![CDATA[
    .fil0 {fill:#010101}
    .fil1 {fill:#6FB613}
    .fil4 {fill:#8DC21A}
    .fil2 {fill:#A6D907}
    .fil5 {fill:#FBA71C}
    .fil3 {fill:white}
   ]]>
  </style>
 </defs>
 <g id="Camada_x0020_1">
  <metadata id="CorelCorpID_0Corel-Layer"/>
  <g id="_1469273254512">
   <path class="fil0" d="M1.56 0.34c-0.05,-0.02 -0.09,-0.04 -0.15,-0.01 -0.03,0.02 -0.07,0.05 -0.07,0.1 -0.01,0.05 0.01,0.1 0.03,0.14 0.02,0.04 0.05,0.06 0.07,0.1 -0.05,0.03 -0.13,0.02 -0.13,0.14 -0,0.09 0.04,0.13 0.08,0.19 -0.26,0.01 -0.13,0.3 -0.05,0.34l-0.01 0.01c-0.07,0.04 -0.11,0.05 -0.1,0.16 0.01,0.08 0.06,0.14 0.09,0.18 -0.06,0.04 -0.11,0.04 -0.1,0.15 0,0.08 0.05,0.14 0.08,0.18 -0.03,0.02 -0.04,0.02 -0.07,0.06 -0.06,0.09 0.03,0.23 0.08,0.28 -0.04,0.03 -0.07,0.03 -0.09,0.08 -0.02,0.05 -0.01,0.1 0,0.14 0.03,0.08 0.09,0.14 0.17,0.17 0.1,0.04 0.2,0 0.21,-0.09 0.02,-0.1 -0.06,-0.21 -0.11,-0.24 0.04,-0.04 0.12,-0.03 0.11,-0.16 -0,-0.09 -0.05,-0.13 -0.09,-0.18 0.15,-0.07 0.09,-0.26 -0.01,-0.32l0.01 -0.01c0.07,-0.05 0.11,-0.05 0.1,-0.16 -0.01,-0.04 -0.02,-0.07 -0.04,-0.1 -0.02,-0.04 -0.04,-0.04 -0.06,-0.08 0,-0 0,-0 0,-0 0,0 0,-0 0,-0l0.03 -0.01c0.02,-0.01 0.03,-0.02 0.04,-0.03 0.1,-0.1 -0.03,-0.25 -0.05,-0.28 0.08,-0 0.08,-0.01 0.12,-0.04l-0.03 2.12c-0.03,-0 -0.04,-0.02 -0.06,-0.05 -0.05,-0.06 -0.23,-0.19 -0.29,-0.24 -0.05,-0.03 -0.09,-0.06 -0.13,-0.09 -0.09,-0.06 -0.17,-0.12 -0.25,-0.18 -0.04,-0.03 -0.08,-0.06 -0.12,-0.09 -0.22,-0.18 -0.46,-0.42 -0.62,-0.66 -0.02,-0.03 -0.11,-0.2 -0.15,-0.13 -0.01,0.02 0,0.06 0.01,0.08 0.1,0.28 0.37,0.71 0.57,0.92 0.04,0.04 0.06,0.08 0.1,0.11 0.03,0.02 0.08,0.08 0.11,0.11 0.04,0.05 0.09,0.09 0.14,0.13 0.17,0.15 0.42,0.31 0.55,0.47 0.03,0.04 0.06,0.07 0.09,0.12 0.04,0.08 0.04,0.08 0.04,0.18 -0.05,-0.03 -0.15,-0.1 -0.21,-0.14 -0.07,-0.04 -0.15,-0.08 -0.22,-0.12 -0.08,-0.04 -0.14,-0.09 -0.25,-0.1 -0.19,-0.01 -0.35,0.1 -0.46,0.24 -0.09,0.12 -0.35,0.44 -0.43,0.52 -0.05,0.06 -0.01,0.11 0.06,0.06l0.25 -0.18c0.11,-0.08 0.22,-0.16 0.33,-0.24l0.12 -0.08c0.01,-0.01 0.03,-0.02 0.04,-0.03 0.1,-0.05 0.3,0.12 0.37,0.18 0.01,0.01 0.02,0.02 0.04,0.03 0.15,0.16 0.25,0.24 0.32,0.47 0.04,0.14 0.05,-0.02 0.04,0.24l-0.01 0.84c-0,0.09 -0.01,0.2 -0,0.29 0,0.06 0.04,0.05 0.09,0.05 0.17,-0 0.13,0.03 0.13,-0.34 -0,-0.11 -0,-0.23 -0,-0.34 -0,-0.09 -0.02,-0.63 -0,-0.67 0.02,-0.05 0.03,-0.06 0.04,-0.13 0.01,-0.09 -0.01,-0.08 0.05,-0.12 0.03,-0.02 0.07,-0.05 0.09,-0.08 0.49,-0.51 0.76,-1.47 0.74,-2.16 -0.01,-0.15 -0.04,-0.47 -0.12,-0.56l-0.04 0c-0.02,0.05 -0.01,0.25 -0.02,0.33 -0.03,0.28 -0.1,0.57 -0.21,0.83 -0.11,0.26 -0.29,0.6 -0.48,0.82 -0.02,0.02 -0.03,0.04 -0.04,0.04 -0.01,-0.04 -0.02,-1.66 -0.03,-1.85 -0,-0.2 -0.02,-0.42 -0.01,-0.62 0.04,0.03 0.05,0.04 0.12,0.04 -0.01,0.02 -0.15,0.17 -0.05,0.28 0.01,0.01 0.02,0.02 0.04,0.03 0.01,0 0.01,0.01 0.02,0.01l0.02 0.01c-0.09,0.08 -0.17,0.26 -0.03,0.33l0.03 0.02c-0.09,0.07 -0.16,0.26 -0.01,0.32 -0.02,0.06 -0.08,0.07 -0.08,0.18 -0,0.08 0.04,0.13 0.11,0.15l-0.04 0.04c-0.24,0.28 0.16,0.46 0.3,0.13 0.06,-0.15 -0.02,-0.19 -0.08,-0.23 0.03,-0.04 0.15,-0.16 0.09,-0.28 -0.02,-0.04 -0.04,-0.04 -0.07,-0.06 0.03,-0.03 0.07,-0.1 0.08,-0.17 0.01,-0.1 -0.03,-0.11 -0.1,-0.16 0.04,-0.04 0.09,-0.1 0.09,-0.18 0.01,-0.13 -0.07,-0.13 -0.11,-0.16 0.04,-0.04 0.1,-0.11 0.1,-0.2 0,-0.1 -0.06,-0.15 -0.15,-0.15 0.03,-0.05 0.08,-0.09 0.08,-0.19 0,-0.09 -0.05,-0.13 -0.13,-0.14 0.05,-0.07 0.12,-0.13 0.09,-0.25 -0.02,-0.11 -0.12,-0.11 -0.22,-0.08 -0,-0.09 0.01,-0.14 -0.02,-0.23 -0.02,-0.05 -0.07,-0.11 -0.14,-0.11 -0.07,-0 -0.12,0.06 -0.14,0.11 -0.03,0.09 -0.02,0.14 -0.01,0.23z"/>
   <path class="fil1" d="M1.86 4.21c0.12,-0.09 0.26,-0.28 0.35,-0.44 0.2,-0.35 0.33,-0.78 0.4,-1.19 0.02,-0.13 0.07,-0.64 0.01,-0.74 -0.02,0.12 -0.03,0.24 -0.06,0.37 -0.11,0.43 -0.31,0.83 -0.56,1.18l-0.19 0.24c-0.04,0.04 -0.07,0.07 -0.09,0.13 -0.01,0.04 -0.04,0.14 -0.03,0.18l0.09 0.12c0.04,0.06 0.04,0.1 0.06,0.16z"/>
   <path class="fil1" d="M1.67 3.66c0.07,-0.08 0.04,-0.2 0,-0.29 -0.06,-0.13 -0.09,-0.13 -0.17,-0.22 -0.06,-0.06 -0.14,-0.12 -0.21,-0.17 -0.07,-0.05 -0.15,-0.11 -0.23,-0.16 -0.08,-0.05 -0.15,-0.11 -0.22,-0.16l-0.18 -0.15c-0.01,-0.01 -0.02,-0.01 -0.03,-0.02l-0.3 -0.29c-0.02,-0.03 -0.06,-0.08 -0.09,-0.11 0.02,0.07 0.1,0.17 0.14,0.23 0.1,0.15 0.15,0.2 0.24,0.32l0.28 0.29c0.16,0.15 0.24,0.21 0.41,0.35l0.15 0.13c0.08,0.08 0.15,0.15 0.22,0.26z"/>
   <path class="fil2" d="M0.31 4.07c0.02,-0.01 0.08,-0.05 0.1,-0.07 0.03,-0.03 0.06,-0.05 0.1,-0.08 0.07,-0.05 0.13,-0.1 0.2,-0.15 0.06,-0.05 0.13,-0.11 0.25,-0.08 0.17,0.05 0.46,0.31 0.57,0.47 0.05,0.07 0.09,0.13 0.11,0.23 0.04,0.15 0.12,0.12 0.14,-0.02 0.01,-0.1 -0.01,-0.2 -0.05,-0.28 -0.06,-0.1 -0.09,-0.12 -0.16,-0.18 -0.13,-0.11 -0.29,-0.18 -0.43,-0.26 -0.07,-0.04 -0.16,-0.09 -0.27,-0.07 -0.1,0.01 -0.24,0.1 -0.28,0.15l-0.08 0.1c-0.05,0.06 -0.17,0.2 -0.2,0.24z"/>
   <path class="fil3" d="M1.85 4.1c0.04,0.04 0.05,0.01 0.13,-0.08 0.1,-0.11 0.23,-0.34 0.29,-0.47 0.1,-0.21 0.14,-0.32 0.21,-0.55 0.01,-0.02 0.03,-0.08 0.03,-0.1 -0,-0.04 -0.02,-0 0,-0.03 0.01,-0.01 0.02,-0.02 0.02,-0.05 -0,-0.04 -0.05,-0.03 -0.06,0 -0,0.02 -0,0.03 -0,0.05l-0.07 0.24c-0.1,0.31 -0.25,0.63 -0.46,0.87l-0.06 0.06c-0.02,0.01 -0.02,0.02 -0.02,0.05z"/>
   <path class="fil4" d="M1.69 5.79l0.05 -0c0.01,-0.2 -0,-0.41 -0.01,-0.6l-0 -0.46c-0,-0.04 0.01,-0.12 -0.01,-0.15 -0.04,0.01 -0.02,0.03 -0.02,0.13 -0,0.05 -0,0.1 -0,0.15 -0,0.13 -0.02,0.88 -0.01,0.93z"/>
   <path class="fil5" d="M1.68 0.09c-0.01,0.01 -0.02,0.01 -0.03,0.03 -0.01,0.01 -0.01,0.03 -0.01,0.04 -0.02,0.11 0.02,0.26 0.11,0.21 0.09,-0.05 0.04,-0.35 -0.07,-0.28z"/>
   <path class="fil5" d="M1.31 2.44c-0.08,0.07 0.09,0.28 0.19,0.23 0.09,-0.05 -0.1,-0.29 -0.19,-0.23z"/>
   <path class="fil5" d="M1.32 1.42c-0.09,0.04 0.06,0.28 0.18,0.23 0.09,-0.04 -0.07,-0.28 -0.18,-0.23z"/>
   <path class="fil5" d="M1.44 0.41c-0.02,0.02 -0.03,0.03 -0.01,0.09 0.02,0.08 0.12,0.18 0.2,0.14 0.09,-0.05 -0.1,-0.29 -0.18,-0.23z"/>
   <path class="fil5" d="M2.05 1.43c-0.15,0.04 -0.21,0.27 -0.06,0.23 0.13,-0.04 0.22,-0.28 0.06,-0.23z"/>
   <path class="fil5" d="M1.34 1.07c-0.02,0.01 -0.02,-0 -0.03,0.03 -0.02,0.09 0.11,0.24 0.2,0.2 0.1,-0.04 -0.07,-0.27 -0.17,-0.23z"/>
   <path class="fil5" d="M1.82 0.97c0.14,0.06 0.26,-0.14 0.22,-0.21 -0.04,-0.07 -0.24,0.05 -0.22,0.21z"/>
   <path class="fil5" d="M2.05 1.07c-0.15,0.03 -0.23,0.26 -0.09,0.24 0.13,-0.02 0.22,-0.26 0.09,-0.24z"/>
   <path class="fil5" d="M1.94 0.4c-0.15,0.05 -0.22,0.27 -0.07,0.24 0.13,-0.03 0.21,-0.28 0.07,-0.24z"/>
   <path class="fil5" d="M1.6 0.98c0.05,-0.12 -0.13,-0.28 -0.2,-0.23 -0.06,0.04 0.04,0.27 0.2,0.23z"/>
   <path class="fil5" d="M2.07 2.08c-0.15,0.03 -0.23,0.26 -0.09,0.24 0.13,-0.02 0.23,-0.27 0.09,-0.24z"/>
   <path class="fil5" d="M1.51 2.31c0.04,-0.14 -0.15,-0.27 -0.21,-0.22 -0.06,0.05 0.07,0.27 0.21,0.22z"/>
   <path class="fil5" d="M2.06 2.43c-0.14,0.05 -0.21,0.27 -0.06,0.23 0.13,-0.04 0.21,-0.28 0.06,-0.23z"/>
   <path class="fil5" d="M2.12 1.77c-0.15,-0.04 -0.26,0.17 -0.2,0.22 0.07,0.05 0.25,-0.1 0.2,-0.22z"/>
   <path class="fil5" d="M1.51 1.99c0.05,-0.14 -0.15,-0.28 -0.21,-0.22 -0.05,0.05 0.06,0.27 0.21,0.22z"/>
   <path class="fil3" d="M1.59 0.73c0.03,0.05 0.05,0.06 0.08,0.13 0.03,-0.02 0.04,-0.02 0.08,-0 0.02,-0.06 0.06,-0.08 0.08,-0.12 -0.09,-0.03 -0.06,-0.02 -0.12,-0.08 -0.04,0.04 -0.03,0.06 -0.12,0.08z"/>
   <path class="fil3" d="M2.57 2.59l-0.04 -0.01c-0.01,0.02 -0.05,0.14 -0.01,0.15 0.05,0.01 0.06,-0.11 0.05,-0.14z"/>
   <path class="fil0" d="M3.06 0.39c-0.05,-0.02 -0.09,-0.04 -0.15,-0.01 -0.03,0.02 -0.07,0.05 -0.07,0.1 -0.01,0.05 0.01,0.1 0.03,0.14 0.02,0.04 0.05,0.06 0.07,0.1 -0.05,0.03 -0.13,0.02 -0.13,0.14 -0,0.09 0.04,0.13 0.08,0.19 -0.26,0.01 -0.13,0.3 -0.05,0.34l-0.01 0.01c-0.07,0.04 -0.11,0.05 -0.1,0.16 0.01,0.08 0.06,0.14 0.09,0.18 -0.06,0.04 -0.11,0.04 -0.1,0.15 0,0.08 0.05,0.14 0.08,0.18 -0.03,0.02 -0.04,0.02 -0.07,0.06 -0.06,0.09 0.03,0.23 0.08,0.28 -0.04,0.03 -0.07,0.03 -0.09,0.08 -0.02,0.05 -0.01,0.1 0,0.14 0.03,0.08 0.09,0.14 0.17,0.17 0.1,0.04 0.2,0 0.21,-0.09 0.02,-0.1 -0.06,-0.21 -0.11,-0.24 0.04,-0.04 0.12,-0.03 0.11,-0.16 -0,-0.09 -0.05,-0.13 -0.09,-0.18 0.15,-0.07 0.09,-0.26 -0.01,-0.32l0.01 -0.01c0.07,-0.05 0.11,-0.05 0.1,-0.16 -0.01,-0.04 -0.02,-0.07 -0.04,-0.1 -0.02,-0.04 -0.04,-0.04 -0.06,-0.08 0,-0 0,-0 0,-0 0,0 0,-0 0,-0l0.03 -0.01c0.02,-0.01 0.03,-0.02 0.04,-0.03 0.1,-0.1 -0.03,-0.25 -0.05,-0.28 0.08,-0 0.08,-0.01 0.12,-0.04l-0.03 2.12c-0.03,-0 -0.04,-0.02 -0.06,-0.05 -0.05,-0.06 -0.23,-0.19 -0.29,-0.24 -0.05,-0.03 -0.09,-0.06 -0.13,-0.09 -0.09,-0.06 -0.17,-0.12 -0.25,-0.18 -0.04,-0.03 -0.08,-0.06 -0.12,-0.09 -0.22,-0.18 -0.46,-0.42 -0.62,-0.66 -0.02,-0.03 -0.11,-0.2 -0.15,-0.13 -0.01,0.02 0,0.06 0.01,0.08 0.1,0.28 0.37,0.71 0.57,0.92 0.04,0.04 0.06,0.08 0.1,0.11 0.03,0.02 0.08,0.08 0.11,0.11 0.04,0.05 0.09,0.09 0.14,0.13 0.17,0.15 0.42,0.31 0.55,0.47 0.03,0.04 0.06,0.07 0.09,0.12 0.04,0.08 0.04,0.08 0.04,0.18 -0.05,-0.03 -0.15,-0.1 -0.21,-0.14 -0.07,-0.04 -0.15,-0.08 -0.22,-0.12 -0.08,-0.04 -0.14,-0.09 -0.25,-0.1 -0.19,-0.01 -0.35,0.1 -0.46,0.24 -0.09,0.12 -0.35,0.44 -0.43,0.52 -0.05,0.06 -0.01,0.11 0.06,0.06l0.25 -0.18c0.11,-0.08 0.22,-0.16 0.33,-0.24l0.12 -0.08c0.01,-0.01 0.03,-0.02 0.04,-0.03 0.1,-0.05 0.3,0.12 0.37,0.18 0.01,0.01 0.02,0.02 0.04,0.03 0.15,0.16 0.25,0.24 0.32,0.47 0.04,0.14 0.05,-0.02 0.04,0.24l-0.01 0.84c-0,0.09 -0.01,0.2 -0,0.29 0,0.06 0.04,0.05 0.09,0.05 0.17,-0 0.13,0.03 0.13,-0.34 -0,-0.11 -0,-0.23 -0,-0.34 -0,-0.09 -0.02,-0.63 -0,-0.67 0.02,-0.05 0.03,-0.06 0.04,-0.13 0.01,-0.09 -0.01,-0.08 0.05,-0.12 0.03,-0.02 0.07,-0.05 0.09,-0.08 0.49,-0.51 0.76,-1.47 0.74,-2.16 -0.01,-0.15 -0.04,-0.47 -0.12,-0.56l-0.04 0c-0.02,0.05 -0.01,0.25 -0.02,0.33 -0.03,0.28 -0.1,0.57 -0.21,0.83 -0.11,0.26 -0.29,0.6 -0.48,0.82 -0.02,0.02 -0.03,0.04 -0.04,0.04 -0.01,-0.04 -0.02,-1.66 -0.03,-1.85 -0,-0.2 -0.02,-0.42 -0.01,-0.62 0.04,0.03 0.05,0.04 0.12,0.04 -0.01,0.02 -0.15,0.17 -0.05,0.28 0.01,0.01 0.02,0.02 0.04,0.03 0.01,0 0.01,0.01 0.02,0.01l0.02 0.01c-0.09,0.08 -0.17,0.26 -0.03,0.33l0.03 0.02c-0.09,0.07 -0.16,0.26 -0.01,0.32 -0.02,0.06 -0.08,0.07 -0.08,0.18 -0,0.08 0.04,0.13 0.11,0.15l-0.04 0.04c-0.24,0.28 0.16,0.46 0.3,0.13 0.06,-0.15 -0.02,-0.19 -0.08,-0.23 0.03,-0.04 0.15,-0.16 0.09,-0.28 -0.02,-0.04 -0.04,-0.04 -0.07,-0.06 0.03,-0.03 0.07,-0.1 0.08,-0.17 0.01,-0.1 -0.03,-0.11 -0.1,-0.16 0.04,-0.04 0.09,-0.1 0.09,-0.18 0.01,-0.13 -0.07,-0.13 -0.11,-0.16 0.04,-0.04 0.1,-0.11 0.1,-0.2 0.01,-0.1 -0.06,-0.15 -0.15,-0.15 0.03,-0.05 0.08,-0.09 0.08,-0.19 0,-0.09 -0.05,-0.13 -0.13,-0.14 0.05,-0.07 0.12,-0.13 0.09,-0.25 -0.02,-0.11 -0.12,-0.11 -0.22,-0.08 -0,-0.09 0.01,-0.14 -0.02,-0.23 -0.02,-0.05 -0.07,-0.11 -0.14,-0.11 -0.07,-0 -0.12,0.06 -0.14,0.11 -0.03,0.09 -0.02,0.14 -0.01,0.23z"/>
   <path class="fil1" d="M3.35 4.26c0.12,-0.09 0.26,-0.28 0.35,-0.44 0.2,-0.35 0.33,-0.78 0.4,-1.19 0.02,-0.13 0.07,-0.64 0.01,-0.74 -0.02,0.12 -0.03,0.24 -0.06,0.37 -0.11,0.43 -0.31,0.83 -0.56,1.18l-0.19 0.24c-0.04,0.04 -0.07,0.07 -0.09,0.13 -0.01,0.04 -0.04,0.14 -0.03,0.18l0.09 0.12c0.04,0.06 0.04,0.1 0.06,0.16z"/>
   <path class="fil1" d="M3.17 3.71c0.07,-0.08 0.04,-0.2 0,-0.29 -0.06,-0.13 -0.09,-0.13 -0.17,-0.22 -0.06,-0.06 -0.14,-0.12 -0.21,-0.17 -0.07,-0.05 -0.15,-0.11 -0.23,-0.16 -0.08,-0.05 -0.15,-0.11 -0.22,-0.16l-0.18 -0.15c-0.01,-0.01 -0.02,-0.01 -0.03,-0.02l-0.3 -0.29c-0.02,-0.03 -0.06,-0.08 -0.09,-0.11 0.02,0.07 0.1,0.17 0.14,0.23 0.1,0.15 0.15,0.2 0.24,0.32l0.28 0.29c0.16,0.15 0.24,0.21 0.41,0.35l0.15 0.13c0.08,0.08 0.15,0.15 0.22,0.26z"/>
   <path class="fil2" d="M1.8 4.12c0.02,-0.01 0.08,-0.05 0.1,-0.07 0.03,-0.03 0.06,-0.05 0.1,-0.08 0.07,-0.05 0.13,-0.1 0.2,-0.15 0.06,-0.05 0.13,-0.11 0.25,-0.08 0.17,0.05 0.46,0.31 0.57,0.47 0.05,0.07 0.09,0.13 0.11,0.23 0.04,0.15 0.12,0.12 0.14,-0.02 0.01,-0.1 -0.01,-0.2 -0.05,-0.28 -0.06,-0.1 -0.09,-0.12 -0.16,-0.18 -0.13,-0.11 -0.29,-0.18 -0.43,-0.26 -0.07,-0.04 -0.16,-0.09 -0.27,-0.07 -0.1,0.01 -0.24,0.1 -0.28,0.15l-0.08 0.1c-0.05,0.06 -0.17,0.2 -0.2,0.24z"/>
   <path class="fil3" d="M3.35 4.16c0.04,0.04 0.05,0.01 0.13,-0.08 0.1,-0.11 0.23,-0.34 0.29,-0.47 0.1,-0.21 0.14,-0.32 0.21,-0.55 0.01,-0.02 0.03,-0.08 0.03,-0.1 -0,-0.04 -0.02,-0 0,-0.03 0.01,-0.01 0.02,-0.02 0.02,-0.05 -0,-0.04 -0.05,-0.03 -0.06,0 -0,0.02 -0,0.03 -0,0.05l-0.07 0.24c-0.1,0.31 -0.25,0.63 -0.46,0.87l-0.06 0.06c-0.02,0.01 -0.02,0.02 -0.02,0.05z"/>
   <path class="fil4" d="M3.19 5.85l0.05 -0c0.01,-0.2 -0,-0.41 -0.01,-0.6l-0 -0.46c-0,-0.04 0.01,-0.12 -0.01,-0.15 -0.04,0.01 -0.02,0.03 -0.02,0.13 -0,0.05 -0,0.1 -0,0.15 -0,0.13 -0.02,0.88 -0.01,0.93z"/>
   <path class="fil5" d="M3.17 0.15c-0.01,0.01 -0.02,0.01 -0.03,0.03 -0.01,0.01 -0.01,0.03 -0.01,0.04 -0.02,0.11 0.02,0.26 0.11,0.21 0.09,-0.05 0.04,-0.35 -0.07,-0.28z"/>
   <path class="fil5" d="M2.81 2.49c-0.08,0.07 0.09,0.28 0.19,0.23 0.09,-0.05 -0.1,-0.29 -0.19,-0.23z"/>
   <path class="fil5" d="M2.82 1.48c-0.09,0.04 0.06,0.28 0.18,0.23 0.09,-0.04 -0.07,-0.28 -0.18,-0.23z"/>
   <path class="fil5" d="M2.94 0.46c-0.02,0.02 -0.03,0.03 -0.01,0.09 0.02,0.08 0.12,0.18 0.2,0.14 0.09,-0.05 -0.1,-0.29 -0.18,-0.23z"/>
   <path class="fil5" d="M3.55 1.48c-0.15,0.04 -0.21,0.27 -0.06,0.23 0.13,-0.04 0.22,-0.28 0.06,-0.23z"/>
   <path class="fil5" d="M2.83 1.13c-0.02,0.01 -0.02,-0 -0.03,0.03 -0.02,0.09 0.11,0.24 0.2,0.2 0.1,-0.04 -0.07,-0.27 -0.17,-0.23z"/>
   <path class="fil5" d="M3.32 1.03c0.14,0.06 0.26,-0.14 0.22,-0.21 -0.04,-0.07 -0.24,0.05 -0.22,0.21z"/>
   <path class="fil5" d="M3.55 1.13c-0.15,0.03 -0.23,0.26 -0.09,0.24 0.13,-0.02 0.22,-0.26 0.09,-0.24z"/>
   <path class="fil5" d="M3.44 0.46c-0.16,0.05 -0.22,0.27 -0.07,0.24 0.13,-0.03 0.21,-0.28 0.07,-0.24z"/>
   <path class="fil5" d="M3.1 1.04c0.05,-0.12 -0.13,-0.28 -0.2,-0.23 -0.06,0.04 0.04,0.27 0.2,0.23z"/>
   <path class="fil5" d="M3.57 2.14c-0.15,0.03 -0.23,0.26 -0.09,0.24 0.13,-0.02 0.23,-0.27 0.09,-0.24z"/>
   <path class="fil5" d="M3 2.37c0.04,-0.14 -0.15,-0.27 -0.21,-0.22 -0.06,0.05 0.07,0.27 0.21,0.22z"/>
   <path class="fil5" d="M3.55 2.49c-0.14,0.05 -0.21,0.27 -0.06,0.23 0.13,-0.04 0.21,-0.28 0.06,-0.23z"/>
   <path class="fil5" d="M3.62 1.82c-0.15,-0.04 -0.26,0.17 -0.2,0.22 0.07,0.05 0.25,-0.1 0.2,-0.22z"/>
   <path class="fil5" d="M3 2.05c0.05,-0.14 -0.15,-0.28 -0.21,-0.22 -0.05,0.05 0.06,0.27 0.21,0.22z"/>
   <path class="fil3" d="M3.09 0.78c0.03,0.05 0.05,0.06 0.08,0.13 0.03,-0.02 0.04,-0.02 0.08,-0 0.02,-0.06 0.06,-0.08 0.08,-0.12 -0.09,-0.03 -0.06,-0.02 -0.12,-0.08 -0.04,0.04 -0.03,0.06 -0.12,0.08z"/>
   <path class="fil3" d="M4.07 2.64l-0.04 -0.01c-0.01,0.02 -0.05,0.14 -0.01,0.15 0.05,0.01 0.06,-0.11 0.05,-0.14z"/>
  </g>
 </g>
</svg>
