<?xml version="1.0" encoding="UTF-8"?>
<!DOCTYPE svg PUBLIC "-//W3C//DTD SVG 1.1//EN" "http://www.w3.org/Graphics/SVG/1.1/DTD/svg11.dtd">
<!-- Creator: CorelDRAW -->
<svg xmlns="http://www.w3.org/2000/svg" xml:space="preserve" width="16mm" height="8.0785mm" version="1.1" style="shape-rendering:geometricPrecision; text-rendering:geometricPrecision; image-rendering:optimizeQuality; fill-rule:evenodd; clip-rule:evenodd"
viewBox="0 0 27.37 13.82"
 xmlns:xlink="http://www.w3.org/1999/xlink"
 xmlns:xodm="http://www.corel.com/coreldraw/odm/2003">
 <defs>
  <style type="text/css">
   <![CDATA[
    .fil1 {fill:black}
    .fil2 {fill:#FC7F86}
    .fil0 {fill:#FDC2C6}
   ]]>
  </style>
 </defs>
 <g id="Camada_x0020_1">
  <metadata id="CorelCorpID_0Corel-Layer"/>
  <g id="_1469893139600">
   <path class="fil0" d="M11.48 9.52c0.41,0 0.69,0.1 1.08,0.03 0.35,-0.48 0.1,-0.36 1.28,-0.36 1.97,0.01 2.83,-0.09 4.78,-0.29 -0.1,-0.44 -0.21,-0.69 -0.2,-1.2 0.01,-0.52 0.41,-0.74 0.7,-0.46 0.2,0.2 -0.1,1.73 1.32,2.74 0.42,0.3 0.26,0.54 0.16,1.05 -0.06,0.31 -0.13,0.87 -0.22,1.16 -0.07,0.21 -0.46,0.57 -0.62,0.79l0.87 -0c0.71,-2.08 0.86,-2.57 1.03,-4.75 0.06,-0.81 0.03,-0.53 0.38,-1.05 0.19,-0.28 0.34,-0.64 0.43,-1.02 0.11,-0.45 0.13,-0.89 0.11,-1.36 -0.03,-0.71 -0.22,-0.64 0.22,-1.07 -0,-0.23 -0.29,-0.84 -0.46,-0.97 -0.82,0.32 -0.48,-0.76 -3.01,-1.52 -3.31,-1 -4.97,0.04 -8.48,0.01 -1.77,-0.01 -2.5,0.02 -4.12,0.5 0.12,0.16 0.71,0.68 0.23,0.98 -0.46,0.29 -0.56,-0.37 -1.04,-0.41 -0.27,-0.02 -0.48,0.09 -0.75,0.1 -0.53,0.02 -1.68,-0.13 -2.4,-0.12 0.12,0.37 0.84,0.99 1.17,1.21 1.48,0.97 2.46,0.39 2.32,1.15 -0.15,0.83 -2.27,-0.2 -2.59,-0.36 -0.17,0.08 -0.84,0.71 -1.28,1.03 -0.42,0.3 -0.94,0.59 -1.6,0.7l-0.01 1.36c1.47,0.24 1.55,0.63 2.73,0.76 0.42,0.05 0.68,-0.02 1.11,0.07 0.78,0.15 3.37,0.59 4.06,0.6 -0.05,-0.44 -0.57,-1.95 0.29,-1.68 0.31,0.1 0.31,0.49 0.38,0.85 0.11,0.59 0.58,2.83 0.57,3.11 -0.02,0.36 -0.54,1.4 -0.66,1.87l0.77 -0c0.2,-0.58 0.37,-1.2 0.55,-1.8 0.39,-1.31 -0,-1.61 -0.17,-2.98 -0.05,-0.37 0.16,-0.68 0.53,-0.53 0.28,0.12 0.28,0.51 0.34,0.84 0.06,0.31 0.12,0.67 0.18,0.98z"/>
   <path class="fil1" d="M11.48 9.52c-0.05,-0.31 -0.12,-0.67 -0.18,-0.98 -0.06,-0.33 -0.06,-0.73 -0.34,-0.84 -0.38,-0.15 -0.58,0.16 -0.53,0.53 0.17,1.37 0.56,1.67 0.17,2.98 -0.18,0.59 -0.35,1.22 -0.55,1.8l-0.77 0c0.11,-0.47 0.64,-1.51 0.66,-1.87 0.01,-0.28 -0.46,-2.52 -0.57,-3.11 -0.07,-0.37 -0.07,-0.76 -0.38,-0.85 -0.86,-0.27 -0.34,1.24 -0.29,1.68 -0.69,-0.01 -3.28,-0.44 -4.06,-0.6 -0.43,-0.08 -0.69,-0.02 -1.11,-0.07 -1.18,-0.13 -1.26,-0.52 -2.73,-0.76l0.01 -1.36c0.65,-0.11 1.17,-0.4 1.6,-0.7 0.44,-0.31 1.11,-0.95 1.28,-1.03 0.32,0.16 2.44,1.19 2.59,0.36 0.14,-0.76 -0.84,-0.18 -2.32,-1.15 -0.33,-0.22 -1.05,-0.84 -1.17,-1.21 0.72,-0.01 1.87,0.14 2.4,0.12 0.26,-0.01 0.48,-0.12 0.75,-0.1 0.47,0.04 0.57,0.7 1.04,0.41 0.47,-0.3 -0.12,-0.82 -0.23,-0.98 1.61,-0.49 2.35,-0.52 4.12,-0.5 3.51,0.02 5.17,-1.01 8.48,-0.01 2.53,0.76 2.19,1.84 3.01,1.52 0.3,-0.41 0.19,-0.54 -0.41,-1.08 -0.57,-0.51 -1.63,-1.03 -2.39,-1.25 -1.16,-0.33 -1.98,-0.45 -3.24,-0.45 -1.45,-0 -3.08,0.43 -5.13,0.43 -1.72,-0 -3.97,0.02 -5.44,0.92 -0.55,0.34 -0.73,0.31 -1.57,0.21l-1.74 -0.08c-1.83,-0.26 0.12,1.95 0.32,2.14 0.17,0.15 0.17,0.02 0.2,0.29 -0.29,0.08 -1,1.06 -2.2,1.33 -0.56,0.13 -0.71,0.4 -0.74,0.84l0 1.11c0.02,1.27 0.7,0.88 1.42,1.17 0.62,0.25 1.28,0.56 2,0.62 0.13,0.01 0.29,0.03 0.39,0.04 0.46,0.04 -0.06,-0.09 1.17,0.11 0.28,0.05 0.52,0.12 0.79,0.12l0.24 1.37c0.06,0.29 0.11,0.37 0.01,0.65 -0.13,0.36 -0.67,1.65 -0.67,1.84 -0.01,0.61 0.48,0.7 0.95,0.7 1.48,-0.01 1.28,0.02 1.79,-1.48 0.15,-0.44 0.24,-0.83 0.39,-1.27 0.22,-0.66 0.07,-0.8 0.02,-1.43 0.16,0.08 0.15,0.05 0.37,0.05 0,1.34 0.61,0.45 -0.19,2.54 -0.08,0.21 -0.13,0.34 -0.21,0.54 -0.08,0.21 -0.13,0.45 -0.03,0.66 0.21,0.45 0.58,0.38 1.23,0.38 0.42,0 0.87,0.04 1.11,-0.44l0.38 -1.22c0.24,-0.77 0.64,-1.65 0.32,-2.61z"/>
   <path class="fil1" d="M22.8 3.74c-0.45,0.43 -0.25,0.36 -0.22,1.07 0.02,0.47 -0,0.91 -0.11,1.36 -0.09,0.37 -0.24,0.74 -0.43,1.02 -0.35,0.51 -0.32,0.24 -0.38,1.05 -0.16,2.19 -0.32,2.68 -1.03,4.75l-0.87 0c0.16,-0.22 0.55,-0.58 0.62,-0.79 0.1,-0.3 0.17,-0.85 0.22,-1.16 0.1,-0.52 0.25,-0.76 -0.16,-1.05 -1.42,-1.01 -1.12,-2.55 -1.32,-2.74 -0.29,-0.28 -0.69,-0.07 -0.7,0.46 -0.01,0.5 0.1,0.76 0.2,1.2 -1.94,0.2 -2.81,0.3 -4.78,0.29 -1.19,-0.01 -0.94,-0.12 -1.28,0.36 0.11,0.58 0.57,0.45 1.23,0.45 0.57,0 1.14,0 1.71,0 0.16,0.23 0.42,0.6 0.64,0.75 -0.41,1.77 -0.03,0.9 -0.95,1.99 -0.28,0.33 -0.21,0.81 0.16,0.99 0.33,0.16 1,0.07 1.43,0.07 0.91,0 0.96,-0.6 1.34,-1.65 0.13,-0.36 0.27,-0.7 0.4,-1.09 0.24,-0.74 0.08,-0.79 0.07,-1.32 0.13,-0.03 0.32,-0.05 0.43,-0.11 0.14,0.27 0.33,0.47 0.55,0.68 0.38,0.37 0.27,0.36 0.15,0.93 -0.16,0.81 0.01,0.46 -0.36,0.93 -0.28,0.35 -1.16,0.99 -0.44,1.52 0.21,0.15 1.85,0.24 2.25,-0.09 0.24,-0.2 0.29,-0.54 0.4,-0.89l0.75 -2.41c0.08,-0.37 0.11,-2.06 0.2,-2.36 0.06,-0.19 0.35,-0.34 0.65,-1.27 0.13,-0.39 0.14,-0.63 0.2,-1.08 0.09,-0.62 -0.02,-0.83 -0.02,-1.2 0.18,-0.04 0.49,-0.21 0.66,-0.3 0.19,-0.11 0.42,-0.36 0.66,-0.33 0.19,0.02 0.8,0.29 1.67,0.32 0.69,0.02 0.95,-0.15 1.02,-0.33l0 -0.23c-0.04,-0.12 -0.11,-0.22 -0.16,-0.24 -0.16,-0.09 -0.7,-0.04 -0.97,-0.05 -0.35,-0.01 -0.54,-0.11 -0.91,-0.11 0.44,-0.65 0.73,-1 0.48,-1.87 -0.43,-1.53 -2.63,-1.37 -2.78,0.22 -0.03,0.32 0.12,0.82 0.23,1.04 0.08,0.17 0.13,0.26 0.23,0.41 0.1,0.14 0.2,0.24 0.28,0.36 -0.17,0.09 -0.28,0.14 -0.45,0.25 -0.18,0.11 -0.35,0.16 -0.54,0.24zm1.59 -2.83c0.31,-0.04 0.68,0.25 0.68,0.65 -0,0.4 -0.1,1.11 -0.42,1.15 -0.31,0.04 -0.65,-0.61 -0.71,-1 -0.06,-0.4 0.14,-0.75 0.45,-0.79z"/>
   <path class="fil2" d="M6.26 12.99c1.05,0 0.69,0.23 1.27,-1.61 0.28,-0.89 0.3,-0.89 0.12,-1.85l-1.03 -0.14c0.06,0.5 0.39,1.54 0.25,1.97 -0.18,0.53 -0.47,1.11 -0.61,1.63z"/>
   <path class="fil2" d="M16.52 9.93c0.26,0.66 0.64,0 0.3,1.55 -0.23,1.07 -0.15,0.85 -0.71,1.5l0.83 0.02c0.19,-0.51 0.38,-1.01 0.56,-1.52 0.17,-0.47 0.51,-1.1 0.24,-1.63l-1.23 0.09z"/>
   <path class="fil1" d="M3.82 5.3c-0.11,0.08 -0.15,0.02 -0.19,0.26 -0.1,0.56 0.34,0.78 0.63,0.57 0.37,-0.26 0.12,-1.24 -0.44,-0.83z"/>
  </g>
 </g>
</svg>
