<?xml version="1.0" encoding="UTF-8"?>
<!DOCTYPE svg PUBLIC "-//W3C//DTD SVG 1.1//EN" "http://www.w3.org/Graphics/SVG/1.1/DTD/svg11.dtd">
<!-- Creator: CorelDRAW -->
<svg xmlns="http://www.w3.org/2000/svg" xml:space="preserve" width="16mm" height="8.0785mm" version="1.1" style="shape-rendering:geometricPrecision; text-rendering:geometricPrecision; image-rendering:optimizeQuality; fill-rule:evenodd; clip-rule:evenodd"
viewBox="0 0 36.12 18.24"
 xmlns:xlink="http://www.w3.org/1999/xlink"
 xmlns:xodm="http://www.corel.com/coreldraw/odm/2003">
 <defs>
  <style type="text/css">
   <![CDATA[
    .str2 {stroke:#373435;stroke-width:0.45;stroke-miterlimit:22.9256}
    .str3 {stroke:#B1B1B9;stroke-width:0.45;stroke-miterlimit:22.9256}
    .str1 {stroke:#CFB4BB;stroke-width:0.45;stroke-miterlimit:22.9256}
    .str0 {stroke:#DCB3BB;stroke-width:0.45;stroke-miterlimit:22.9256}
    .fil4 {fill:#373435}
    .fil0 {fill:black}
    .fil3 {fill:#B1B1B9}
    .fil2 {fill:#CFB4BB}
    .fil1 {fill:#DCB3BB}
   ]]>
  </style>
 </defs>
 <g id="Camada_x0020_1">
  <metadata id="CorelCorpID_0Corel-Layer"/>
  <path class="fil0" d="M30.09 4.94c-0.59,0.57 -0.33,0.48 -0.3,1.41 0.02,0.62 -0,1.2 -0.14,1.79 -0.12,0.49 -0.32,0.98 -0.56,1.34 -0.46,0.68 -0.42,0.32 -0.5,1.38 -0.22,2.88 -0.43,3.53 -1.36,6.27l-1.15 0c0.2,-0.29 0.72,-0.77 0.81,-1.04 0.13,-0.39 0.22,-1.12 0.3,-1.54 0.13,-0.68 0.33,-1 -0.22,-1.39 -1.87,-1.33 -1.48,-3.36 -1.74,-3.62 -0.38,-0.37 -0.9,-0.09 -0.92,0.6 -0.01,0.67 0.13,1 0.27,1.58 -2.56,0.26 -3.71,0.4 -6.3,0.38 -1.57,-0.01 -1.24,-0.16 -1.69,0.47 0.15,0.77 0.75,0.6 1.62,0.6 0.75,0 1.51,0 2.26,0 0.21,0.31 0.55,0.79 0.85,0.99 -0.54,2.33 -0.04,1.19 -1.25,2.63 -0.37,0.43 -0.28,1.07 0.21,1.31 0.44,0.21 1.32,0.09 1.89,0.09 1.2,0.01 1.27,-0.79 1.77,-2.18 0.17,-0.48 0.36,-0.93 0.53,-1.44 0.32,-0.98 0.11,-1.04 0.1,-1.74 0.18,-0.04 0.42,-0.07 0.56,-0.14 0.19,0.36 0.43,0.62 0.72,0.9 0.51,0.49 0.35,0.47 0.2,1.22 -0.22,1.07 0.02,0.61 -0.47,1.22 -0.36,0.46 -1.53,1.31 -0.59,2.01 0.27,0.2 2.44,0.32 2.97,-0.12 0.32,-0.27 0.39,-0.71 0.52,-1.17l0.99 -3.18c0.1,-0.49 0.15,-2.71 0.27,-3.12 0.07,-0.26 0.46,-0.45 0.86,-1.68 0.17,-0.51 0.18,-0.83 0.27,-1.42 0.12,-0.82 -0.02,-1.1 -0.03,-1.58 0.24,-0.06 0.64,-0.27 0.87,-0.4 0.25,-0.14 0.55,-0.47 0.87,-0.43 0.25,0.03 1.05,0.38 2.21,0.42 0.91,0.03 1.25,-0.19 1.34,-0.44l0 -0.31c-0.05,-0.16 -0.15,-0.29 -0.21,-0.32 -0.22,-0.12 -0.92,-0.05 -1.28,-0.06 -0.46,-0.01 -0.71,-0.14 -1.2,-0.14 0.58,-0.86 0.96,-1.32 0.64,-2.47 -0.56,-2.02 -3.47,-1.81 -3.67,0.3 -0.04,0.43 0.16,1.08 0.3,1.38 0.11,0.23 0.17,0.35 0.31,0.54 0.14,0.19 0.27,0.31 0.37,0.47 -0.22,0.12 -0.37,0.19 -0.59,0.32 -0.24,0.14 -0.47,0.21 -0.71,0.31zm2.1 -3.73c0.41,-0.05 0.9,0.33 0.89,0.86 -0,0.53 -0.14,1.46 -0.55,1.52 -0.41,0.05 -0.85,-0.8 -0.94,-1.33 -0.08,-0.53 0.18,-1 0.59,-1.05z"/>
  <g id="_1468675542832">
   <path class="fil1 str0" d="M15.15 12.56c0.54,0 0.92,0.13 1.43,0.04 0.46,-0.64 0.13,-0.48 1.69,-0.47 2.6,0.01 3.74,-0.12 6.3,-0.38 -0.14,-0.58 -0.28,-0.91 -0.27,-1.58 0.02,-0.69 0.54,-0.97 0.92,-0.6 0.27,0.26 -0.13,2.29 1.74,3.62 0.55,0.39 0.34,0.71 0.22,1.39 -0.08,0.41 -0.17,1.15 -0.3,1.54 -0.09,0.27 -0.61,0.75 -0.81,1.04l1.15 -0c0.93,-2.74 1.14,-3.39 1.36,-6.27 0.08,-1.06 0.04,-0.71 0.5,-1.38 0.24,-0.36 0.45,-0.85 0.56,-1.34 0.14,-0.59 0.17,-1.17 0.14,-1.79 -0.04,-0.93 -0.3,-0.84 0.3,-1.41 -0,-0.31 -0.39,-1.1 -0.6,-1.28 -1.09,0.42 -0.64,-1.01 -3.98,-2.01 -4.37,-1.32 -6.56,0.05 -11.19,0.02 -2.33,-0.01 -3.3,0.02 -5.43,0.67 0.15,0.21 0.93,0.9 0.31,1.3 -0.61,0.39 -0.74,-0.49 -1.37,-0.54 -0.36,-0.03 -0.64,0.12 -0.99,0.13 -0.69,0.02 -2.22,-0.18 -3.17,-0.16 0.15,0.48 1.1,1.3 1.54,1.59 1.95,1.28 3.25,0.52 3.07,1.52 -0.2,1.1 -2.99,-0.26 -3.42,-0.47 -0.22,0.1 -1.11,0.94 -1.69,1.36 -0.56,0.4 -1.24,0.78 -2.11,0.93l-0.01 1.8c1.94,0.32 2.04,0.83 3.61,1 0.55,0.06 0.9,-0.02 1.46,0.09 1.03,0.2 4.45,0.78 5.36,0.79 -0.07,-0.58 -0.76,-2.57 0.38,-2.22 0.41,0.13 0.4,0.64 0.5,1.13 0.15,0.78 0.77,3.73 0.75,4.11 -0.02,0.48 -0.72,1.85 -0.87,2.47l1.02 -0c0.26,-0.77 0.49,-1.58 0.73,-2.37 0.51,-1.72 -0,-2.12 -0.23,-3.93 -0.06,-0.49 0.21,-0.9 0.7,-0.7 0.38,0.15 0.37,0.67 0.45,1.11 0.07,0.41 0.16,0.89 0.23,1.3z"/>
   <path class="fil0" d="M15.15 12.56c-0.07,-0.41 -0.16,-0.88 -0.23,-1.3 -0.08,-0.44 -0.08,-0.96 -0.45,-1.11 -0.5,-0.2 -0.76,0.21 -0.7,0.7 0.23,1.8 0.74,2.2 0.23,3.93 -0.23,0.78 -0.47,1.6 -0.73,2.37l-1.02 0c0.15,-0.62 0.85,-1.99 0.87,-2.47 0.02,-0.37 -0.6,-3.33 -0.75,-4.11 -0.09,-0.48 -0.09,-1 -0.5,-1.13 -1.14,-0.35 -0.45,1.64 -0.38,2.22 -0.91,-0.01 -4.32,-0.58 -5.36,-0.79 -0.56,-0.11 -0.91,-0.02 -1.46,-0.09 -1.56,-0.17 -1.66,-0.69 -3.61,-1l0.01 -1.8c0.86,-0.14 1.55,-0.53 2.11,-0.93 0.58,-0.41 1.47,-1.25 1.69,-1.36 0.43,0.22 3.21,1.57 3.42,0.47 0.19,-1 -1.11,-0.24 -3.07,-1.52 -0.44,-0.29 -1.39,-1.11 -1.54,-1.59 0.95,-0.02 2.47,0.18 3.17,0.16 0.35,-0.01 0.63,-0.16 0.99,-0.13 0.62,0.05 0.76,0.93 1.37,0.54 0.62,-0.39 -0.16,-1.09 -0.31,-1.3 2.13,-0.65 3.1,-0.68 5.43,-0.67 4.63,0.03 6.82,-1.33 11.19,-0.02 3.34,1 2.89,2.43 3.98,2.01 0.4,-0.55 0.25,-0.71 -0.55,-1.42 -0.75,-0.67 -2.15,-1.36 -3.15,-1.65 -1.54,-0.44 -2.61,-0.59 -4.27,-0.59 -1.91,-0 -4.06,0.56 -6.77,0.56 -2.27,-0 -5.24,0.02 -7.18,1.21 -0.73,0.44 -0.97,0.4 -2.07,0.28l-2.3 -0.1c-2.42,-0.35 0.15,2.58 0.43,2.82 0.22,0.19 0.23,0.02 0.26,0.38 -0.39,0.1 -1.32,1.39 -2.9,1.76 -0.73,0.17 -0.93,0.53 -0.98,1.11l0 1.47c0.02,1.67 0.92,1.16 1.88,1.55 0.82,0.33 1.69,0.74 2.64,0.82 0.17,0.01 0.38,0.03 0.52,0.05 0.61,0.05 -0.08,-0.12 1.54,0.15 0.37,0.06 0.68,0.16 1.04,0.16l0.31 1.8c0.08,0.39 0.14,0.49 0.02,0.85 -0.17,0.48 -0.88,2.18 -0.88,2.42 -0.01,0.81 0.63,0.92 1.25,0.92 1.96,-0.02 1.7,0.02 2.36,-1.95 0.19,-0.58 0.32,-1.1 0.51,-1.67 0.29,-0.87 0.09,-1.06 0.02,-1.88 0.21,0.1 0.2,0.07 0.49,0.07 0,1.77 0.8,0.6 -0.25,3.35 -0.11,0.28 -0.17,0.44 -0.27,0.72 -0.1,0.28 -0.17,0.59 -0.04,0.87 0.28,0.6 0.77,0.5 1.62,0.5 0.56,0 1.14,0.05 1.46,-0.58l0.51 -1.61c0.31,-1.01 0.84,-2.18 0.42,-3.45z"/>
   <path class="fil2 str1" d="M8.26 17.14c1.39,0 0.91,0.3 1.67,-2.13 0.37,-1.18 0.39,-1.17 0.16,-2.44l-1.36 -0.18c0.07,0.66 0.51,2.03 0.32,2.6 -0.23,0.7 -0.62,1.46 -0.8,2.16z"/>
   <path class="fil2 str1" d="M21.8 13.1c0.35,0.87 0.84,0 0.4,2.05 -0.3,1.41 -0.2,1.13 -0.94,1.98l1.1 0.02c0.25,-0.68 0.5,-1.34 0.75,-2.01 0.23,-0.62 0.67,-1.45 0.32,-2.15l-1.62 0.12z"/>
   <path class="fil0" d="M5.04 7c-0.15,0.11 -0.2,0.03 -0.25,0.34 -0.13,0.74 0.44,1.03 0.83,0.76 0.48,-0.34 0.16,-1.63 -0.58,-1.1z"/>
   <g>
    <path class="fil3" d="M15.97 3.67c0.16,0.52 0.13,1.07 -0.21,1.54 -0.23,0.31 -0.51,0.52 -0.87,0.65 -0.01,0 -0.01,0 -0.02,0.01 -0.03,0.04 -0.06,0.08 -0.09,0.11 -0.18,0.21 -0.39,0.33 -0.63,0.44l-0.36 0.17 -0.39 -0.08c-0.63,-0.13 -1.21,-0.35 -1.78,-0.63 -0.83,-0.4 -1.09,-0.43 -1.14,-1.5 -0.06,-1.43 1,-2.26 2.29,-2.57 0.6,-0.14 1.15,-0.16 1.72,0.1 0.24,0.11 0.45,0.27 0.69,0.35l0.99 0.34 -0.18 1.03c-0,0.01 -0.01,0.03 -0.01,0.04z"/>
    <path class="fil4 str2" d="M13.64 5.32c0.54,-0.25 -0.14,-0.09 0.4,-0.42 0.39,-0.24 0.54,-0.14 0.74,-0.41 0.12,-0.16 0.05,-0.39 -0,-0.53 -0.2,-0.51 -0.09,-0.03 -0,-0.54 -0.76,-0.26 -0.79,-0.64 -1.74,-0.41 -1.09,0.26 -1.38,0.8 -1.35,1.33 0.02,0.4 -0.13,0.18 0.45,0.45 0.42,0.2 0.92,0.41 1.5,0.53z"/>
   </g>
   <path class="fil3 str3" d="M20 6.78c-0.41,1.07 -1.51,1.34 -2.57,1.07 -0.91,-0.22 -1.44,-0.79 -1.49,-1.68 -0.04,-0.08 -0.06,-0.16 -0.09,-0.25l-0.29 -1.09 1.12 -0.17c0.63,-0.1 2.55,0.2 3.09,0.51l0.9 0.53 -0.67 1.08z"/>
   <path class="fil4 str2" d="M19.25 6.06c-0.47,-0.28 -2.27,-0.41 -2.42,-0.39 0.04,0.14 0.09,0.16 0.12,0.29 0.02,0.12 -0.15,0.69 0.72,0.91 1.24,0.31 1.39,-0.49 1.41,-0.53l0.17 -0.28z"/>
   <path class="fil3" d="M19.34 2.37l-0.11 -0.34 1.21 -0.16c1.17,-0.15 1.8,-0.17 2.57,0.81 0.45,0.57 0.38,1.3 -0.11,1.82 -0.27,0.29 -0.65,0.49 -1.02,0.64l-0.33 0.14 -0.34 -0.1c-0.25,-0.07 -0.45,-0.14 -0.66,-0.28 -0.23,-0.09 -0.45,-0.11 -0.7,-0.22 -0.67,-0.32 -0.91,-0.99 -0.71,-1.69l0.17 -0.61 0.02 -0z"/>
   <path class="fil4 str2" d="M20.12 3.27c-0.16,0.57 0.34,0.51 0.8,0.69 0.32,0.12 0.07,0.11 0.56,0.25 0.56,-0.23 0.99,-0.55 0.72,-0.9 -0.41,-0.52 -0.55,-0.57 -1.64,-0.43 0.11,0.35 0.37,0.25 -0.45,0.39z"/>
   <path class="fil3 str3" d="M25.81 2.69c0.17,0.18 0.32,0.24 0.47,0.48 0.4,0.63 0.09,1.22 -0.43,1.63 -0.11,0.2 -0.28,0.37 -0.52,0.48 -0.1,0.04 -0.21,0.08 -0.32,0.12l-0.42 0.15 -0.4 -0.21c-0.83,-0.44 -1.54,-0.71 -1.3,-1.89 0.13,-0.65 0.61,-1.09 1.13,-1.44l0.6 -0.4 0.58 0.43c0.28,0.21 0.44,0.36 0.61,0.65z"/>
   <path class="fil4 str2" d="M24.67 4.45c0.63,-0.23 -0.08,0.03 0.54,-0.43 0.43,-0.32 0.2,-0.27 -0.14,-0.63 -0.2,-0.22 -0.07,-0.22 -0.48,-0.53 -0.34,0.23 -0.64,0.48 -0.71,0.8 -0.09,0.47 0.12,0.44 0.78,0.79z"/>
   <path class="fil3" d="M11.27 7.43c0.23,-0.32 0.36,-0.53 0.71,-0.76l0.4 -0.26 2.03 0.62 0.72 2.07 -2.39 0.57 -2.07 -1.4 0.6 -0.85z"/>
   <path class="fil4 str2" d="M12.1 8.01l0.84 0.57 0.86 -0.2 -0.18 -0.52 -1.09 -0.33c-0.21,0.14 -0.28,0.28 -0.43,0.49z"/>
   <g>
    <path class="fil3 str3" d="M20.28 8.2c0.35,-0.4 1.13,-0.53 1.63,-0.68l0.46 -0.14 2.54 1.67 -2.19 1.22 -0.29 -0.02c-0.37,-0.02 -0.57,-0.1 -0.91,-0.16 -0.63,-0.11 -0.62,0.03 -1.17,-0.49l-0.7 -0.67 0.63 -0.73z"/>
    <path class="fil4 str2" d="M21.05 8.87c0.3,0.28 -0.02,0.12 0.64,0.23 0.53,0.09 0.35,0.12 0.79,0.15l0.47 -0.26 -0.74 -0.49c-0.25,0.08 -1.08,0.28 -1.16,0.38z"/>
   </g>
   <path class="fil3 str3" d="M24.96 7.97c-0.14,-0.22 -0.29,-0.45 -0.42,-0.68l-0.49 -0.86 2.12 -1.28 0.52 0.3c0.55,0.32 0.96,0.9 0.89,1.56 -0.09,0.84 -0.83,1.27 -1.58,1.41l-0.68 0.13 -0.37 -0.58z"/>
   <path class="fil4 str2" d="M25.81 7.42c1.05,-0.21 0.85,-0.81 0.37,-1.09l-0.76 0.46c0.11,0.19 0.26,0.43 0.39,0.63z"/>
   <path class="fil3" d="M18.6 8.6c0.98,-0.13 2.2,0.04 2.25,1.3l0.03 0.91 -1.93 0.29 -0.3 -0.16c-0.6,-0.32 -0.76,-0.42 -0.91,-1.12l-0.23 -1.07 1.08 -0.15z"/>
   <path class="fil4 str2" d="M18.74 9.61c0.06,0.3 -0.01,0.21 0.4,0.43l0.7 -0.1c-0.01,-0.38 -0.48,-0.41 -1.1,-0.33z"/>
  </g>
 </g>
</svg>
