<?xml version="1.0" encoding="UTF-8"?>
<!DOCTYPE svg PUBLIC "-//W3C//DTD SVG 1.1//EN" "http://www.w3.org/Graphics/SVG/1.1/DTD/svg11.dtd">
<!-- Creator: CorelDRAW -->
<svg xmlns="http://www.w3.org/2000/svg" xml:space="preserve" width="135.485mm" height="101.78mm" version="1.1" style="shape-rendering:geometricPrecision; text-rendering:geometricPrecision; image-rendering:optimizeQuality; fill-rule:evenodd; clip-rule:evenodd"
viewBox="0 0 972.52 730.58"
 xmlns:xlink="http://www.w3.org/1999/xlink"
 xmlns:xodm="http://www.corel.com/coreldraw/odm/2003">
 <defs>
  <style type="text/css">
   <![CDATA[
    .fil2 {fill:#D7CC75}
    .fil1 {fill:#A53692}
    .fil0 {fill:black}
    .fil4 {fill:#00838F}
    .fil5 {fill:#0376BC}
    .fil6 {fill:#283593}
    .fil3 {fill:#3E50B3}
    .fil7 {fill:#F4F4F4}
   ]]>
  </style>
 </defs>
 <g id="Camada_x0020_1">
  <metadata id="CorelCorpID_0Corel-Layer"/>
  <path class="fil0" d="M351.4 134.07c-32.69,21.89 -37.47,23.24 -71.62,51.85 -15.36,12.86 -33.26,31.36 -46.61,46.47 -4.45,5.03 -10.09,14.15 -14.73,17.56 -4.33,-3.17 -13.47,-20.89 -22.33,-30.86 -8.96,-10.08 -18.2,-18.5 -28.96,-26.12 -24.93,-17.65 -99.77,-47.47 -119.13,-33.75 -21.24,15.05 -48.02,81.04 -48.02,117.32 0,36.79 0.6,48.46 17.72,82.95 5.19,10.46 8.49,15.75 15.34,24.55 6.56,8.42 14.49,13.26 20.12,21.67 -5.36,8.01 -13.19,12.85 -19.32,20.57 -4.98,6.27 -11.66,16.7 -15.54,24.35 -11.09,21.85 -16.98,44.39 -18.33,66.87l0 20.34c2.03,34.15 14.18,67.62 34.16,97.73 14.13,21.29 15.73,24.58 55.89,15.94 47.08,-10.13 74.02,-27.24 104.2,-57.25 6.42,-6.38 19.91,-23.87 22.29,-32.79l3.8 0c1.44,5.41 8.66,12.82 12.84,17.56 15.69,17.79 44.08,45.49 63.13,60.33 31.74,24.74 57.37,42.04 95.51,58.34 15.19,6.49 28.81,11.93 45.86,16.82 89.69,25.7 187.1,20.66 271.38,-15.74 20.53,-8.87 40.9,-20.4 59.43,-31.75 23.34,-14.29 45.33,-32.13 64.87,-51 11.3,-10.91 8.3,-4.1 23.02,-22.56 3.64,-4.57 7.06,-7.33 11.24,-11.55 36.9,-37.24 104.91,-139.45 104.91,-180.01 0,-34.74 -77.52,-145.16 -111.59,-179.03 -35.84,-35.63 -31.32,-32.89 -66.67,-60.59l-32.94 -22.14c-18.43,-11.91 -53.93,-28.81 -74.4,-35.77 -9.74,-3.31 -17.4,-6.27 -27.43,-8.66 -27.81,-6.63 -9.25,-16.39 -54.86,-53.41 -27.48,-22.31 -68.7,-38.51 -105.17,-41.09 -60.27,-4.26 -138.93,-0.49 -149.45,64.99 -4.37,27.19 1.39,41.4 1.39,67.88z"/>
  <path class="fil1" d="M670.52 676.98l16.59 -11.05c-6.61,-8.06 -25.04,-23.7 -39.11,-40.14 -7.42,-8.67 -5.72,-11.52 -13.17,-12.12 -31.31,16.87 -47.34,34.21 -99.17,35.37 -43.68,0.98 -74.18,-15.04 -80.81,-54.03 -6.27,-36.93 13.65,-81.48 29.59,-103.74 19.22,-26.85 40.02,-40.64 81.61,-51.92 5.4,-9.79 1.18,-39.34 1.9,-52.72 0.82,-15.31 2.8,-30.93 5.61,-45.53 5.29,-27.52 14.28,-54.57 25.06,-77.55 38.01,-81.02 69.86,-92.57 88.54,-118.07 -6.02,-4.61 -11.44,-5.18 -16.63,-10.86 -26.25,-12.88 -82.27,-20.42 -115.88,-20.54 -42.2,-0.15 -83.66,6.34 -120.72,18.95 -86.15,29.3 -133.22,73.89 -181.38,128.26l-43.62 58.91c-10.42,16.99 -18.76,37.19 -32.19,36.67 -9.88,-0.38 -16.87,-8.13 -15.08,-19.14 1.08,-6.65 21.06,-36.9 26.2,-44.27 6.68,-9.59 9.14,-9.55 3.4,-21.91 -4.02,-8.65 -7.94,-15.16 -12.63,-21.67 -23.87,-33.07 -66.29,-54.64 -113.61,-60.13 -33.66,50.72 -49.14,120.46 -5.93,173.98 6.77,8.38 11.94,13.68 19.62,20.25 6.96,5.95 18.36,8.88 18.49,21.74 0.13,12.88 -9.59,14.62 -17.23,21.08 -22.69,19.19 -38.14,40.73 -44.74,72.91 -10.29,50.21 10.1,89.41 29.44,122.22 54,-5.47 103.63,-34.01 125.48,-79.26 8.64,-17.89 5.13,-10.68 -15.17,-44.07 -4.28,-7.03 -27.33,-37.9 -1.72,-43.45 16.58,-3.6 23.42,16.54 34.79,35.08 9.05,14.75 18.26,27.03 28.24,40.12 5.07,6.66 9.64,11.95 15.36,18.77 74.18,88.41 174.06,149.17 303.02,148.46 31.83,-0.18 91.71,-7.64 115.86,-20.58z"/>
  <path class="fil2" d="M730.6 637.73c8.93,-4.26 22.29,-15.23 29.08,-21.33 10.72,-9.62 17.49,-15.48 26.88,-24.39 34.35,-32.62 121.16,-149.13 121.07,-186.31 -0.07,-27.14 -59.34,-113.45 -72.55,-130.38 -19.6,-25.11 -78.18,-91.81 -104.35,-101.54 -23.19,14.66 -60.99,77.31 -73.92,108.03 -8.89,21.14 -16.12,46.17 -20.28,70.99 -2.59,15.42 -8.85,73.16 -1.46,83.95 5.03,6.84 9.26,2.69 23.31,15.24 27.7,24.74 25.38,57.01 14.77,91.27 -5.02,16.23 -3.24,14.83 4.67,27.96 11.41,18.95 38.54,56.72 52.78,66.51z"/>
  <path class="fil3" d="M560.15 613.14l7.49 -6.43c28.06,-23.75 45.16,-60.86 47.94,-98.42 1.76,-23.8 -4.31,-25.59 -11.14,-40.36 -26.06,-0.12 -49.68,7.1 -68.47,17.9 -18.07,10.39 -29.37,25.3 -38.07,47.41 -25.08,63.74 -11.31,94.64 62.24,79.9z"/>
  <path class="fil4" d="M730.72 173.78c26.17,9.73 84.76,76.43 104.35,101.54 13.2,16.92 72.48,103.24 72.55,130.38 0.09,37.17 -86.72,153.68 -121.07,186.31 -9.39,8.92 -16.16,14.77 -26.88,24.39 -6.79,6.09 -20.15,17.07 -29.08,21.33 2.98,3.59 4.29,4.51 8.29,7.6 30.7,-10.23 97.14,-75.13 118.54,-102.06 17.81,-22.41 82.35,-113.19 82.38,-137.58 0.02,-12.84 -29.6,-61.73 -36.61,-73.1 -25.04,-40.62 -63.52,-88.74 -99.79,-120.53 -11.05,-9.69 -48.82,-40.27 -64.52,-45.88l-8.17 7.62z"/>
  <path class="fil3" d="M383.42 117.69c34.53,-9.75 40.31,-19.96 96.63,-29.92 43.96,-7.78 76.01,-6.01 120.55,-3.3 -8.12,-13.22 -32.19,-29.33 -50.52,-37.02 -39.54,-16.6 -114.69,-21.91 -151.34,-0.95 -22.39,12.81 -17.66,41.5 -15.32,71.19z"/>
  <path class="fil5" d="M566.05 439.35l34.77 -3.96c-0.8,-89.78 9.89,-157.97 61.61,-231.52 15.71,-22.35 40.47,-47.8 44.89,-54.59 -10.14,-6.66 -24.35,-12.15 -36.79,-14.66 5.19,5.68 10.61,6.24 16.63,10.86 -18.69,25.5 -50.54,37.05 -88.54,118.07 -10.78,22.98 -19.76,50.03 -25.06,77.55 -2.81,14.6 -4.78,30.22 -5.61,45.53 -0.72,13.38 3.51,42.93 -1.9,52.72z"/>
  <path class="fil0" d="M780.57 327.13c-62.8,19.44 -32.71,112.11 29.08,92.25 21.14,-6.79 38.73,-30.49 31.31,-58.78 -5.93,-22.59 -30.98,-42.57 -60.39,-33.47z"/>
  <path class="fil6" d="M560.15 613.14c40.58,-6.01 63.39,-29.31 76.22,-61.1 5.06,-12.54 13.64,-41.86 11.38,-56.92 -3.23,-21.53 -20.38,-26.81 -43.31,-27.18 6.82,14.77 12.9,16.56 11.14,40.36 -2.78,37.56 -19.88,74.67 -47.94,98.42l-7.49 6.43z"/>
  <path class="fil5" d="M634.83 613.66c7.45,0.6 5.75,3.45 13.17,12.12 14.06,16.44 32.49,32.08 39.11,40.14l-16.59 11.05c8.35,-1.58 31.08,-9.96 37.14,-14.85 -7.87,-10.15 -19.34,-20.83 -29.03,-32.81 -5.33,-6.59 -8.85,-11.62 -13.88,-18.4 -3.78,-5.09 -8.9,-14.57 -12.96,-18.45 -5.69,7.65 -12,14.18 -16.96,21.2z"/>
  <path class="fil7" d="M786.63 359.84c-19.67,10.05 -2.53,39.52 16.75,26.82 15.3,-10.07 3.38,-37.11 -16.75,-26.82z"/>
 </g>
</svg>
