<?xml version="1.0" encoding="UTF-8"?>
<!DOCTYPE svg PUBLIC "-//W3C//DTD SVG 1.1//EN" "http://www.w3.org/Graphics/SVG/1.1/DTD/svg11.dtd">
<!-- Creator: CorelDRAW -->
<svg xmlns="http://www.w3.org/2000/svg" xml:space="preserve" width="135.485mm" height="101.78mm" version="1.1" style="shape-rendering:geometricPrecision; text-rendering:geometricPrecision; image-rendering:optimizeQuality; fill-rule:evenodd; clip-rule:evenodd"
viewBox="0 0 1699.78 1276.91"
 xmlns:xlink="http://www.w3.org/1999/xlink"
 xmlns:xodm="http://www.corel.com/coreldraw/odm/2003">
 <defs>
  <style type="text/css">
   <![CDATA[
    .fil5 {fill:#FFCC29}
    .fil3 {fill:#FFCC29}
    .fil1 {fill:#F9AA75}
    .fil2 {fill:#F5874F}
    .fil0 {fill:black}
    .fil4 {fill:#283593}
    .fil6 {fill:#F4F4F4}
   ]]>
  </style>
 </defs>
 <g id="Camada_x0020_1">
  <metadata id="CorelCorpID_0Corel-Layer"/>
  <path class="fil0" d="M614.18 234.34c-57.14,38.26 -65.48,40.62 -125.18,90.61 -26.84,22.48 -58.12,54.82 -81.46,81.21 -7.78,8.8 -17.64,24.74 -25.75,30.68 -7.56,-5.54 -23.54,-36.51 -39.03,-53.93 -15.65,-17.61 -31.8,-32.34 -50.62,-45.66 -43.57,-30.84 -174.38,-82.96 -208.21,-58.99 -37.13,26.31 -83.93,141.64 -83.93,205.06 0,64.29 1.05,84.7 30.98,144.97 9.08,18.28 14.83,27.53 26.81,42.91 11.47,14.72 25.32,23.17 35.17,37.87 -9.37,13.99 -23.05,22.47 -33.76,35.96 -8.7,10.96 -20.38,29.2 -27.16,42.56 -19.38,38.18 -29.67,77.58 -32.04,116.88l0 35.55c3.55,59.68 24.79,118.18 59.71,170.82 24.69,37.22 27.49,42.96 97.68,27.86 82.29,-17.7 129.37,-47.62 182.12,-100.07 11.22,-11.16 34.8,-41.73 38.96,-57.32l6.64 0c2.52,9.45 15.14,22.41 22.43,30.68 27.42,31.1 77.04,79.5 110.34,105.45 55.48,43.24 100.26,73.48 166.94,101.98 26.55,11.35 50.35,20.86 80.16,29.4 156.76,44.93 327.01,36.12 474.32,-27.51 35.88,-15.5 71.48,-35.66 103.86,-55.49 40.79,-24.98 79.23,-56.16 113.38,-89.13 19.75,-19.07 14.5,-7.17 40.24,-39.44 6.37,-7.98 12.33,-12.81 19.65,-20.19 64.5,-65.08 183.36,-243.74 183.36,-314.62 0,-60.73 -135.5,-253.71 -195.04,-312.9 -62.65,-62.28 -54.73,-57.48 -116.53,-105.9l-57.58 -38.7c-32.21,-20.82 -94.25,-50.36 -130.04,-62.52 -17.02,-5.78 -30.41,-10.97 -47.94,-15.14 -48.61,-11.59 -16.17,-28.64 -95.88,-93.36 -48.03,-38.99 -120.08,-67.31 -183.82,-71.81 -105.34,-7.44 -242.82,-0.85 -261.21,113.58 -7.64,47.52 2.44,72.36 2.44,118.63z"/>
  <path class="fil1" d="M1171.93 1183.22l28.99 -19.32c-11.55,-14.09 -43.77,-41.43 -68.35,-70.16 -12.97,-15.16 -10,-20.14 -23.02,-21.19 -54.72,29.49 -82.73,59.79 -173.33,61.82 -76.34,1.71 -129.66,-26.29 -141.23,-94.44 -10.97,-64.55 23.86,-142.41 51.71,-181.31 33.59,-46.92 69.95,-71.03 142.64,-90.74 9.45,-17.12 2.06,-68.76 3.32,-92.15 1.44,-26.76 4.89,-54.05 9.8,-79.58 9.25,-48.1 24.95,-95.37 43.8,-135.55 66.43,-141.6 122.1,-161.8 154.76,-206.36 -10.53,-8.07 -19.99,-9.06 -29.07,-18.98 -45.89,-22.51 -143.8,-35.69 -202.53,-35.9 -73.76,-0.26 -146.22,11.08 -211,33.12 -150.58,51.22 -232.84,129.15 -317.02,224.18l-76.24 102.97c-18.21,29.69 -32.79,64.99 -56.25,64.09 -17.27,-0.66 -29.49,-14.22 -26.35,-33.46 1.9,-11.62 36.82,-64.5 45.79,-77.38 11.68,-16.76 15.98,-16.69 5.94,-38.29 -7.03,-15.13 -13.87,-26.5 -22.08,-37.87 -41.72,-57.79 -115.86,-95.5 -198.57,-105.1 -58.84,88.65 -85.89,210.54 -10.36,304.09 11.83,14.65 20.86,23.91 34.29,35.39 12.17,10.41 32.09,15.52 32.31,38 0.22,22.51 -16.77,25.56 -30.11,36.85 -39.65,33.55 -66.66,71.19 -78.19,127.43 -17.99,87.75 17.65,156.26 51.45,213.62 94.38,-9.57 181.13,-59.45 219.31,-138.54 15.1,-31.27 8.96,-18.67 -26.52,-77.03 -7.47,-12.29 -47.77,-66.24 -3.01,-75.95 28.97,-6.29 40.93,28.91 60.81,61.31 15.82,25.77 31.91,47.24 49.35,70.13 8.87,11.64 16.85,20.89 26.85,32.81 129.65,154.52 304.22,260.72 529.63,259.48 55.64,-0.31 160.29,-13.36 202.5,-35.97z"/>
  <path class="fil2" d="M1276.93 1114.62c15.61,-7.44 38.96,-26.63 50.82,-37.27 18.73,-16.82 30.57,-27.05 46.98,-42.63 60.04,-57.02 211.76,-260.65 211.61,-325.62 -0.11,-47.43 -103.72,-198.3 -126.8,-227.87 -34.25,-43.89 -136.65,-160.46 -182.39,-177.47 -40.54,25.63 -106.61,135.12 -129.19,188.82 -15.54,36.95 -28.17,80.69 -35.44,124.07 -4.52,26.95 -15.47,127.86 -2.56,146.72 8.79,11.96 16.19,4.7 40.75,26.63 48.42,43.24 44.35,99.64 25.82,159.52 -8.78,28.37 -5.65,25.92 8.16,48.87 19.94,33.13 67.35,99.14 92.25,116.24z"/>
  <path class="fil2" d="M979.04 1071.65l13.09 -11.24c49.04,-41.51 78.93,-106.36 83.78,-172.01 3.08,-41.6 -7.53,-44.73 -19.46,-70.54 -45.55,-0.21 -86.83,12.41 -119.67,31.29 -31.58,18.16 -51.33,44.22 -66.54,82.87 -43.83,111.41 -19.77,165.41 108.79,139.64z"/>
  <path class="fil1" d="M1277.15 303.74c45.74,17.01 148.14,133.59 182.39,177.47 23.08,29.58 126.69,180.44 126.8,227.87 0.16,64.97 -151.56,268.61 -211.61,325.62 -16.41,15.58 -28.25,25.82 -46.98,42.63 -11.86,10.65 -35.21,29.83 -50.82,37.27 5.21,6.28 7.49,7.88 14.5,13.28 53.65,-17.89 169.78,-131.32 207.19,-178.39 31.13,-39.17 143.93,-197.83 143.99,-240.45 0.03,-22.44 -51.73,-107.88 -63.99,-127.77 -43.77,-70.99 -111.01,-155.1 -174.41,-210.66 -19.32,-16.94 -85.32,-70.38 -112.78,-80.2l-14.28 13.31z"/>
  <path class="fil2" d="M670.13 205.7c60.34,-17.05 70.45,-34.88 168.88,-52.3 76.83,-13.59 132.84,-10.51 210.7,-5.76 -14.19,-23.1 -56.26,-51.26 -88.3,-64.71 -69.11,-29.01 -200.46,-38.3 -264.51,-1.65 -39.14,22.39 -30.87,72.53 -26.78,124.42z"/>
  <path class="fil3" d="M989.34 767.89l60.78 -6.93c-1.4,-156.92 17.29,-276.1 107.67,-404.66 27.46,-39.06 70.74,-83.54 78.45,-95.41 -17.72,-11.64 -42.55,-21.23 -64.31,-25.62 9.08,9.92 18.54,10.91 29.07,18.98 -32.66,44.57 -88.33,64.76 -154.76,206.36 -18.85,40.17 -34.54,87.45 -43.8,135.55 -4.91,25.52 -8.36,52.82 -9.8,79.58 -1.26,23.39 6.13,75.03 -3.32,92.15z"/>
  <path class="fil0" d="M1364.28 571.77c-109.77,33.97 -57.16,195.94 50.82,161.23 36.94,-11.87 67.69,-53.3 54.72,-102.74 -10.36,-39.48 -54.15,-74.4 -105.55,-58.49z"/>
  <path class="fil4" d="M979.04 1071.65c70.92,-10.5 110.79,-51.23 133.22,-106.8 8.85,-21.92 23.84,-73.15 19.89,-99.49 -5.64,-37.63 -35.62,-46.85 -75.69,-47.51 11.93,25.81 22.54,28.94 19.46,70.54 -4.86,65.65 -34.74,130.5 -83.78,172.01l-13.09 11.24z"/>
  <path class="fil5" d="M1109.56 1072.56c13.02,1.05 10.05,6.03 23.02,21.19 24.58,28.73 56.79,56.07 68.35,70.16l-28.99 19.32c14.59,-2.76 54.32,-17.41 64.91,-25.96 -13.76,-17.75 -33.81,-36.41 -50.74,-57.35 -9.31,-11.52 -15.46,-20.32 -24.25,-32.16 -6.6,-8.9 -15.56,-25.47 -22.64,-32.26 -9.94,13.38 -20.97,24.79 -29.65,37.06z"/>
  <path class="fil6" d="M1374.86 628.93c-34.38,17.57 -4.42,69.07 29.28,46.88 26.75,-17.61 5.91,-64.86 -29.28,-46.88z"/>
 </g>
</svg>
