<?xml version="1.0" encoding="UTF-8"?>
<!DOCTYPE svg PUBLIC "-//W3C//DTD SVG 1.1//EN" "http://www.w3.org/Graphics/SVG/1.1/DTD/svg11.dtd">
<!-- Creator: CorelDRAW -->
<svg xmlns="http://www.w3.org/2000/svg" xml:space="preserve" width="14.3626mm" height="16mm" version="1.1" style="shape-rendering:geometricPrecision; text-rendering:geometricPrecision; image-rendering:optimizeQuality; fill-rule:evenodd; clip-rule:evenodd"
viewBox="0 0 31.97 35.62"
 xmlns:xlink="http://www.w3.org/1999/xlink"
 xmlns:xodm="http://www.corel.com/coreldraw/odm/2003">
 <defs>
  <style type="text/css">
   <![CDATA[
    .fil1 {fill:black}
    .fil2 {fill:#86DB5F}
    .fil0 {fill:#FB4747}
   ]]>
  </style>
 </defs>
 <g id="Camada_x0020_1">
  <metadata id="CorelCorpID_0Corel-Layer"/>
  <g id="_1433406594144">
   <path class="fil0" d="M3.58 12.67c-0.13,0.22 -0.05,0.18 -0.28,0.33 0.14,0.27 0.45,0.55 0.17,1 -0.22,0.35 -0.58,0.32 -1,0.24 -0.19,0.38 -0.36,0.69 -0.56,1.05 0.13,0.22 0.37,0.24 0.4,0.64 0.04,0.49 -1.32,3.09 -0.82,6.31 1.52,9.82 13.54,15.71 22.88,9.25l1.44 -1.14c3.27,-2.82 5.26,-6.93 4.56,-11.38 -0.15,-0.96 -0.26,-1.02 0.39,-1.53 0.02,-0.25 -0.03,-0.26 -0.05,-0.49 -0.46,-0.02 -0.8,-0.06 -0.93,-0.46 -0.16,-0.5 0.2,-0.68 0.38,-0.93 -0.08,-0.15 -0.11,-0.27 -0.19,-0.44 -0.09,-0.19 -0.15,-0.31 -0.23,-0.48 -0.69,0.14 -0.81,-0.02 -1.11,-0.47 -0.25,-0.38 -0.44,-0.67 -0.72,-1.02 -0.27,-0.34 -0.51,-0.68 -0.8,-0.94 -0.68,-0.6 -2.1,-1.95 -3.08,-2.01 -0.28,-0.02 -1.19,0.71 -2.44,0.98 0.05,0.5 0.25,0.97 0.3,1.59 0.05,0.61 0.02,1.23 -0.08,1.81 -0.5,2.83 -1.25,2.12 -3.77,0.29 -0.58,-0.43 -1.42,-1.24 -1.78,-1.88 -1.03,0.31 -2.42,1.12 -3.27,1.75 -0.36,0.27 -0.56,0.57 -0.85,0.82 -0.92,0.8 -1.36,-0.62 -1.57,-1.35 -0.35,-1.25 -0.17,-1.76 -0.02,-2.96 -2.06,-0.4 -2.1,-1.11 -2.87,-0.83 -0.91,0.34 -1.71,0.96 -2.41,1.56 -1,0.87 -0.85,1.02 -1.7,0.68z"/>
   <path class="fil1" d="M3.58 12.67c0.85,0.34 0.7,0.18 1.7,-0.68 0.69,-0.6 1.5,-1.23 2.41,-1.56 0.76,-0.28 0.81,0.43 2.87,0.83 -0.15,1.2 -0.33,1.71 0.02,2.96 0.2,0.73 0.64,2.16 1.57,1.35 0.29,-0.25 0.48,-0.55 0.85,-0.82 0.85,-0.63 2.24,-1.44 3.27,-1.75 0.36,0.64 1.2,1.46 1.78,1.88 2.52,1.84 3.26,2.54 3.77,-0.29 0.1,-0.58 0.13,-1.21 0.08,-1.81 -0.05,-0.62 -0.25,-1.09 -0.3,-1.59 1.25,-0.28 2.15,-1 2.44,-0.98 0.98,0.06 2.4,1.41 3.08,2.01 0.3,0.26 0.53,0.6 0.8,0.94 0.28,0.35 0.47,0.64 0.72,1.02 0.3,0.45 0.43,0.62 1.11,0.47 0.37,-0.48 0.64,-0.55 -0.26,-1.74 -0.68,-0.9 -1.71,-2.16 -2.63,-2.79 -1.03,-0.71 -0.66,-0.46 -1.7,-1.01 0.4,-0.6 1.26,-1.57 0.69,-2.16 -0.28,-0.29 -0.85,-0.25 -1.39,-0.28 -0.48,-0.03 -0.98,-0.16 -1.4,-0.27 -1.49,-0.39 -2.53,-0.86 -4.12,-0.23 -0.37,0.15 -0.85,0.44 -1.16,0.51 -0.01,-0.14 -0.31,-1.2 -0.4,-1.9 -0.1,-0.78 -0.02,-1.39 0.16,-2.1 0.45,-1.77 -0.41,-2.59 -1.36,-2.69l-0.4 0c-0.27,0.03 -0.53,0.11 -0.75,0.24 -1.37,0.78 -1.69,2.64 -1.7,4.15 -0,0.35 0.13,1.98 0.21,2.16 -0.73,-0.02 -0.69,-0.41 -2.72,-0.22 -0.95,0.09 -1.76,0.29 -2.69,0.44 -1.36,0.23 -2.21,-0.11 -2.48,0.58 -0.19,0.49 0.37,1.17 0.67,1.53 0.15,0.18 0.27,0.24 0.4,0.44 -0.7,0.37 -1.48,0.78 -2.07,1.34 -0.85,0.8 -1.59,1.11 -1.06,2.01z"/>
   <path class="fil1" d="M30.77 17.46c-0.65,0.51 -0.53,0.57 -0.39,1.53 0.69,4.46 -1.29,8.57 -4.56,11.38l-1.44 1.14c-9.34,6.46 -21.36,0.57 -22.88,-9.25 -0.5,-3.23 0.86,-5.82 0.82,-6.31 -0.03,-0.4 -0.28,-0.42 -0.4,-0.64 -0.96,0 -0.84,0.27 -1.18,1.11 -0.64,1.6 -0.89,4.31 -0.64,5.99 0.24,1.63 0.9,3.79 1.76,5.12 1.61,2.48 3,4.14 5.7,5.77 1.81,1.09 3.79,1.84 5.92,2.15 0.56,0.08 1.12,0.13 1.68,0.16l1.44 0c2.01,-0.09 3.97,-0.55 5.72,-1.37 1.4,-0.66 3.1,-1.57 4.24,-2.65 1.1,-1.05 1.78,-1.57 2.74,-2.97 0.18,-0.26 0.31,-0.42 0.49,-0.7 1.02,-1.66 1.97,-3.92 2.11,-5.89l0.08 -1.11c0.01,-0.42 -0.18,-2.71 -0.38,-3.1 -0.16,-0.3 -0.38,-0.38 -0.82,-0.38z"/>
   <path class="fil2" d="M7.72 8.24c0.25,0.7 2.44,1.54 3.43,1.73 1.02,0.19 1.1,0.45 0.82,1.47 -0.27,0.97 -0.2,1.4 -0.08,2.36l2.19 -1.36c0.36,-0.19 2.11,-1 2.51,-0.97 0.46,0.03 0.67,0.56 0.89,0.86 0.6,0.83 2.12,2.15 2.87,2.4 0.26,-0.65 0.21,-1.97 0.03,-2.66 -0.19,-0.68 -1.09,-1.58 -0.15,-1.97 0.67,-0.28 2.12,-0.19 3.59,-1.63 0.14,-0.14 0.2,-0.26 0.33,-0.38 -0.38,-0.14 -1.02,-0.22 -1.46,-0.34 -0.45,-0.12 -0.96,-0.28 -1.42,-0.38 -1.42,-0.32 -1.9,0.22 -2.87,0.61 0.12,0.4 0.46,0.82 0.18,1.23 -0.26,0.39 -0.85,0.36 -1.09,0.06 -0.23,-0.28 -0.87,-1.78 -1.03,-2.24 -1.18,-3.35 0.01,-4.65 -0.25,-5.59 -2.03,-0.4 -1.42,5.13 -0.95,6.65 0.18,0.6 0.79,1.71 0.41,2.17 -0.22,0.27 -0.68,0.36 -0.98,0.07 -0.36,-0.34 -0.72,-1.89 -0.86,-2.06 -0.17,-0.21 -0.7,-0.35 -1.02,-0.44 -1.52,-0.41 -3.49,0.21 -5.08,0.41z"/>
   <path class="fil1" d="M23.38 29.02c-0.54,0.22 -0.88,0.59 -1.37,0.89 -0.5,0.3 -0.91,0.51 -1.49,0.81 -0.41,0.21 -1.28,0.42 -1.53,0.7 -0.48,0.52 0.03,1.29 0.75,1.1 1.07,-0.28 3.72,-1.69 4.35,-2.4 0.45,-0.51 -0.03,-1.37 -0.71,-1.09z"/>
   <path class="fil1" d="M30.71 16.97c0.23,-0.19 0.56,-0.42 0.39,-0.94 -0.05,-0.15 -0.21,-0.31 -0.32,-0.38 -0.22,-0.12 -0.3,-0.08 -0.61,-0.08 -0.18,0.25 -0.54,0.43 -0.38,0.93 0.13,0.4 0.46,0.44 0.93,0.46z"/>
   <path class="fil1" d="M2.47 14.25c0.42,0.09 0.78,0.12 1,-0.24 0.28,-0.45 -0.03,-0.73 -0.17,-1 -0.44,-0.04 -0.78,-0.13 -1,0.25 -0.29,0.49 -0.03,0.72 0.17,0.99z"/>
   <path class="fil1" d="M17.41 31.69c-0.88,0.25 -0.54,1.53 0.33,1.32 0.83,-0.19 0.57,-1.58 -0.33,-1.32z"/>
  </g>
 </g>
</svg>
