<?xml version="1.0" encoding="UTF-8"?>
<!DOCTYPE svg PUBLIC "-//W3C//DTD SVG 1.1//EN" "http://www.w3.org/Graphics/SVG/1.1/DTD/svg11.dtd">
<!-- Creator: CorelDRAW -->
<svg xmlns="http://www.w3.org/2000/svg" xml:space="preserve" width="16mm" height="13.5759mm" version="1.1" style="shape-rendering:geometricPrecision; text-rendering:geometricPrecision; image-rendering:optimizeQuality; fill-rule:evenodd; clip-rule:evenodd"
viewBox="0 0 38.12 32.35"
 xmlns:xlink="http://www.w3.org/1999/xlink"
 xmlns:xodm="http://www.corel.com/coreldraw/odm/2003">
 <defs>
  <style type="text/css">
   <![CDATA[
    .str1 {stroke:#3ABA55;stroke-width:0.48;stroke-miterlimit:22.9256}
    .str3 {stroke:#734DA9;stroke-width:0.48;stroke-miterlimit:22.9256}
    .str2 {stroke:#92603E;stroke-width:0.48;stroke-miterlimit:22.9256}
    .str0 {stroke:#A98CD7;stroke-width:0.48;stroke-miterlimit:22.9256}
    .fil0 {fill:black}
    .fil8 {fill:#30A944}
    .fil5 {fill:#3ABA55}
    .fil4 {fill:#553788}
    .fil2 {fill:#734DA9}
    .fil10 {fill:#734DA9}
    .fil6 {fill:#7E563C}
    .fil3 {fill:#9165CA}
    .fil9 {fill:#92603E}
    .fil7 {fill:#987FC9}
    .fil1 {fill:#A98CD7}
   ]]>
  </style>
 </defs>
 <g id="Camada_x0020_1">
  <metadata id="CorelCorpID_0Corel-Layer"/>
  <g id="_1433413198560">
   <path class="fil0" d="M10.27 8.95c-0.67,-0.02 -1.49,-0.44 -3.65,-0.15 -0.95,0.13 -5.85,1.33 -4.16,3.11 0.65,0.69 1.36,1.35 2.22,1.8 -0.12,0.18 -0.23,0.27 -0.39,0.43 -0.65,0.64 -1.33,1.72 -1.79,2.53 -0.25,0.44 -0.42,0.85 -0.11,1.35 0.45,0.75 2.22,0.66 2.67,0.76 0.49,0.1 0.08,0.26 -0.11,1.16 -0.95,4.55 4.28,7.6 7.69,5.01 0.19,-0.14 0.29,-0.3 0.53,-0.36 0.16,1.98 3.18,4.92 6.8,3.37 1.57,-0.67 1.13,-1.29 1.35,-0.13 0.17,0.87 0.88,2.12 1.48,2.62 0.3,0.25 0.47,0.4 0.81,0.6 0.73,0.44 1.45,0.83 1.76,0.09 0.03,-1.03 -1.03,-0.46 -2.2,-1.96 -0.67,-0.86 -0.97,-2.06 -0.67,-3.38 0.69,0.03 1.07,0.19 1.88,0.13 1.77,-0.22 3.04,-1.23 3.65,-2.32 1.16,0.45 2.27,2.34 1.76,4.19 -0.24,0.89 -0.68,1.44 -1.17,1.89 -0.99,0.92 -1.73,0.48 -1.72,1.42l0.01 0.02c0.03,0.14 -0.04,-0.01 0.05,0.14 0.37,0.65 1.45,-0.05 1.87,-0.33 0.21,-0.14 0.43,-0.35 0.64,-0.4 0.12,0.44 1.12,1.09 1.54,1.29 3.2,1.55 6.88,-0.62 7.1,-4.05l0 -0.65c-0.03,-0.46 -0.12,-0.95 -0.29,-1.45 -0.53,-1.6 -1.73,-2.27 -2.91,-2.89 0.65,-1.35 0.3,-3.53 -0.8,-4.78 -0.74,-0.84 -1.47,-1.43 -2.68,-1.71 -1.77,-0.42 -2.55,0.2 -3.07,0.24 0.01,-0.66 0.49,-1.4 -0.3,-1.6 -1.03,0.05 -0.37,0.9 -1.28,2.18 -1.13,-0.53 -1.92,-1.2 -3.84,-0.85 -0.49,0.09 -0.8,0.28 -1.21,0.36 -0.3,-0.93 -0.67,-1.15 -0.78,-1.51 -0.31,-0.19 -0.31,-0.24 -0.53,-0.47 -0.2,-0.2 -0.3,-0.23 -0.49,-0.37 0.25,-1.49 1.52,-2.71 3.06,-2.93 0.98,-0.25 2.1,0.13 2.76,0.57 0.31,0.21 0.67,0.58 0.9,0.89 0.32,0.43 0.42,0.75 1.11,0.52 0.62,-0.81 -0.59,-1.45 -0.67,-1.77l0.41 -1.22c0.56,-2.19 -0.62,-4.6 -2.57,-5.55 -0.92,-0.45 -1.48,-0.52 -2.83,-0.52 0,-1.03 -0.07,-1.85 -0.27,-2.71 -0.18,-0.77 -0.4,-1.68 -1.44,-1.53 -0.45,0.06 -1.5,0.86 -1.86,1.12 -0.33,0.24 -0.47,0.44 -0.79,0.7 -0.31,0.26 -0.47,0.56 -0.79,0.78 -0.31,-0.23 -2.71,-4.08 -3.79,-1.41 -0.18,0.45 -0.37,0.8 -0.52,1.26 -0.47,1.41 -0.58,2.41 -0.53,3.94 0.01,0.38 0.08,0.46 0.08,0.89 -0.24,-0.16 -0.36,-0.35 -0.58,-0.54l-1.88 -1.47c-1.1,-0.77 -1.63,-1.05 -2.76,-1.71 -1.09,-0.64 -3.52,-1.59 -4.79,-1.91 -2.22,-0.56 -1.96,1.16 -2.1,2.09 -0.06,0.38 -0.16,1.76 -0.06,2.09 0.09,0.3 0.26,0.49 0.5,0.62 0.63,0.34 1.14,0.09 1.99,0.09 1.68,-0 3.16,0.38 4.7,0.89 0.92,0.3 1.86,0.76 2.7,1.25l0.35 0.25z"/>
   <path class="fil1 str0" d="M23.15 17.37c-0.21,0.23 -0.27,0.22 -0.45,0.37 -1.95,1.6 -2.15,4.65 -0.33,6.45l0.68 0.5c0.02,0.01 0.04,0.03 0.06,0.03l0.12 0.08c2.5,0.56 4.45,-1.48 4.4,-3.79 -0.03,-1.33 -0.62,-2.29 -1.3,-2.87 -0.7,-0.59 -1.99,-1.07 -3.17,-0.78z"/>
   <path class="fil2" d="M12.28 18.86c-1.86,0.03 -2.61,-0.35 -3.86,-1.4 -3.06,0.96 -3.38,5.97 0.18,7.09 1.91,0.6 3.5,-0.34 4.27,-1.4 0.3,-0.41 0.24,-0.58 0.41,-1.09 0.22,-0.7 0.26,-0.49 -0.13,-1.01 -0.45,-0.6 -0.71,-1.33 -0.86,-2.19z"/>
   <path class="fil2" d="M31 25.95c-0.08,2.48 0.29,1.27 -0.8,3.7 1.41,2.1 4.53,2.05 6.08,0.02 1.68,-2.19 0.21,-5.28 -1.89,-5.82 -0.37,0.29 -0.48,0.72 -1.4,1.34 -0.57,0.38 -1.22,0.62 -2,0.75z"/>
   <path class="fil1 str0" d="M16.23 14.61c-0.33,0.34 -0.5,0.41 -0.77,0.72 -0.22,0.25 -0.39,0.47 -0.56,0.78 -0.76,1.4 -0.77,2.96 0.02,4.34 0.2,0.34 0.33,0.5 0.58,0.76 0.21,0.22 0.53,0.45 0.72,0.69 0.73,0.33 2.2,0.05 2.75,-0.37 0.08,-1.11 -0.01,-1.54 0.47,-2.51 0.37,-0.75 0.79,-1.31 1.34,-1.7 -0.46,-2.24 -3.18,-3.33 -4.56,-2.71z"/>
   <path class="fil3" d="M29.53 17.39c-0.14,0.19 -0.54,0.47 -0.75,0.68 -0.16,0.16 -0.2,0.19 -0.32,0.35 -0.18,0.24 -0.2,0.21 -0.13,0.48 0.08,0.84 0.8,1.54 0.22,3.64 0.61,0.58 1.05,0.58 1.71,1.64 0.12,0.19 0.23,0.5 0.42,0.67 1.99,-0.2 3.7,-1.99 3.39,-4.24 -0.29,-2.12 -2.09,-3.57 -4.54,-3.22z"/>
   <path class="fil3" d="M11.02 10.3c-0.6,0.58 -0.95,0.72 -1.38,1.51 -0.35,0.63 -0.57,1.35 -0.57,2.19 0.01,1.78 0.93,2.91 2.03,3.64l1.18 0.11c0.34,-2.21 1.34,-3.28 3.32,-4.16 -0.03,-2 -2.31,-3.87 -4.58,-3.3z"/>
   <path class="fil3" d="M24.39 25.93c-0.08,0.06 0.06,0.03 -0.19,0.11 -0.28,0.09 -0.45,0.02 -0.76,0.03 -0.35,2.56 1.28,4.81 3.49,5.05 -0.02,-0.94 0.73,-0.5 1.72,-1.42 0.48,-0.45 0.92,-1 1.17,-1.89 0.51,-1.85 -0.6,-3.74 -1.76,-4.19 -0.61,1.09 -1.88,2.09 -3.65,2.32z"/>
   <path class="fil4" d="M13.9 9.47c0.22,0.17 0.44,0.23 1,0.67 0.45,0.36 0.5,0.43 0.85,0.87 0.25,0.31 0.43,0.61 0.61,1.03 0.18,0.41 0.25,0.97 0.4,1.31 0.38,0.04 0.72,0.01 1.11,0.07 0.38,0.06 0.72,0.2 1.05,0.23 0.54,-0.92 0.43,-1.34 1.52,-2.29 0.27,-0.24 0.46,-0.32 0.72,-0.55 0.1,-1.87 -1.41,-3.33 -2.95,-3.68 -2.03,-0.46 -3.91,0.97 -4.31,2.34z"/>
   <path class="fil3" d="M23 11.35l-0.18 0.09c-0.02,0.01 -0.04,0.02 -0.06,0.03 -0.02,0.01 -0.04,0.02 -0.05,0.03 -0.12,0.07 -0.11,0.06 -0.21,0.14 -0.17,0.13 -0.26,0.21 -0.39,0.36 -0.66,0.7 -1.53,2.24 -1.14,3.12 0.12,0.36 0.48,0.59 0.78,1.51 0.41,-0.08 0.72,-0.27 1.21,-0.36 1.91,-0.36 2.71,0.32 3.84,0.85 0.9,-1.27 0.25,-2.13 1.28,-2.18 0,-0.41 0.01,-0.54 -0.07,-0.86 -0.03,-0.14 -0.05,-0.2 -0.09,-0.35 -0.05,-0.17 -0.09,-0.19 -0.13,-0.4 -0.69,0.24 -0.78,-0.09 -1.11,-0.52 -0.23,-0.31 -0.59,-0.68 -0.9,-0.89 -0.66,-0.44 -1.78,-0.83 -2.76,-0.57z"/>
   <path class="fil2" d="M21.27 25.26c-0.14,-0.2 -0.43,-0.34 -0.61,-0.48 -0.54,-0.41 -1.15,-1.39 -1.37,-2.07 -0.39,0.07 -0.72,0.26 -1.16,0.35 -1.31,0.26 -2.55,-0.03 -3.63,-0.66 -0.87,1.4 0.06,3.71 1.92,4.54 2.03,0.91 4.23,-0.25 4.85,-1.67z"/>
   <path class="fil2" d="M19.97 6.64c0.11,0.08 0.3,0.2 0.42,0.3 0.16,0.13 0.27,0.24 0.39,0.36 1.02,0.95 1.18,1.77 1.5,3.04 0.74,-0.14 1.25,-0.24 2.05,-0.12 0.85,0.12 1.16,0.37 1.82,0.61 0.32,-0.99 0.54,-1.66 0.17,-2.81 -0.94,-2.87 -4.58,-3.42 -6.36,-1.37z"/>
   <path class="fil5 str1" d="M15.11 2.25c-0.19,-0.13 -0.19,0.05 -0.28,0.32 -0.2,0.62 -0.31,1 -0.41,1.68 -0.09,0.6 -0.28,2.16 0.05,2.62 1.83,-1.21 2.8,-0.95 4.48,-0.72 0.66,-1.02 1.59,-1.26 2,-1.56 0.04,-0.95 -0.02,-2.58 -0.4,-3.37 -1.95,0.58 -3.02,3.74 -4.32,2.31l-0.79 -1c-0.13,-0.17 -0.14,-0.25 -0.32,-0.27z"/>
   <path class="fil6" d="M7.65 5.28c-0.14,0.12 -0.04,0.09 -0.64,-0.13l-2.2 -0.55c-1.25,-0.21 -2.16,-0.24 -3.47,-0.14l-0.04 -0.36c-0.01,0.02 -0.02,0.03 -0.02,0.06l-0.13 1.36c3.37,-0.08 5.33,0.18 8.28,1.63l2.2 1.22c-0.48,-0.65 -2.98,-2.59 -3.96,-3.08z"/>
   <path class="fil5 str1" d="M5.51 10.23c-1.09,0.77 -2.05,0.64 0.42,2.55 0.24,0.19 0.84,0.6 1.07,0.69 0.12,-1.32 1.08,-3.08 2.05,-3.44 -0.52,-0.47 -3.1,-0.03 -3.55,0.21z"/>
   <path class="fil7" d="M23.23 24.8l-0.12 -0.08c-0.01,-0.01 -0.04,-0.02 -0.06,-0.03l-0.68 -0.5c-1.81,-1.8 -1.61,-4.85 0.33,-6.45 0.18,-0.15 0.24,-0.14 0.45,-0.37 -3.94,0.6 -4.13,6.93 0.07,7.43z"/>
   <path class="fil8" d="M4.5 17.6c-0.02,-1.16 2.11,-3.24 2.32,-3.56l0.16 0.34 0.02 -0.92c-0.24,-0.09 -0.83,-0.5 -1.07,-0.69 -2.47,-1.9 -1.51,-1.77 -0.42,-2.55 -0.74,0.16 -1.59,0.61 -2.15,0.94 0.86,1.33 3.07,1.66 2.45,3 -0.18,0.38 -1.86,1.76 -2.38,3.26l1.07 0.18z"/>
   <path class="fil2" d="M11.09 17.65c-1.1,-0.73 -2.02,-1.86 -2.03,-3.64 -0.01,-0.84 0.22,-1.56 0.57,-2.19 0.43,-0.79 0.79,-0.94 1.38,-1.51 -1.59,0.24 -2.96,1.86 -2.94,3.71 0.02,1.82 1.43,3.44 3.02,3.64z"/>
   <path class="fil5 str1" d="M4.5 17.6c0.28,0.05 0.63,0.07 0.93,0.08 0.52,0.01 0.65,0.07 0.93,-0.21 0.41,-0.39 0.7,-0.67 1.3,-0.92 -0.33,-0.86 -0.53,-1.06 -0.69,-2.17l-0.16 -0.34c-0.2,0.32 -2.34,2.4 -2.32,3.56z"/>
   <path class="fil7" d="M16.23 21.9c-0.19,-0.24 -0.51,-0.48 -0.72,-0.69 -0.25,-0.26 -0.39,-0.42 -0.58,-0.76 -0.8,-1.39 -0.78,-2.94 -0.02,-4.34 0.17,-0.31 0.34,-0.53 0.56,-0.78 0.27,-0.31 0.44,-0.37 0.77,-0.72 -1.53,0.29 -2.85,1.81 -2.87,3.64 -0.02,1.85 1.37,3.32 2.87,3.65z"/>
   <path class="fil8" d="M14.47 6.87c-0.33,-0.46 -0.14,-2.02 -0.05,-2.62 0.1,-0.68 0.22,-1.05 0.41,-1.68 0.09,-0.27 0.08,-0.45 0.28,-0.32 -0.28,-0.4 -0.39,-0.48 -0.74,-0.75 -0.76,0.77 -1.65,4.98 -0.82,6.26 0.14,-0.14 0.3,-0.29 0.45,-0.44l0.47 -0.45z"/>
   <path class="fil9 str2" d="M1.28 4.09l0.04 0.36c1.31,-0.1 2.23,-0.08 3.47,0.14l2.2 0.55c0.6,0.23 0.5,0.26 0.64,0.13 -0.72,-0.59 -5.03,-2.59 -6.28,-2.56 -0.09,0.42 -0.18,0.98 -0.08,1.37z"/>
   <path class="fil10 str3" d="M25.37 31.14c0.51,0.01 1.01,0.19 1.55,0l-0.01 -0.02c-2.21,-0.25 -3.84,-2.49 -3.49,-5.05 0.31,-0 0.48,0.06 0.76,-0.03 0.25,-0.08 0.11,-0.04 0.19,-0.11 -0.81,0.06 -1.19,-0.09 -1.88,-0.13 -0.31,1.32 -0.01,2.51 0.67,3.38 1.17,1.5 2.23,0.92 2.2,1.96z"/>
   <path class="fil10 str3" d="M20.96 15.11c-0.39,-0.88 0.49,-2.42 1.14,-3.12 0.14,-0.15 0.22,-0.22 0.39,-0.36 0.1,-0.08 0.09,-0.08 0.21,-0.14 0.02,-0.01 0.04,-0.02 0.05,-0.03 0.02,-0.01 0.04,-0.02 0.06,-0.03l0.18 -0.09c-1.54,0.22 -2.81,1.44 -3.06,2.93 0.19,0.13 0.29,0.17 0.49,0.37 0.22,0.22 0.22,0.28 0.53,0.47z"/>
   <path class="fil2" d="M28.33 18.9c-0.07,-0.27 -0.05,-0.24 0.13,-0.48 0.12,-0.16 0.16,-0.19 0.32,-0.35 0.21,-0.21 0.61,-0.5 0.75,-0.68 -0.61,0.14 -1.34,0.47 -1.65,0.81 0.12,0.24 0.24,0.54 0.45,0.7z"/>
  </g>
 </g>
</svg>
